<?xml version="1.0" encoding="utf-8"?>
<!-- Generator: Adobe Illustrator 24.3.0, SVG Export Plug-In . SVG Version: 6.00 Build 0)  -->
<svg version="1.1" id="Layer_1" xmlns="http://www.w3.org/2000/svg" xmlns:xlink="http://www.w3.org/1999/xlink" x="0px" y="0px"
	 viewBox="0 0 500 500" style="enable-background:new 0 0 500 500;" width="500" height="500" xml:space="preserve">
<style type="text/css">
	.st0{fill:#FFFFFF;}
	.st1{fill:#242525;}
	.st2{fill:#63797D;}
</style>
<g>
	<circle class="st0" cx="250.4" cy="248.4" r="215.2"/>
	<g>
		<path class="st1" d="M160.9,454c-9.5-4.1-18.7-8.9-27.5-14.4c-11.8-7.3-22.8-15.6-33.1-24.9c-12.9-11.7-24.2-24.7-34.1-39.1
			c-5.9-8.6-11.2-17.6-15.8-27c-3.4-6.8-6.4-13.8-9.1-21c-3.4-9.1-6.2-18.4-8.4-27.9c-1.8-7.7-3.1-15.4-4-23.2
			c-0.8-6.5-1.3-13-1.4-19.6c-0.1-3.4-0.2-6.8-0.1-10.2c0.1-6.1,0.4-12.2,1-18.3c0.6-6.2,1.5-12.3,2.5-18.4
			c1.8-10,4.3-19.8,7.4-29.4c2.4-7.2,5.1-14.3,8.2-21.3c4.3-9.6,9.2-18.8,14.8-27.7c4.3-6.8,9-13.4,14-19.8
			c4.6-5.8,9.4-11.3,14.5-16.6c8.4-8.7,17.3-16.6,27-23.8c10.1-7.5,20.8-14.2,32-19.9c8.3-4.2,16.8-7.9,25.5-11.1
			c7.9-2.9,15.9-5.2,24-7.2c6.4-1.6,12.9-2.7,19.5-3.7c7.9-1.2,15.9-1.9,23.9-2.2c3.9-0.1,7.8-0.2,11.7-0.2
			c7.3,0.1,14.6,0.6,21.9,1.4c7.4,0.9,14.8,2,22.1,3.6c7.9,1.7,15.8,3.9,23.5,6.5c9.3,3.1,18.3,6.8,27.1,11.1
			c13.7,6.7,26.5,14.7,38.5,24c6.3,4.9,12.4,10.1,18.1,15.7c10.9,10.6,20.7,22.1,29.3,34.7c5.9,8.6,11.2,17.6,15.8,27
			c4.9,9.9,9.1,20.2,12.4,30.8c2.3,7.1,4.2,14.4,5.7,21.7c1.4,6.7,2.5,13.5,3.3,20.4c0.7,6.2,1.2,12.3,1.3,18.5
			c0.1,3.5,0.2,6.9,0.1,10.4c-0.1,5.4-0.4,10.8-0.8,16.2c-0.5,5.7-1.2,11.4-2.1,17.1c-1,6.3-2.4,12.6-4,18.9
			c-2.2,8.7-5,17.2-8.2,25.6c-2.7,6.9-5.7,13.6-9.1,20.2c-4.5,8.8-9.6,17.4-15.3,25.5c-6.4,9.3-13.5,18-21.3,26.2
			c-11,11.6-23.1,22-36.4,31c-7.7,5.2-15.6,10-23.9,14.2c-8.3,4.3-16.8,8-25.6,11.1c-6.7,2.4-13.5,4.5-20.4,6.3
			c-5.9,1.5-11.9,2.9-17.9,3.8c-5,0.8-10.1,1.4-15.1,2c-4.6,0.5-9.3,0.8-13.9,1c-5.1,0.2-10.3,0.2-15.5,0c-4.4-0.1-8.8-0.4-13.1-0.8
			c-4.9-0.5-9.7-1-14.5-1.8c-4.4-0.7-8.8-1.5-13.2-2.5c-6.8-1.5-13.6-3.2-20.3-5.5c-3.9-1.3-7.8-2.7-11.8-4.1
			c-0.1,0-0.2-0.1-0.3-0.1l0,0c-0.2-0.1-0.4-0.2-0.7-0.2c0,0,0,0,0,0c-0.2-0.1-0.3-0.1-0.5-0.2c-0.1,0-0.1,0-0.2-0.1
			c-0.4-0.5-1-0.6-1.6-0.7l0,0c-0.6-0.5-1.3-0.8-2.1-0.9c0,0,0,0,0,0c-0.2-0.1-0.4-0.2-0.7-0.3c0,0,0,0,0,0
			c-0.3-0.4-0.7-0.5-1.1-0.5l0,0c-0.3-0.4-0.7-0.5-1.1-0.5l0,0c-0.2-0.1-0.3-0.1-0.5-0.2c0,0,0,0,0,0
			C161.2,454.2,161.1,454.1,160.9,454z M451.1,250c0-53.5-21-105.3-60.4-143.5C352,68.9,305.4,49.9,251.4,48.9
			c-112-0.5-201.9,89.5-202.5,200c-0.3,54.7,20.9,105.8,59.3,143.6c38.8,38.2,85.7,57.6,140.1,58.7
			C360.6,451.9,451.1,361.3,451.1,250z"/>
		<path class="st2" d="M164.8,455.7c0.8,0.1,1.5,0.3,2.1,0.9C166.2,456.3,165.5,456,164.8,455.7z"/>
		<path class="st2" d="M166.9,456.6c0.6,0.1,1.2,0.1,1.6,0.7C168,457,167.5,456.8,166.9,456.6z"/>
		<path class="st2" d="M161.9,454.4c0.4,0,0.8,0.1,1.1,0.5C162.6,454.8,162.3,454.6,161.9,454.4z"/>
		<path class="st2" d="M163,454.9c0.4,0,0.8,0.1,1.1,0.5C163.8,455.2,163.4,455.1,163,454.9z"/>
		<path class="st2" d="M164.2,455.4c0.2,0.1,0.4,0.2,0.7,0.3C164.6,455.6,164.4,455.5,164.2,455.4z"/>
		<path class="st2" d="M169.3,457.5c0.2,0.1,0.4,0.2,0.7,0.2C169.7,457.6,169.5,457.6,169.3,457.5z"/>
		<path class="st2" d="M160.9,454c0.2,0.1,0.3,0.1,0.5,0.2C161.2,454.2,161.1,454.1,160.9,454z"/>
		<path class="st2" d="M161.4,454.2c0.2,0.1,0.3,0.1,0.5,0.2C161.7,454.4,161.6,454.3,161.4,454.2z"/>
		<path class="st2" d="M168.8,457.3c0.2,0.1,0.3,0.1,0.5,0.2C169.1,457.4,168.9,457.3,168.8,457.3z"/>
		<path class="st2" d="M169.9,457.7c0.1,0,0.2,0.1,0.3,0.1C170.1,457.8,170,457.8,169.9,457.7z"/>
		<path class="st1" d="M363.9,243.6c0,0.6,0,1,0,1.5c0,11.6,0,23.2,0,34.8c0,2.1-1,3.6-3.6,3.5c-3.5-0.1-7.1-0.1-10.6,0
			c-1.8,0-3.2-1-3.2-3.1c0-0.3,0-0.6,0-0.9c0-29.4,0-58.8,0-88.2c0-0.5,0-1.1,0.1-1.6c0.2-1.2,0.9-2,2.1-2.3
			c1.2-0.3,2.4-0.5,3.6-0.7c8.3-1.2,16.7-1.5,25.1-1.2c4.9,0.2,9.8,1,14.4,2.8c5.6,2.2,10.1,5.6,13.2,10.8c1.9,3.1,2.9,6.5,3.3,10.1
			c0.4,3.8,0.3,7.6-0.7,11.3c-1.7,6.2-5.2,11.1-10.5,14.8c-0.8,0.5-1.6,1-2.5,1.6c0.1,0.1,0.2,0.3,0.3,0.4c3.5,2.8,5.9,6.4,7.5,10.5
			c1.3,3.2,2.1,6.6,2.9,10c1.4,5.5,2.8,11,4.2,16.5c0.5,1.8,1.2,3.5,1.9,5.2c1,2.1-0.6,4.1-2.5,4.1c-4,0-8.1,0-12.1,0
			c-1.3,0-2.2-0.6-2.6-1.7c-0.7-1.7-1.5-3.5-2-5.3c-1.3-4.9-2.5-9.9-3.8-14.9c-0.6-2.4-1.2-4.8-1.8-7.1c-0.4-1.3-0.9-2.5-1.5-3.7
			c-1.7-3.6-4.6-5.8-8.5-6.6c-1.3-0.3-2.7-0.4-4-0.5c-2.7-0.1-5.4,0-8.1,0C364.5,243.6,364.3,243.6,363.9,243.6z M364,228.8
			c0.2,0.1,0.3,0.1,0.3,0.1c4.2,0,8.4,0.2,12.6-0.2c2.3-0.2,4.5-0.8,6.5-1.8c3.6-1.7,6.1-4.4,7.3-8.2c0.8-2.6,0.8-5.2,0.3-7.9
			c-0.6-3.4-2.3-6.1-5.2-8c-2-1.3-4.2-2-6.5-2.5c-3.9-0.8-7.9-0.7-11.8-0.4c-1.1,0.1-2.3,0.3-3.4,0.4C364,210,364,219.4,364,228.8z"
			/>
		<path class="st1" d="M105.8,254.5c-0.4,1.1-0.8,2.3-1.1,3.4c-2,6.1-4,12.2-6,18.3c-0.5,1.6-1.1,3.2-1.6,4.8
			c-0.6,1.8-1.3,2.3-3.2,2.4c-3.8,0-7.7,0-11.5,0c-0.9,0-1.8-0.2-2.4-1c-0.7-0.9-0.8-1.9-0.5-2.9c0.7-2.1,1.4-4.1,2.1-6.2
			c1.6-4.7,3.2-9.5,4.8-14.2c2.1-6.1,4.1-12.2,6.2-18.2c1.8-5.3,3.6-10.6,5.4-15.9c2-6,4.1-11.9,6.1-17.9c1.6-4.6,3.1-9.2,4.7-13.9
			c0.6-1.7,1.1-3.4,1.7-5c0.6-1.6,1.4-2.2,3.1-2.2c4.5,0,9,0,13.5,0c1.8,0,2.6,0.6,3.2,2.4c2.7,8,5.5,16.1,8.2,24.1
			c1.9,5.7,3.9,11.4,5.8,17c2.5,7.3,5,14.5,7.5,21.8c1.6,4.6,3.1,9.2,4.7,13.9c1.6,4.6,3.2,9.2,4.7,13.9c0.1,0.3,0.2,0.6,0.3,0.9
			c0.5,2-1,3.5-2.7,3.5c-2.7,0-5.3,0-8,0c-1.5,0-3,0-4.5,0c-1.5,0-2.4-0.7-2.9-2.1c-1.2-3.7-2.5-7.4-3.7-11
			c-1.7-5.1-3.5-10.3-5.2-15.4c0-0.1-0.1-0.1-0.1-0.2C133.5,254.4,108.7,254.3,105.8,254.5z M119.8,210.3c-0.1,0.2-0.1,0.3-0.2,0.5
			c-0.6,2.1-1.2,4.2-1.9,6.3c-2.4,7.3-4.9,14.5-7.4,21.7c-0.1,0.2-0.1,0.5-0.1,0.7c6.6,0,13.1,0,19.7,0c-0.1-0.3-0.1-0.5-0.2-0.7
			c-0.9-2.6-1.7-5.1-2.6-7.6c-1.1-3.2-2.2-6.5-3.3-9.7c0-0.1-0.1-0.2-0.1-0.3c0-0.1-0.1-0.3-0.1-0.4c0-0.1-0.1-0.2-0.1-0.3
			c0-0.1-0.1-0.3-0.1-0.4c-0.1-0.2-0.1-0.3-0.2-0.5c0-0.1,0-0.1,0-0.2c-0.1-0.2-0.1-0.3-0.2-0.5c0-0.1,0-0.1,0-0.2
			c-0.1-0.2-0.1-0.3-0.2-0.5c0-0.1,0-0.1-0.1-0.2c-0.1-0.2-0.1-0.3-0.2-0.5c0-0.1,0-0.1,0-0.2c-0.1-0.2-0.1-0.3-0.2-0.5
			c0-0.1,0-0.1,0-0.2c-0.1-0.2-0.2-0.4-0.2-0.6c0-0.1-0.1-0.3-0.1-0.4c0-0.1,0-0.1-0.1-0.2c-0.1-0.4-0.3-0.8-0.4-1.2
			c0,0,0-0.1,0-0.1c0,0-0.1-0.1-0.1-0.1c-0.1-0.2-0.1-0.3-0.2-0.5c0,0,0-0.1,0-0.1c0,0-0.1-0.1-0.1-0.1c-0.1-0.2-0.1-0.3-0.2-0.5
			c0-0.1-0.1-0.3-0.1-0.4c0-0.1-0.1-0.3-0.1-0.4c-0.1-0.2-0.1-0.3-0.2-0.5c0-0.1,0-0.2-0.1-0.2c0,0,0-0.1,0-0.1c0,0-0.1-0.1-0.1-0.1
			c-0.1-0.2-0.1-0.5-0.2-0.7c-0.1-0.2-0.1-0.4-0.2-0.7c-0.1,0-0.1,0-0.2,0C119.8,209.9,119.8,210.1,119.8,210.3
			C119.8,210.3,119.8,210.3,119.8,210.3z"/>
		<path class="st1" d="M273.4,247.1c0,0.5,0,0.9,0,1.4c0,10.4,0,20.8,0,31.2c0,0.3,0,0.5,0,0.8c0.1,1.5-1.3,2.9-2.8,2.9
			c-1.4-0.1-2.8,0-4.2,0c-2.5,0-5,0-7.5,0c-0.9,0-1.6-0.2-2.2-0.9c-0.3-0.4-0.5-1-0.7-1.5c-0.1-0.4-0.1-0.8-0.1-1.3
			c0-29.6,0-59.3,0-88.9c0-0.3,0-0.7,0-1c0.1-1.5,0.9-2.5,2.4-2.7c2.3-0.4,4.6-0.7,6.9-0.9c6-0.7,12.1-0.9,18.2-0.8
			c5.7,0.1,11.4,0.9,16.7,2.9c5.9,2.3,10.7,5.9,14,11.4c1.7,2.8,2.7,5.8,3.3,8.9c1,5.5,0.8,11-0.8,16.5c-1.8,6.3-5.5,11.3-10.8,15.1
			c-4.3,3.1-9.1,4.9-14.2,6c-5.7,1.2-11.4,1.4-17.1,1C274.3,247.2,273.9,247.1,273.4,247.1z M273.4,231.8c0.4,0.1,0.7,0.2,1,0.2
			c2.3,0.1,4.6,0.3,6.9,0.3c3.7,0,7.4-0.6,10.8-2.2c3.1-1.4,5.5-3.5,7-6.6c2.1-4.5,2.3-9.1,0.8-13.8c-1-3-3-5.3-5.8-6.8
			c-2.4-1.3-4.9-2-7.6-2.4c-4-0.5-8.1-0.3-12.1,0c-0.3,0-0.6,0.1-1,0.2C273.4,211.1,273.4,221.4,273.4,231.8z"/>
		<path class="st1" d="M196.5,234.6c0-15,0-29.9,0-44.9c0-0.3,0-0.7,0-1c0.1-1.6,1-2.6,2.6-2.7c0.2,0,0.3,0,0.5,0
			c3.7,0,7.4,0,11.1,0c0.2,0,0.5,0,0.7,0c1.2,0.1,2.1,0.8,2.4,2c0.1,0.5,0.1,1.1,0.1,1.6c0,30.1,0,60.1,0,90.2
			c0,0.6-0.1,1.3-0.3,1.9c-0.4,1-1.2,1.6-2.3,1.7c-0.5,0-1,0-1.5,0c-3.4,0-6.9,0-10.3,0c-0.8,0-1.6-0.1-2.2-0.8
			c-0.5-0.5-0.8-1-0.8-1.7c0-0.3,0-0.7,0-1C196.5,264.8,196.5,249.7,196.5,234.6z"/>
		<path class="st1" d="M195.7,358.8c-0.9,0-1.7,0-2.6,0c0-0.4-0.1-0.8-0.1-1.1c0-2.6,0-5.2,0-7.7c0-0.8-0.1-1.5-0.4-2.2
			c-0.7-1.9-3-2.2-4.4-1.2c-0.8,0.6-1.3,1.3-1.5,2.3c-0.1,0.6-0.2,1.1-0.2,1.7c0,2.3,0,4.7,0,7c0,0.4,0,0.8,0,1.2
			c-0.9,0-1.7,0-2.5,0c0,0-0.1,0-0.1-0.1c0,0-0.1-0.1-0.1-0.1c0-0.2-0.1-0.3-0.1-0.5c0-4.7,0-9.3,0-14c0.7,0,1.4,0,2.2,0
			c0.1,0.6,0.1,1.2,0.2,1.9c0.5-0.1,0.7-0.5,0.9-0.8c1.3-1.3,2.8-1.7,4.5-1.4c1.2,0.2,2.2,0.8,2.9,1.9c0.1,0.2,0.3,0.4,0.5,0.8
			c0.3-0.3,0.5-0.6,0.8-0.9c1.2-1.4,2.8-2,4.6-1.9c2.1,0.2,3.4,1.5,4,3.4c0.2,0.7,0.4,1.5,0.4,2.3c0,3,0,5.9,0,8.9
			c0,0.1,0,0.3-0.1,0.5c-0.8,0-1.6,0-2.6,0c0-0.4,0-0.8,0-1.1c0-2.2,0-4.3,0-6.5c0-0.9-0.1-1.8-0.3-2.7c-0.2-1.3-0.9-2.2-2.3-2.4
			c-1.3-0.2-2.3,0.3-3.1,1.3c-0.6,0.8-0.8,1.7-0.8,2.7c0,2.6,0,5.2,0,7.7C195.8,358.1,195.8,358.4,195.7,358.8z"/>
		<path class="st1" d="M302,350.1c0,2.8-0.1,5.7-0.1,8.5c0,0,0,0.1-0.2,0.2c-0.3,0-0.7,0-1.1,0c-0.4,0-0.8,0-1.3,0
			c0-6.8,0-13.6,0-20.4c0.6-0.1,1.3-0.2,1.9-0.2c2.1-0.2,4.1-0.3,6.2,0.1c4.2,0.8,6,5.7,3.2,8.9c-0.3,0.3-0.7,0.6-1,0.9
			c-0.4,0.3-0.8,0.5-1.3,0.8c0.3,0.2,0.5,0.3,0.7,0.5c0.9,0.6,1.5,1.6,1.8,2.6c0.6,2.2,1.2,4.5,1.8,6.8c-0.9,0-1.7,0-2.7,0
			c-0.1-0.4-0.3-0.8-0.5-1.2c-0.3-1.3-0.6-2.6-1-3.9c-0.3-1.2-0.7-2.4-1.8-3.1c-0.1-0.1-0.3-0.2-0.4-0.2c0,0,0,0,0,0
			C305.3,349.8,303.1,349.6,302,350.1C302.1,350,302.1,350,302,350.1z M302.1,347.9c1.1,0,2.1,0,3,0c0.6,0,1.2-0.2,1.8-0.4
			c1.5-0.5,2.4-1.9,2.4-3.5c0-1.6-0.7-2.8-2.1-3.4c-1.7-0.6-3.3-0.6-5.1-0.2C302.1,342.9,302.1,345.3,302.1,347.9z"/>
		<path class="st1" d="M253.8,311.8c0-1.5,0-2.9,0-4.3c0-1.4,0-2.8,0-4.2c0.9,0,1.8,0,2.7,0c0,7.2,0,14.4,0,21.6c-0.7,0-1.4,0-2.2,0
			c-0.4-0.6-0.1-1.3-0.4-2.1c-0.2,0.2-0.3,0.3-0.4,0.4c-2,2.6-6.7,3.1-9.3-0.3c-2.2-2.9-2.1-8.8,0.8-11.5c2.3-2.1,6.5-2.2,8.3,0.1
			C253.4,311.6,253.5,311.6,253.8,311.8z M253.9,317.5c0,0-0.1,0-0.1,0c0-0.6,0-1.2,0-1.7c-0.2-2.1-1.5-3.4-3.4-3.7
			c-1.8-0.3-3.5,0.7-4.2,2.5c-0.7,1.6-0.8,3.3-0.4,5c0.2,0.9,0.6,1.8,1.2,2.4c1.1,1.1,2.4,1.5,3.9,1c1.5-0.4,2.5-1.5,2.8-3
			C253.8,319.2,253.8,318.3,253.9,317.5z"/>
		<path class="st1" d="M258.2,345.7c0-3,0-5.7,0-8.5c1,0,1.8,0,2.8,0c0,7.2,0,14.3,0,21.6c-0.7,0-1.4,0-2.3,0c0-0.3-0.1-0.6-0.1-1
			c0-0.3-0.1-0.6-0.2-1.2c-0.2,0.3-0.4,0.4-0.5,0.5c-1.9,2.5-6.6,3-9.2-0.3c-2.3-2.9-2.2-8.3,0.3-11.1
			C251.3,343.3,255.5,342.8,258.2,345.7z M258.2,351.4C258.2,351.4,258.2,351.4,258.2,351.4c0-0.5,0-1.1,0-1.6
			c-0.1-1.9-1.2-3.4-2.9-3.8c-1.7-0.5-3.5,0.2-4.5,1.8c-1.3,2.3-1.3,4.6-0.2,7c0.8,1.7,2.7,2.5,4.4,2.1c1.8-0.4,3-2,3.1-3.8
			C258.2,352.5,258.2,352,258.2,351.4z"/>
		<path class="st1" d="M84.1,318.6c-0.7,2.1-1.4,4.2-2.1,6.3c-0.9,0-1.8,0-2.8,0c1.1-3.5,2.3-6.8,3.5-10.2c1.2-3.4,2.3-6.8,3.5-10.3
			c1.1,0,2.1,0,3.3,0c2.3,6.8,4.6,13.6,7,20.4c-1,0.3-1.9,0.1-2.9,0.1c-0.7-2.1-1.5-4.2-2.2-6.3C88.9,318.6,86.6,318.6,84.1,318.6z
			 M90.7,316.3c-1-3.1-2-6.1-3-9.2c-1,3.1-2,6.1-3,9.2C86.8,316.3,88.7,316.3,90.7,316.3z"/>
		<path class="st1" d="M123.7,350.7c0,2.8,0,5.4,0,8.1c-0.9,0-1.7,0-2.6,0c0-6.8,0-13.5,0-20.3c0.6-0.1,1.3-0.2,1.9-0.3
			c1.9-0.2,3.8-0.3,5.7,0.1c2.9,0.6,4.7,2.4,4.9,5c0.3,3.2-1,5.5-3.8,6.7c-1.6,0.6-3.2,0.8-4.9,0.7
			C124.6,350.8,124.2,350.7,123.7,350.7z M123.7,348.4c0.3,0.1,0.7,0.1,1,0.2c1.5,0.1,3.1,0.1,4.5-0.8c1.4-0.9,1.9-2.3,1.8-3.9
			c-0.1-1.4-0.7-2.5-2-3.1c-1.7-0.8-3.4-0.6-5.2-0.3C123.7,343.1,123.7,345.7,123.7,348.4z"/>
		<path class="st1" d="M238.3,352c-3.5,0-6.9,0-10.2,0c-0.3,1.8,0.7,3.6,2.3,4.4c1.6,0.8,3.4,0.7,5.1,0.3c0.5-0.1,1-0.3,1.6-0.4
			c0.2,0.6,0.3,1.3,0.5,2c-0.9,0.2-1.6,0.5-2.4,0.7c-1.4,0.3-2.9,0.4-4.4,0.1c-2.8-0.6-4.6-2.4-5.2-5.2c-0.5-2.2-0.3-4.4,0.8-6.5
			c1.9-3.6,5.7-4.2,8.6-3.1c1,0.4,1.7,1.1,2.3,2C238.3,347.9,238.6,349.8,238.3,352z M235.7,349.9c0-2.7-1.6-4.4-4-4.2
			c-2,0.2-3.7,2.2-3.5,4.2C230.7,349.9,233.2,349.9,235.7,349.9z"/>
		<path class="st1" d="M217,317.2c-0.1,2.5-0.6,4.6-2.3,6.2c-2.1,2-4.7,2.4-7.4,1.6c-2.6-0.8-4.1-2.8-4.6-5.4
			c-0.4-2.3-0.2-4.5,1.1-6.5c1.6-2.5,4.5-3.7,7.6-3c2.8,0.5,4.8,2.6,5.4,5.5C216.9,316.1,217,316.8,217,317.2z M214.2,317.5
			c0.1-1.1-0.2-2.3-0.8-3.4c-1.5-2.8-5.2-3-7-0.5c-1.5,2.1-1.5,5.7,0,7.7c1.7,2.4,4.9,2.5,6.6,0.1
			C213.8,320.3,214.2,319,214.2,317.5z"/>
		<path class="st1" d="M404.9,317.5c0,1.7-0.4,3.3-1.3,4.7c-1.6,2.5-4.7,3.6-7.8,2.9c-2.8-0.6-4.8-2.8-5.3-5.7
			c-0.3-2.2-0.2-4.3,1-6.2c1.6-2.6,4.7-3.9,7.9-3.1c2.9,0.6,4.9,2.9,5.3,6C404.8,316.5,404.9,317,404.9,317.5z M402.1,318
			c0-1.9-0.4-3.4-1.2-4.4c-1.5-2.1-4.7-2.3-6.4-0.2c-1.8,2.2-1.8,6.3,0.1,8.5c1.6,1.8,4.1,1.9,5.8,0.2
			C401.6,320.8,402,319.3,402.1,318z"/>
		<path class="st1" d="M124.5,317.7c0.1-2,0.5-3.9,1.9-5.5c1.9-2.2,4.4-2.8,7.1-2.2c2.7,0.5,4.4,2.2,5.1,4.7
			c0.8,2.6,0.6,5.1-0.9,7.4c-1.7,2.6-4.3,3.5-7.3,3c-3-0.5-4.8-2.3-5.6-5.2C124.7,319.2,124.7,318.5,124.5,317.7z M136.3,317.4
			c0-1.1-0.2-2.2-0.8-3.2c-0.7-1.4-1.9-2.2-3.5-2.3c-1.6,0-2.9,0.7-3.7,2.1c-1.2,2.3-1.3,4.7,0,7.1c1.6,2.9,5.2,2.9,7,0.2
			C136,320.1,136.3,318.9,136.3,317.4z"/>
		<path class="st1" d="M355,352c-3.5,0-6.9,0-10.2,0c-0.3,1.9,0.7,3.7,2.4,4.5c1.6,0.8,3.3,0.6,5,0.3c0.5-0.1,1-0.3,1.6-0.4
			c0.2,0.6,0.3,1.2,0.5,2c-0.9,0.2-1.6,0.5-2.4,0.7c-1.5,0.3-3.1,0.4-4.6,0c-2.5-0.6-4.2-2.2-4.9-4.7c-0.7-2.7-0.5-5.3,1-7.6
			c1.9-3.1,6.3-3.9,9.1-1.9c0.3,0.2,0.6,0.5,0.9,0.8C354.9,347.3,355.3,349.5,355,352z M352.4,349.9c0-2.6-1.4-4.1-3.6-4.2
			c-2-0.1-4.1,2-4,4.2C347.4,349.9,349.9,349.9,352.4,349.9z"/>
		<path class="st1" d="M267,352c-0.2,2.7,1.6,4.8,4.2,5c1.1,0.1,2.2-0.1,3.3-0.2c0.4-0.1,0.9-0.2,1.4-0.4c0.4,0.6,0.4,1.2,0.5,1.9
			c-0.7,0.5-1.5,0.6-2.3,0.8c-1.8,0.3-3.5,0.4-5.2-0.2c-2.2-0.7-3.6-2.2-4.3-4.5c-0.7-2.5-0.5-5,0.8-7.3c1.8-3.4,6.6-4.4,9.5-2.2
			c0.8,0.6,1.3,1.3,1.7,2.2c0.7,1.5,1,3.1,0.7,4.9c-1.2,0.2-2.3,0.1-3.4,0.1c-1.2,0-2.3,0-3.5,0C269.3,352,268.2,352,267,352z
			 M274.7,349.9c-0.1-1.6-0.4-2.9-1.8-3.7c-1.3-0.7-2.6-0.7-3.8,0.1c-1.3,0.8-1.9,2.1-2.1,3.7C269.6,349.9,272.1,349.9,274.7,349.9z
			"/>
		<path class="st1" d="M152.4,359.2c-3.5,0-6.2-2.2-6.9-5.6c-0.5-2.5-0.3-4.9,1.2-7c1.9-2.6,4.5-3.3,7.5-2.8
			c2.9,0.6,4.6,2.5,5.3,5.3c0.4,1.5,0.3,3,0,4.5C158.7,357,155.9,359.2,152.4,359.2z M156.9,351.9c0-2-0.4-3.4-1.2-4.5
			c-1.6-2.2-4.8-2.3-6.5-0.1c-1.7,2.2-1.7,6,0,8.2c1.5,2,4.2,2.1,6,0.4C156.5,354.7,156.8,353.1,156.9,351.9z"/>
		<path class="st1" d="M327.6,352c-3.5,0-6.8,0-10.2,0c-0.3,2.4,1.2,4.4,3.5,4.9c1.3,0.3,2.6,0.2,3.9-0.1c0.5-0.1,1-0.3,1.5-0.4
			c0.3,0.6,0.5,1.2,0.4,2c-2.8,1-5.5,1.4-8.3,0.2c-1.5-0.6-2.5-1.8-3.1-3.2c-1.1-2.9-1-5.8,0.6-8.4c1.9-3.2,6.4-4.1,9.3-2
			c0.3,0.3,0.7,0.5,0.9,0.9C327.5,347.5,327.9,349.6,327.6,352z M325.2,349.9c-0.1-0.6-0.2-1.2-0.4-1.7c-0.8-2.7-3.9-3.2-5.7-1.8
			c-1.1,0.8-1.6,2-1.8,3.4C319.9,349.9,322.5,349.9,325.2,349.9z"/>
		<path class="st1" d="M360.2,324.9c-1,0-1.8,0-2.6,0c-0.2-0.8-0.3-13.6-0.1-14.7c0.7,0,1.4,0,2.3,0c0,0.3,0.1,0.6,0.1,1
			c0,0.3,0.1,0.6,0.2,1c0.3-0.3,0.5-0.5,0.7-0.7c1.7-1.6,3.7-2.1,6-1.3c1.9,0.6,2.8,2.1,3.2,4c0.1,0.5,0.2,1,0.2,1.5
			c0,2.8,0,5.7,0,8.5c0,0.2,0,0.4-0.1,0.7c-0.9,0-1.7,0-2.6,0c0-0.4-0.1-0.7-0.1-1c0-2.3,0-4.6,0-6.9c0-0.8,0-1.6-0.2-2.3
			c-0.6-2.4-3.2-3.3-5.2-1.9c-1.2,0.8-1.7,2-1.7,3.5c0,2.4,0,4.8,0,7.2C360.2,323.9,360.2,324.3,360.2,324.9z"/>
		<path class="st1" d="M108.7,310.2c1,0,1.8,0,2.7,0c0,4.9,0,9.8,0,14.7c-0.7,0-1.5,0-2.3,0c-0.1-0.7-0.1-1.2-0.2-2
			c-0.3,0.3-0.5,0.4-0.7,0.6c-1.7,1.7-3.7,2.2-5.9,1.6c-1.4-0.4-2.4-1.4-2.8-2.8c-0.3-1-0.5-2.1-0.6-3.2c-0.1-2.8,0-5.6,0-8.4
			c0-0.1,0-0.2,0.1-0.4c0.8-0.2,1.7-0.1,2.7-0.1c0,0.4,0,0.8,0,1.2c0,2.3,0,4.6,0,6.9c0,0.7,0.1,1.4,0.2,2.1
			c0.7,3.2,3.8,3.2,5.4,1.8c1-0.9,1.4-2.1,1.4-3.4c0-2.4,0-4.8,0-7.3C108.7,311.1,108.7,310.7,108.7,310.2z"/>
		<path class="st1" d="M313.7,318.2c-3.5,0-6.9,0-10.3,0c-0.2,2.9,1.8,4.6,3.8,4.9c1.4,0.2,2.7,0.1,4-0.3c0.4-0.1,0.7-0.2,1.2-0.3
			c0.2,0.6,0.3,1.2,0.5,1.8c-1,0.6-2.1,0.8-3.1,0.9c-1.5,0.2-3.1,0.2-4.6-0.3c-1.9-0.6-3.3-1.9-3.9-3.8c-1.2-3.3-0.9-6.4,1.4-9.2
			c2.3-2.7,7.1-2.8,9.2-0.4C313.6,313.4,313.9,315.6,313.7,318.2z M311,316.1c0.2-2.1-1-4.4-3.7-4.3c-2.1,0.1-3.9,2.1-3.8,4.3
			C306,316.1,308.5,316.1,311,316.1z"/>
		<path class="st1" d="M354,318.2c-3.4,0-6.8,0-10.2,0c-0.1,2.9,1.8,4.7,4.1,4.9c1.3,0.1,2.5,0,3.8-0.3c0.4-0.1,0.7-0.2,1.2-0.3
			c0.2,0.7,0.3,1.2,0.5,1.9c-0.6,0.2-1.2,0.4-1.8,0.6c-1.6,0.4-3.2,0.5-4.8,0.2c-2.6-0.5-4.4-1.9-5.2-4.4c-0.9-2.9-0.7-5.7,1.1-8.3
			c1.9-2.8,6.1-3.6,8.8-1.7c1.5,1,2.2,2.5,2.5,4.2C354.2,316,354.3,317,354,318.2z M351.4,316.1c0-2.7-1.5-4.4-3.7-4.3
			c-2.1,0.1-3.9,2.1-3.8,4.3C346.4,316.1,348.9,316.1,351.4,316.1z"/>
		<path class="st1" d="M107.3,349.3c0.1-2.3-1-3.5-3.1-3.5c-0.7,0-1.4,0.1-2,0.3c-0.6,0.2-1.2,0.4-1.9,0.7c-0.2-0.6-0.4-1.1-0.6-1.7
			c1.3-1,2.8-1.2,4.3-1.3c0.6,0,1.2,0,1.8,0.1c2.4,0.4,3.8,1.8,4.2,4.2c0.1,0.4,0.1,0.8,0.1,1.1c0,3.2,0.1,6.4,0.1,9.6
			c-0.7,0-1.5,0-2.3,0c-0.1-0.5-0.2-0.9-0.3-1.5c-0.4,0.3-0.7,0.6-1,0.8c-1.5,1.2-3.2,1.4-5,0.9c-1.5-0.4-2.5-1.4-2.9-3
			c-0.4-1.7,0-3.3,1.3-4.5c0.8-0.8,1.8-1.3,2.8-1.5c1.2-0.3,2.3-0.4,3.5-0.5C106.7,349.4,107,349.3,107.3,349.3z M107.5,351.4
			c-1.6-0.2-3.5,0-4.6,0.7c-0.4,0.2-0.7,0.5-1,0.8c-1.3,1.5-0.5,3.9,1.3,4.2c2.1,0.4,4.1-1.1,4.3-3.2
			C107.6,353.1,107.5,352.3,107.5,351.4z"/>
		<path class="st1" d="M408.2,310.2c0.7,0,1.4,0,2.2,0c0.1,0.6,0.2,1.3,0.3,2c0.4-0.4,0.7-0.7,1-1c2.2-2.1,6-1.9,7.8,0.4
			c0.8,1,1.2,2.3,1.2,3.5c0.1,1.5,0,3,0,4.5c0,1.7,0,3.4,0,5.2c-0.5,0-0.9,0-1.3,0c-0.4,0-0.8,0-1.4,0c0-0.4-0.1-0.8-0.1-1.2
			c0-2.4,0-4.8,0-7.2c0-0.6,0-1.3-0.2-1.9c-0.5-2.3-2.9-3.3-5-2.1c-1.1,0.6-1.7,1.6-1.9,2.9c-0.1,0.5-0.1,1.1-0.1,1.6
			c0,2.2,0,4.4,0,6.6c0,0.4,0,0.7,0,1.2c-0.9,0-1.8,0-2.7,0C408.2,320,408.2,315.2,408.2,310.2z"/>
		<path class="st1" d="M365.9,349.3c0.3-2.1-0.8-3.4-2.8-3.6c-1.5-0.1-2.8,0.3-4.2,1.1c-0.2-0.6-0.4-1.1-0.6-1.8
			c0.4-0.2,0.6-0.4,0.9-0.5c1.7-0.7,3.5-1,5.4-0.7c2.2,0.4,3.6,1.8,4,4c0.1,0.8,0.2,1.7,0.2,2.5c0,2.3,0,4.5,0,6.8
			c0,0.5,0.1,1,0.1,1.6c-0.8,0-1.5,0-2.3,0c-0.1-0.5-0.2-1-0.3-1.6c-0.9,0.8-1.7,1.5-2.8,1.8c-1.1,0.3-2.3,0.4-3.4,0
			c-3.5-1.2-3.4-5.2-1.9-7c1.2-1.4,2.7-1.9,4.4-2.2c0.8-0.1,1.7-0.2,2.5-0.3C365.4,349.4,365.7,349.3,365.9,349.3z M366.3,351.3
			c-1.7,0-3.2,0-4.6,0.7c-0.6,0.3-1.1,0.7-1.4,1.3c-0.8,1.6,0,3.5,1.6,3.7c1.9,0.3,3.8-0.9,4.2-2.8
			C366.2,353.4,366.2,352.4,366.3,351.3z"/>
		<path class="st1" d="M180,325c-0.1-0.6-0.2-1.1-0.4-1.6c-0.3,0.3-0.6,0.5-0.9,0.7c-1.2,1-2.6,1.4-4.1,1.3c-2-0.1-3.4-1.2-3.9-2.9
			c-0.6-1.9,0-3.9,1.5-5.1c1.3-1,2.9-1.4,4.5-1.6c0.8-0.1,1.7-0.2,2.5-0.3c0.3-1.9-0.7-3.3-2.6-3.5c-1.3-0.2-2.4,0.2-3.6,0.6
			c-0.2,0.1-0.5,0.2-0.8,0.4c-0.2-0.6-0.4-1.1-0.7-1.7c1.8-1.1,3.6-1.5,5.6-1.3c0.9,0.1,1.8,0.3,2.5,0.7c1.8,1,2.3,2.8,2.4,4.7
			c0.1,1.6,0,3.2,0,4.8c0,1.6,0.1,3.1,0.1,4.9c-0.4,0-0.7,0-1.1,0C180.8,325,180.4,325,180,325z M179.5,317.5
			c-1.7-0.1-3.2,0.1-4.6,0.8c-0.3,0.1-0.5,0.3-0.7,0.6c-1.3,1.3-0.9,3.7,0.8,4.3c1.9,0.7,4.3-0.7,4.6-2.7
			C179.6,319.5,179.5,318.5,179.5,317.5z"/>
		<path class="st1" d="M223.1,324.9c-0.9,0-1.8,0-2.7,0c0-4.9,0-9.8,0-14.7c0.7,0,1.4,0,2.2,0c0.1,0.6,0.2,1.3,0.3,2
			c0.3-0.3,0.4-0.4,0.6-0.6c1.3-1.4,2.9-1.9,4.7-1.8c2.3,0.2,3.9,1.6,4.5,3.8c0.2,0.6,0.3,1.2,0.3,1.8c0,3,0,5.9,0,8.9
			c0,0.1,0,0.3-0.1,0.5c-0.9,0-1.7,0-2.6,0c0-0.4-0.1-0.7-0.1-1.1c0-2.3,0-4.5,0-6.8c0-0.7-0.1-1.4-0.2-2.1
			c-0.2-1.3-0.9-2.4-2.3-2.7c-1.4-0.3-2.7,0-3.7,1.1c-0.7,0.8-1,1.7-1,2.7c0,2.5,0,5.1,0,7.6C223.1,324.1,223.1,324.5,223.1,324.9z"
			/>
		<path class="st1" d="M277.7,324.9c-1,0-1.8,0-2.7,0c0-4.9,0-9.8,0-14.7c0.7,0,1.4,0,2.2,0c0.1,0.6,0.2,1.3,0.3,2
			c0.3-0.3,0.6-0.5,0.8-0.8c1.6-1.6,4.1-2.1,6.2-1.2c2,0.9,2.8,2.5,3,4.6c0.1,0.8,0.1,1.5,0.1,2.3c0,2.2,0,4.4,0,6.6
			c0,0.4,0,0.8,0,1.2c-0.9,0-1.8,0-2.7,0c0-0.3-0.1-0.7-0.1-1c0-2.4,0-4.8,0-7.3c0-0.6-0.1-1.3-0.2-1.9c-0.5-2.3-3-3.3-5.1-2
			c-1.2,0.8-1.8,1.9-1.9,3.4c0,1.1,0,2.2,0,3.3c0,1.4,0,2.8,0,4.3C277.7,324.1,277.7,324.5,277.7,324.9z"/>
		<path class="st1" d="M382.7,344.1c1,0,1.8,0,2.7,0c0,4.9,0,9.8,0,14.7c-0.7,0-1.4,0-2.2,0c-0.1-0.6-0.2-1.2-0.3-2
			c-0.4,0.3-0.6,0.6-0.8,0.8c-1.5,1.5-3.4,1.9-5.4,1.5c-2-0.5-3-2-3.5-3.9c-0.1-0.5-0.2-1.1-0.2-1.6c0-3.1,0-6.2,0-9.4
			c0.9-0.2,1.7-0.1,2.7-0.1c0,0.4,0.1,0.7,0.1,1c0,2.5,0,4.9,0,7.4c0,0.9,0.2,1.8,0.5,2.6c0.6,1.5,2.1,2.1,3.6,1.7
			c1.7-0.5,2.9-1.9,2.9-3.7c0-2.5,0-5.1,0-7.6C382.7,345.1,382.7,344.6,382.7,344.1z"/>
		<path class="st1" d="M390.9,358.8c-1,0-1.9,0-3,0c1.7-2.6,3.5-5,5.1-7.5c-1.6-2.4-3.2-4.7-4.9-7.1c1-0.2,1.9-0.1,3-0.1
			c1.2,1.8,2.4,3.6,3.6,5.5c1.2-1.9,2.3-3.6,3.5-5.4c0.9,0,1.8,0,2.9,0c-1.6,2.5-3.3,4.7-4.9,7.1c1.7,2.5,3.4,4.9,5.1,7.5
			c-0.5,0.3-1,0.1-1.5,0.2c-0.5,0-0.9,0-1.5,0c-1.2-1.9-2.4-3.7-3.8-5.8C393.3,355.1,392.1,356.9,390.9,358.8z"/>
		<path class="st1" d="M174.2,358.8c-1.1,0-2,0-3.1,0c-1.2-1.8-2.4-3.7-3.7-5.7c-1.3,2-2.5,3.9-3.7,5.7c-1,0-1.9,0-3,0
			c1.7-2.6,3.5-5,5.2-7.6c-1.6-2.3-3.2-4.7-4.9-7.1c1.1-0.2,2.1-0.1,3-0.1c1.2,1.8,2.3,3.6,3.6,5.4c1.2-1.9,2.4-3.6,3.5-5.4
			c0.9,0,1.8,0,2.9,0c-1.6,2.5-3.3,4.7-4.9,7.1C170.7,353.7,172.5,356.1,174.2,358.8z"/>
		<path class="st1" d="M337.1,310.2c0.9,0,1.6,0,2.3,0c0.1,0,0.2,0,0.5,0.1c-1.9,4.9-3.8,9.8-5.8,14.7c-0.9,0-1.7,0-2.6,0
			c-1.8-4.9-3.7-9.7-5.6-14.7c1,0,1.9,0,2.9,0c1.3,3.8,2.7,7.7,4.1,11.6c0.5-0.7,0.6-1.5,0.9-2.3c0.3-0.7,0.5-1.5,0.8-2.3
			c0.3-0.8,0.5-1.6,0.8-2.4c0.3-0.8,0.5-1.5,0.8-2.3C336.5,311.8,336.8,311.1,337.1,310.2z"/>
		<path class="st1" d="M288.8,344.6c-0.2,0.6-0.4,1.2-0.6,1.9c-0.6-0.2-1.2-0.4-1.7-0.6c-0.9-0.3-1.9-0.3-2.8,0.2
			c-1.2,0.7-1.4,2.2-0.2,3c0.5,0.4,1.1,0.6,1.7,0.9c0.8,0.4,1.6,0.7,2.4,1.2c1.5,0.9,2,2.4,1.8,4.1c-0.2,1.6-1.1,2.7-2.6,3.3
			c-2.4,0.9-4.7,0.7-6.9-0.4c0-0.8,0.3-1.4,0.6-2.1c0.5,0.2,1,0.4,1.4,0.6c1,0.4,1.9,0.5,2.9,0.3c0.9-0.2,1.7-0.6,1.9-1.6
			c0.2-1-0.1-1.9-1.1-2.4c-0.6-0.3-1.3-0.5-1.9-0.9c-0.8-0.4-1.6-0.9-2.3-1.4c-1.8-1.4-1.4-4.1-0.2-5.4c0.9-1,2.1-1.4,3.4-1.6
			C285.8,343.5,287.3,343.8,288.8,344.6z"/>
		<path class="st1" d="M330,358.1c0.2-0.6,0.4-1.3,0.6-1.9c0.6,0.2,1.1,0.4,1.5,0.6c1,0.4,1.9,0.5,2.9,0.3c1.1-0.2,1.7-0.8,1.9-1.8
			c0.2-1-0.3-1.7-1.1-2.2c-0.6-0.3-1.2-0.5-1.8-0.8c-0.6-0.3-1.3-0.6-1.8-0.9c-1.3-0.8-2-2-1.9-3.6c0.1-1.6,1-2.8,2.4-3.4
			c2.1-1,4.2-0.7,6.3,0.3c-0.2,0.7-0.4,1.3-0.6,2c-0.3-0.1-0.6-0.2-0.9-0.3c-0.7-0.2-1.4-0.4-2.1-0.4c-0.5,0-1.2,0.2-1.6,0.5
			c-1.1,0.7-1.2,2.1-0.2,2.9c0.5,0.4,1.1,0.6,1.7,0.9c0.9,0.4,1.8,0.8,2.6,1.3c2.5,1.8,2.2,5.7-0.6,7.1
			C335.4,359.6,331.7,359.3,330,358.1z"/>
		<path class="st1" d="M158.6,324.3c0.2-0.7,0.4-1.3,0.7-2c0.4,0.2,0.8,0.3,1.2,0.5c1.1,0.5,2.3,0.7,3.5,0.4
			c1.4-0.3,2.1-1.6,1.6-2.8c-0.2-0.6-0.6-1-1.2-1.2c-0.5-0.3-1.1-0.5-1.7-0.8c-0.6-0.3-1.1-0.5-1.6-0.8c-3.1-1.8-2.4-5.7,0.3-7.1
			c1.7-0.9,4.6-0.7,6.4,0.4c-0.2,0.6-0.4,1.2-0.6,1.8c-0.7-0.2-1.3-0.5-2-0.6c-0.8-0.2-1.6-0.2-2.4,0.2c-1.4,0.6-1.6,2.3-0.3,3.2
			c0.4,0.3,0.9,0.5,1.4,0.8c0.7,0.4,1.5,0.6,2.2,1c1.6,0.9,2.4,2.2,2.2,4.1c-0.2,2-1.3,3.2-3.2,3.8
			C162.9,325.7,160.8,325.4,158.6,324.3z"/>
		<path class="st1" d="M223.3,356.8c0,0.6,0.1,1.3,0.1,2c-1.6,0.5-3.1,0.6-4.5-0.1c-0.9-0.5-1.4-1.3-1.6-2.3
			c-0.1-0.6-0.2-1.2-0.2-1.8c0-2.4,0-4.8,0-7.2c0-0.4,0-0.8-0.1-1.2c-0.7,0-1.4-0.1-2.1-0.1c0-0.7,0-1.3,0-2c0.7,0,1.4,0,2.1,0
			c0-0.9,0-1.7,0-2.6c0.9-0.3,1.7-0.6,2.7-0.9c0,1.2,0,2.3,0,3.4c1.3,0.3,2.5,0,3.8,0.2c0,0.6,0,1.3,0,2.1c-1.2,0-2.4,0-3.6,0
			c0,0.3-0.1,0.5-0.1,0.7c0,2.4,0,4.8,0,7.2c0,0.5,0,0.9,0.2,1.4c0.2,1,0.8,1.4,1.8,1.5C222.2,356.9,222.7,356.8,223.3,356.8z"/>
		<path class="st1" d="M122.8,312.3c-1.3,0-2.5,0-3.7,0c0,0.3-0.1,0.6-0.1,0.9c0,2.3,0,4.7,0,7c0,0.2,0,0.4,0,0.6
			c0.1,1.7,0.9,2.4,2.6,2.2c0.3,0,0.5,0,0.9,0c0,0.7,0.1,1.3,0.1,2c-1.3,0.4-2.5,0.6-3.7,0.2c-1.2-0.3-2.1-1.1-2.3-2.3
			c-0.2-1-0.3-2-0.3-3c0-2.1,0-4.2,0-6.2c0-0.4,0-0.8,0-1.3c-0.8-0.1-1.5-0.1-2.3-0.1c0-0.7,0-1.3,0-2c0.7,0,1.4-0.1,2.2-0.1
			c0-0.9,0-1.7,0.1-2.7c0.9-0.3,1.7-0.5,2.6-0.8c0.2,1.2,0,2.3,0.2,3.5c1.2,0,2.4,0,3.7,0C122.8,310.9,122.8,311.5,122.8,312.3z"/>
		<path class="st1" d="M295.1,310.2c1.4,0,2.5,0,3.8,0c0,0.7,0,1.4,0,2.1c-1.2,0-2.5,0.1-3.7,0.1c0,0.2-0.1,0.4-0.1,0.5
			c0,2.5,0,5.1,0,7.6c0,0.3,0,0.6,0.1,0.9c0.3,1.1,0.9,1.6,2,1.6c0.4,0,0.8-0.1,1.4-0.1c0,0.7,0.1,1.3,0.1,1.9
			c-0.8,0.4-1.5,0.4-2.2,0.4c-2.3,0.1-3.7-1.1-4-3.4c-0.1-0.7-0.1-1.4-0.2-2.1c0-2.5,0-4.9,0-7.5c-0.7,0-1.4-0.1-2.2-0.1
			c0-0.7,0-1.3,0-2c0.7,0,1.3,0,2.1,0c0-0.9,0-1.8,0-2.6c0.9-0.5,1.8-0.7,2.8-0.9C295.1,307.9,295.1,308.9,295.1,310.2z"/>
		<path class="st1" d="M381.1,323c0,0.7,0.1,1.3,0.1,2c-1.3,0.5-2.6,0.6-3.9,0.2c-1.1-0.4-1.9-1.2-2.2-2.4c-0.2-0.7-0.2-1.5-0.3-2.3
			c0-2.3,0-4.5,0-6.8c0-0.4,0-0.8,0-1.3c-0.8-0.1-1.5-0.1-2.2-0.1c0-0.7,0-1.3,0-2c0.7,0,1.4-0.1,2.2-0.1c0-0.9,0-1.7,0-2.6
			c0.9-0.3,1.8-0.5,2.7-0.8c0,1.2,0,2.3,0,3.5c1.3,0,2.5,0,3.8,0c0,0.8,0,1.4,0,2.2c-1.2,0-2.4,0-3.7,0c0,0.4-0.1,0.7-0.1,1
			c0,2.4,0,4.8,0,7.2c0,0.3,0,0.5,0,0.8c0.2,1.4,0.9,1.9,2.3,1.9C380.2,323,380.6,323,381.1,323z"/>
		<path class="st1" d="M189.7,312.3c0,0.3-0.1,0.4-0.1,0.6c0,2.5,0,5.1,0,7.6c0,0.3,0.1,0.6,0.1,0.9c0.3,1.2,0.9,1.7,2.1,1.6
			c0.4,0,0.8-0.1,1.3-0.1c0,0.7,0,1.3,0,2c-1.1,0.3-2.1,0.5-3.2,0.3c-1.5-0.3-2.5-1.1-2.8-2.6c-0.2-1-0.3-2.1-0.3-3.1
			c0-2.3,0-4.7,0-7c-0.7-0.5-1.5,0-2.2-0.4c0-0.6,0-1.2,0-2c0.7,0,1.4-0.1,2.2-0.1c0-0.9,0-1.7,0-2.6c0.9-0.3,1.7-0.5,2.7-0.8
			c0,1.2,0,2.2,0,3.4c1.3,0.3,2.6,0,3.8,0.2c0,0.7,0,1.3,0,2.1C192.1,312.3,190.9,312.3,189.7,312.3z"/>
		<path class="st1" d="M317,310.2c0.7,0,1.4,0,2.3,0c0,0.7,0.1,1.5,0.1,2.2c0.9-1,1.7-2.1,3-2.4c0.6-0.2,1.2-0.3,1.9,0
			c0,0.8,0,1.6,0,2.4c-0.2,0-0.4,0-0.7,0c-1.5,0-2.6,0.7-3.3,2.1c-0.5,0.9-0.6,1.9-0.6,2.9c0,2.1,0,4.2,0,6.3c0,0.4,0,0.7,0,1.2
			c-0.9,0-1.8,0-2.7,0C317,320,317,315.2,317,310.2z"/>
		<path class="st1" d="M149.7,309.9c0,0.9,0,1.6,0,2.5c-0.2,0-0.5,0-0.7,0c-1.6,0-2.8,0.7-3.4,2.2c-0.3,0.8-0.5,1.7-0.5,2.6
			c-0.1,2.2,0,4.4,0,6.6c0,0.4,0,0.7,0,1.2c-1,0-1.8,0-2.7,0c0-4.9,0-9.8,0-14.7c0.7,0,1.4,0,2.2,0c0.1,0.7,0.1,1.4,0.2,2
			c0.1,0,0.1,0.1,0.2,0.1c0.2-0.2,0.4-0.5,0.6-0.7c0.7-1,1.7-1.6,3-1.8C149,309.8,149.3,309.9,149.7,309.9z"/>
		<path class="st1" d="M136.7,344.1c0.7,0,1.4,0,2.2,0c0.1,0.8,0.1,1.5,0.2,2.2c0.5,0,0.5-0.4,0.7-0.6c0.9-1.3,2.2-2,3.8-2
			c0.1,0,0.1,0,0.2,0.1c0,0,0.1,0,0.2,0.1c0,0.7,0,1.5,0,2.4c-0.3,0-0.5,0-0.7,0c-1.8,0-3,0.9-3.5,2.6c-0.2,0.8-0.3,1.7-0.4,2.5
			c0,2,0,4.1,0,6.1c0,0.4,0,0.8,0,1.2c-0.9,0.1-1.7,0.1-2.7,0C136.7,353.9,136.7,349.1,136.7,344.1z"/>
		<path class="st1" d="M267.6,324.9c0-6.8,0-13.6,0-20.5c0.8,0,1.6,0,2.4,0c0,0,0,0,0.1,0.1c0,0,0.1,0.1,0.1,0.1
			c0,6.5,0,13.1,0.1,19.6c0,0.2,0,0.4,0,0.7C269.3,324.9,268.5,324.9,267.6,324.9z"/>
		<path class="st1" d="M196.5,310.2c0.9,0,1.7,0,2.6,0c0,4.9,0,9.8,0,14.7c-0.3,0-0.5,0.1-0.7,0.1c-0.6,0-1.2,0-1.8,0
			C196.4,324.1,196.3,311.9,196.5,310.2z"/>
		<path class="st1" d="M176.9,344.1c0.8,0,1.6,0,2.5,0c0,4.9,0,9.8,0,14.7c-0.9,0-1.7,0-2.5,0c0,0-0.1,0-0.1-0.1
			c0,0-0.1-0.1-0.1-0.1c0-0.3-0.1-0.7-0.1-1c0-4.4,0-8.8,0-13.2C176.8,344.3,176.8,344.2,176.9,344.1z"/>
		<path class="st1" d="M384.4,310.2c0.9,0,1.7,0,2.5,0c0.2,0.9,0.3,13.5,0,14.7c-0.8,0-1.6,0-2.5,0
			C384.4,320,384.4,315.2,384.4,310.2z"/>
		<path class="st1" d="M152.6,324.9c0-4.9,0-9.7,0-14.7c0.4,0,0.8,0,1.2,0c0.4,0,0.8,0,1.2,0c0.2,1,0.2,13.6,0,14.7
			C154.3,324.9,153.5,324.9,152.6,324.9z"/>
		<path class="st1" d="M209.4,344.1c0.9,0,1.6,0,2.5,0c0,4.9,0,9.8,0,14.7c-0.8,0-1.6,0-2.4,0C209.3,358,209.2,346.1,209.4,344.1z"
			/>
		<path class="st1" d="M261.8,304.1c0.9-0.1,1.7-0.2,2.6-0.3c-0.2,1.7-1.6,5.4-2.8,7.3c-0.4,0-1,0.1-1.7,0.2c0.3-1.3,0.7-2.4,1-3.5
			C261.2,306.6,261.5,305.5,261.8,304.1z"/>
		<path class="st1" d="M233.4,337.6c1,0,1.9,0,3,0c-1.2,1.6-2.5,3-3.6,4.3c-0.7,0-1.3,0-2,0C231.7,340.5,232.6,339.1,233.4,337.6z"
			/>
		<path class="st1" d="M106,342c-0.8,0-1.3,0-2,0c-1.1-1.3-2.3-2.7-3.5-4.2c0.5-0.3,1-0.2,1.4-0.2c0.5,0,0.9,0,1.5,0
			C104.2,339,105.1,340.4,106,342z"/>
		<path class="st1" d="M322.7,337.7c0.9,0,1.8,0,2.8,0c-0.3,0.7-1.9,2.8-3.5,4.4c-0.5,0-1.1,0-1.8,0c0.3-0.9,0.8-1.5,1.3-2.2
			C321.9,339.1,322.3,338.4,322.7,337.7z"/>
		<path class="st1" d="M199.5,306c0,1-0.7,1.7-1.7,1.7c-0.9,0-1.6-0.8-1.7-1.7c0-1,0.6-1.7,1.6-1.7C198.7,304.3,199.5,305,199.5,306
			z"/>
		<path class="st1" d="M387.4,306c0,1-0.6,1.7-1.6,1.7c-0.9,0-1.7-0.7-1.7-1.6c0-1,0.7-1.8,1.7-1.8C386.7,304.4,387.3,305,387.4,306
			z"/>
		<path class="st1" d="M212.3,339.9c0,1-0.7,1.6-1.7,1.7c-1,0-1.7-0.7-1.7-1.7c0-1,0.8-1.8,1.8-1.7
			C211.7,338.2,212.4,338.9,212.3,339.9z"/>
		<path class="st1" d="M178.1,338.2c1,0,1.7,0.7,1.7,1.6c0,1-0.7,1.7-1.7,1.7c-0.9,0-1.6-0.6-1.6-1.6
			C176.4,339,177.1,338.2,178.1,338.2z"/>
		<path class="st1" d="M153.9,307.8c-0.9,0-1.7-0.7-1.7-1.6c0-1,0.6-1.7,1.6-1.7c1,0,1.8,0.6,1.8,1.7
			C155.6,307,154.9,307.7,153.9,307.8z"/>
		<path class="st2" d="M302,350.1C302.1,350,302.1,350,302,350.1c1.1-0.4,3.2-0.3,4.2,0.2C304.9,350,303.5,350,302,350.1z"/>
		<path class="st2" d="M306.2,350.3c0.1,0.1,0.3,0.2,0.4,0.2C306.5,350.4,306.4,350.4,306.2,350.3z"/>
		<path class="st2" d="M120.3,210.3c-0.2,0-0.3,0-0.5,0c0-0.2,0.1-0.4,0.1-0.6c0.1,0,0.1,0,0.2,0
			C120.1,209.9,120.2,210.1,120.3,210.3z"/>
		<path class="st2" d="M122.3,216.6c-0.1-0.2-0.2-0.4-0.2-0.6C122.1,216.2,122.2,216.4,122.3,216.6z"/>
		<path class="st2" d="M119.8,210.3c-0.1,0.2-0.1,0.3-0.2,0.5C119.6,210.6,119.7,210.5,119.8,210.3z"/>
		<path class="st2" d="M122.5,217.3c-0.1-0.2-0.1-0.3-0.2-0.5C122.4,217,122.4,217.1,122.5,217.3z"/>
		<path class="st2" d="M120.7,211.9c-0.1-0.2-0.1-0.3-0.2-0.5C120.6,211.6,120.7,211.8,120.7,211.9z"/>
		<path class="st2" d="M123.4,220.1c-0.1-0.2-0.1-0.3-0.2-0.5C123.3,219.7,123.4,219.9,123.4,220.1z"/>
		<path class="st2" d="M123.2,219.4c-0.1-0.2-0.1-0.3-0.2-0.5C123.1,219,123.1,219.2,123.2,219.4z"/>
		<path class="st2" d="M123,218.7c-0.1-0.2-0.1-0.3-0.2-0.5C122.8,218.4,122.9,218.5,123,218.7z"/>
		<path class="st2" d="M122.7,218c-0.1-0.2-0.1-0.3-0.2-0.5C122.6,217.7,122.7,217.8,122.7,218z"/>
		<path class="st2" d="M121,212.8c0-0.1-0.1-0.3-0.1-0.4C120.9,212.5,121,212.7,121,212.8z"/>
		<path class="st2" d="M120.5,211.2c0,0-0.1-0.1-0.1-0.1c0,0,0,0,0.1-0.1C120.5,211,120.5,211.1,120.5,211.2
			C120.6,211.2,120.5,211.2,120.5,211.2z"/>
		<path class="st2" d="M123.9,221.5c0-0.1-0.1-0.2-0.1-0.3C123.8,221.3,123.9,221.4,123.9,221.5z"/>
		<path class="st2" d="M123.7,220.8c0-0.1-0.1-0.2-0.1-0.3C123.6,220.6,123.6,220.7,123.7,220.8z"/>
		<path class="st2" d="M121.9,215.7c0-0.1,0-0.1-0.1-0.2C121.9,215.5,121.9,215.6,121.9,215.7z"/>
		<path class="st2" d="M121.4,214.2c0,0-0.1-0.1-0.1-0.1c0,0,0-0.1,0.1-0.1C121.4,214,121.5,214.1,121.4,214.2
			C121.5,214.1,121.5,214.2,121.4,214.2z"/>
		<path class="st2" d="M121.2,213.5c0,0-0.1-0.1-0.1-0.1c0,0,0,0,0.1-0.1C121.2,213.4,121.2,213.4,121.2,213.5
			C121.3,213.5,121.2,213.5,121.2,213.5z"/>
	</g>
</g>
</svg>
