<?xml version="1.0" encoding="utf-8"?>
<!-- Generator: Adobe Illustrator 24.3.0, SVG Export Plug-In . SVG Version: 6.00 Build 0)  -->
<svg version="1.1" id="Layer_1" xmlns="http://www.w3.org/2000/svg" xmlns:xlink="http://www.w3.org/1999/xlink" x="0px" y="0px"
	 viewBox="0 0 500 260" style="enable-background:new 0 0 500 260;" width="500" height="260" xml:space="preserve">
<style type="text/css">
	.st0{fill:url(#SVGID_1_);}
	.st1{fill:#FFFFFF;}
	.st2{fill:#231F24;}
	.st3{fill-rule:evenodd;clip-rule:evenodd;fill:#008DC0;}
	.st4{fill-rule:evenodd;clip-rule:evenodd;fill:#6CB535;}
</style>
<g>
	<linearGradient id="SVGID_1_" gradientUnits="userSpaceOnUse" x1="118.5066" y1="-20.0907" x2="231.8547" y2="176.2339">
		<stop  offset="0.2" style="stop-color:#6CB535"/>
		<stop  offset="1" style="stop-color:#008DC0"/>
	</linearGradient>
	<path class="st0" d="M289.6,25.5H42.4c-5.7,0-10.3,4.5-10.3,10.1c0,5.6,4.6,10.1,10.3,10.1h59.3v166.1h0l16.4,27.7
		c0.8,1.4,2.8,1.4,3.6,0l16.5-27.7l-0.1-0.1v-166h151.5c5.7,0,10.3-4.5,10.3-10.1C299.9,30,295.3,25.5,289.6,25.5z"/>
	<g>
		<g>
			<path class="st1" d="M131.3,172.9h6l-14.2,35.3h-5.9l-14.1-35.3h6.1l5.9,15.7c3,7.9,4.7,12.4,5.1,13.7c0.6-1.8,2.3-6.4,5.1-13.7
				L131.3,172.9z"/>
			<path class="st2" d="M65.9,164.8H37.9v15.4h25.3v5.2H37.9v17.4h27.8v5.2H32.1v-48.3h33.8V164.8z"/>
			<path class="st2" d="M98.6,184.3v23.7h-5.5v-23.1c0-5.2-2.7-7.8-8.1-7.8c-2.5,0-4.8,1-6.8,2.9c-2,1.9-2.9,4.7-2.9,8.3v19.8h-5.5
				v-35h5.2v5.2c2.7-4,6.3-6,11.1-6C94,172.1,98.6,176.6,98.6,184.3z"/>
			<path class="st2" d="M143.3,167.6V161h5.8v6.7H143.3z M143.5,207.9v-35h5.5v35H143.5z"/>
			<path class="st2" d="M175.5,172.4v5.2h-1.4c-7.2,0-11.5,3.6-11.5,10.3v20h-5.5v-35h5.2v6.2c2.4-4.5,6.2-6.7,11.3-6.7
				C174.4,172.4,175.1,172.4,175.5,172.4z"/>
			<path class="st2" d="M246.2,184.3v23.7h-5.5v-23.1c0-5.2-2.7-7.8-8.1-7.8c-2.5,0-4.8,1-6.8,2.9c-2,1.9-2.9,4.7-2.9,8.3v19.8h-5.5
				v-35h5.2v5.2c2.7-4,6.3-6,11.1-6C241.6,172.1,246.2,176.6,246.2,184.3z"/>
			<path class="st2" d="M282,184.3v23.7h-5.5v-23.1c0-5.2-2.7-7.8-8.1-7.8c-2.5,0-4.8,1-6.8,2.9c-2,1.9-2.9,4.7-2.9,8.3v19.8h-5.5
				v-35h5.2v5.2c2.7-4,6.3-6,11.1-6C277.5,172.1,282,176.6,282,184.3z"/>
			<path class="st2" d="M319.9,192.3h-26.8c0.5,7.7,4.5,11.5,10.9,11.5c4.8,0,8-2.2,9.4-6.5h5.7c-1.8,6.9-7,11.5-15.2,11.5
				c-4.8,0-8.8-1.6-11.8-5c-3.1-3.3-4.6-7.7-4.6-13.4c0-5.5,1.5-10,4.5-13.3c2.9-3.3,6.9-5,11.7-5c5.1,0,9,1.8,11.9,5.2
				c2.9,3.5,4.3,7.9,4.3,13.1V192.3z M293.3,187.4h20.8c-0.5-6-4.3-10.4-10.3-10.4C298.1,177.1,294.2,180.7,293.3,187.4z"/>
			<path class="st2" d="M374.6,184.2v23.8h-5.5v-23.2c0-5.2-2.5-7.7-7.4-7.7c-4.9,0-9,3.9-9,11.8v19.1h-5.5v-23.2
				c0-5.2-2.5-7.7-7.4-7.7c-4.8,0-9,4-9,11.8v19.1h-5.5v-35h5.2v5.2c2.3-4,5.7-6,10.2-6c5.3,0,8.9,2.2,10.9,6.6
				c2.5-4.4,6.1-6.6,10.9-6.6C370.3,172.1,374.6,177.1,374.6,184.2z"/>
			<path class="st2" d="M412.5,192.3h-26.8c0.5,7.7,4.5,11.5,10.9,11.5c4.8,0,8-2.2,9.4-6.5h5.7c-1.8,6.9-7,11.5-15.2,11.5
				c-4.8,0-8.8-1.6-11.8-5c-3.1-3.3-4.6-7.7-4.6-13.4c0-5.5,1.5-10,4.5-13.3c2.9-3.3,6.9-5,11.7-5c5.1,0,9,1.8,11.9,5.2
				c2.9,3.5,4.3,7.9,4.3,13.1V192.3z M385.9,187.4h20.8c-0.5-6-4.3-10.4-10.3-10.4C390.6,177.1,386.7,180.7,385.9,187.4z"/>
			<path class="st2" d="M446.6,184.3v23.7h-5.5v-23.1c0-5.2-2.7-7.8-8.1-7.8c-2.5,0-4.8,1-6.8,2.9c-2,1.9-2.9,4.7-2.9,8.3v19.8H418
				v-35h5.2v5.2c2.7-4,6.3-6,11.1-6C442.1,172.1,446.6,176.6,446.6,184.3z"/>
			<path class="st2" d="M467.9,177.7h-7.2v22.7c0,2,1.4,3,4,3h3.2v4.5c-1.5,0.1-2.8,0.2-3.9,0.2c-5.9,0-8.8-2.4-8.8-7.3v-23.2h-5.8
				v-4.8h5.8V163h5.5v9.9h7.2V177.7z"/>
		</g>
		<g>
			<path class="st3" d="M213.2,189.7c0,10.3-8.3,18.6-18.6,18.6c-10.3,0-18.6-8.3-18.6-18.6c0-10.3,8.3-18.6,18.6-18.6
				C204.9,171.1,213.2,179.5,213.2,189.7z"/>
			<g>
				<path class="st4" d="M203.5,178.1c0.2,0.2,0.7,0.3,0.3,0.6c-0.2,0.2-0.3,0.3-0.3,0.6c0.1,0.2,0.4,0.1,0.5,0.1
					c0.3,0,0.6,0,0.8-0.2c0.1-0.1,0.2-0.2,0-0.3c-0.5-0.3-0.7-0.7-0.8-1.2c-0.1-0.3-0.2-0.3-0.5-0.2c-0.2,0-0.3,0.1-0.4,0.3
					C203.2,177.9,203.4,178,203.5,178.1z"/>
				<path class="st4" d="M202.5,179.2c0.3,0,0.5-0.2,0.7-0.4c0.2-0.1,0.3-0.2,0.2-0.4c-0.1-0.2-0.2-0.2-0.4-0.2
					c-0.4,0-0.6,0.3-0.7,0.7c0,0.1,0,0.2,0.1,0.3C202.4,179.2,202.5,179.2,202.5,179.2z"/>
				<path class="st4" d="M197.5,193.9c-0.1,0-0.3-0.1-0.3-0.2c-0.2-0.6-0.7-0.7-1.3-0.6c-0.1,0-0.3,0-0.4,0c-0.5,0-1-0.2-1.5-0.5
					c-0.3-0.2-0.1-0.6-0.2-0.8c-0.2-0.3-0.2-0.9-0.7-0.8c-0.8,0.1-1.2-0.3-1.5-0.9c-0.2-0.3-0.4-0.5-0.9-0.2
					c-0.3,0.2-0.8,0.2-1.1-0.1c-0.7-0.7-1.2-0.7-1.9,0c-0.3,0.3-0.5,0.5-0.9,0.4c-0.9-0.2-0.9-0.1-1-1.1c0-0.2-0.1-0.3-0.1-0.5
					c0-0.2-0.1-0.3-0.3-0.3c-0.7,0-0.8-0.3-0.4-0.8c0.1-0.1,0.1-0.3,0-0.4c-0.2-0.2-0.3,0-0.4,0.1c-0.3,0.2-0.5,0.3-0.8,0.5
					c-0.4,0.2-0.8,0.2-1.1,0c-0.3-0.2-0.5-0.6-0.3-1.1c0.3-0.7,0.6-1.3,1.3-1.6c0.6-0.3,1.3-0.2,1.9-0.2c0.4,0,0.8-0.1,0.7,0.5
					c0,0.3,0.3,0.4,0.5,0.4c0.4,0,0.1-0.3,0.1-0.5c0-0.3,0.1-0.6,0.3-0.9c0.6-0.6,1.5-0.8,1.7-1.8c0,0,0.1-0.1,0.1-0.1
					c1-0.9,2-1.9,3.3-2.4c-0.1-0.2-0.7-0.1-0.4-0.5c0.2-0.3,0.5-0.3,0.8-0.1c0.3,0.3,0.6,0.2,0.9,0.1c0.1-0.1,0.2-0.2,0.4-0.1
					c0.2,0.1,0,0.3-0.1,0.4c-0.2,0.2-0.1,0.4,0.2,0.5c0.3,0.1,0.7,0.4,0.9,0.1c0.2-0.3-0.2-0.4-0.4-0.5c-0.4-0.2-0.4-0.3,0-0.5
					c0.4-0.2,0.4-0.6,0.1-0.8c-0.4-0.2-0.5-0.5-0.5-0.9c0-0.3-0.1-0.4-0.4-0.2c-0.1,0.1-0.2,0.2-0.4,0.2c-0.3,0.1-0.6,0.2-0.5-0.4
					c0-0.2,0-0.3-0.2-0.4c-1-0.6-1.6-0.2-1.6,0.9c0,0.2,0.1,0.5-0.3,0.6c-0.5,0.1-0.9,0.3-1,0.8c0,0.1-0.2,0.2-0.3,0.2
					c-0.2,0-0.2-0.1-0.2-0.3c0.1-0.7-0.3-0.8-0.8-0.8c-0.2,0-0.4-0.1-0.6-0.3c-0.2-0.3-0.4-0.6,0-0.8c0.6-0.3,1.1-0.7,1.8-0.9
					c0.3-0.1,0.5-0.2,0.6,0.2c0,0.2,0.2,0.2,0.4,0.1c0.2-0.2,0.4-0.6,0.5-0.7c0.4-0.1,0.6-0.4,0.9-0.5c0.4-0.2,0.8-0.2,1.2-0.1
					c0.2,0,0.4,0.1,0.4,0.3c0,0.2-0.2,0.2-0.3,0.3c-0.2,0.2-0.5,0.2-0.8,0.6c0.7-0.1,1.3,0.8,1.8-0.2c0,0,0.1,0,0.1,0
					c0.2,0,0.5,0.1,0.7-0.2c0.3-0.5-0.3-0.4-0.3-0.6c0-0.8-0.7-0.8-1.2-1.1c-0.6-0.4-1.3-0.2-1.9,0c-0.3,0.1-0.5,0.2-0.5,0.6
					c0,0.2,0.1,0.4-0.2,0.5c-0.2,0-0.4,0-0.6-0.3c-0.1-0.3,0-0.4,0.2-0.6c0.1-0.1,0.3-0.1,0.2-0.4c-0.3,0-0.7,0-1,0
					c-0.1,0-0.3,0.1-0.4,0.2c-0.1,0.2,0,0.2,0.2,0.3c0.3,0.2,0.2,0.5-0.1,0.5c-0.5,0.1-1,0.4-1.5,0.4c-0.2,0-0.4,0-0.4-0.3
					c0-0.3,0.1-0.4,0.4-0.4c0.3,0,0.6-0.1,0.8-0.3c0.1-0.1,0.3-0.2,0.2-0.4c-0.1-0.2-0.3,0-0.4,0.1c-0.5,0.4-0.9,0.4-1.4-0.2
					c-0.2-0.2-0.4-0.3-0.6-0.3c-0.7-0.1-1.1,0.3-1.5,0.7c0.3,0.2,0.8-0.1,0.8,0.2c0,0.5,0.3,0.4,0.6,0.4c0.2,0,0.4,0,0.4,0.3
					c0,0.2-0.2,0.1-0.4,0.2c-0.6,0.2-0.8-0.4-1.3-0.5c-0.5-0.1-1.1-0.3-1.6-0.4c-0.6,0.3-1.1,0.8-1.6,1.2c-2.1,1.9-3.8,4.1-4.8,6.8
					c0.2-0.1,0.2,0,0.2,0.2c-0.2,0.5,0,0.7,0.5,0.9c0.3,0.1,0.3,0.4,0.3,0.6c-0.1,0.6,0.1,1.2,0.5,1.8c0.2,0.3,0.4,0.7,0.8,0.4
					c0.3-0.2,0-0.6-0.2-0.8c-0.3-0.4-0.5-0.8-0.5-1.3c0-0.1,0-0.3,0.2-0.3c0.1,0,0.2,0.1,0.2,0.2c0,0.8,0.6,1.4,1,2
					c0.1,0.2,0.2,0.3,0.1,0.5c-0.1,0.4,0.3,1.2,0.7,1.3c0.5,0.1,1,0.4,1.6,0.2c0.1,0,0.4,0,0.4,0.1c0.1,0.5,0.5,0.5,0.8,0.5
					c0.4,0.1,0.7,0.2,0.9,0.6c0.4,0.6,0.9,1,1.6,0.9c0.2,0,0.6-0.1,0.5,0.3c0,0.4,0.3,0.8-0.2,1.1c-0.9,0.6-1,1.9-0.3,2.8
					c0.3,0.4,0.8,0.7,0.9,1.2c0.1,0.4,0.2,0.5,0.6,0.6c1,0.3,1.3,0.8,1.3,1.8c0,0.6,0,1.2,0,1.8c0,0.4,0.5,0.7,0.3,1.2
					c-0.2,0.5-0.1,1.1,0.3,1.5c0.2,0.2,0.2,0.6,0.1,0.8c-0.3,0.9,0.3,1.6,0.8,2.3c0.4,0.5,0.8,1,1.4,1.1c0.1,0,0.2,0,0.3,0
					c0.1,0,0.2,0,0.3,0c0.1,0,0.2,0,0.2-0.1c0.1-0.3-0.1-0.4-0.3-0.5c-0.3-0.3-0.5-0.5-0.3-1c0.2-0.3,0.1-0.5-0.3-0.6
					c-0.3-0.1-0.5-0.3-0.2-0.6c0.2-0.2,0.3-0.4,0-0.6c0,0-0.1-0.1-0.1-0.1c0,0,0,0,0,0c-0.2-0.2-0.1-0.3,0.2-0.4
					c0.8-0.2,1.5-0.5,1.9-1.3c0.1-0.3,0.4-0.6,0.7-0.9c0.4-0.4,0.4-0.7,0.3-1.2c-0.2-0.8,0-1.1,0.9-1.1c0.7,0,1.1-0.4,1.2-1.1
					c0.1-0.9,0-1.9,0.9-2.6C198,194.6,198.1,194.1,197.5,193.9z"/>
				<path class="st4" d="M212.5,184.5c-0.8,0-1.6,0.1-2.3-0.5c-0.4-0.3-0.9-0.1-1.1,0.3c-0.1,0.2-0.2,0.2-0.4,0.1
					c-0.5-0.3-1-0.4-1.5-0.5c-0.3-0.1-0.4-0.2-0.4-0.5c-0.1-0.7-0.1-0.7-0.8-0.7c-1,0-2,0.6-3,0.5c-0.4,0-1,0.2-1,0.8
					c0,0.7-0.3,1-0.8,1.3c-0.3,0.2-0.6,0.5-1,0.7c-0.4,0.3-0.3,0.6,0,0.8c0.5,0.2,0.2,0.4,0.1,0.7c-0.1,0.1-0.2,0.2-0.2,0.4
					c0,0.5-0.2,1,0.1,1.4c0.5,0.7,1,1.4,1.7,1.9c0,0,0.1,0,0.2,0c0.8-0.2,1.6,0.1,2.3-0.3c0.3-0.1,0.7-0.2,0.9,0
					c0.4,0.3,0.8,0.4,1.3,0.4c0.3,0,0.3,0.2,0.3,0.4c-0.3,0.9,0.1,1.7,0.6,2.4c0.5,0.7,0.6,1.4,0.1,2.1c-0.3,0.4-0.3,0.8,0.1,1.1
					c0.3,0.2,0.3,0.5,0.3,0.9c0,0.4-0.1,0.9,0.3,1.3c0.4,0.4,0.5,0.8,0.5,1.3c-0.1,0.4,0.1,0.5,0.5,0.5
					C213,196.4,214.1,190.7,212.5,184.5z"/>
				<path class="st4" d="M204.4,182.5c0.4-0.9,1.2-1.2,2-1.6c0,0,0.1,0,0.2,0c0.3,0.5,0.9,0.7,1.3,1.1c0.2,0.2,0.2,0.3-0.1,0.4
					c-0.1,0-0.3,0-0.4,0.1c0.1,0.3,0.3,0.3,0.6,0.2c0.3-0.1,0.3-0.4,0.3-0.6c0.1-0.3-0.1-0.4-0.2-0.5c-0.2-0.1-0.4-0.2-0.6-0.4
					c-0.2-0.2-0.4-0.5-0.2-0.7c0.1-0.2,0.5-0.1,0.7,0c0.1,0,0.2,0.1,0.2,0.2c0.4,0.3,0.8,0.6,0.8,1.2c0,0.3,0.3,0.6,0.6,0.7
					c0.3,0,0.2-0.4,0.3-0.6c0.1-0.1,0.1-0.3,0.3-0.3c0.2-0.1,0.3-0.1,0.4,0.2c0.2,1,0.3,1.1,1.5,1c-0.2-0.4-0.3-0.8-0.5-1.2
					c-1.1-2.4-2.7-4.4-4.6-6.1c0,0.6-0.5,0.6-0.8,0.7c-0.5,0.2-0.6,0.7-0.3,0.9c0.2,0.1,0.4,0.2,0.4,0.4c0.1,0.2,0.2,0.2,0.4,0.1
					c0.1,0,0.4-0.3,0.5,0c0.1,0.2,0.1,0.4,0.1,0.6c-0.1,0.2-0.3,0.1-0.5,0.1c-0.6-0.1-1.1,0.1-1.4,0.7c-0.1,0.3-0.4,0.4-0.7,0.4
					c-0.6,0-0.8,0.4-0.4,0.9c0.1,0.1,0.1,0.2,0.1,0.4c-0.1,0.2-0.2,0.2-0.3,0.2c-0.2,0-0.4-0.1-0.5-0.1c-0.4,0-0.8,0-1,0.3
					c-0.3,0.4-0.2,0.8,0,1.2C202.5,183.1,204.1,183.1,204.4,182.5z"/>
				<path class="st4" d="M192.9,180.7c-0.1,0-0.3-0.1-0.3,0.1c0,0.1,0.1,0.2,0.1,0.2c0.2,0.1,0.3,0.1,0.4-0.1
					c0.1-0.1,0.3-0.2,0.3-0.4C193.2,180.3,193.1,180.6,192.9,180.7z"/>
				<path class="st4" d="M191.8,180.9c0,0.1,0,0.2,0.1,0.2c0.1,0,0.2-0.1,0.2-0.2c0-0.1-0.1-0.2-0.2-0.2
					C191.9,180.8,191.8,180.9,191.8,180.9z"/>
			</g>
		</g>
	</g>
	<g>
		<path class="st2" d="M86.1,121.3l-5.4-15H50.9l-5.3,15H32.3l25.9-68.2h15.1l26.4,68.2H86.1z M54.8,95.2h22l-2.7-7.4
			C71.8,81.7,69,74,65.7,64.5c-2.8,8.2-5.6,16-8.3,23.4L54.8,95.2z"/>
		<path class="st2" d="M192.2,100.3h-37c0.9,8.5,5.6,12.7,12.8,12.7c5.6,0,9.3-2.4,11.3-7.1h11.6c-2.6,10.1-11.2,16.5-23,16.5
			c-7.4,0-13.3-2.4-17.8-7.1c-4.5-4.7-6.8-10.9-6.8-18.8c0-7.8,2.2-14,6.7-18.8c4.5-4.7,10.3-7.1,17.7-7.1c7.5,0,13.4,2.5,17.8,7.4
			c4.4,4.9,6.6,11.4,6.6,19.3V100.3z M155.3,91.9h24.8c-1.1-7.2-5.5-11.8-12.4-11.8C161.1,80.1,156.5,83.9,155.3,91.9z"/>
		<path class="st2" d="M204.4,115.3c-4.5-4.7-6.7-10.9-6.7-18.8s2.2-14.2,6.7-18.9c4.4-4.7,10.3-7,17.7-7c12.9,0,21.5,7.4,23,19
			h-12.1c-1.1-5.8-5.3-8.9-10.9-8.9c-7.4,0-12.1,5.4-12.1,15.8s4.8,15.8,12.1,15.8c5.7,0,10.2-3.3,11.1-9.5h12.1
			c-1.2,12-10.4,19.5-23.2,19.5C214.8,122.4,208.9,120,204.4,115.3z"/>
		<path class="st2" d="M296.3,88.5v32.7h-12.1V90.5c0-6.2-3.1-9.4-9.3-9.4c-5.8,0-11,4.3-11,12.4v27.7h-12.1V53.1H264v25.4
			c3.7-5.2,8.8-7.8,15-7.8C289.6,70.7,296.3,77,296.3,88.5z"/>
	</g>
</g>
</svg>
