<?xml version="1.0" encoding="utf-8"?>
<!-- Generator: Adobe Illustrator 24.3.0, SVG Export Plug-In . SVG Version: 6.00 Build 0)  -->
<svg version="1.1" id="Layer_1" xmlns="http://www.w3.org/2000/svg" xmlns:xlink="http://www.w3.org/1999/xlink" x="0px" y="0px"
	 viewBox="0 0 400 165.7" style="enable-background:new 0 0 400 165.7;" width="400" height="166" xml:space="preserve">
<style type="text/css">
	.st0{fill:#DDDDDD;}
	.st1{fill:#333333;}
	.st2{fill:#EAE4DF;}
	.st3{fill:#FFFFFF;}
	.st4{fill:#07070C;}
</style>
<g>
	<g>
		<g>
			<g>
				<circle class="st0" cx="81.7" cy="140.1" r="21.2"/>
				<path class="st1" d="M81.7,163c-12.7,0-22.9-10.5-22.9-22.9s10.5-22.9,22.9-22.9s22.9,10.5,22.9,22.9S94.5,163,81.7,163z
					 M81.7,120.2c-10.8,0-19.9,8.8-19.9,19.9c0,10.8,8.8,19.9,19.9,19.9c10.8,0,19.9-8.8,19.9-19.9C101.3,129,92.5,120.2,81.7,120.2
					z"/>
			</g>
			<g>
				<circle class="st2" cx="81.7" cy="140.1" r="12.1"/>
				<path class="st1" d="M81.7,153.5c-7.5,0-13.4-6.2-13.4-13.4c0-7.5,6.2-13.4,13.4-13.4s13.4,6.2,13.4,13.4
					C95.1,147.6,89.2,153.5,81.7,153.5z M81.7,129.7c-5.6,0-10.5,4.6-10.5,10.5c0,5.6,4.6,10.5,10.5,10.5c5.9,0,10.5-4.6,10.5-10.5
					C91.9,134.3,87.3,129.7,81.7,129.7z"/>
			</g>
		</g>
		<g>
			<g>
				<circle class="st0" cx="328.5" cy="141.8" r="21.2"/>
				<path class="st1" d="M328.5,164.6c-12.7,0-22.9-10.5-22.9-22.9s10.5-22.9,22.9-22.9c12.4,0,22.9,10.5,22.9,22.9
					S341.2,164.6,328.5,164.6z M328.5,121.8c-10.8,0-19.9,8.8-19.9,19.9c0,10.8,8.8,19.9,19.9,19.9c10.8,0,19.9-8.8,19.9-19.9
					C348.1,130.7,339.2,121.8,328.5,121.8z"/>
			</g>
			<g>
				<circle class="st2" cx="328.5" cy="141.8" r="12.1"/>
				<path class="st1" d="M328.5,155.2c-7.5,0-13.4-6.2-13.4-13.4c0-7.5,6.2-13.4,13.4-13.4c7.2,0,13.4,6.2,13.4,13.4
					S336,155.2,328.5,155.2z M328.5,131.3c-5.6,0-10.5,4.6-10.5,10.5c0,5.6,4.6,10.5,10.5,10.5c5.6,0,10.5-4.6,10.5-10.5
					C338.9,135.9,334,131.3,328.5,131.3z"/>
			</g>
		</g>
		<g>
			<path class="st3" d="M379.1,115.6c-0.3-21.9-4.9-20.6-7.5-23.5C369,89.2,350,79,350,79l-5.9-0.7c-25.8-34.6-67.6-63.7-74.2-68.3
				c-6.5-4.6-18.6-5.6-18.6-5.6S72.6,4.2,47.4,4.8C22.6,5.5,36,0.3,27.8,15.9S20,116.3,20,116.3h-2.6v29.1h19.6h19.6
				c-0.3-1.6-0.7-3.3-0.7-5.2c0-14.1,11.4-25.5,25.5-25.5s25.5,11.4,25.5,25.5c0,1.6-0.3,3.6-0.7,5.2c9.2,0,167.3,0,196.1,0
				c0-1-0.3-2.3-0.3-3.3c0-14.4,11.8-26.1,26.1-26.1c14.4,0,26.1,11.8,26.1,26.1c0,0.7,0,1.6,0,2.3l27.8-0.7v-28.1H379.1z"/>
			<path class="st1" d="M304.6,146.7H104.9l0.3-2c0.3-1.6,0.3-3.3,0.3-4.9c0-13.1-10.8-23.9-23.9-23.9s-23.9,10.8-23.9,23.9
				c0,1.6,0,3.3,0.3,4.9l0.3,2H15.7v-32h2.6c0-12.1,0.3-84.6,7.8-99.7c2.6-5.2,2.9-7.8,2.9-9.5c0-1,0.3-2.3,1.3-2.6
				c0.7-0.3,1.6-0.3,3.6,0c2.3,0.3,6.2,0.3,13.1,0.3C71.6,2.5,249,2.9,251,2.9l0,0c0.7,0,12.7,0.7,19.3,5.9c0.3,0.3,1,0.7,2,1.3
				c5.2,3.6,17.3,12.4,31,24.2C320.3,49,334,63,344.5,76.7l5.6,0.7h0.3c2,1,19.3,10.5,22.2,13.4c0.3,0.3,1,0.7,1.3,1.3
				c1.3,1,3.3,2.3,4.6,5.9c1.3,3.6,2,8.8,2.3,16h2.9v31l-31,0.7v-1.6c0-0.7,0-1.3,0-2c0-13.4-10.8-24.5-24.5-24.5
				c-13.4,0-24.5,10.8-24.5,24.5c0,1,0,2,0.3,3.3L304.6,146.7z M108.5,143.4h192.2c0-0.7,0-1.3,0-1.6c0-15.4,12.4-27.5,27.5-27.5
				s27.5,12.4,27.5,27.5c0,0.3,0,0.3,0,0.7l24.2-0.7v-24.8h-2.9v-1.6c-0.3-17.3-2.9-19.3-5.2-20.9c-0.7-0.3-1.3-1-2-1.6
				c-2-2-13.7-8.8-20.9-12.7l-6.2-0.7l-0.3-0.7c-16-21.2-40.2-43.8-71.9-66.7c-0.7-0.7-1.3-1-2-1.3c-5.9-4.2-17-4.9-17.6-5.2
				c-3.9,0-179.1-0.3-203.6,0.3c-7.2,0.3-11.1,0-13.4-0.3c-0.7,0-1,0-1.6,0l0,0c0,1.6-0.3,4.9-3.3,10.5c-3.3,6.2-5.6,25.5-6.9,55.6
				c-1,22.9-1,44.1-1,44.1v1.6h-2.6v25.8h36.3c0-1.3-0.3-2.3-0.3-3.6c0-15,12.1-27.1,27.1-27.1s27.1,12.1,27.1,27.1
				C108.8,141.1,108.8,142.4,108.5,143.4z"/>
		</g>
		<g>
			<path class="st2" d="M269,38.5c2.9,0,5.9,0.3,9.2,0.3c4.6,0,10.1-0.7,14.4,1.6c2.6,1.6,4.6,3.9,6.5,6.2c2.3,2.3,4.6,4.6,6.5,7.2
				c4.6,5.6,9.2,11.1,13.7,16.7c2,2.6,3.9,5.6,4.2,8.5c0.3,1.3,0,2.3-0.3,3.6c-2.3,5.9-11.8,4.6-16.3,3.3c-4.2-1.3-8.2-3.3-12.4-4.6
				C287,79,278.8,79,270.6,78c-4.2-0.3-8.5-1.6-8.5-6.5l-0.7-26.1C261.8,41.8,265.1,38.5,269,38.5z"/>
			<path class="st1" d="M314.7,88.8c-2.6,0-5.6-0.7-8.2-1.3c-2.3-0.7-4.2-1.6-6.5-2.3c-2-0.7-3.9-1.6-5.9-2.3
				c-5.6-1.6-11.8-2.3-17.6-2.6c-2,0-3.9-0.3-5.9-0.7c-2.6-0.3-4.9-1-6.5-2c-2.3-1.3-3.6-3.6-3.6-6.2l-0.7-26.1c0-2.3,1-4.6,2.6-6.2
				c1.6-1.6,3.9-2.6,6.2-2.3l9.2,0.3c1,0,2,0,3.3,0c3.9,0,8.5,0,12.1,2c2.3,1.3,4.2,3.3,5.9,5.2c0.3,0.3,0.7,0.7,1,1
				c0.7,1,1.6,1.6,2.3,2.6c1.3,1.6,2.9,2.9,4.2,4.6c3.9,4.6,7.8,9.5,11.8,14.4c0.7,1,1.3,1.6,2,2.6c2,2.3,4.2,5.6,4.6,9.5
				c0.3,1.6,0,3.3-0.3,4.2C323.2,87.5,319.3,88.8,314.7,88.8z M268.7,40.1c-1.3,0-2.6,0.7-3.6,1.6c-1,1-1.6,2.3-1.6,3.9l0.7,26.1
				c0,2,1,4.6,7.2,5.2c2,0.3,3.9,0.3,5.9,0.3c6.2,0.3,12.4,1,18.3,2.9c2,0.7,4.2,1.3,6.2,2.3c2,0.7,4.2,1.6,6.2,2.3
				c4.6,1.3,12.4,2.3,14.4-2.3c0.3-0.7,0.3-1.6,0.3-2.6c-0.3-2.3-1.6-4.9-3.9-7.8c-0.7-1-1.3-1.6-2-2.6c-3.9-4.6-7.8-9.5-11.8-14.4
				c-1.3-1.6-2.9-2.9-4.2-4.6c-0.7-1-1.6-1.6-2.3-2.6c-0.3-0.3-0.7-0.7-1-1c-1.6-2-3.3-3.6-5.2-4.9c-2.9-1.6-6.9-1.6-10.5-1.6
				c-1,0-2.3,0-3.3,0L268.7,40.1L268.7,40.1z"/>
		</g>
		<path class="st1" d="M40.9,31.3c-2.3,0-4.6,0-6.5,0c-0.3,0-0.7,0.3-0.7,0.7v2.3c0,0.3,0.3,0.7,0.7,0.7c2,0,4.2,0,6.5,0
			c0.3,0,0.7-0.3,0.7-0.7V32C41.5,31.6,41.2,31.3,40.9,31.3z"/>
		<path class="st1" d="M52.3,31.3c-2.3,0-4.6,0-6.5,0c-0.3,0-0.7,0.3-0.7,0.7v2.3c0,0.3,0.3,0.7,0.7,0.7c2,0,4.2,0,6.5,0
			c0.3,0,0.7-0.3,0.7-0.7V32C52.6,31.3,52.6,31.3,52.3,31.3z"/>
		<g>
			<path class="st1" d="M308.2,38.8c-1.3-2-4.9-3.6-11.1-4.9c-8.8-1.6-22.9-2.6-41.8-2.6c-18.6,0-50.3,0-84.6,0
				c-35.9,0-74.2,0-102.9,0c0,0-0.3,0-0.3,0.3v2.9c0,0,0,0.3,0.3,0.3c28.4,0,67,0,102.9,0c34.3,0,66,0,84.6,0c19,0,33,1,41.8,2.9
				c5.6,1,7.5,2.3,8.2,2.9h0.3l0,0c0,0,0,0,0.3,0l2.6,1.3h0.3C308.9,40.8,308.9,39.8,308.2,38.8z"/>
			<path class="st1" d="M63.4,31.3c-2.3,0-4.2,0-6.5,0c-0.3,0-0.7,0.3-0.7,0.7v2.3c0,0.3,0.3,0.7,0.7,0.7c2,0,4.2,0,6.5,0
				c0.3,0,0.7-0.3,0.7-0.7V32C63.7,31.6,63.7,31.3,63.4,31.3z"/>
		</g>
		<rect x="250.4" y="34.6" class="st1" width="3.3" height="110.5"/>
		<path class="st1" d="M265.7,95h-7.5c-1.3,0-2-1-2-2v-6.2c0-1.3,1-2,2-2h7.5c1.3,0,2,1,2,2v6.2C267.7,94.1,266.7,95,265.7,95z"/>
		<path class="st1" d="M382.1,117.6h-51.6c-1,0-1.6-0.7-1.6-1.6s0.7-1.6,1.6-1.6h51.6c1,0,1.6,0.7,1.6,1.6S382.7,117.6,382.1,117.6z
			"/>
	</g>
	<g>
		<path class="st4" d="M137.3,94.1h-14.4c-1.3,0-2.6-1.3-2.6-2.6c0-1.3,1.3-2.6,2.6-2.6h14.4c1.3,0,2.6,1.3,2.6,2.6
			C139.6,93.1,138.6,94.1,137.3,94.1z"/>
		<path class="st4" d="M130.1,101.2c-1.3,0-2.6-1.3-2.6-2.6V84.2c0-1.3,1.3-2.6,2.6-2.6c1.3,0,2.6,1.3,2.6,2.6v14.4
			C132.7,99.9,131.4,101.2,130.1,101.2z"/>
	</g>
	<g>
		<path class="st4" d="M230.7,121.8v-0.3l1.3-0.3l-0.3-2.3l-1.3,0.3c0-0.3,0-0.3-0.3-0.7l1-0.7l-1-2l-1,0.7l-0.3-0.3l1-1l-1.6-1.6
			l-1,1l-0.3-0.3l0.7-1l-2-1l-0.7,1c-0.3,0-0.3,0-0.7-0.3l0.3-1.3l-2.3-0.3l-0.3,1.3c-0.3,0-0.3,0-0.7,0l0,0v-1H219v1h-1v-1h-2.3v1
			h-0.7v-1h-2.3v1h-0.7v-1h-2.3v1h-0.7v-1h-2.3v1h-0.7v-1h-2.3v1h-0.7v-1H201v1h-0.7v-1h-2.3v1h-0.7v-1h-2.3v1l0,0v-1h-2.3v1h-0.7
			v-1h-2.3v1h-0.7v-1H187v1h-0.7v-1H184v1h-0.7v-1h-2.3v1h-0.7v-1h-2.3v1c-0.3,0-0.3,0-0.7,0l-0.3-1.3l-2.3,0.3l0.3,1.3
			c-0.3,0-0.3,0-0.7,0.3l-0.7-1l-2,1l0.7,1l-0.3,0.3l-1-1l-1.6,1.6l1,0.7l-0.3,0.3l-1-0.7l-1,2l1,0.7c0,0.3,0,0.3-0.3,0.7l-1.3-0.3
			l-0.3,2.3h1.3l0,0v0.3l-1.3,0.3l0.3,2.3l1.3-0.3c0,0.3,0,0.3,0.3,0.7l-1,0.7l1,2l1-0.7l0.3,0.3l-1,1l1.6,1.6l1-1l0.3,0.3l-0.7,1
			l2,1l0.7-1c0.3,0,0.3,0,0.7,0.3l-0.3,1.3l2.3,0.3l0.3-1.3c0.3,0,0.3,0,0.7,0l0,0v1h2.3v-1h0.7v1h2.3v-1h0.7v1h2.3v-1h0.7v1h2.3v-1
			h0.7v1h2.3v-1h0.7v1h2.3v-1h0.7v1h2.3v-1h0.7v1h2.3v-1h0.7v1h2.3v-1h0.7v1h2.3v-1h0.7v1h2.3v-1h0.7v1h2.3v-1h0.7v1h2.3v-1h0.7v1
			h2.3v-1h0.7v1h2.3v-1c0.3,0,0.3,0,0.7,0l0.3,1.3l2.3-0.3l-0.3-1.3c0.3,0,0.3,0,0.7-0.3l0.7,1l2-1l-0.7-1l0.3-0.3l1,1l1.6-1.6
			l-1-0.7l0.3-0.3l1,0.7l1-2l-1-0.7c0-0.3,0-0.3,0.3-0.7l1.3,0.3l0.3-2.3H230.7C230.7,122.2,230.7,121.8,230.7,121.8z"/>
		<path class="st4" d="M236.3,103.9h-5.2c0,0,0,0,0-0.3V81.3c0-1-1-2-2-2h-3.6v-5.6c0-1-1-2-2-2h-34.6c-1,0-2,1-2,2v5.6h-2.3
			c-1,0-2,1-2,2v7.5h-10.8h-0.3V41.8c0-0.3-0.3-1-1-1h-3.9c-0.3,0-1,0.3-1,1v3.6h-12.4v7.5h4.6c0,0,0,0,0,0.3l0,0l0,0l0,0l0,0
			c0,0,0,0,0,0.3l0,0l0,0l0,0l0,0l0,0l0,0l0,0l0,0l0,0l0,0l0,0l0,0l0,0l0,0l0,0l0,0l0,0l0,0l0,0l0,0l0,0l0,0l0,0l0,0l0,0l0,0l0,0
			l0,0v0.3l0,0l0,0l0,0l0,0l0,0v0.3l0,0l0,0c0,0,0,0.3,0.3,0.3l0,0l0,0l0,0l0,0l0,0l0,0v0.3l0,0l0,0l0,0l0,0l0,0l0,0l0,0l0,0l0,0
			l0,0l0,0v0.3l0,0v0.3l0,0l0,0l0,0v0.3l0,0l0,0l0,0l0,0l0,0l0,0l0,0l0,0l0,0l0,0l0,0l0,0l0,0l0,0l0,0l0,0l0,0v0.3l0,0l0,0l0,0l0,0
			l0,0l0,0l0,0l0,0l0,0l0,0l0,0l0,0l0,0l0,0v0.3l0,0l0,0v0.3v0.3l0,0l0,0l0,0l0,0l0,0l0,0l0,0l0,0l0,0l0,0l0,0l0,0c0,0,0,0,0,0.3
			l0,0v0.3l0,0l0,0l0,0l0,0l0,0v0.3l0,0v0.3v0.3l0,0l0,0l0,0l0,0l0,0c0,0,0,0,0,0.3l0,0l0,0l0,0l0,0l0,0c0,0,0,0.3,0,0.7l0,0l0,0
			c0,0,0,0,0,0.3v0.3l0,0l0,0l0,0v0.3l0,0l0,0l0,0l0,0l0,0c-0.3,0.3,0,0.3,0,0.7l0,0l0,0l0,0l0,0l0,0l0,0l0,0l0,0l0,0h-4.6v9.8h4.6
			l0,0v0.3v0.3l0,0l0,0l0,0l0,0l0,0c0,0,0,0,0,0.3l0,0l0,0l0,0l0,0l0,0l0,0l0,0l0,0l0,0l0,0l0,0l0,0l0,0l0,0l0,0l0,0l0,0l0,0l0,0
			c0,0,0,0,0,0.3l0,0l0,0l0,0l0,0l0,0l0,0l0,0l0,0l0,0l0,0l0,0l0,0l0,0v0.3c0,0,0,0,0,0.3c0,0,0,0,0,0.3c0,0,0,0,0,0.3l0,0l0,0
			c0,0,0,0,0,0.3l0,0l0,0l0,0l0,0c0,0,0,0,0,0.3l0,0c0,0,0,0,0,0.3v0.3v0.3l0,0l0,0l0,0l0,0l0,0l0,0l0,0l0,0l0,0l0,0l0,0l0,0
			c0,0,0,0,0,0.3l0,0l0,0l0,0l0,0l0,0l0,0l0,0l0,0l0,0v0.3l0,0l0,0c0,0,0,0,0,0.3l0,0l0,0v0.3c0,0,0,0,0,0.3c0,0,0,0,0,0.3l0,0l0,0
			l0,0l0,0l0,0c0,0,0,0,0,0.3l0,0l0,0l0,0V78l0,0c0,0,0,0,0,0.3l0,0l0,0l0,0l0,0l0,0v0.3l0,0l0,0l0,0l0,0l0,0l0,0l0,0l0,0
			c0,0,0,0.3,0,0.7l0,0l0,0l0,0l0,0l0,0l0,0c0,0,0,0,0,0.3l0,0l0,0l0,0c0,0,0,0,0,0.3l0,0l0,0l0,0l0,0v0.3l0,0l0,0v0.3l0,0l0,0l0,0
			l0,0c0,0,0,0,0,0.3v0.3l0,0l0,0l0,0l0,0c0,0,0,0,0,0.3l0,0l0,0l0,0V82l0,0l0,0l0,0v0.3v0.3l0,0c-1.6,0-1.6,0.3-1.6,0.3v1.3l0,0
			c-0.7,0.7-1.3,1.6-1.3,2.6v21.9c0,0,0,0,0,0.3l0,0l0,0v0.3l0,0c0.7,0.7,2.9,0.7,3.3,0.7s2.6,0,3.3-0.7l0,0v-0.3c0,0,0,0,0-0.3l0,0
			l0,0v-0.3V86.5c0-1.3-0.7-2.3-1.3-2.6l0,0v-1.3c0-0.3,0-0.3-1.3-0.3l0,0l0,0l0,0l0,0l0,0l0,0l0,0l0,0l0,0l0,0V82l0,0l0,0l0,0
			c0,0,0,0,0-0.3l0,0l0,0l0,0l0,0l0,0v-0.3l0,0l0,0l0,0l0,0l0,0l0,0l0,0l0,0l0,0l0,0l0,0V81l0,0l0,0l0,0l0,0l0,0
			c0.3-0.3,0-0.3,0-0.7l0,0l0,0l0,0l0,0l0,0l0,0c0,0,0,0,0-0.3l0,0l0,0l0,0v-0.3l0,0c0,0,0,0,0-0.3l0,0l0,0l0,0l0,0l0,0l0,0l0,0l0,0
			l0,0l0,0l0,0l0,0l0,0l0,0V79l0,0l0,0l0,0l0,0l0,0l0,0l0,0l0,0l0,0l0,0l0,0l0,0l0,0c0,0,0,0,0-0.3l0,0l0,0c0,0,0,0,0-0.3l0,0l0,0
			l0,0l0,0l0,0l0,0l0,0l0,0l0,0V78l0,0l0,0l0,0l0,0l0,0l0,0l0,0v-0.3c0,0,0,0,0-0.3c0,0,0,0,0-0.3l0,0l0,0c0,0,0,0,0-0.3l0,0l0,0
			l0,0c0,0,0,0,0-0.3l0,0l0,0l0,0l0,0l0,0v-0.3l0,0l0,0l0,0l0,0l0,0l0,0l0,0l0,0l0,0l0,0l0,0l0,0l0,0l0,0l0,0l0,0l0,0l0,0l0,0l0,0
			l0,0l0,0l0,0l0,0c0,0,0,0,0-0.3l0,0l0,0c0,0,0,0,0-0.3l0,0l0,0l0,0l0,0c0,0,0,0,0-0.3l0,0l0,0l0,0l0,0l0,0l0,0l0,0l0,0v-0.3
			c0,0,0,0,0-0.3c0,0,0,0,0-0.3l0,0l0,0l0,0l0,0l0,0l0,0c0,0,0,0,0-0.3l0,0l0,0l0,0l0,0l0,0l0,0c0,0,0,0,0-0.3h6.5v34
			c0,0.3,0.3,1,1,1h3.9c0.3,0,1-0.3,1-1v-0.3h63.7c1.3,0,2.3-1,2.3-2.6v-1C238.6,105.2,237.6,103.9,236.3,103.9z M172.6,101.6
			L172.6,101.6h11.1v2.3c0,0,0,0,0,0.3h-11.4v-2.6L172.6,101.6L172.6,101.6z M160.5,66.3C160.5,66.3,160.5,65.9,160.5,66.3
			L160.5,66.3C160.5,65.9,160.5,65.9,160.5,66.3C160.5,65.9,160.5,65.9,160.5,66.3C160.5,65.9,160.5,65.9,160.5,66.3
			C160.5,65.9,160.5,65.9,160.5,66.3c0-0.3,0-0.3,0-0.3s0,0,0-0.3l0,0l0,0c0.3,0,0.3-0.3,0.3-0.3l0,0l0,0l0,0l0,0l0,0l0,0
			c0,0,0,0,0-0.3l0,0l0,0l0,0l0,0l0,0l0,0v-0.3l0,0l0,0l0,0l0,0l0,0l0,0v-0.3l0,0l0,0l0,0l0,0l0,0l0,0c0,0,0,0,0-0.3l0,0l0,0l0,0
			l0,0l0,0l0,0v-0.3l0,0l0,0l0,0c0,0,0,0,0-0.3l0,0l0,0l0,0l0,0l0,0l0,0l0,0V63l0,0l0,0l0,0l0,0l0,0l0,0l0,0l0,0l0,0l0,0l0,0l0,0
			l0,0c0,0,0,0,0-0.3l0,0v-0.3l0,0l0,0l0,0l0,0l0,0l0,0l0,0l0,0l0,0l0,0l0,0l0,0l0,0l0,0l0,0l0,0l0,0c0,0,0,0,0-0.3l0,0l0,0l0,0l0,0
			l0,0c0,0,0,0,0-0.3l0,0l0,0l0,0l0,0v-0.3l0,0l0,0l0,0l0,0l0,0l0,0V61l0,0l0,0l0,0l0,0l0,0l0,0l0,0l0,0v-0.3l0,0l0,0l0,0l0,0v-0.3
			l0,0c0,0,0,0,0-0.3v-0.3l0,0l0,0l0,0v-0.3l0,0l0,0l0,0c0,0,0,0,0-0.3l0,0l0,0l0,0l0,0l0,0l0,0l0,0c0-0.3,0-0.3,0-0.3l0,0l0,0l0,0
			l0,0l0,0l0,0l0,0l0,0l0,0v-0.3l0,0l0,0l0,0l0,0l0,0l0,0c0,0,0,0,0-0.3l0,0l0,0l0,0l0,0c0.3-0.3,0-0.3,0-0.7l0,0l0,0l0,0l0,0l0,0
			l0,0l0,0l0,0l0,0l0,0l0,0l0,0l0,0l0,0h6.5v13.1L160.5,66.3L160.5,66.3z"/>
	</g>
	<g>
		<path class="st4" d="M125.8,51.9h-2v-1h-12.4v1h-4.6v-3.3c0-1-1-2-2-2h-2.6h-8.8h-7.8c-1,0-2,1-2,2v3.3h-4.2v-1H67v1h-1.6v4.9H67
			v0.7h12.4v-0.7h4.2v9.5c0,1,1,2,2,2h2.6c0,0.3-0.3,0.7-0.3,1v6.5c0,1,1,2,2,2h2v16h-2.6v10.5h12.1V93.7h-2v-16h0.7c1,0,2-1,2-2
			v-6.5c0-0.3,0-0.7-0.3-1h0.7h2.6c1,0,2-1,2-2v-9.5h4.6v0.7h12.4v-0.7h2L125.8,51.9L125.8,51.9z"/>
	</g>
</g>
</svg>
