<?xml version="1.0" encoding="utf-8"?>
<!-- Generator: Adobe Illustrator 24.3.0, SVG Export Plug-In . SVG Version: 6.00 Build 0)  -->
<svg version="1.1" id="Layer_1" xmlns="http://www.w3.org/2000/svg" xmlns:xlink="http://www.w3.org/1999/xlink" x="0px" y="0px"
	 viewBox="0 0 1920 1280" style="enable-background:new 0 0 1920 1280;" xml:space="preserve">
<style type="text/css">
	.st0{fill:none;stroke:#000000;stroke-width:0.5;stroke-miterlimit:10;}
	.st1{fill:none;stroke:#000000;stroke-width:0.75;stroke-linecap:round;stroke-linejoin:round;}
	.st2{fill:#231F20;}
	.st3{opacity:0.33;}
	.st4{opacity:0.82;}
	.st5{fill:none;stroke:#231F20;stroke-miterlimit:10;}
	.st6{fill:none;stroke:#231F20;stroke-miterlimit:10;stroke-dasharray:1.034,1.034;}
	.st7{fill:none;stroke:#231F20;stroke-miterlimit:10;stroke-dasharray:0.943,0.943;}
	.st8{fill:#FFFFFF;stroke:#231F20;stroke-miterlimit:10;}
	.st9{opacity:0.82;fill:none;stroke:#231F20;stroke-width:1.5;stroke-miterlimit:10;enable-background:new    ;}
	.st10{fill:none;stroke:#000000;stroke-linecap:round;stroke-linejoin:round;}
	.st11{fill:#222222;}
</style>
<path class="st0" d="M135.5,537.2c-1.8,0-4-0.2-6.6-0.5l0.2-1c9.1,1.1,13.2-0.1,13.9-1.5c0.7-1.2-0.5-2.8-2.2-5.2s-3.8-5.3-5.4-9.5
	c-1.7-4.6-4.8-16,1.7-23.5c2.7-2.9,8.7-6.1,22.3-4.2c0.2,0.1,0.4,0.1,0.5,0.1l-0.2,1c-0.1,0-0.3-0.1-0.5-0.1
	c-13.1-1.8-18.8,1-21.4,3.8c-2.1,2.3-6.4,9.1-1.6,22.4c1.5,4.1,3.6,6.9,5.2,9.2c1.9,2.6,3.2,4.5,2.3,6.3
	C143.4,535.5,141.7,537.2,135.5,537.2z M54.2,497.4l-0.3-1c21.9-6.1,34.6-14.5,37.5-25.4c2.8-10.1-3.4-18.8-10.7-29
	c-6.9-9.8-14.9-20.9-16-35.4c-1.4-18.2,8.6-37.5,29.7-57.5l0.8,0.8c-20.9,19.7-30.8,38.7-29.4,56.6c1,14.2,8.9,25.2,15.8,34.9
	c7.4,10.4,13.8,19.3,10.8,29.7C89.5,482.5,76.5,491.2,54.2,497.4z M258.2,496.8c0,1.2-1,2.2-2.3,2.2c-1.2,0-2.3-0.9-2.3-2.2
	s1-2.2,2.3-2.2C257.2,494.5,258.2,495.6,258.2,496.8z M257.5,496.8c0,0.9-0.8,1.6-1.6,1.6c-0.9,0-1.6-0.8-1.6-1.6
	c0-0.9,0.8-1.6,1.6-1.6C256.8,495.2,257.5,496,257.5,496.8z M145.2,515.9h-2.8V510h2.8V515.9z M142.4,516.8h17.4v-0.9h-17.4V516.8z
	 M184.6,523.1c0,0.8-0.6,1.3-1.4,1.3c-0.8,0-1.4-0.6-1.4-1.3s0.6-1.3,1.4-1.3C183.9,521.8,184.6,522.4,184.6,523.1z M197.6,523.1
	c0,7.7-6.5,14-14.4,14c-8.1,0-14.4-6.3-14.4-14s6.5-14,14.4-14C191.3,509.2,197.6,515.4,197.6,523.1z M198.4,523.1
	c0,8.1-6.8,14.6-15.2,14.6s-15.2-6.6-15.2-14.6s6.8-14.6,15.2-14.6C191.5,508.5,198.4,515,198.4,523.1z M253.8,497.6h-38.9V496h38.9
	 M187.4,496h-4.2v-17h4.2V496z M171.6,496h-11.8v-9.8h11.8V496z M164.5,516.8h-4.7V496h55.1v20.8h-13 M203,523.1
	c0,10.5-8.8,19.1-19.8,19.1s-19.8-8.5-19.8-19.1s8.8-19.1,19.8-19.1S203,512.6,203,523.1z M112,526.9h-1.4v-4.6h1.4V526.9z
	 M122,524.1h2.2v1.4H122 M122,525.5h-8.5v-1.4h8.5 M128.9,540.9h-3v-22.6h3V540.9z M115.1,525.5v15.4h-3v-22.5h3v5.8 M118.8,518.3
	h-8.2v-1.4h19.6v1.4H118.8z M130.2,542.2h-19.6v-1.4h19.6V542.2z M118.8,524.1v-5.8 M118.8,516.8V388.7h3.2v128.1 M122,518.3v5.8
	 M122,525.5v15.4h-3.2v-15.4 M122.5,388.1h-3.8v-6.4h3.8V388.1z M125.2,374.7c0,0,1.3,10.4,0.9,11.6l-0.8,0.3v1.4h-0.9
	c0,0,0.9-11.9,0-12.1c-0.9-0.1-1.1,0.2-1.1,0.2v3.5l-0.7,0.9l1.4,0.6l-0.3,7h-1.8h-1.6h-1.6h-1.8l-0.3-7l1.4-0.6l-0.7-0.9v-3.5
	c0,0-0.2-0.4-1.1-0.2c-0.9,0.1,0,12.1,0,12.1h-0.9v-1.4l-0.8-0.3c-0.5-1.2,0.9-11.6,0.9-11.6 M122,342.9v32.7h-3.2v-32.7
	 M118.8,375.5l-4.9-1.5v-31.1 M126.8,342.9v31.3l-4.7,1.3 M122,375.5h-3.2 M109,341.1l-13.3,9.5l-1.3-1.6l12.7-10.8 M127.1,316.6
	h-13.4v-6.7h13.4V316.6z M130.9,306.9c0,0,5.1,0.9,4.9,5.6c-0.2,4.7-0.3,8.4-0.3,8.4s-2.8,16.1-4.7,17.1l-1.8,1 M109.6,307
	c0,0-4.8,0.9-4.7,5.6c0.2,4.7,0.3,8.4,0.3,8.4s2.8,16.1,4.7,17.1l1.8,1 M127.4,337.6h-14.2v-3h14.2V337.6z M102.6,317.5
	c0,0-0.1,1.6-4.4,1.6c-4.3,0.1-9.2,0-9.2,0s-0.9,2.3,0,3.6l9.2,0.2c0,0,4.5-0.1,5.5,3.2 M138.1,317.5c0,0,0.1,1.6,4.4,1.6
	c4.3,0.1,9.2,0,9.2,0s0.9,2.3,0,3.6l-9.2,0.2c0,0-4.5-0.1-5.5,3.2 M130.9,304.3c0,0,7.6,0.6,7.4,7.8s-0.5,9.6-1.5,14.6
	c-0.9,5-3.6,12.3-4.2,13c-0.5,0.6-1.9,2.2-3.9,2 M109.6,304.7c0,0-7.4,0.6-7.1,7.8c0.2,7.2,0.5,9.6,1.5,14.6c0.9,5,3.6,12.3,4.2,13
	c0.5,0.6,1.9,2.2,3.9,2 M126.8,342.9h-12.1c-0.9,0-2.8-0.1-2.8-0.9l-2.3-37.4c0-0.9,1.7-1.4,2.5-1.4l16.6-0.2c0.9,0,2.4,0.9,2.4,1.7
	l-2.2,37C129,342.7,127.6,342.9,126.8,342.9z"/>
<line class="st1" x1="11" y1="531.6" x2="44.6" y2="481"/>
<polygon class="st2" points="8.4,535.7 12.9,531.8 10.3,530.1 "/>
<line class="st1" x1="44.7" y1="480.6" x2="44.7" y2="202.7"/>
<polygon class="st2" points="45.2,199.1 43.1,204.7 47.3,204.7 "/>
<path class="st1" d="M256.4,481h-69.2 M183,481h-61 M118.8,481h-32 M85.2,481H44.9"/>
<polygon class="st2" points="256.1,478.9 262,481 256.1,483.1 "/>
<line class="st1" x1="50.2" y1="481.1" x2="50.2" y2="238.4"/>
<polygon class="st2" points="52.8,238.6 50.6,233 48.5,238.6 "/>
<g class="st3">
	<g class="st4">
		<path class="st5" d="M898.2,424.9h-3.4v-32.3h3.4V424.9z M862.4,424.9H859v-32.3h3.4V424.9z M895.4,392.7h-31.8v-3h31.8V392.7z
			 M873.7,424.9H859v-32.3h39.4v32.3h-14.9"/>
		<rect x="875.6" y="505" class="st5" width="5.9" height="1.3"/>
		<path class="st5" d="M881.6,478.7h-6.1V477h6.1V478.7z M881.6,482.2h-6.1v-1.7h6.1V482.2z M881.6,485.8h-6.1v-1.7h6.1V485.8z
			 M881.6,489.3h-6.1v-1.7h6.1V489.3z M881.6,492.8h-6.1v-1.7h6.1V492.8z M881.6,496.3h-6.1v-1.7h6.1V496.3z M881.6,499.4h-6.1v-1.7
			h6.1V499.4z M881.6,502.9h-6.1v-1.7h6.1V502.9z M872.7,404.8v-5.5h11.8v5.5"/>
		<line class="st6" x1="872.1" y1="469.2" x2="872.1" y2="512.2"/>
		<line class="st6" x1="885.3" y1="469.2" x2="885.3" y2="512.2"/>
		<line class="st7" x1="873.4" y1="510.6" x2="883.9" y2="510.6"/>
		<rect x="870.3" y="425.1" class="st8" width="3.4" height="42.2"/>
		<rect x="870.3" y="425.1" class="st5" width="3.4" height="42.2"/>
		<rect x="883.6" y="425.1" class="st8" width="3.4" height="42.2"/>
		<rect x="883.6" y="425.1" class="st5" width="3.4" height="42.2"/>
		<rect x="873.9" y="400" class="st5" width="9.4" height="108.2"/>
	</g>
	<path class="st9" d="M1076.3,488.9h-4.1v9.3h4.1V488.9z M1071,504.7v-6.6h6.4v6.6 M1077.4,504.5l-3.1,7.8l-3.3-7.8 M1077.4,481.6
		h-6.4V369.2h6.4V481.6z"/>
	<g class="st4">
		<rect x="898.9" y="392.1" class="st2" width="171.4" height="1"/>
		<rect x="759.9" y="392.1" class="st2" width="98.5" height="1"/>
		<rect x="1078.2" y="392.1" class="st2" width="119.9" height="1"/>
	</g>
</g>
<g>
	<path class="st1" d="M1813.8,407.7V279.3c0-0.5,0.4-1,0.9-1h0.8c0.5,0,0.9,0.5,0.9,1v128.4c0,0.5-0.4,1-0.9,1h-0.8
		C1814.3,408.7,1813.8,408.3,1813.8,407.7z M1813.8,532.5V414.2c0-0.5,0.4-1,0.9-1h0.8c0.5,0,0.9,0.5,0.9,1v118.3c0,0.5-0.4,1-0.9,1
		h-0.8C1814.3,533.5,1813.8,533,1813.8,532.5z M1810.9,274.3h5.9v262.4h-5.9V274.3z M1823.9,208h-18.7v66.3h18.7V208z M1805.1,204.5
		h-15.7v288.8h15.7V204.5z M1755.2,493.3h34.3v-15.9h-65.6V489 M1789.5,483.4h-65.6 M1723.9,483.4h-138.5v5.5h138.5 M1723.9,489
		h65.6 M1711.5,414.7h-94.9v7.2h94.9V414.7z M1723.9,421.9h-119.6v61.6h119.6V421.9z M1755.2,489h-124.9v6.1h124.9V489z
		 M1637.4,518.7c1.4,1.5,4.2,2,6.3,1c2.1-1,2.7-3.1,1.4-4.7c-1.4-1.5-4.2-2-6.3-1S1636.1,517.1,1637.4,518.7z M1730.7,504h-89.4l0,0
		c-9.8-0.3-18.1,5.6-18.1,12.9c0,7.3,8.1,13.1,18.1,12.9l0,0h89.4v-1.4c-12.8-4.8-12.8-18.2,0-23V504z M1746,499h-108.5
		c-13.4,0-24.1,7.9-24.1,17.8c0,9.8,10.8,17.8,24.1,17.8h108.4c13.4,0,24.1-7.9,24.1-17.8C1770.1,507,1759.3,499,1746,499z
		 M1746,496.9h-4.5v1.4h4.5V496.9z M1754,497.6l-4.4-0.7l-0.4,1.3l4.4,0.7L1754,497.6z M1761.4,500.3l-4-1.6l-0.9,1.2l4,1.6
		L1761.4,500.3z M1767.4,504.5l-3.1-2.4l-1.4,0.9l3.1,2.4L1767.4,504.5z M1771.4,509.8l-2-3l-1.6,0.5l2,3L1771.4,509.8z
		 M1773.1,515.8l-0.6-3.3l-1.7,0.2l0.6,3.3L1773.1,515.8z M1772.3,521.8l0.8-3.3l-1.7-0.3l-0.8,3.3L1772.3,521.8z M1768.9,527.4
		l2.1-3l-1.6-0.5l-2.1,3L1768.9,527.4z M1763.6,532l3.2-2.3l-1.3-0.9l-3.2,2.3L1763.6,532z M1756.6,535.2l4-1.5l-0.8-1.2l-4,1.5
		L1756.6,535.2z M1748.6,536.7l4.5-0.5l-0.4-1.4l-4.5,0.5L1748.6,536.7z M1740.7,536.7h4.5v-1.4h-4.5V536.7z M1733.3,536.7h4.5v-1.4
		h-4.5V536.7z M1726,536.7h4.5v-1.4h-4.5V536.7z M1718.6,536.7h4.5v-1.4h-4.5V536.7z M1711.3,536.7h4.5v-1.4h-4.5V536.7z
		 M1703.9,536.7h4.5v-1.4h-4.5V536.7z M1696.6,536.7h4.5v-1.4h-4.5V536.7z M1689.2,536.7h4.5v-1.4h-4.5V536.7z M1681.8,536.7h4.5
		v-1.4h-4.5V536.7z M1674.5,536.7h4.5v-1.4h-4.5V536.7z M1667.1,536.7h4.5v-1.4h-4.5V536.7z M1659.7,536.7h4.5v-1.4h-4.5V536.7z
		 M1652.3,536.7h4.5v-1.4h-4.5V536.7z M1644.9,536.7h4.5v-1.4h-4.5V536.7z M1637.5,536.7h4.5v-1.4h-4.5V536.7z M1629.7,535.9
		l4.4,0.7l0.4-1.3l-4.4-0.7L1629.7,535.9z M1622.3,533.3l4,1.6l0.9-1.2l-4-1.6L1622.3,533.3z M1616.2,529.1l3.1,2.4l1.4-0.9
		l-3.1-2.4L1616.2,529.1z M1612.2,523.8l2,3l1.6-0.5l-2-3L1612.2,523.8z M1610.6,517.9l0.6,3.3l1.7-0.2l-0.6-3.3L1610.6,517.9z
		 M1611.4,511.8l-0.8,3.3l1.7,0.3l0.8-3.3L1611.4,511.8z M1614.6,506.2l-2.1,3l1.6,0.5l2.1-3L1614.6,506.2z M1620,501.6l-3.2,2.3
		l1.3,0.9l3.2-2.3L1620,501.6z M1627.1,498.4l-4,1.5l0.8,1.2l4-1.5L1627.1,498.4z M1635,496.9l-4.5,0.5l0.4,1.4l4.5-0.5L1635,496.9z
		 M1643,496.9h-4.5v1.4h4.5V496.9z M1650.3,496.9h-4.5v1.4h4.5V496.9z M1657.7,496.9h-4.5v1.4h4.5V496.9z M1665.1,496.9h-4.5v1.4
		h4.5V496.9z M1672.4,496.9h-4.5v1.4h4.5V496.9z M1679.8,496.9h-4.5v1.4h4.5V496.9z M1687.1,496.9h-4.5v1.4h4.5V496.9z
		 M1694.5,496.9h-4.5v1.4h4.5V496.9z M1701.8,496.9h-4.5v1.4h4.5V496.9z M1709.2,496.9h-4.5v1.4h4.5V496.9z M1716.5,496.9h-4.5v1.4
		h4.5V496.9z M1723.9,496.9h-4.5v1.4h4.5V496.9z M1731.3,496.9h-4.5v1.4h4.5V496.9z M1738.6,496.9h-4.5v1.4h4.5V496.9z
		 M1730.7,508.5c-6.2,5.4-5.4,13.5,2,18.1s18.3,4,24.5-1.4s5.4-13.5-2-18.1C1747.9,502.4,1736.9,503.1,1730.7,508.5z M1740.2,518.7
		c1.4,1.5,4.2,2,6.3,1c2.1-1,2.7-3.1,1.4-4.7c-1.4-1.5-4.2-2-6.3-1S1738.7,517.1,1740.2,518.7z M1789.5,465.4h-65.6v2.8h65.6V465.4z
		 M1789.5,436.6h-65.6v2.8h65.6V436.6z"/>
	<polygon class="st2" points="1910.2,535.6 1904.6,530.5 1907.9,528.2 	"/>
	<line class="st10" x1="1859.7" y1="455.5" x2="1859.7" y2="200.8"/>
	<polygon class="st2" points="1860,193.3 1862.1,200.8 1858,200.8 	"/>
	<path class="st10" d="M1604.3,455.9h-16.9 M1859.4,455.9h-41.5"/>
	<polygon class="st2" points="1588.1,454.1 1580.9,456.1 1588.1,458.1 	"/>
	<path class="st10" d="M1804.8,455.5h6.7 M1681.7,413.6v5.2 M1686.3,413.6v5.2 M1690.5,413.6v5.2 M1694.8,413.6v5.2"/>
	<line class="st1" x1="1859.7" y1="455.9" x2="1906.3" y2="529.9"/>
</g>
<g>
	<g>
		<path class="st2" d="M1813.4,201.9L1813.4,201.9c0-1.4,0.6-2.6,2.2-4c1.1-0.9,1.4-1.2,1.4-2s-0.4-1.2-1-1.2
			c-0.8,0-1.1,0.5-1.2,1.4h-1.4c0.1-1.4,0.9-2.6,2.5-2.6c1.8,0,2.4,1.3,2.4,2.4c0,1.2-0.5,1.7-1.8,2.9c-0.9,0.8-1.4,1.4-1.5,1.7h3.6
			l-0.2,1.4L1813.4,201.9L1813.4,201.9z"/>
		<path class="st2" d="M1826.2,196.3c0,0.9,0.5,1.5,1.2,1.5c0.8,0,1.2-0.5,1.2-1.4c0-0.5-0.2-1.5-1.3-1.5
			C1826.5,194.7,1826.2,195.4,1826.2,196.3 M1826.3,200c0.2,0.5,0.5,0.9,1.1,0.9c1.2,0,1.4-1.7,1.4-2.6c-0.4,0.5-0.9,0.8-1.6,0.8
			c-1.5,0-2.3-1.2-2.3-2.7c0-1.6,1-2.8,2.7-2.8c2,0,2.7,1.7,2.7,3.9c0,2.3-0.5,4.7-2.8,4.7c-1.6,0-2.3-1.1-2.4-2.2L1826.3,200
			L1826.3,200z"/>
		<path class="st2" d="M1834.2,197.7c0,1.5,0.2,3.1,1.4,3.1s1.4-1.4,1.4-3.1c0-1.6-0.2-3-1.4-3
			C1834.5,194.7,1834.2,195.9,1834.2,197.7 M1838.4,197.7c0,2.2-0.6,4.3-2.8,4.3s-2.8-2.1-2.8-4.2c0-2.3,0.7-4.2,2.9-4.2
			C1837.6,193.5,1838.4,195.5,1838.4,197.7"/>
		<path class="st2" d="M1841.2,197.3c0-0.5,0-1.1,0-1.6h1.4c0,0.2,0.1,0.5,0.1,0.8c0.3-0.5,0.8-1,1.8-1c0.9,0,1.4,0.5,1.6,1
			c0.4-0.5,0.9-1,2-1s2,0.6,2,2.3v4.1h-1.5V198c0-0.6-0.3-1.2-1-1.2c-0.8,0-1.2,0.5-1.2,1.5v3.5h-1.5V198c0-0.7-0.2-1.3-1-1.3
			s-1.2,0.5-1.2,1.6v3.4h-1.5L1841.2,197.3L1841.2,197.3z"/>
		<path class="st2" d="M1857.4,530.9c0,1.6,0.2,3.2,1.4,3.2c1.2,0,1.4-1.4,1.4-3.2c0-1.6-0.2-3.1-1.4-3.1
			C1857.8,527.8,1857.4,529,1857.4,530.9 M1861.6,530.9c0,2.3-0.6,4.5-2.9,4.5c-2.2,0-2.9-2.2-2.9-4.5s0.7-4.5,2.9-4.5
			S1861.6,528.5,1861.6,530.9"/>
		<rect x="1864.7" y="533.8" class="st2" width="1.2" height="1.4"/>
		<path class="st2" d="M1872.8,526.6v1.2c-1.2,2-2.3,4.9-2.7,7.3h-1.4c0.3-2.4,1.6-5.6,2.7-7.2h-3.6v-1.4L1872.8,526.6L1872.8,526.6
			z"/>
		<path class="st2" d="M1877.4,528.9c0,0.6,0.4,1.1,1.2,1.1c0.8,0,1.2-0.4,1.2-1.1s-0.4-1.2-1.2-1.2
			C1877.8,527.8,1877.4,528.1,1877.4,528.9 M1880,532.7c0-0.9-0.5-1.4-1.4-1.4s-1.4,0.5-1.4,1.4s0.5,1.4,1.4,1.4
			C1879.4,534.1,1880,533.7,1880,532.7 M1875.7,532.7c0-1.1,0.7-1.8,1.4-2.2c-0.6-0.4-1-0.9-1-1.8c0-1.4,0.9-2.3,2.6-2.3
			c1.5,0,2.5,0.9,2.5,2.3c0,1-0.5,1.5-1,1.7c0.6,0.3,1.4,1,1.4,2.2c0,1.7-1.2,2.7-2.9,2.7C1877,535.5,1875.7,534.5,1875.7,532.7"/>
		<path class="st2" d="M1885,530.5c0-0.5,0-1.1,0-1.6h1.5c0,0.2,0.1,0.5,0.1,0.8c0.4-0.5,0.9-1,1.8-1s1.5,0.5,1.7,1
			c0.4-0.5,1-1,2.1-1s2.1,0.6,2.1,2.3v4.2h-1.5v-4c0-0.6-0.3-1.3-1.1-1.3c-0.9,0-1.2,0.5-1.2,1.6v3.6h-1.5v-3.9
			c0-0.7-0.2-1.4-1.1-1.4c-0.8,0-1.3,0.5-1.3,1.7v3.5h-1.5L1885,530.5L1885,530.5z"/>
		<path class="st2" d="M1558.9,470L1558.9,470c0-1.4,0.6-2.6,2.3-4c1.1-0.9,1.4-1.2,1.4-2c0-0.7-0.4-1.2-1.1-1.2
			c-0.8,0-1.1,0.5-1.2,1.4h-1.4c0.1-1.4,0.9-2.5,2.6-2.5c1.8,0,2.4,1.2,2.4,2.4c0,1.3-0.5,1.7-1.8,2.9c-1,0.8-1.4,1.4-1.5,1.7h3.6
			l-0.2,1.4L1558.9,470L1558.9,470z"/>
		<rect x="1566.7" y="468.7" class="st2" width="0.9" height="1.4"/>
		<path class="st2" d="M1573.7,465.2c0-0.8,0-1.4,0.1-1.9c-0.4,0.7-1.7,2.4-2.6,3.5h2.6L1573.7,465.2L1573.7,465.2z M1573.7,470
			v-1.9h-4.2v-1.4l3.9-4.9h1.8v5h1.1l-0.2,1.3h-1v1.9H1573.7z"/>
		<path class="st2" d="M1578.9,466c0,1.5,0.2,3,1.4,3c1.2,0,1.4-1.4,1.4-3.1c0-1.6-0.2-3-1.4-3C1579.1,463,1578.9,464.2,1578.9,466
			 M1583.1,466c0,2.2-0.6,4.3-2.8,4.3s-2.8-2.1-2.8-4.2c0-2.2,0.7-4.2,2.9-4.2C1582.4,461.7,1583.1,463.6,1583.1,466"/>
		<path class="st2" d="M1585.5,465.4c0-0.5,0-1.1,0-1.6h1.4c0,0.2,0.1,0.5,0.1,0.8c0.3-0.5,0.8-1,1.7-1c0.9,0,1.4,0.5,1.6,1
			c0.4-0.5,0.9-1,2-1s2,0.6,2,2.3v4.1h-1.4v-4c0-0.6-0.3-1.2-1-1.2c-0.8,0-1.2,0.5-1.2,1.5v3.5h-1.4V466c0-0.7-0.2-1.3-1-1.3
			s-1.2,0.5-1.2,1.6v3.4h-1.5L1585.5,465.4L1585.5,465.4z"/>
		<rect x="1821.7" y="200.8" class="st2" width="1" height="1.1"/>
	</g>
</g>
<g>
	<path class="st11" d="M59.4,202.2v1.5h-6.1l0-0.7c0-0.5,0.1-0.8,0.3-1.4c0.1-0.3,0.2-0.5,0.4-0.7c0.3-0.4,0.9-0.8,1.7-1.2l0.6-0.3
		c0.8-0.4,1.2-0.7,1.2-1.3c0-0.6-0.4-1-1.1-1c-0.8,0-1.2,0.4-1.2,1.3h-1.8c0-1.7,1-2.8,3-2.8c0.9,0,1.6,0.2,2.1,0.7s0.8,1,0.8,1.7
		c0,0.7-0.2,1.2-0.5,1.6c-0.4,0.4-0.9,0.8-1.7,1.1l-0.6,0.3c-0.7,0.3-0.9,0.6-1,1.1H59.4z"/>
	<path class="st11" d="M61.3,203.7v-1.9h1.9v1.9H61.3z"/>
	<path class="st11" d="M68.2,195.9v7.8h-1.9v-4.9h-1.8v-1.3l0.2,0c1.1-0.1,1.8-0.5,2-1.7H68.2z"/>
	<path class="st11" d="M75.7,199.3c0.5,0.5,0.7,1.1,0.7,1.8c0,0.8-0.3,1.5-0.9,2c-0.6,0.5-1.3,0.8-2.2,0.8c-0.8,0-1.5-0.2-2.1-0.7
		c-0.6-0.4-0.9-1-1-1.8H72c0.1,0.6,0.6,1,1.3,1c0.8,0,1.3-0.6,1.3-1.3c0-0.8-0.5-1.3-1.3-1.3c-0.6,0-1,0.2-1.2,0.7h-1.7l0.8-4.6H76
		v1.5h-3.4l-0.3,1.6c0.4-0.3,0.8-0.5,1.4-0.5C74.5,198.5,75.2,198.8,75.7,199.3z"/>
	<path class="st11" d="M87.1,200v3.7h-1.7v-3.4c0-0.6-0.3-1-0.8-1c-0.6,0-1,0.4-1,1.2v3.1h-1.7v-3.4c0-0.6-0.3-1-0.8-1
		c-0.6,0-1,0.4-1,1.2v3.1h-1.7V198H80v0.8c0.4-0.6,1-0.9,1.6-0.9c0.9,0,1.4,0.3,1.8,1c0.5-0.7,1.1-1,1.8-1
		C86.3,197.9,87.1,198.7,87.1,200z"/>
	<path class="st11" d="M54.3,213.9c-0.6-0.7-0.9-1.6-0.9-2.7s0.3-2,0.9-2.7s1.4-1,2.4-1c0.8,0,1.5,0.2,2,0.6
		c0.6,0.4,0.9,1.1,1.1,1.9h-1.1c-0.3-1.1-1-1.6-2-1.6c-1.4,0-2.2,1-2.2,2.8c0,1.7,0.9,2.8,2.2,2.8c0.5,0,1-0.2,1.4-0.5
		c0.4-0.3,0.6-0.8,0.7-1.4h1.1c-0.1,0.9-0.4,1.6-1,2.1c-0.6,0.5-1.3,0.7-2.1,0.7C55.7,214.9,54.9,214.5,54.3,213.9z"/>
	<path class="st11" d="M63.4,214.8c-0.8,0-1.4-0.2-1.8-0.7s-0.7-1.1-0.7-2s0.2-1.5,0.7-2s1.1-0.7,1.8-0.7s1.4,0.2,1.8,0.7
		s0.7,1.1,0.7,2s-0.2,1.5-0.7,2S64.2,214.8,63.4,214.8z M64.9,212.1c0-1.2-0.6-1.8-1.5-1.8c-0.9,0-1.5,0.7-1.5,1.8s0.6,1.8,1.5,1.8
		C64.3,214,64.9,213.3,64.9,212.1z"/>
	<path class="st11" d="M71.6,211.2v3.5h-1v-3.3c0-0.7-0.4-1.1-1.1-1.1c-0.3,0-0.6,0.1-0.9,0.4c-0.3,0.3-0.4,0.6-0.4,1.1v2.9h-1v-5.2
		h1v0.8c0.4-0.6,0.9-0.9,1.6-0.9C70.9,209.4,71.6,210.1,71.6,211.2z"/>
	<path class="st11" d="M76.9,207.6h1v7.1h-1v-0.8c-0.4,0.6-1,0.9-1.7,0.9c-0.7,0-1.3-0.2-1.7-0.7s-0.6-1.1-0.6-2s0.2-1.5,0.6-2
		s1-0.7,1.7-0.7c0.7,0,1.3,0.3,1.7,0.8V207.6z M75.5,214c0.5,0,0.8-0.2,1.1-0.5c0.3-0.3,0.4-0.8,0.4-1.3s-0.1-1-0.4-1.4
		c-0.3-0.3-0.6-0.5-1.1-0.5c-0.5,0-0.8,0.2-1.1,0.5c-0.3,0.3-0.4,0.8-0.4,1.4c0,0.6,0.1,1,0.4,1.3C74.6,213.8,75,214,75.5,214z"/>
	<path class="st11" d="M79.5,208.8v-1.1h1v1.1H79.5z M79.5,214.7v-5.2h1v5.2H79.5z"/>
	<path class="st11" d="M84.4,210.4h-1v3.1c0,0.3,0.2,0.4,0.6,0.4h0.4v0.8c-0.2,0-0.4,0-0.6,0c-1,0-1.4-0.3-1.4-1.2v-3.2h-0.8v-0.8
		h0.8v-1.5h1v1.5h1V210.4z"/>
	<path class="st11" d="M85.6,208.8v-1.1h1v1.1H85.6z M85.6,214.7v-5.2h1v5.2H85.6z"/>
	<path class="st11" d="M90.5,214.8c-0.8,0-1.4-0.2-1.8-0.7s-0.7-1.1-0.7-2s0.2-1.5,0.7-2s1.1-0.7,1.8-0.7s1.4,0.2,1.8,0.7
		s0.7,1.1,0.7,2s-0.2,1.5-0.7,2S91.2,214.8,90.5,214.8z M92,212.1c0-1.2-0.6-1.8-1.5-1.8c-0.9,0-1.5,0.7-1.5,1.8s0.6,1.8,1.5,1.8
		C91.4,214,92,213.3,92,212.1z"/>
	<path class="st11" d="M98.7,211.2v3.5h-1v-3.3c0-0.7-0.4-1.1-1.1-1.1c-0.3,0-0.6,0.1-0.9,0.4c-0.3,0.3-0.4,0.6-0.4,1.1v2.9h-1v-5.2
		h1v0.8c0.4-0.6,0.9-0.9,1.6-0.9C98,209.4,98.7,210.1,98.7,211.2z"/>
	<path class="st11" d="M99.9,213.1h1c0.1,0.7,0.4,1,1.3,1c0.8,0,1.1-0.2,1.1-0.7c0-0.4-0.3-0.6-1.1-0.8l-0.5-0.1
		c-1.1-0.2-1.6-0.7-1.6-1.5c0-0.9,0.7-1.5,2-1.5c1.4,0,2.1,0.6,2.2,1.7h-1c0-0.7-0.4-0.9-1.2-0.9c-0.6,0-1,0.2-1,0.7
		c0,0.4,0.3,0.6,1,0.7l0.5,0.1c1.3,0.2,1.8,0.7,1.8,1.5c0,1-0.8,1.6-2.2,1.6C100.7,214.8,99.9,214.2,99.9,213.1z"/>
	<path class="st11" d="M53.2,224.1h1c0.1,0.7,0.4,1,1.3,1c0.8,0,1.1-0.2,1.1-0.7c0-0.4-0.3-0.6-1.1-0.8l-0.5-0.1
		c-1.1-0.2-1.6-0.7-1.6-1.5c0-0.9,0.7-1.5,2-1.5c1.4,0,2.1,0.6,2.2,1.7h-1c0-0.7-0.4-0.9-1.2-0.9c-0.6,0-1,0.2-1,0.7
		c0,0.4,0.3,0.6,1,0.7l0.5,0.1c1.3,0.2,1.8,0.7,1.8,1.5c0,1-0.8,1.6-2.2,1.6C54,225.8,53.3,225.2,53.2,224.1z"/>
	<path class="st11" d="M61.1,221.4h-1v3.1c0,0.3,0.2,0.4,0.6,0.4h0.4v0.8c-0.2,0-0.4,0-0.6,0c-1,0-1.4-0.3-1.4-1.2v-3.2h-0.8v-0.8
		h0.8v-1.5h1v1.5h1V221.4z"/>
	<path class="st11" d="M67,224.9v0.8c-0.1,0-0.3,0-0.5,0c-0.6,0-0.9-0.2-1-0.7c-0.4,0.5-0.9,0.8-1.7,0.8c-1.1,0-1.8-0.6-1.8-1.5
		c0-0.9,0.6-1.5,1.9-1.6l0.8-0.1c0.5-0.1,0.8-0.2,0.8-0.6c0-0.5-0.3-0.7-1.1-0.7c-0.8,0-1.1,0.2-1.2,0.9h-1c0.1-1.1,0.8-1.7,2.2-1.7
		c1.4,0,2,0.5,2,1.5v2.7c0,0.2,0.1,0.3,0.3,0.3H67z M65.5,223.7v-0.5c-0.1,0.1-0.3,0.2-0.6,0.2l-0.7,0.1c-0.8,0.1-1.1,0.4-1.1,0.8
		c0,0.5,0.3,0.8,1,0.8C64.8,225,65.5,224.6,65.5,223.7z"/>
	<path class="st11" d="M72.5,222.2v3.5h-1v-3.3c0-0.7-0.4-1.1-1.1-1.1c-0.3,0-0.6,0.1-0.9,0.4c-0.3,0.3-0.4,0.6-0.4,1.1v2.9h-1v-5.2
		h1v0.8c0.4-0.6,0.9-0.9,1.6-0.9C71.8,220.4,72.5,221.1,72.5,222.2z"/>
	<path class="st11" d="M77.8,218.6h1v7.1h-1v-0.8c-0.4,0.6-1,0.9-1.7,0.9c-0.7,0-1.3-0.2-1.7-0.7s-0.6-1.1-0.6-2s0.2-1.5,0.6-2
		s1-0.7,1.7-0.7c0.7,0,1.3,0.3,1.7,0.8V218.6z M76.3,225c0.5,0,0.8-0.2,1.1-0.5c0.3-0.3,0.4-0.8,0.4-1.3s-0.1-1-0.4-1.4
		c-0.3-0.3-0.6-0.5-1.1-0.5c-0.5,0-0.8,0.2-1.1,0.5c-0.3,0.3-0.4,0.8-0.4,1.4c0,0.6,0.1,1,0.4,1.3C75.5,224.8,75.8,225,76.3,225z"/>
	<path class="st11" d="M85,224.9v0.8c-0.2,0-0.3,0-0.5,0c-0.6,0-0.9-0.2-1-0.7c-0.4,0.5-0.9,0.8-1.7,0.8c-1.1,0-1.8-0.6-1.8-1.5
		c0-0.9,0.6-1.5,1.9-1.6l0.8-0.1c0.5-0.1,0.8-0.2,0.8-0.6c0-0.5-0.3-0.7-1.1-0.7c-0.8,0-1.1,0.2-1.2,0.9h-1c0.1-1.1,0.8-1.7,2.2-1.7
		c1.4,0,2,0.5,2,1.5v2.7c0,0.2,0.1,0.3,0.3,0.3H85z M83.5,223.7v-0.5c-0.1,0.1-0.3,0.2-0.6,0.2l-0.7,0.1c-0.8,0.1-1.1,0.4-1.1,0.8
		c0,0.5,0.3,0.8,1,0.8C82.8,225,83.5,224.6,83.5,223.7z"/>
	<path class="st11" d="M88.9,220.5v0.9h-0.2c-1,0-1.6,0.5-1.6,1.5v2.8h-1v-5.2h1v0.9c0.3-0.7,0.9-1,1.6-1
		C88.8,220.5,88.9,220.5,88.9,220.5z"/>
	<path class="st11" d="M93.6,218.6h1v7.1h-1v-0.8c-0.4,0.6-1,0.9-1.7,0.9c-0.7,0-1.3-0.2-1.7-0.7s-0.6-1.1-0.6-2s0.2-1.5,0.6-2
		s1-0.7,1.7-0.7c0.7,0,1.3,0.3,1.7,0.8V218.6z M92.1,225c0.5,0,0.8-0.2,1.1-0.5c0.3-0.3,0.4-0.8,0.4-1.3s-0.1-1-0.4-1.4
		c-0.3-0.3-0.6-0.5-1.1-0.5s-0.8,0.2-1.1,0.5c-0.3,0.3-0.4,0.8-0.4,1.4c0,0.6,0.1,1,0.4,1.3C91.3,224.8,91.6,225,92.1,225z"/>
</g>
<g>
	<path class="st11" d="M60,235.1v7.8h-1.9V238h-1.8v-1.3l0.2,0c1.1-0.1,1.8-0.5,2-1.7H60z"/>
	<path class="st11" d="M62,242.9V241H64v1.9H62z"/>
	<path class="st11" d="M72.2,240.7c0,0.7-0.3,1.3-0.9,1.7c-0.6,0.4-1.4,0.7-2.4,0.7c-1,0-1.8-0.2-2.4-0.7c-0.6-0.4-0.9-1-0.9-1.7
		c0-0.9,0.4-1.6,1.3-1.9c-0.6-0.4-1-0.9-1-1.7c0-1.4,1.1-2.2,2.9-2.2s2.9,0.8,2.9,2.2c0,0.7-0.3,1.3-1,1.7
		C71.8,239.1,72.2,239.7,72.2,240.7z M69,241.7c0.5,0,0.8-0.1,1-0.3c0.2-0.2,0.4-0.5,0.4-0.8c0-0.7-0.5-1.1-1.4-1.1
		s-1.4,0.4-1.4,1.1c0,0.4,0.1,0.6,0.4,0.8C68.2,241.6,68.6,241.7,69,241.7z M69,236.2c-0.4,0-0.7,0.1-0.9,0.3
		c-0.2,0.2-0.3,0.4-0.3,0.7c0,0.6,0.5,1,1.2,1c0.8,0,1.2-0.4,1.2-1c0-0.3-0.1-0.6-0.3-0.7C69.7,236.3,69.4,236.2,69,236.2z"/>
	<path class="st11" d="M77.3,243.1c-1.1,0-1.9-0.4-2.5-1.1c-0.6-0.7-0.9-1.7-0.9-3s0.3-2.3,0.9-3c0.6-0.7,1.4-1.1,2.5-1.1
		c1.1,0,1.9,0.4,2.5,1.1c0.6,0.7,0.8,1.7,0.8,3s-0.3,2.3-0.8,3C79.2,242.7,78.4,243.1,77.3,243.1z M77.3,241.5
		c0.5,0,0.8-0.2,1.1-0.6c0.2-0.4,0.3-1,0.3-1.9c0-1.8-0.5-2.6-1.4-2.6c-0.9,0-1.4,0.7-1.4,2.6c0,0.9,0.1,1.6,0.4,1.9
		C76.5,241.3,76.8,241.5,77.3,241.5z"/>
	<path class="st11" d="M91.4,239.2v3.7h-1.7v-3.4c0-0.6-0.3-1-0.8-1c-0.6,0-1,0.4-1,1.2v3.1h-1.7v-3.4c0-0.6-0.3-1-0.8-1
		c-0.6,0-1,0.4-1,1.2v3.1h-1.7v-5.7h1.7v0.8c0.4-0.6,1-0.9,1.6-0.9c0.9,0,1.4,0.3,1.8,1c0.5-0.7,1.1-1,1.8-1
		C90.7,237.1,91.4,237.9,91.4,239.2z"/>
	<path class="st11" d="M62.4,246.8h1.5v7.1h-1v-2.2c0-1.5,0-2.7,0-3.6c-0.1,0.4-0.3,1-0.6,1.6l-1.6,4.2h-0.9l-1.6-4.2
		c-0.3-0.8-0.5-1.3-0.6-1.6c0,0.9,0,2.1,0,3.6v2.2h-1v-7.1h1.5l1.5,3.8c0.3,0.9,0.6,1.5,0.7,2c0.2-0.7,0.5-1.4,0.7-2.1L62.4,246.8z"
		/>
	<path class="st11" d="M70.2,253.1v0.8c-0.1,0-0.3,0-0.5,0c-0.6,0-0.9-0.2-1-0.7c-0.4,0.5-0.9,0.8-1.7,0.8c-1.1,0-1.8-0.6-1.8-1.5
		c0-0.9,0.6-1.5,1.9-1.6l0.8-0.1c0.5-0.1,0.8-0.2,0.8-0.6c0-0.5-0.3-0.7-1.1-0.7c-0.8,0-1.1,0.2-1.2,0.9h-1c0.1-1.1,0.8-1.7,2.2-1.7
		c1.4,0,2,0.5,2,1.5v2.7c0,0.2,0.1,0.3,0.3,0.3H70.2z M68.6,251.9v-0.5c-0.1,0.1-0.3,0.2-0.6,0.2l-0.7,0.1c-0.8,0.1-1.1,0.4-1.1,0.8
		c0,0.5,0.3,0.8,1,0.8C68,253.2,68.6,252.8,68.6,251.9z"/>
	<path class="st11" d="M73.5,249.6h-1v3.1c0,0.3,0.2,0.4,0.6,0.4h0.4v0.8c-0.2,0-0.4,0-0.6,0c-1,0-1.4-0.3-1.4-1.2v-3.2h-0.8v-0.8
		h0.8v-1.5h1v1.5h1V249.6z"/>
	<path class="st11" d="M79.3,251.6h-3.9c0.1,1,0.6,1.5,1.5,1.5c0.6,0,1.1-0.3,1.3-0.9h1c-0.3,1-1.1,1.7-2.3,1.7
		c-0.7,0-1.3-0.2-1.8-0.7s-0.7-1.1-0.7-2c0-0.8,0.2-1.5,0.7-2s1-0.7,1.8-0.7c0.8,0,1.4,0.3,1.8,0.8c0.4,0.5,0.6,1.2,0.6,2V251.6z
		 M75.4,250.9h2.8c-0.1-0.8-0.6-1.4-1.4-1.4C76,249.5,75.5,249.9,75.4,250.9z M78.5,246.6l-1.3,1.4h-0.9l0.9-1.4H78.5z"/>
	<path class="st11" d="M83.4,248.7v0.9h-0.2c-1,0-1.6,0.5-1.6,1.5v2.8h-1v-5.2h1v0.9c0.3-0.7,0.9-1,1.6-1
		C83.2,248.7,83.3,248.7,83.4,248.7z"/>
	<path class="st11" d="M84.5,248v-1.1h1v1.1H84.5z M84.5,253.9v-5.2h1v5.2H84.5z"/>
	<path class="st11" d="M91.7,251.6h-3.9c0.1,1,0.6,1.5,1.5,1.5c0.6,0,1.1-0.3,1.3-0.9h1c-0.3,1-1.1,1.7-2.3,1.7
		c-0.7,0-1.3-0.2-1.8-0.7s-0.7-1.1-0.7-2c0-0.8,0.2-1.5,0.7-2s1-0.7,1.8-0.7c0.8,0,1.4,0.3,1.8,0.8c0.4,0.5,0.6,1.2,0.6,2V251.6z
		 M87.8,250.9h2.8c-0.1-0.8-0.6-1.4-1.4-1.4C88.5,249.5,87.9,249.9,87.8,250.9z"/>
	<path class="st11" d="M93,253.9v-7.1h1v7.1H93z"/>
	<path class="st11" d="M56.2,263.3h1c0.1,0.7,0.4,1,1.3,1c0.8,0,1.1-0.2,1.1-0.7c0-0.4-0.3-0.6-1.1-0.8l-0.5-0.1
		c-1.1-0.2-1.6-0.7-1.6-1.5c0-0.9,0.7-1.5,2-1.5c1.4,0,2.1,0.6,2.2,1.7h-1c0-0.7-0.4-0.9-1.2-0.9c-0.6,0-1,0.2-1,0.7
		c0,0.4,0.3,0.6,1,0.7l0.5,0.1c1.3,0.2,1.8,0.7,1.8,1.5c0,1-0.8,1.6-2.2,1.6C57,265,56.3,264.4,56.2,263.3z"/>
	<path class="st11" d="M66.2,260.3c0.4,0.5,0.6,1.1,0.6,2s-0.2,1.5-0.6,2c-0.4,0.5-1,0.7-1.7,0.7c-0.7,0-1.3-0.3-1.7-0.8v2.7h-1
		v-7.1h1v0.8c0.4-0.6,1-0.9,1.7-0.9C65.2,259.6,65.7,259.9,66.2,260.3z M64.3,264.2c0.5,0,0.8-0.2,1.1-0.5c0.3-0.3,0.4-0.8,0.4-1.4
		c0-1.2-0.6-1.8-1.5-1.8c-0.5,0-0.8,0.2-1.1,0.5c-0.3,0.3-0.4,0.8-0.4,1.4s0.1,1,0.4,1.3C63.4,264,63.8,264.2,64.3,264.2z"/>
	<path class="st11" d="M72.7,262.6h-3.9c0.1,1,0.6,1.5,1.5,1.5c0.6,0,1.1-0.3,1.3-0.9h1c-0.3,1-1.1,1.7-2.3,1.7
		c-0.7,0-1.3-0.2-1.8-0.7s-0.7-1.1-0.7-2c0-0.8,0.2-1.5,0.7-2s1-0.7,1.8-0.7c0.8,0,1.4,0.3,1.8,0.8c0.4,0.5,0.6,1.2,0.6,2V262.6z
		 M68.9,261.9h2.8c-0.1-0.8-0.6-1.4-1.4-1.4C69.5,260.5,69,260.9,68.9,261.9z M72,257.6l-1.3,1.4h-0.9l0.9-1.4H72z"/>
	<path class="st11" d="M74.5,264.3c-0.4-0.5-0.7-1.1-0.7-2s0.2-1.5,0.7-2s1-0.7,1.8-0.7c1.3,0,2.1,0.7,2.3,1.9h-1
		c-0.1-0.7-0.6-1-1.3-1c-0.8,0-1.4,0.6-1.4,1.8s0.6,1.8,1.4,1.8c0.6,0,1.2-0.4,1.3-1.1h1c-0.2,1.2-1.1,2-2.3,2
		C75.5,265,74.9,264.8,74.5,264.3z"/>
	<path class="st11" d="M79.7,259v-1.1h1v1.1H79.7z M79.7,264.9v-5.2h1v5.2H79.7z"/>
	<path class="st11" d="M82.7,259.3c0-1,0.5-1.5,1.5-1.5c0.1,0,0.3,0,0.6,0v0.8h-0.4c-0.4,0-0.7,0.2-0.7,0.7v0.5h1.1v0.8h-1.1v4.3h-1
		v-4.3h-0.8v-0.8h0.8V259.3z M85.5,257.9h1v1.1h-1V257.9z M85.5,264.9v-5.2h1v5.2H85.5z"/>
	<path class="st11" d="M91.9,259.7h1v7.1h-1v-2.7c-0.4,0.5-0.9,0.8-1.7,0.8c-0.7,0-1.3-0.2-1.7-0.7s-0.6-1.1-0.6-2s0.2-1.5,0.6-2
		s1-0.7,1.7-0.7c0.7,0,1.3,0.3,1.7,0.9V259.7z M90.4,264.2c0.5,0,0.8-0.2,1.1-0.5c0.3-0.3,0.4-0.8,0.4-1.3s-0.1-1-0.4-1.4
		c-0.3-0.3-0.6-0.5-1.1-0.5s-0.8,0.2-1.1,0.5c-0.3,0.3-0.4,0.8-0.4,1.4c0,0.6,0.1,1,0.4,1.3C89.5,264,89.9,264.2,90.4,264.2z"/>
	<path class="st11" d="M97.8,259.7h1v5.2h-1v-0.8c-0.4,0.6-0.9,0.9-1.6,0.9c-1.1,0-1.8-0.7-1.8-1.8v-3.5h1v3.3
		c0,0.7,0.4,1.1,1.1,1.1c0.7,0,1.3-0.5,1.3-1.5V259.7z"/>
	<path class="st11" d="M104.9,262.6h-3.9c0.1,1,0.6,1.5,1.5,1.5c0.6,0,1.1-0.3,1.3-0.9h1c-0.3,1-1.1,1.7-2.3,1.7
		c-0.7,0-1.3-0.2-1.8-0.7s-0.7-1.1-0.7-2c0-0.8,0.2-1.5,0.7-2s1-0.7,1.8-0.7c0.8,0,1.4,0.3,1.8,0.8c0.4,0.5,0.6,1.2,0.6,2V262.6z
		 M101.1,261.9h2.8c-0.1-0.8-0.6-1.4-1.4-1.4C101.7,260.5,101.2,260.9,101.1,261.9z"/>
</g>
<g>
	<path class="st11" d="M253.5,465.1v7.8h-1.9v-4.9h-1.8v-1.3l0.2,0c1.1-0.1,1.8-0.5,2-1.7H253.5z"/>
	<path class="st11" d="M255.5,472.9v-1.9h1.9v1.9H255.5z"/>
	<path class="st11" d="M264.7,468.5c0.5,0.5,0.7,1.1,0.7,1.8c0,0.8-0.3,1.5-0.9,2c-0.6,0.5-1.3,0.8-2.2,0.8c-0.8,0-1.5-0.2-2.1-0.7
		c-0.6-0.4-0.9-1-1-1.8h1.7c0.1,0.6,0.6,1,1.3,1c0.8,0,1.3-0.6,1.3-1.3c0-0.8-0.5-1.3-1.3-1.3c-0.6,0-1,0.2-1.2,0.7h-1.7l0.8-4.6
		h4.9v1.5h-3.4l-0.3,1.6c0.4-0.3,0.8-0.5,1.4-0.5C263.5,467.8,264.2,468,264.7,468.5z"/>
	<path class="st11" d="M270.5,473.1c-1.1,0-1.9-0.4-2.5-1.1c-0.6-0.7-0.9-1.7-0.9-3s0.3-2.3,0.9-3c0.6-0.7,1.4-1.1,2.5-1.1
		c1.1,0,1.9,0.4,2.5,1.1c0.6,0.7,0.8,1.7,0.8,3s-0.3,2.3-0.8,3C272.4,472.8,271.6,473.1,270.5,473.1z M270.5,471.6
		c0.5,0,0.8-0.2,1.1-0.6c0.2-0.4,0.3-1,0.3-1.9c0-1.8-0.5-2.6-1.4-2.6c-0.9,0-1.4,0.7-1.4,2.6c0,0.9,0.1,1.6,0.4,1.9
		C269.7,471.4,270,471.6,270.5,471.6z"/>
	<path class="st11" d="M284.6,469.3v3.7h-1.7v-3.4c0-0.6-0.3-1-0.8-1c-0.6,0-1,0.4-1,1.2v3.1h-1.7v-3.4c0-0.6-0.3-1-0.8-1
		c-0.6,0-1,0.4-1,1.2v3.1h-1.7v-5.7h1.7v0.8c0.4-0.6,1-0.9,1.6-0.9c0.9,0,1.4,0.3,1.8,1c0.5-0.7,1.1-1,1.8-1
		C283.8,467.1,284.6,467.9,284.6,469.3z"/>
</g>
<g>
	<path class="st11" d="M20.8,528.3v7.8h-1.9v-4.9h-1.8V530l0.2,0c1.1-0.1,1.8-0.5,2-1.7H20.8z"/>
	<path class="st11" d="M22.8,536.1v-1.9h1.9v1.9H22.8z"/>
	<path class="st11" d="M32,531.7c0.5,0.5,0.7,1.1,0.7,1.8c0,0.8-0.3,1.5-0.9,2c-0.6,0.5-1.3,0.8-2.2,0.8c-0.8,0-1.5-0.2-2.1-0.7
		c-0.6-0.4-0.9-1-1-1.8h1.7c0.1,0.6,0.6,1,1.3,1c0.8,0,1.3-0.6,1.3-1.3c0-0.8-0.5-1.3-1.3-1.3c-0.6,0-1,0.2-1.2,0.7h-1.7l0.8-4.6
		h4.9v1.5h-3.4l-0.3,1.6c0.4-0.3,0.8-0.5,1.4-0.5C30.8,530.9,31.5,531.2,32,531.7z"/>
	<path class="st11" d="M37.8,536.3c-1.1,0-1.9-0.4-2.5-1.1c-0.6-0.7-0.9-1.7-0.9-3s0.3-2.3,0.9-3c0.6-0.7,1.4-1.1,2.5-1.1
		c1.1,0,1.9,0.4,2.5,1.1c0.6,0.7,0.8,1.7,0.8,3s-0.3,2.3-0.8,3C39.7,535.9,38.9,536.3,37.8,536.3z M37.8,534.7
		c0.5,0,0.8-0.2,1.1-0.6c0.2-0.4,0.3-1,0.3-1.9c0-1.8-0.5-2.6-1.4-2.6c-0.9,0-1.4,0.7-1.4,2.6c0,0.9,0.1,1.6,0.4,1.9
		C37,534.5,37.3,534.7,37.8,534.7z"/>
	<path class="st11" d="M51.9,532.4v3.7h-1.7v-3.4c0-0.6-0.3-1-0.8-1c-0.6,0-1,0.4-1,1.2v3.1h-1.7v-3.4c0-0.6-0.3-1-0.8-1
		c-0.6,0-1,0.4-1,1.2v3.1h-1.7v-5.7h1.7v0.8c0.4-0.6,1-0.9,1.6-0.9c0.9,0,1.4,0.3,1.8,1c0.5-0.7,1.1-1,1.8-1
		C51.2,530.3,51.9,531.1,51.9,532.4z"/>
</g>
</svg>
