<?xml version="1.0" encoding="utf-8"?>
<!-- Generator: Adobe Illustrator 24.3.0, SVG Export Plug-In . SVG Version: 6.00 Build 0)  -->
<svg version="1.1" id="Layer_1" xmlns="http://www.w3.org/2000/svg" xmlns:xlink="http://www.w3.org/1999/xlink" x="0px" y="0px"
	 viewBox="0 0 500 500" style="enable-background:new 0 0 500 500;" width="500" height="500" xml:space="preserve">
<style type="text/css">
	.st0{fill:#FFFFFF;}
	.st1{fill:#F7B233;}
	.st2{fill:#FDCD7F;}
	.st3{fill:#FEE5C0;}
	.st4{fill:#141318;}
</style>
<g>
	<circle class="st0" cx="250.2" cy="249.2" r="215.3"/>
	<g>
		<path class="st1" d="M245.7,27.5c2.8,0,5.6,0,8.5,0c2.4,0.1,4.8,0.2,7.2,0.3c10.6,1.3,21.3,1.9,31.7,4
			c45.7,9,84.8,30.5,117.2,63.9c23.9,24.7,41,53.4,51.5,86c5.8,18,9.3,36.5,10.3,55.5c0.1,2,0.2,3.9,0.3,5.9c0,6,0,11.9,0,17.9
			c-0.1,0.5-0.3,0.9-0.3,1.4c-0.7,12.9-2.4,25.7-5.5,38.3c-11.9,49.6-37.4,90.9-77.4,122.6c-53.1,42.2-113.7,57.2-180.3,45.3
			c-50.7-9.1-93.3-33.7-126.9-72.8C41,348.1,23.4,292.5,28.4,229.7c2.2-26.9,9.3-52.6,21.3-76.8c25-50.5,63.5-86.8,115.4-108.7
			c23.4-9.9,48-15.3,73.4-16.5C240.9,27.7,243.3,27.6,245.7,27.5z M186.4,437.3c-0.1,0-0.2,0.1-0.4,0.2c0.2,0.1,0.3,0.1,0.4,0.1
			c0.1,0.1,0.2,0.1,0.3,0.1c0.1,0.1,0.3,0.1,0.4,0.2c0,0,0-0.1,0-0.1c-0.1,0-0.3-0.1-0.4-0.1C186.7,437.4,186.5,437.4,186.4,437.3z
			 M235.6,368.2c-0.1,0-0.1-0.1-0.2-0.1c0,0,0,0,0,0C235.5,368.1,235.5,368.2,235.6,368.2c0.1,0.5,0.2,1,0.4,1.4
			c3.6,6.6,7.2,13.1,10.8,19.7c1.7,3.1,3.4,6.2,5.2,9.5c9.9-7.5,19.5-14.8,29.6-22.4c-4.8-0.3-9-0.6-13.5-0.9
			c8.5-28.9,17.1-57.6,25.7-86.9c-20.4,10.7-40.2,21.2-60.6,31.8c5.6-18.7,11.1-36.9,16.5-55.2c-9.3-7.6-18.4-15.2-27.8-22.9
			c-5.4,36-10.7,71.5-16,107.4c17.7-9.6,34.9-18.9,52.6-28.5c-2.6,17.6-5.1,34.7-7.7,51.9C245.7,371.3,240.7,369.7,235.6,368.2z
			 M314.2,437.3c0.7-0.2,1.4-0.4,2-0.6c34.8-12.5,64.1-32.9,87.3-61.7c36.9-45.9,51-98.4,42-156.5c-7.6-49.3-31.3-90.2-70-121.7
			C330.1,60,278,45.8,220.2,54.3C174,61,135,82.2,103.5,116.7C71.2,152.2,54.2,194.3,52,242.3c-0.8,18.6,0.8,37,5.6,55
			c17.5,65.5,57.7,111.1,120.2,137.2c2.5,1.1,5.2,1.9,7.8,2.9c-0.2-0.6-0.6-0.9-1-1.1c-14.1-7.9-26.5-17.8-36.9-30.1
			c-26.4-31.4-36.8-67.6-31.1-108.2c3.8-27.2,15.2-51.2,34.1-71.2c32.7-34.5,72.9-48.7,119.9-41.9c36.2,5.2,65.4,23.2,87.3,52.3
			c22.8,30.4,31.1,64.8,25.3,102.3c-5,32.5-20.4,59.6-45.4,81c-7.3,6.3-15.8,11.2-23.8,16.7c-0.2,0.1-0.3,0.2-0.5,0.2
			c0,0.1,0,0.1,0.1,0.2C313.8,437.5,314,437.4,314.2,437.3z M313.1,437.7c-0.1,0-0.2-0.1-0.3-0.1c0,0.1,0,0.1,0,0.2
			C312.9,437.8,313,437.8,313.1,437.7z"/>
		<path class="st2" d="M261.3,27.5c0,0.1,0,0.2,0,0.3c-2.4-0.1-4.8-0.2-7.2-0.3C256.6,27.5,259,27.5,261.3,27.5z"/>
		<path class="st2" d="M238.5,27.8c0-0.1,0-0.2,0-0.3c2.4,0,4.8,0,7.2,0C243.3,27.6,240.9,27.7,238.5,27.8z"/>
		<path class="st2" d="M472.1,237.2c0.1,0,0.2,0,0.3,0c0,2,0,3.9,0,5.9C472.3,241.1,472.2,239.2,472.1,237.2z"/>
		<path class="st3" d="M186.8,437.5c0.1,0,0.3,0.1,0.4,0.1c0,0,0,0.1,0,0.1C187,437.7,186.9,437.7,186.8,437.5
			C186.7,437.6,186.8,437.5,186.8,437.5z"/>
		<path class="st3" d="M313.1,437.7c-0.1,0-0.2,0.1-0.3,0.1c0-0.1,0-0.1,0-0.2C312.9,437.7,313,437.7,313.1,437.7z"/>
		<path class="st3" d="M186.4,437.5c0-0.1,0-0.2,0-0.3c0.1,0.1,0.2,0.2,0.4,0.3c0,0-0.1,0.1-0.1,0.1
			C186.6,437.6,186.5,437.6,186.4,437.5z"/>
		<path class="st4" d="M372.5,167c0.8,1.7,1.4,3.1,2.1,4.6c-1.2,0.4-2.4,0.8-3.7,1.2c-0.3-0.8-0.6-1.6-0.9-2.4
			c-1.4-3.5-2.9-7-4-10.6c-1.5-5.1,1.9-10.4,7.7-12.6c4.9-1.9,10.1,0.2,12.7,5c2.4,4.4,0.7,9.9-4,13.2
			C379.3,167.6,376.5,168.1,372.5,167z M370.1,158.7c0,2.6,2.1,4.8,4.7,4.5c3.7-0.5,6.4-2.5,7.9-6c1.1-2.5-0.4-5.3-2.8-5.9
			C375.9,150.2,370.1,154.6,370.1,158.7z"/>
		<path class="st4" d="M245.2,92.1c0,4.7,0,9.3,0,14.1c-1.4,0-2.8,0-4.3,0c0-6.9,0-13.8,0-20.9c1.8,0,3.6,0,5.6,0
			c2.4,4.4,5,9.1,7.5,13.7c0-4.5,0-9.1,0-13.7c1.3,0,2.7,0,4.2,0c0,6.9,0,13.9,0,20.9c-1.6,0-3.2,0-5,0c-2.5-4.7-5.1-9.5-7.6-14.4
			c-0.1-0.2-0.2-0.5-0.6-1.4C245.1,91.5,245.2,91.8,245.2,92.1z"/>
		<path class="st4" d="M113.9,152.1c2.1-2.5,4-5,6.2-7.1c2.7-2.7,6.2-2.8,7.9-0.2c0.8,1.2,0.9,2.9,1.4,4.5c2.3-1.2,4.7-1,6.7,1.3
			c2,2.4,1.6,4.9,0.2,7.4c-0.7,1.3-1.6,2.5-2.5,3.6c-1.2,1.4-2.5,2.7-3.8,4.2C124.8,161.2,119.5,156.7,113.9,152.1z M131.2,160.3
			c0.7-2.2,1.4-3.9,1.7-5.7c0.1-0.5-1.5-1.8-2-1.7c-1.7,0.6-3.3,1.6-5.3,2.6C127.6,157.3,129,158.5,131.2,160.3z M124,154.3
			c0.6-2.1,1.2-3.7,1.5-5.4c0.1-0.3-1.4-1.4-1.7-1.2c-1.5,0.6-2.8,1.6-4.4,2.7C121,151.7,122.1,152.7,124,154.3z"/>
		<path class="st4" d="M90.9,191.9c0.7-1.6,1.4-2.9,2.1-4.4c2.4,1.1,4.8,2.2,7.3,3.4c1.1-2.3,2.1-4.5,3.3-6.9
			c-2.4-1.2-4.8-2.3-7.3-3.5c0.7-1.5,1.3-2.9,2.1-4.4c6.4,3,12.7,6,19.2,9c-0.7,1.5-1.4,2.9-2.1,4.4c-2.7-1.2-5.2-2.4-8-3.7
			c-1.1,2.3-2.2,4.6-3.3,6.9c2.7,1.3,5.3,2.5,7.9,3.8c-0.7,1.5-1.4,2.9-2.1,4.4C103.7,197.9,97.4,195,90.9,191.9z"/>
		<path class="st4" d="M237.1,98.1c0,6.1-4.3,10.3-10.5,10.3c-5.7,0-9.9-4.8-9.8-11.3c0-6.2,4.4-10.5,10.6-10.5
			C233.1,86.7,237.1,91.4,237.1,98.1z M221.4,96.8c0.7,1.9,1,4.2,2.2,5.7c0.9,1.1,3,2.1,4.4,1.8c1.4-0.2,3.1-1.8,3.5-3.2
			c0.6-1.8,0.4-4.1,0-6c-0.8-3.3-3-4.9-5.6-4.5C223.4,91,221.9,93.2,221.4,96.8z"/>
		<path class="st4" d="M255.8,135.2c3.5,0.4,6.9,0.6,10.2,1.3c2.3,0.5,4,2.1,4.1,4.6c0.1,2.4-1.4,3.9-3.3,4.6c1,1.2,2.3,2.3,2.9,3.8
			c1.1,2.8-0.7,6.4-3.7,6.8c-3.9,0.5-7.9,0.1-12,0.1C254.6,149.3,255.2,142.5,255.8,135.2z M259.4,146.8c-0.2,2.7-0.3,4.6-0.6,7.4
			c2.2-0.7,4.1-1.1,5.6-2c0.5-0.3,0.6-2.5,0.1-2.8C263.2,148.3,261.4,147.7,259.4,146.8z M259.6,144.8c2.1-0.7,3.8-1.1,5.3-1.9
			c0.4-0.2,0.4-2.2,0-2.4c-1.4-0.8-3-1.2-4.7-1.9C260,140.8,259.8,142.3,259.6,144.8z"/>
		<path class="st4" d="M217.6,138.7c0.5,2.7,1,5.2,1.5,7.9c2.5-0.5,5-0.9,7.6-1.4c-0.5-2.6-1-5.2-1.5-7.9c1.6-0.3,3.1-0.6,4.7-0.9
			c1.3,6.9,2.6,13.7,3.9,20.6c-1.6,0.3-3,0.6-4.7,0.9c-0.6-2.9-1.1-5.7-1.7-8.6c-2.6,0.5-5,0.9-7.6,1.4c0.5,2.8,1,5.6,1.6,8.6
			c-1.6,0.3-3.1,0.6-4.7,0.9c-1.3-6.9-2.6-13.7-3.9-20.7C214.5,139.3,215.9,139,217.6,138.7z"/>
		<path class="st4" d="M357.1,122.7c2.1,1.8,4.3,3.4,6.2,5.2c2.1,2,3.7,4.2,2.4,7.3c-1.1,2.7-3,3.7-6.4,3.5
			c-1.3,3.5-2.6,6.8-3.9,10.3c-1.4-1.2-2.6-2.2-3.7-3.2c-0.2-3.5,5.7-6.6,0.5-10.5c-1.8,2.1-3.6,4.1-5.4,6.2c-1.2-1-2.4-2-3.6-3.1
			C347.9,133.3,352.4,128.1,357.1,122.7z M354.2,133.4c2,0.7,3.6,1.5,5.3,1.6c0.6,0,2.1-1.7,1.9-2.3c-0.4-1.6-1.5-2.9-2.6-4.7
			C357.2,129.9,356,131.3,354.2,133.4z"/>
		<path class="st4" d="M400.2,174c0.8,1.4,1.6,2.7,2.5,4.2c-4.3,2.4-8.4,4.9-12.7,6.9c-4.2,2-7.9,0.3-10.4-4c-2.3-4-1.8-7.8,2-10.5
			c3.9-2.7,8.1-5,12.3-7.6c0.8,1.4,1.6,2.8,2.5,4.3c-3.4,2-6.7,3.9-10,5.8c-3.6,2.1-4.6,4-3.3,6.3c1.3,2.3,3.5,2.4,7.1,0.3
			C393.4,177.9,396.7,176,400.2,174z"/>
		<path class="st4" d="M182.6,122.3c-1.6,0.7-3,1.4-4.6,2.1c-1-7.4-2-14.6-3-21.9c1.9-0.9,3.8-1.8,5.8-2.7
			c4.9,5.4,9.8,10.9,14.8,16.5c-1.6,0.8-3.2,1.5-4.8,2.2c-1.3-1.4-2.5-2.8-3.8-4.2c-1.8,0.8-3.5,1.6-5.3,2.5
			C182.1,118.6,182.4,120.4,182.6,122.3z M179.5,104.9c0.5,2.9,1,5.5,1.5,8.1c1.4-0.7,2.6-1.2,3.9-1.9
			C183.1,109.1,181.4,107.2,179.5,104.9z"/>
		<path class="st4" d="M128.8,167.2c-1,1.5-1.8,2.8-2.8,4.3c-1.8-0.5-3.5-1-5.4-1.5c-1,1.6-2.1,3.2-3.2,5c1.2,1.4,2.4,2.7,3.7,4.2
			c-0.9,1.3-1.7,2.7-2.7,4.2c-4.8-5.7-9.5-11.3-14.2-16.9c1.2-1.8,2.3-3.5,3.4-5.3C114.6,163.3,121.7,165.2,128.8,167.2z
			 M117.1,168.7c-2.7-0.8-5.3-1.6-8.2-2.5c2,2.2,3.8,4.2,5.7,6.3C115.5,171.2,116.3,170,117.1,168.7z"/>
		<path class="st4" d="M391.5,194.8c1.2,2.7,2.2,5.2,3.4,7.9c-1.2,0.5-2.4,1.1-3.7,1.7c-1.8-4.2-3.5-8.2-5.4-12.5
			c6.5-2.8,12.9-5.5,19.5-8.3c1.7,4,3.4,8,5.2,12.1c-1.3,0.5-2.4,1.1-3.7,1.6c-1.1-2.5-2.1-4.9-3.2-7.5c-1.2,0.5-2.5,1-3.9,1.6
			c1,2.4,2,4.7,3,7.1c-1.2,0.5-2.4,1-3.7,1.6c-1-2.4-2-4.7-3.1-7.1C394.4,193.6,393,194.2,391.5,194.8z"/>
		<path class="st4" d="M304.4,112.2c2.7,1.1,5.3,2.1,8,3.2c-0.5,1.3-1,2.5-1.5,3.8c-4.3-1.7-8.4-3.3-12.6-4.9
			c2.6-6.6,5.1-13.1,7.7-19.8c4.1,1.6,8.1,3.2,12.2,4.8c-0.5,1.3-1,2.5-1.5,3.8c-2.5-1-5-1.9-7.6-2.9c-0.5,1.3-1,2.5-1.5,3.9
			c2.4,0.9,4.8,1.9,7.2,2.9c-0.5,1.3-1,2.4-1.5,3.7c-2.4-0.9-4.7-1.8-7.2-2.8C305.6,109.3,305,110.7,304.4,112.2z"/>
		<path class="st4" d="M267.9,107.3c1.1-7.1,2.2-13.8,3.4-20.8c4.3,0.7,8.5,1.4,12.9,2.1c-0.2,1.3-0.4,2.5-0.7,3.9
			c-2.7-0.4-5.3-0.8-8.1-1.2c-0.2,1.4-0.5,2.8-0.7,4.2c2.5,0.4,5,0.8,7.6,1.2c-0.2,1.3-0.4,2.5-0.6,3.8c-2.6-0.4-5.1-0.8-7.6-1.2
			c-0.3,1.6-0.5,3.2-0.8,4.8c2.9,0.5,5.6,0.9,8.5,1.4c-0.2,1.3-0.4,2.5-0.6,3.9C276.7,108.7,272.4,108,267.9,107.3z"/>
		<path class="st4" d="M272,151.3c0.9-2.7,1.4-5.5,2.7-8.1c1.8-3.7,4.9-4.9,8.4-4c3.2,0.8,5.3,3.5,5.2,7.4c-0.1,2.6-0.6,5.3-1.5,7.7
			c-1.5,4.3-4.9,6.2-8.5,5.4C274.5,158.8,272.5,156,272,151.3z M284.2,146.2c-0.7-1.2-1.3-2.5-2.2-3.4c-0.3-0.3-2.2,0.4-2.4,1
			c-1,3.2-1.8,6.6-2.3,9.9c-0.1,0.7,1.1,2.1,1.8,2.2c0.8,0.1,2.1-0.8,2.5-1.5C282.6,151.9,283.3,149.2,284.2,146.2z"/>
		<path class="st4" d="M251.1,147c-0.5,2-0.9,4.1-1.7,6.1c-1.1,2.5-3.3,3.6-6,3.6c-2.7,0.1-4.8-1.1-6-3.4c-2.2-4.2-2.5-8.6-0.8-13
			c1.2-3,3.5-4.4,6.7-4.4c3.2,0,5.3,1.7,6.3,4.5C250.3,142.4,250.5,144.6,251.1,147z M246.3,146.8c-0.4-1.9-0.7-3.9-1.3-5.9
			c-0.2-0.7-1.2-1.5-2-1.6c-0.6-0.1-1.7,0.7-2,1.3c-1.4,3.8-1.3,7.7,0.5,11.3c0.9,1.8,3,1.6,3.7-0.3
			C245.9,150.3,246,148.6,246.3,146.8z"/>
		<path class="st4" d="M328.4,123.4c-0.3,1.1-0.7,2.3-1,3.4c-4.6,0.1-10.2-4.1-11.3-8.4c-1.1-4.7,1.7-10.5,6.1-12.7
			c4.5-2.2,11-0.6,14.6,3.8c-0.8,0.9-1.6,1.8-2.5,2.8c-2.8-2.5-5.8-4.8-9.6-2.5c-2.7,1.6-4,4.2-3.7,7.3
			C321.4,121.4,324.9,122.4,328.4,123.4z"/>
		<path class="st4" d="M202.3,91.7c0.5,1.3,0.9,2.6,1.3,3.9c-1.8,0.6-3.5,1.2-5.4,1.9c1.8,5.4,3.6,10.7,5.4,16.1
			c-1.5,0.5-3,1-4.6,1.6c-1.8-5.4-3.7-10.7-5.5-16.1c-1.8,0.6-3.5,1.2-5.3,1.8c-0.5-1.3-0.9-2.5-1.4-3.9
			C192,95.2,197.1,93.4,202.3,91.7z"/>
		<path class="st4" d="M353.8,119.9c-0.8,1.1-1.5,2.2-2.3,3.3c-1.6-1.1-3.1-2.1-4.7-3.2c-3.2,4.6-6.4,9.3-9.6,14
			c-1.3-0.9-2.6-1.7-4-2.7c3.2-4.7,6.4-9.3,9.6-14c-1.5-1.1-3-2.1-4.6-3.2c0.7-1.1,1.5-2.1,2.3-3.3
			C344.9,113.7,349.3,116.8,353.8,119.9z"/>
		<path class="st4" d="M162.1,114.3c-1.6,1-3.2,1.9-4.8,2.9c-0.7-1.1-1.3-2.2-2.1-3.4c4.6-2.8,9.2-5.5,13.9-8.3
			c0.7,1.1,1.4,2.2,2.1,3.4c-1.6,1-3.2,2-4.9,3c2.9,4.9,5.8,9.7,8.7,14.6c-1.4,0.8-2.7,1.6-4.1,2.5C167.9,124,165,119.3,162.1,114.3
			z"/>
		<path class="st4" d="M283.8,110.1c1.9-6.9,3.7-13.6,5.5-20.4c1.5,0.4,3,0.8,4.7,1.3c-1.5,5.5-2.9,10.9-4.4,16.4
			c2.7,0.7,5.3,1.5,8,2.2c-0.3,1.3-0.6,2.5-1,4C292.3,112.5,288.1,111.3,283.8,110.1z"/>
		<path class="st4" d="M149.3,139.5c2.2-1.8,4.2-3.6,6.4-5.4c0.9,1,1.7,1.9,2.6,3.1c-3.3,2.8-6.7,5.7-10.1,8.5
			c-4.6-5.4-9.1-10.7-13.6-16.1c1.3-1.1,2.5-2.1,3.7-3.1C142,130.9,145.7,135.2,149.3,139.5z"/>
		<path class="st4" d="M206.1,90.9c1.6-0.4,3.1-0.8,4.8-1.2c1.7,6.8,3.4,13.6,5.1,20.5c-1.6,0.4-3.1,0.8-4.8,1.2
			C209.5,104.5,207.8,97.7,206.1,90.9z"/>
		<path class="st4" d="M127.5,136.9c1.2-1.2,2.2-2.2,3.2-3.2c5,4.8,9.9,9.7,14.9,14.4c-1.2,1.2-2.2,2.3-3.2,3.3
			C137.5,146.7,132.5,141.8,127.5,136.9z"/>
		<path class="st4" d="M164.3,133.2c-1.3,0.9-2.5,1.8-3.9,2.8c-4.1-5.7-8.1-11.3-12.3-17.1c1.3-1,2.6-1.9,3.9-2.8
			C156.1,121.9,160.2,127.5,164.3,133.2z"/>
		<path class="st4" d="M360.6,154.1c-1.7-1.5-2.9-2.5-3.5-3.1c4.8-5.3,9.4-10.5,14.2-15.7c1.6,1.7,2.7,2.8,3.3,3.4
			C369.8,143.9,365.1,149.1,360.6,154.1z"/>
	</g>
</g>
</svg>
