<?xml version="1.0" encoding="utf-8"?>
<!-- Generator: Adobe Illustrator 24.3.0, SVG Export Plug-In . SVG Version: 6.00 Build 0)  -->
<svg version="1.1" id="Layer_1" xmlns="http://www.w3.org/2000/svg" xmlns:xlink="http://www.w3.org/1999/xlink" x="0px" y="0px"
	 viewBox="0 0 1920 1280" style="enable-background:new 0 0 1920 1280;" width="1920" height="1280" xml:space="preserve">
<style type="text/css">
	.st0{fill:none;stroke:#000000;stroke-width:0.5;stroke-miterlimit:10;}
	.st1{fill:none;stroke:#000000;stroke-width:0.75;stroke-linecap:round;stroke-linejoin:round;}
	.st2{fill:#231F20;}
	.st3{opacity:0.33;}
	.st4{opacity:0.82;}
	.st5{fill:none;stroke:#231F20;stroke-miterlimit:10;}
	.st6{fill:none;stroke:#231F20;stroke-miterlimit:10;stroke-dasharray:1.034,1.034;}
	.st7{fill:none;stroke:#231F20;stroke-miterlimit:10;stroke-dasharray:0.943,0.943;}
	.st8{fill:#FFFFFF;stroke:#231F20;stroke-miterlimit:10;}
	.st9{opacity:0.82;fill:none;stroke:#231F20;stroke-width:1.5;stroke-miterlimit:10;enable-background:new    ;}
	.st10{fill:none;stroke:#000000;stroke-linecap:round;stroke-linejoin:round;}
</style>
<path class="st0" d="M135.5,537.2c-1.8,0-4-0.2-6.6-0.5l0.2-1c9.1,1.1,13.2-0.1,13.9-1.5c0.7-1.2-0.5-2.8-2.2-5.2
	c-1.7-2.4-3.8-5.3-5.4-9.5c-1.7-4.6-4.8-16,1.7-23.5c2.7-2.9,8.7-6.1,22.3-4.2c0.2,0.1,0.4,0.1,0.5,0.1l-0.2,1
	c-0.1,0-0.3-0.1-0.5-0.1c-13.1-1.8-18.8,1-21.4,3.8c-2.1,2.3-6.4,9.1-1.6,22.4c1.5,4.1,3.6,6.9,5.2,9.2c1.9,2.6,3.2,4.5,2.3,6.3
	C143.4,535.5,141.7,537.2,135.5,537.2z M54.2,497.4l-0.3-1c21.9-6.1,34.6-14.5,37.5-25.4c2.8-10.1-3.4-18.8-10.7-29
	c-6.9-9.8-14.9-20.9-16-35.4c-1.4-18.2,8.6-37.5,29.7-57.5l0.8,0.8c-20.9,19.7-30.8,38.7-29.4,56.6c1,14.2,8.9,25.2,15.8,34.9
	c7.4,10.4,13.8,19.3,10.8,29.7C89.5,482.5,76.5,491.2,54.2,497.4z M258.2,496.8c0,1.2-1,2.2-2.3,2.2c-1.2,0-2.3-0.9-2.3-2.2
	s1-2.2,2.3-2.2C257.2,494.5,258.2,495.6,258.2,496.8z M257.5,496.8c0,0.9-0.8,1.6-1.6,1.6c-0.9,0-1.6-0.8-1.6-1.6
	c0-0.9,0.8-1.6,1.6-1.6C256.8,495.2,257.5,496,257.5,496.8z M145.2,515.9h-2.8V510h2.8V515.9z M142.4,516.8h17.4v-0.9h-17.4V516.8z
	 M184.6,523.1c0,0.8-0.6,1.3-1.4,1.3c-0.8,0-1.4-0.6-1.4-1.3s0.6-1.3,1.4-1.3C183.9,521.8,184.6,522.4,184.6,523.1z M197.6,523.1
	c0,7.7-6.5,14-14.4,14c-8.1,0-14.4-6.3-14.4-14s6.5-14,14.4-14C191.3,509.2,197.6,515.4,197.6,523.1z M198.4,523.1
	c0,8.1-6.8,14.6-15.2,14.6c-8.4,0-15.2-6.6-15.2-14.6s6.8-14.6,15.2-14.6C191.5,508.5,198.4,515,198.4,523.1z M253.8,497.6h-38.9
	V496h38.9 M187.4,496h-4.2v-17h4.2V496z M171.6,496h-11.8v-9.8h11.8V496z M164.5,516.8h-4.7V496h55.1v20.8h-13 M203,523.1
	c0,10.5-8.8,19.1-19.8,19.1s-19.8-8.5-19.8-19.1s8.8-19.1,19.8-19.1S203,512.6,203,523.1z M112,526.9h-1.4v-4.6h1.4V526.9z
	 M122,524.1h2.2v1.4H122 M122,525.5h-8.5v-1.4h8.5 M128.9,540.9h-3v-22.6h3V540.9z M115.1,525.5v15.4h-3v-22.5h3v5.8 M118.8,518.3
	h-8.2v-1.4h19.6v1.4H118.8z M130.2,542.2h-19.6v-1.4h19.6V542.2z M118.8,524.1v-5.8 M118.8,516.8V388.7h3.2v128.1 M122,518.3v5.8
	 M122,525.5v15.4h-3.2v-15.4 M122.5,388.1h-3.8v-6.4h3.8V388.1z M125.2,374.7c0,0,1.3,10.4,0.9,11.6l-0.8,0.3v1.4h-0.9
	c0,0,0.9-11.9,0-12.1c-0.9-0.1-1.1,0.2-1.1,0.2v3.5l-0.7,0.9l1.4,0.6l-0.3,7h-1.8h-1.6h-1.6h-1.8l-0.3-7l1.4-0.6l-0.7-0.9v-3.5
	c0,0-0.2-0.4-1.1-0.2c-0.9,0.1,0,12.1,0,12.1h-0.9v-1.4l-0.8-0.3c-0.5-1.2,0.9-11.6,0.9-11.6 M122,342.9v32.7h-3.2v-32.7
	 M118.8,375.5l-4.9-1.5v-31.1 M126.8,342.9v31.3l-4.7,1.3 M122,375.5h-3.2 M109,341.1l-13.3,9.5l-1.3-1.6l12.7-10.8 M127.1,316.6
	h-13.4v-6.7h13.4V316.6z M130.9,306.9c0,0,5.1,0.9,4.9,5.6c-0.2,4.7-0.3,8.4-0.3,8.4s-2.8,16.1-4.7,17.1l-1.8,1 M109.6,307
	c0,0-4.8,0.9-4.7,5.6c0.2,4.7,0.3,8.4,0.3,8.4s2.8,16.1,4.7,17.1l1.8,1 M127.4,337.6h-14.2v-3h14.2V337.6z M102.6,317.5
	c0,0-0.1,1.6-4.4,1.6c-4.3,0.1-9.2,0-9.2,0s-0.9,2.3,0,3.6l9.2,0.2c0,0,4.5-0.1,5.5,3.2 M138.1,317.5c0,0,0.1,1.6,4.4,1.6
	c4.3,0.1,9.2,0,9.2,0s0.9,2.3,0,3.6l-9.2,0.2c0,0-4.5-0.1-5.5,3.2 M130.9,304.3c0,0,7.6,0.6,7.4,7.8s-0.5,9.6-1.5,14.6
	c-0.9,5-3.6,12.3-4.2,13c-0.5,0.6-1.9,2.2-3.9,2 M109.6,304.7c0,0-7.4,0.6-7.1,7.8c0.2,7.2,0.5,9.6,1.5,14.6c0.9,5,3.6,12.3,4.2,13
	c0.5,0.6,1.9,2.2,3.9,2 M126.8,342.9h-12.1c-0.9,0-2.8-0.1-2.8-0.9l-2.3-37.4c0-0.9,1.7-1.4,2.5-1.4l16.6-0.2c0.9,0,2.4,0.9,2.4,1.7
	l-2.2,37C129,342.7,127.6,342.9,126.8,342.9z"/>
<line class="st1" x1="11" y1="531.6" x2="44.6" y2="481"/>
<polygon class="st2" points="7.4,536.7 11.9,532.8 9.3,531.1 "/>
<line class="st1" x1="44.7" y1="480.6" x2="44.7" y2="202.7"/>
<polygon class="st2" points="45.2,199.1 43.1,204.7 47.3,204.7 "/>
<path class="st1" d="M256.4,481h-69.2 M183,481h-61 M118.8,481h-32 M85.2,481H44.9"/>
<polygon class="st2" points="256.1,479.9 262,482 256.1,484.1 "/>
<line class="st1" x1="50.2" y1="481.1" x2="50.2" y2="238.4"/>
<polygon class="st2" points="52.8,238.6 50.6,233 48.5,238.6 "/>
<path class="st2" d="M57.7,241.2v-6.3c-0.4,0.2-1,0.4-1.4,0.5v-1.1c0.7-0.2,1.4-0.6,1.8-1.1h0.9v8.2
	C59.2,241.2,57.7,241.2,57.7,241.2z"/>
<rect x="61.6" y="239.1" class="st2" width="1.1" height="1.9"/>
<path class="st2" d="M66.5,235.3c0,0.6,0.4,1,1.2,1s1.2-0.4,1.2-1s-0.4-1.1-1.2-1.1S66.5,234.5,66.5,235.3 M69.2,238.9
	c0-0.9-0.6-1.3-1.5-1.3s-1.5,0.6-1.5,1.2c0,0.8,0.6,1.3,1.5,1.3C68.6,240.2,69.2,239.7,69.2,238.9 M64.7,238.9c0-1,0.8-1.7,1.4-2
	c-0.7-0.4-1-0.9-1-1.7c0-1.3,0.9-2.3,2.8-2.3c1.6,0,2.7,0.9,2.7,2.3c0,0.9-0.5,1.4-1,1.6c0.7,0.2,1.4,0.9,1.4,2
	c0,1.6-1.2,2.5-3.1,2.5C66,241.4,64.7,240.5,64.7,238.9"/>
<path class="st2" d="M74.2,237.2c0,1.5,0.2,2.9,1.4,2.9c1.2,0,1.4-1.4,1.4-3c0-1.6-0.2-2.9-1.4-2.9
	C74.4,234.2,74.2,235.4,74.2,237.2 M78.6,237.1c0,2.2-0.7,4.3-3,4.3c-2.4,0-3-2-3-4.2s0.8-4.2,3-4.2C77.9,233,78.6,234.9,78.6,237.1
	"/>
<path class="st2" d="M80.9,236.6c0-0.5,0-1,0-1.6h1.5c0,0.2,0.1,0.6,0.1,0.9c0.3-0.5,0.9-0.9,1.8-0.9s1.5,0.5,1.7,1
	c0.4-0.5,0.9-1,2.1-1s2.1,0.7,2.1,2.3v4.1h-1.6v-4c0-0.6-0.3-1.2-1-1.2c-0.9,0-1.2,0.6-1.2,1.6v3.5h-1.6v-3.8c0-0.8-0.2-1.2-1-1.2
	c-0.9,0-1.2,0.6-1.2,1.6v3.5h-1.6L80.9,236.6L80.9,236.6L80.9,236.6z"/>
<path class="st2" d="M62.6,250.1c0-1.1,0-2.5,0.1-3.2h-0.1c-0.3,1.2-1.1,3.7-1.9,5.8h-1.1c-0.6-1.8-1.4-4.6-1.7-5.9h-0.1
	c0.1,0.8,0.1,2.2,0.1,3.4v2.5h-1.1v-6.7h1.9c0.6,1.9,1.4,4.3,1.6,5.2l0,0c0.2-0.9,1-3.4,1.7-5.2h1.9v6.7h-1.2V250.1z"/>
<path class="st2" d="M68.7,250.5h-0.6c-0.9,0-1.2,0.3-1.2,0.9c0,0.4,0.3,0.8,0.8,0.8c0.9,0,1-0.7,1-1.4V250.5L68.7,250.5z
	 M69.9,251.6c0,0.5,0.1,1,0.1,1.1h-1.1c-0.1-0.1-0.1-0.4-0.1-0.5c-0.2,0.3-0.5,0.7-1.4,0.7c-1.1,0-1.6-0.8-1.6-1.5
	c0-1,0.9-1.6,2.3-1.6h0.8v-0.4c0-0.4-0.1-0.8-0.9-0.8c-0.7,0-0.8,0.3-0.9,0.7h-1.1c0.1-0.9,0.6-1.5,2-1.5c1.2,0,1.9,0.5,1.9,1.6
	L69.9,251.6L69.9,251.6z"/>
<path class="st2" d="M71.4,247.8h0.8v-1.4h1.1v1.4h0.9v0.9h-0.9v2.6c0,0.4,0.1,0.6,0.5,0.6c0.1,0,0.2,0,0.3,0v0.9
	c-0.3,0.1-0.6,0.1-0.8,0.1c-0.9,0-1.1-0.5-1.1-1.3v-2.8h-0.7L71.4,247.8L71.4,247.8z"/>
<path class="st2" d="M79.4,245.5l-1.4,1.5h-1l1-1.5H79.4z M78.5,249.7c0-0.7-0.3-1.2-0.9-1.2s-0.9,0.5-1,1.2H78.5z M76.5,250.5
	c0,0.8,0.4,1.4,1,1.4c0.6,0,0.8-0.3,0.9-0.6h1.1c-0.2,0.6-0.7,1.6-2.1,1.6c-1.5,0-2.2-1.2-2.2-2.6c0-1.5,0.8-2.8,2.2-2.8
	c1.6,0,2.1,1.2,2.1,2.5c0,0.2,0,0.3,0,0.4C79.8,250.5,76.5,250.5,76.5,250.5z"/>
<path class="st2" d="M81.9,249.2c0-0.6,0-0.9,0-1.3h1c0,0.1,0.1,0.6,0.1,0.9c0.2-0.6,0.8-0.9,1.5-1v1.1c-0.9,0-1.5,0.4-1.5,1.6v2.2
	h-1L81.9,249.2L81.9,249.2z"/>
<path class="st2" d="M85.9,252.8h0.8v-5h-0.8V252.8z M85.9,246.8h0.8v-1.1h-0.8V246.8z"/>
<path class="st2" d="M91.7,249.8c0-0.7-0.3-1.1-1-1.1s-1,0.5-1,1.1H91.7z M89.6,250.6c0,0.8,0.4,1.4,1,1.4c0.6,0,0.9-0.3,0.9-0.6
	h1.1c-0.2,0.6-0.8,1.5-2.2,1.5c-1.6,0-2.3-1.2-2.3-2.5c0-1.5,0.8-2.6,2.3-2.6c1.6,0,2.2,1.2,2.2,2.4c0,0.2,0,0.3,0,0.4L89.6,250.6
	L89.6,250.6z"/>
<rect x="94.9" y="245.6" class="st2" width="0.8" height="7.1"/>
<path class="st2" d="M57.3,264.1c0.1,0.5,0.5,0.7,1,0.7s0.8-0.2,0.8-0.6s-0.2-0.5-0.9-0.8c-1.5-0.4-1.8-0.9-1.8-1.5s0.5-1.4,1.9-1.4
	c1.4,0,1.9,0.8,1.9,1.4H59c-0.1-0.2-0.2-0.6-0.9-0.6c-0.5,0-0.7,0.3-0.7,0.5c0,0.3,0.2,0.4,0.9,0.6c1.6,0.4,1.8,0.9,1.8,1.6
	c0,0.9-0.6,1.5-2,1.5c-1.4,0-2-0.7-2.1-1.5L57.3,264.1L57.3,264.1z"/>
<path class="st2" d="M65.5,263.1c0-0.9-0.4-1.5-1.1-1.5c-0.9,0-1.1,0.6-1.1,1.6c0,1,0.3,1.6,1.1,1.6
	C65.1,264.9,65.5,264.2,65.5,263.1 M63.2,265.2v2.5H62V262c0-0.4,0-0.9,0-1.2h1.1c0,0.2,0.1,0.5,0.1,0.7c0.3-0.4,0.8-0.9,1.5-0.9
	c1.1,0,2,0.9,2,2.5c0,1.8-0.9,2.8-2.2,2.8C63.8,265.9,63.4,265.6,63.2,265.2"/>
<path class="st2" d="M72.3,258.3l-1.4,1.5h-1l1-1.5H72.3z M71.4,262.5c0-0.7-0.3-1.2-0.9-1.2s-0.9,0.5-1,1.2H71.4z M69.4,263.3
	c0,0.8,0.4,1.4,1,1.4c0.6,0,0.8-0.3,0.9-0.6h1.1c-0.2,0.6-0.7,1.6-2.1,1.6c-1.5,0-2.2-1.2-2.2-2.6c0-1.5,0.8-2.8,2.2-2.8
	c1.6,0,2.1,1.2,2.1,2.5c0,0.2,0,0.3,0,0.4H69.4L69.4,263.3z"/>
<path class="st2" d="M78.7,264c-0.2,0.9-0.8,1.6-2.1,1.6c-1.4,0-2.3-1-2.3-2.5c0-1.4,0.9-2.6,2.3-2.6c1.5,0,2,1.1,2.1,1.7h-1.1
	c-0.1-0.4-0.4-0.8-0.9-0.8c-0.8,0-1,0.6-1,1.6c0,1,0.4,1.6,1,1.6c0.5,0,0.8-0.3,0.9-0.8H78.7L78.7,264z"/>
<path class="st2" d="M80.5,265.6h0.8v-5h-0.8V265.6z M80.5,259.6h0.8v-1.1h-0.8V259.6z"/>
<path class="st2" d="M83.6,265.6v-4.1h-0.7v-0.9h0.7v-0.5c0-1,0.4-1.7,1.4-1.7c0.2,0,0.5,0,0.6,0.1v0.9c-0.1,0-0.2-0.1-0.3-0.1
	c-0.4,0-0.6,0.2-0.6,0.9v0.4h0.9v0.9h-0.9v4.1H83.6L83.6,265.6z"/>
<path class="st2" d="M87,265.6h0.8v-5H87V265.6z M87,259.6h0.8v-1.1H87V259.6z"/>
<path class="st2" d="M90.8,263.2c0,0.9,0.4,1.6,1.1,1.6c0.9,0,1.1-0.7,1.1-1.6c0-1-0.2-1.6-1.1-1.6
	C91.2,261.6,90.8,262.2,90.8,263.2 M93.1,265.1c-0.3,0.5-0.8,0.8-1.4,0.8c-1.1,0-2.1-0.9-2.1-2.6c0-1.6,0.9-2.7,2.2-2.7
	c0.9,0,1.2,0.4,1.3,0.7c0-0.2,0-0.4,0.1-0.5h1.1c0,0.5,0,0.9,0,1.4v5.4h-1.1L93.1,265.1L93.1,265.1z"/>
<path class="st2" d="M100.6,264.1c0,0.5,0,1,0,1.4h-1.1c0-0.2-0.1-0.4-0.1-0.6c-0.3,0.5-0.8,0.8-1.4,0.8c-0.9,0-1.6-0.5-1.6-1.8
	v-3.1h1.1v2.9c0,0.6,0.2,1,0.9,1c0.8,0,0.9-0.4,0.9-1.4v-2.6h1.1v3.4L100.6,264.1L100.6,264.1z"/>
<path class="st2" d="M105.8,262.6c0-0.7-0.3-1.1-1-1.1s-1,0.5-1,1.1H105.8z M103.6,263.4c0,0.8,0.4,1.4,1,1.4c0.6,0,0.9-0.3,0.9-0.6
	h1.1c-0.2,0.6-0.8,1.5-2.2,1.5c-1.6,0-2.3-1.2-2.3-2.5c0-1.5,0.8-2.6,2.3-2.6c1.6,0,2.2,1.2,2.2,2.4c0,0.2,0,0.3,0,0.4L103.6,263.4
	L103.6,263.4z"/>
<path class="st2" d="M17.8,537.4v-6.5c-0.4,0.2-1,0.4-1.4,0.5v-1.1c0.7-0.2,1.4-0.6,1.8-1.1h1v8.4L17.8,537.4L17.8,537.4z"/>
<rect x="21.8" y="535.7" class="st2" width="1.1" height="1.6"/>
<path class="st2" d="M30.8,530.3h-3.4c-0.1,0.5-0.2,1.5-0.3,1.8c0.3-0.3,0.9-0.5,1.6-0.5c1.6,0,2.6,1.1,2.6,2.8c0,1.6-0.9,3-3,3
	c-1.6,0-2.8-0.9-2.9-2.3h1.6c0.2,0.6,0.6,1,1.4,1c0.9,0,1.4-0.8,1.4-1.7s-0.4-1.6-1.4-1.6c-0.9,0-1.1,0.4-1.4,0.9l-1.4-0.2
	c0.2-1,0.6-3.5,0.8-4.6H31L30.8,530.3z"/>
<path class="st2" d="M34.9,533.1c0,1.5,0.2,3,1.5,3c1.3,0,1.4-1.4,1.4-3c0-1.6-0.2-3-1.4-3C35.2,530.1,34.9,531.4,34.9,533.1
	 M39.5,533.1c0,2.2-0.7,4.4-3.1,4.4c-2.4,0-3.1-2.1-3.1-4.3c0-2.2,0.8-4.3,3.1-4.3C38.7,528.8,39.5,530.8,39.5,533.1"/>
<path class="st2" d="M41.8,532.5c0-0.6,0-1.1,0-1.6h1.6c0,0.2,0.1,0.6,0.1,0.9c0.4-0.5,0.9-0.9,1.9-0.9c0.9,0,1.5,0.5,1.8,1
	c0.4-0.6,0.9-1,2.1-1s2.2,0.7,2.2,2.4v4.2h-1.6v-4c0-0.6-0.3-1.2-1.1-1.2c-0.9,0-1.2,0.6-1.2,1.6v3.6h-1.6v-3.9c0-0.8-0.2-1.3-1-1.3
	c-0.9,0-1.2,0.6-1.2,1.7v3.5H42v-4.8L41.8,532.5L41.8,532.5z"/>
<path class="st2" d="M250.9,472.5v-6.9c-0.4,0.3-1.1,0.5-1.5,0.5v-1.2c0.8-0.2,1.5-0.7,2-1.2h1v8.9L250.9,472.5L250.9,472.5z"/>
<rect x="255.3" y="470.9" class="st2" width="1.2" height="1.6"/>
<path class="st2" d="M264.8,465h-3.6c-0.1,0.6-0.3,1.6-0.3,2c0.4-0.3,0.9-0.6,1.7-0.6c1.7,0,2.8,1.2,2.8,2.9c0,1.7-0.9,3.3-3.2,3.3
	c-1.7,0-2.9-0.9-3.1-2.5h1.7c0.2,0.7,0.7,1.1,1.5,1.1c1,0,1.5-0.8,1.5-1.8s-0.4-1.7-1.5-1.7c-0.9,0-1.2,0.4-1.5,0.9l-1.5-0.2
	c0.3-1.1,0.6-3.8,0.8-4.9h5.2L264.8,465z"/>
<path class="st2" d="M269.2,468c0,1.7,0.2,3.2,1.6,3.2s1.6-1.5,1.6-3.3c0-1.7-0.3-3.2-1.5-3.2C269.5,464.7,269.2,466,269.2,468
	 M274.2,467.9c0,2.4-0.8,4.7-3.4,4.7c-2.6,0-3.4-2.2-3.4-4.7c0-2.4,0.9-4.7,3.4-4.7S274.2,465.6,274.2,467.9"/>
<path class="st2" d="M276.6,467.4c0-0.6,0-1.1,0-1.7h1.7c0,0.2,0.1,0.6,0.1,0.9c0.4-0.6,0.9-1,2.1-1c1,0,1.7,0.5,1.9,1.1
	c0.4-0.6,1-1.1,2.3-1.1s2.3,0.8,2.3,2.5v4.5h-1.8v-4.3c0-0.7-0.3-1.4-1.1-1.4c-0.9,0-1.4,0.6-1.4,1.7v3.9h-1.7v-4.3
	c0-0.8-0.2-1.4-1.1-1.4c-0.9,0-1.4,0.6-1.4,1.8v3.8h-1.7V467.4z"/>
<g class="st3">
	<g class="st4">
		<path class="st5" d="M898.2,424.9h-3.4v-32.3h3.4V424.9z M862.4,424.9H859v-32.3h3.4V424.9z M895.4,392.7h-31.8v-3h31.8V392.7z
			 M873.7,424.9H859v-32.3h39.4v32.3h-14.9"/>
		<rect x="875.6" y="505" class="st5" width="5.9" height="1.3"/>
		<path class="st5" d="M881.6,478.7h-6.1V477h6.1V478.7z M881.6,482.2h-6.1v-1.7h6.1V482.2z M881.6,485.8h-6.1v-1.7h6.1V485.8z
			 M881.6,489.3h-6.1v-1.7h6.1V489.3z M881.6,492.8h-6.1v-1.7h6.1V492.8z M881.6,496.3h-6.1v-1.7h6.1V496.3z M881.6,499.4h-6.1v-1.7
			h6.1V499.4z M881.6,502.9h-6.1v-1.7h6.1V502.9z M872.7,404.8v-5.5h11.8v5.5"/>
		<line class="st6" x1="872.1" y1="469.2" x2="872.1" y2="512.2"/>
		<line class="st6" x1="885.3" y1="469.2" x2="885.3" y2="512.2"/>
		<line class="st7" x1="873.4" y1="510.6" x2="883.9" y2="510.6"/>
		<rect x="870.3" y="425.1" class="st8" width="3.4" height="42.2"/>
		<rect x="870.3" y="425.1" class="st5" width="3.4" height="42.2"/>
		<rect x="883.6" y="425.1" class="st8" width="3.4" height="42.2"/>
		<rect x="883.6" y="425.1" class="st5" width="3.4" height="42.2"/>
		<rect x="873.9" y="400" class="st5" width="9.4" height="108.2"/>
	</g>
	<path class="st9" d="M1076.3,488.9h-4.1v9.3h4.1V488.9z M1071,504.7v-6.6h6.4v6.6 M1077.4,504.5l-3.1,7.8l-3.3-7.8 M1077.4,481.6
		h-6.4V369.2h6.4V481.6z"/>
	<g class="st4">
		<rect x="898.9" y="392.1" class="st2" width="171.4" height="1"/>
		<rect x="759.9" y="392.1" class="st2" width="98.5" height="1"/>
		<rect x="1078.2" y="392.1" class="st2" width="119.9" height="1"/>
	</g>
</g>
<g>
	<path class="st1" d="M1813.8,407.7V279.3c0-0.5,0.4-1,0.9-1h0.8c0.5,0,0.9,0.5,0.9,1v128.4c0,0.5-0.4,1-0.9,1h-0.8
		C1814.3,408.7,1813.8,408.3,1813.8,407.7z M1813.8,532.5V414.2c0-0.5,0.4-1,0.9-1h0.8c0.5,0,0.9,0.5,0.9,1v118.3c0,0.5-0.4,1-0.9,1
		h-0.8C1814.3,533.5,1813.8,533,1813.8,532.5z M1810.9,274.3h5.9v262.4h-5.9V274.3z M1823.9,208h-18.7v66.3h18.7V208z M1805.1,204.5
		h-15.7v288.8h15.7V204.5z M1755.2,493.3h34.3v-15.9h-65.6V489 M1789.5,483.4h-65.6 M1723.9,483.4h-138.5v5.5h138.5 M1723.9,489
		h65.6 M1711.5,414.7h-94.9v7.2h94.9V414.7z M1723.9,421.9h-119.6v61.6h119.6V421.9z M1755.2,489h-124.9v6.1h124.9V489z
		 M1637.4,518.7c1.4,1.5,4.2,2,6.3,1c2.1-1,2.7-3.1,1.4-4.7c-1.4-1.5-4.2-2-6.3-1C1636.7,515,1636.1,517.1,1637.4,518.7z
		 M1730.7,504h-89.4l0,0c-9.8-0.3-18.1,5.6-18.1,12.9c0,7.3,8.1,13.1,18.1,12.9l0,0h89.4v-1.4c-12.8-4.8-12.8-18.2,0-23V504z
		 M1746,499h-108.5c-13.4,0-24.1,7.9-24.1,17.8c0,9.8,10.8,17.8,24.1,17.8h108.4c13.4,0,24.1-7.9,24.1-17.8
		C1770.1,507,1759.3,499,1746,499z M1746,496.9h-4.5v1.4h4.5V496.9z M1754,497.6l-4.4-0.7l-0.4,1.3l4.4,0.7L1754,497.6z
		 M1761.4,500.3l-4-1.6l-0.9,1.2l4,1.6L1761.4,500.3z M1767.4,504.5l-3.1-2.4l-1.4,0.9l3.1,2.4L1767.4,504.5z M1771.4,509.8l-2-3
		l-1.6,0.5l2,3L1771.4,509.8z M1773.1,515.8l-0.6-3.3l-1.7,0.2l0.6,3.3L1773.1,515.8z M1772.3,521.8l0.8-3.3l-1.7-0.3l-0.8,3.3
		L1772.3,521.8z M1768.9,527.4l2.1-3l-1.6-0.5l-2.1,3L1768.9,527.4z M1763.6,532l3.2-2.3l-1.3-0.9l-3.2,2.3L1763.6,532z
		 M1756.6,535.2l4-1.5l-0.8-1.2l-4,1.5L1756.6,535.2z M1748.6,536.7l4.5-0.5l-0.4-1.4l-4.5,0.5L1748.6,536.7z M1740.7,536.7h4.5
		v-1.4h-4.5V536.7z M1733.3,536.7h4.5v-1.4h-4.5V536.7z M1726,536.7h4.5v-1.4h-4.5V536.7z M1718.6,536.7h4.5v-1.4h-4.5V536.7z
		 M1711.3,536.7h4.5v-1.4h-4.5V536.7z M1703.9,536.7h4.5v-1.4h-4.5V536.7z M1696.6,536.7h4.5v-1.4h-4.5V536.7z M1689.2,536.7h4.5
		v-1.4h-4.5V536.7z M1681.8,536.7h4.5v-1.4h-4.5V536.7z M1674.5,536.7h4.5v-1.4h-4.5V536.7z M1667.1,536.7h4.5v-1.4h-4.5V536.7z
		 M1659.7,536.7h4.5v-1.4h-4.5V536.7z M1652.3,536.7h4.5v-1.4h-4.5V536.7z M1644.9,536.7h4.5v-1.4h-4.5V536.7z M1637.5,536.7h4.5
		v-1.4h-4.5V536.7z M1629.7,535.9l4.4,0.7l0.4-1.3l-4.4-0.7L1629.7,535.9z M1622.3,533.3l4,1.6l0.9-1.2l-4-1.6L1622.3,533.3z
		 M1616.2,529.1l3.1,2.4l1.4-0.9l-3.1-2.4L1616.2,529.1z M1612.2,523.8l2,3l1.6-0.5l-2-3L1612.2,523.8z M1610.6,517.9l0.6,3.3
		l1.7-0.2l-0.6-3.3L1610.6,517.9z M1611.4,511.8l-0.8,3.3l1.7,0.3l0.8-3.3L1611.4,511.8z M1614.6,506.2l-2.1,3l1.6,0.5l2.1-3
		L1614.6,506.2z M1620,501.6l-3.2,2.3l1.3,0.9l3.2-2.3L1620,501.6z M1627.1,498.4l-4,1.5l0.8,1.2l4-1.5L1627.1,498.4z M1635,496.9
		l-4.5,0.5l0.4,1.4l4.5-0.5L1635,496.9z M1643,496.9h-4.5v1.4h4.5V496.9z M1650.3,496.9h-4.5v1.4h4.5V496.9z M1657.7,496.9h-4.5v1.4
		h4.5V496.9z M1665.1,496.9h-4.5v1.4h4.5V496.9z M1672.4,496.9h-4.5v1.4h4.5V496.9z M1679.8,496.9h-4.5v1.4h4.5V496.9z
		 M1687.1,496.9h-4.5v1.4h4.5V496.9z M1694.5,496.9h-4.5v1.4h4.5V496.9z M1701.8,496.9h-4.5v1.4h4.5V496.9z M1709.2,496.9h-4.5v1.4
		h4.5V496.9z M1716.5,496.9h-4.5v1.4h4.5V496.9z M1723.9,496.9h-4.5v1.4h4.5V496.9z M1731.3,496.9h-4.5v1.4h4.5V496.9z
		 M1738.6,496.9h-4.5v1.4h4.5V496.9z M1730.7,508.5c-6.2,5.4-5.4,13.5,2,18.1c7.4,4.6,18.3,4,24.5-1.4c6.2-5.4,5.4-13.5-2-18.1
		C1747.9,502.4,1736.9,503.1,1730.7,508.5z M1740.2,518.7c1.4,1.5,4.2,2,6.3,1c2.1-1,2.7-3.1,1.4-4.7c-1.4-1.5-4.2-2-6.3-1
		S1738.7,517.1,1740.2,518.7z M1789.5,465.4h-65.6v2.8h65.6V465.4z M1789.5,436.6h-65.6v2.8h65.6V436.6z"/>
	<polygon class="st2" points="1910.2,535.6 1904.6,530.5 1907.9,528.2 	"/>
	<line class="st10" x1="1859.7" y1="455.5" x2="1859.7" y2="200.8"/>
	<polygon class="st2" points="1860,193.3 1862.1,200.8 1858,200.8 	"/>
	<path class="st10" d="M1604.3,455.9h-16.9 M1859.4,455.9h-41.5"/>
	<polygon class="st2" points="1588.1,454.1 1580.9,456.1 1588.1,458.1 	"/>
	<path class="st10" d="M1804.8,455.5h6.7 M1681.7,413.6v5.2 M1686.3,413.6v5.2 M1690.5,413.6v5.2 M1694.8,413.6v5.2"/>
	<line class="st1" x1="1859.7" y1="455.9" x2="1906.3" y2="529.9"/>
</g>
<g>
	<g>
		<path class="st2" d="M1813.4,201.9L1813.4,201.9c0-1.4,0.6-2.6,2.2-4c1.1-0.9,1.4-1.2,1.4-2c0-0.8-0.4-1.2-1-1.2
			c-0.8,0-1.1,0.5-1.2,1.4h-1.4c0.1-1.4,0.9-2.6,2.5-2.6c1.8,0,2.4,1.3,2.4,2.4c0,1.2-0.5,1.7-1.8,2.9c-0.9,0.8-1.4,1.4-1.5,1.7h3.6
			l-0.2,1.4H1813.4L1813.4,201.9z"/>
		<path class="st2" d="M1826.2,196.3c0,0.9,0.5,1.5,1.2,1.5c0.8,0,1.2-0.5,1.2-1.4c0-0.5-0.2-1.5-1.3-1.5
			C1826.5,194.7,1826.2,195.4,1826.2,196.3 M1826.3,200c0.2,0.5,0.5,0.9,1.1,0.9c1.2,0,1.4-1.7,1.4-2.6c-0.4,0.5-0.9,0.8-1.6,0.8
			c-1.5,0-2.3-1.2-2.3-2.7c0-1.6,1-2.8,2.7-2.8c2,0,2.7,1.7,2.7,3.9c0,2.3-0.5,4.7-2.8,4.7c-1.6,0-2.3-1.1-2.4-2.2H1826.3
			L1826.3,200z"/>
		<path class="st2" d="M1834.2,197.7c0,1.5,0.2,3.1,1.4,3.1s1.4-1.4,1.4-3.1c0-1.6-0.2-3-1.4-3
			C1834.5,194.7,1834.2,195.9,1834.2,197.7 M1838.4,197.7c0,2.2-0.6,4.3-2.8,4.3s-2.8-2.1-2.8-4.2c0-2.3,0.7-4.2,2.9-4.2
			C1837.6,193.5,1838.4,195.5,1838.4,197.7"/>
		<path class="st2" d="M1841.2,197.3c0-0.5,0-1.1,0-1.6h1.4c0,0.2,0.1,0.5,0.1,0.8c0.3-0.5,0.8-1,1.8-1c0.9,0,1.4,0.5,1.6,1
			c0.4-0.5,0.9-1,2-1s2,0.6,2,2.3v4.1h-1.5V198c0-0.6-0.3-1.2-1-1.2c-0.8,0-1.2,0.5-1.2,1.5v3.5h-1.5V198c0-0.7-0.2-1.3-1-1.3
			c-0.8,0-1.2,0.5-1.2,1.6v3.4h-1.5V197.3z"/>
		<path class="st2" d="M1857.4,530.9c0,1.6,0.2,3.2,1.4,3.2c1.2,0,1.4-1.4,1.4-3.2c0-1.6-0.2-3.1-1.4-3.1
			C1857.8,527.8,1857.4,529,1857.4,530.9 M1861.6,530.9c0,2.3-0.6,4.5-2.9,4.5c-2.2,0-2.9-2.2-2.9-4.5c0-2.3,0.7-4.5,2.9-4.5
			C1860.9,526.4,1861.6,528.5,1861.6,530.9"/>
		<rect x="1864.7" y="533.8" class="st2" width="1.2" height="1.4"/>
		<path class="st2" d="M1872.8,526.6v1.2c-1.2,2-2.3,4.9-2.7,7.3h-1.4c0.3-2.4,1.6-5.6,2.7-7.2h-3.6v-1.4L1872.8,526.6L1872.8,526.6
			z"/>
		<path class="st2" d="M1877.4,528.9c0,0.6,0.4,1.1,1.2,1.1c0.8,0,1.2-0.4,1.2-1.1s-0.4-1.2-1.2-1.2
			C1877.8,527.8,1877.4,528.1,1877.4,528.9 M1880,532.7c0-0.9-0.5-1.4-1.4-1.4c-0.9,0-1.4,0.5-1.4,1.4s0.5,1.4,1.4,1.4
			C1879.4,534.1,1880,533.7,1880,532.7 M1875.7,532.7c0-1.1,0.7-1.8,1.4-2.2c-0.6-0.4-1-0.9-1-1.8c0-1.4,0.9-2.3,2.6-2.3
			c1.5,0,2.5,0.9,2.5,2.3c0,1-0.5,1.5-1,1.7c0.6,0.3,1.4,1,1.4,2.2c0,1.7-1.2,2.7-2.9,2.7C1877,535.5,1875.7,534.5,1875.7,532.7"/>
		<path class="st2" d="M1885,530.5c0-0.5,0-1.1,0-1.6h1.5c0,0.2,0.1,0.5,0.1,0.8c0.4-0.5,0.9-1,1.8-1c0.9,0,1.5,0.5,1.7,1
			c0.4-0.5,1-1,2.1-1c1.1,0,2.1,0.6,2.1,2.3v4.2h-1.5v-4c0-0.6-0.3-1.3-1.1-1.3c-0.9,0-1.2,0.5-1.2,1.6v3.6h-1.5v-3.9
			c0-0.7-0.2-1.4-1.1-1.4c-0.8,0-1.3,0.5-1.3,1.7v3.5h-1.5L1885,530.5L1885,530.5z"/>
		<path class="st2" d="M1558.9,470L1558.9,470c0-1.4,0.6-2.6,2.3-4c1.1-0.9,1.4-1.2,1.4-2c0-0.7-0.4-1.2-1.1-1.2
			c-0.8,0-1.1,0.5-1.2,1.4h-1.4c0.1-1.4,0.9-2.5,2.6-2.5c1.8,0,2.4,1.2,2.4,2.4c0,1.3-0.5,1.7-1.8,2.9c-1,0.8-1.4,1.4-1.5,1.7h3.6
			l-0.2,1.4L1558.9,470L1558.9,470z"/>
		<rect x="1566.7" y="468.7" class="st2" width="0.9" height="1.4"/>
		<path class="st2" d="M1573.7,465.2c0-0.8,0-1.4,0.1-1.9c-0.4,0.7-1.7,2.4-2.6,3.5h2.6L1573.7,465.2L1573.7,465.2z M1573.7,470
			v-1.9h-4.2v-1.4l3.9-4.9h1.8v5h1.1l-0.2,1.3h-1v1.9H1573.7z"/>
		<path class="st2" d="M1578.9,466c0,1.5,0.2,3,1.4,3c1.2,0,1.4-1.4,1.4-3.1c0-1.6-0.2-3-1.4-3C1579.1,463,1578.9,464.2,1578.9,466
			 M1583.1,466c0,2.2-0.6,4.3-2.8,4.3s-2.8-2.1-2.8-4.2c0-2.2,0.7-4.2,2.9-4.2C1582.4,461.7,1583.1,463.6,1583.1,466"/>
		<path class="st2" d="M1585.5,465.4c0-0.5,0-1.1,0-1.6h1.4c0,0.2,0.1,0.5,0.1,0.8c0.3-0.5,0.8-1,1.7-1c0.9,0,1.4,0.5,1.6,1
			c0.4-0.5,0.9-1,2-1s2,0.6,2,2.3v4.1h-1.4V466c0-0.6-0.3-1.2-1-1.2c-0.8,0-1.2,0.5-1.2,1.5v3.5h-1.4V466c0-0.7-0.2-1.3-1-1.3
			c-0.8,0-1.2,0.5-1.2,1.6v3.4h-1.5L1585.5,465.4L1585.5,465.4z"/>
		<rect x="1821.7" y="200.8" class="st2" width="1" height="1.1"/>
	</g>
</g>
</svg>
