<?xml version="1.0" encoding="utf-8"?>
<!-- Generator: Adobe Illustrator 24.3.0, SVG Export Plug-In . SVG Version: 6.00 Build 0)  -->
<svg version="1.1" id="Layer_1" xmlns="http://www.w3.org/2000/svg" xmlns:xlink="http://www.w3.org/1999/xlink" x="0px" y="0px"
	 viewBox="0 0 600 600" style="enable-background:new 0 0 600 600;" width="600" height="600" xml:space="preserve">
<style type="text/css">
	.st0{fill:url(#SVGID_1_);}
	.st1{fill:#FFFFFF;}
	.st2{opacity:0.22;fill:#FFFFFF;enable-background:new    ;}
	.st3{opacity:0.5;}
	.st4{fill:#DDDDDD;}
	.st5{fill:#333333;}
	.st6{fill:#EAE4DF;}
	.st7{fill:#07070C;}
	.st8{fill:#EAE4DF;stroke:#333333;stroke-width:20;stroke-miterlimit:10;}
	.st9{fill:none;}
</style>
<g>
	<g>
		
			<linearGradient id="SVGID_1_" gradientUnits="userSpaceOnUse" x1="212.1179" y1="-24.3623" x2="479.7841" y2="439.2497" gradientTransform="matrix(1 0 0 1 0 100.5511)">
			<stop  offset="0" style="stop-color:#43B649"/>
			<stop  offset="1" style="stop-color:#339C8F"/>
		</linearGradient>
		<path class="st0" d="M158.5,513c0,0,16.2-68.5,13-70.1s4.1-1.6,4.1-1.6h3.8l-4.1-7.6l1.9-47.4l6.4,4.1c0,0,11.1,6.7,11.8,12.7
			c0.6,6,2.5,12.1,2.5,12.1l0.8-12.5l-2.3-7.9c0,0-13.7-15.4-16.9-16.1c-3.2-0.8-5.6-2.8-5.6-2.8l0.2-4.3l7.1,2.6
			c0,0-2.5-2.3-2.7-6.6c-0.1-4.3,0.8-7.1,0.8-7.1l-4.1-15.9c0,0,8.2-6.7,0.9-11.2s-23.7-3.3-23.7-3.3s-9.1-6.1-9.1-10.3
			c0-4.2-5.8-10.3-5.8-10.3l-3-4.2H132l8.1-13.4c0,0-9.2-2.9-8.1-9.8c1.1-6.9,1.1-6.9,1.1-6.9l-14.5-11.6l2-2.7l-13.1-5.8
			c0,0,4.1-5.3-5.3-1.5s-22.3-5.8-22.3-5.8l-1.5-4.6h-9.7c0,0-15-3.1-16.5-6.1s-3.6,0-3.6,0H43v3.6l-7,0.2c0,0-15.2-19.4,0-19.1
			s-9-11.9-9-11.9l8.5-3.1l-6.1-5.8l-11.9,4.6L16,191.8c0,0,34.6-13.8,38.5-9.2s11.9,1,11.9,1s4.4-14.3,13.8-12.1
			s20.3,11.1,20.3,11.1l6.8,9.4c0,0,7,1.7,8.4-2.9s6.5-5.1,6.5-5.1l4.8,5.3c0,0,4.8-6.3,6.8-3.9c1.9,2.4,4.1,6.5,4.1,6.5
			s-2.9-8,0.5-8.5s6.1,2.4,6.1,2.4l20.1-0.5c0,0-11.3-19.8-6.6-25.4c4.8-5.6-6-18.4-6-18.4l-10.4-19.6l5.2-8l14,5.6
			c0,0,10.4-11.2,10.4-2.4s0.8,15.6,0.8,15.6l4.8,5.2l9.6-2l4,2H206l6,5.2c0,0,24-5.6,24-9.6s9.6-2.8,9.6-2.8s-16.8,1.2-15.2-6
			s20.4-20.4,20.4-20.4l25.2-5.6c0,0,16-4,16-8.8s5.6-9.2,5.6-9.2s-5-45.2,0-47.9s13.7-7.6,13.7-7.6l23.5-6.6l6.1,16.3L354.1,47
			l10.3-5.8l8.7,17.4h6.1l10.3,14.8l6.8-3.2h4.2l10.6,6.8l-1.3,8.4L409.2,97l11.6,0.3l17.7-13.8l2.6,25.4l4.5,0.3l10.9,5.8h3.5
			l6.4,11.9l16.7-2.3l5.8,6.1l4.2,0.3l9.3-3.5l23.2,23.5l3.9-3.9l5.8,6.4l10,1.6l7.1-4.2l10.6,6.4l14.5,2.9l6.8,6.4l-20.9,51.5
			l-2.3,36.7l-9.5,6.6l-0.5,4.5h-6.9l-3-5.3l-6.4,0.8l-6.2,7.3l6.2,1l-38.5,51.9l-1.9,18l-4.3,9.1h5.4l18.5-20.3l8,2.7l5.4,20.1
			l8.7,10.5l-7.1,5.5l-1.6,10.9l14.2,16.9l-3,9.8l-8.7,8.2l-9.3-0.5l6.5,16.1l4.4,1.4l5.5,10.1l-7.9,9.2l5.1,16.6l15,7.6l12.5-2.1
			l-2.6,18.2l-2.2,6.3l-24.4,12.9l-8.5,2.3l-2.1,4.1h-6.1l-8.6,3.5l-29.9-3.9l-1.6,11.5h-10.3l-4.1-9.2l-14-0.5l-28.2-2l-19.3-9.1
			l-27.1,14.1l-17.4,11.7l0.8,13l4.9,6.2l2.1,20l2.3,7.3l-7.5-3.9l-14.8,3.9v2.9l-7,1.3l-8.4-6.2l-11.9,6.2l-4.7-7.3l-10.8-3.4
			L290,576l-6.2-12.8l-25.5-12l-2.1,9.4h-13.5l-6,2.9l-3.6-4.7l-7.3,3.1l-8.3-7.3l-8.8-2.1l-7.5,2.3l-8.1-8.1l-11.7-1.8l-18-8.6
			l0.5-10.9l-7.5-0.3h-4.9l-2.9-4.7l-0.8-3.1L158.5,513z"/>
		<path class="st1" d="M315.6,583.3c-0.5,0-0.9-0.2-1.2-0.7l-4.4-6.8l-9.8-3.1l-9.8,4.5c-0.7,0.3-1.6,0-1.9-0.7l-6-12.3l-23.4-11
			l-1.7,7.6c-0.1,0.7-0.7,1.1-1.4,1.1h-13.2l-5.7,2.7c-0.6,0.3-1.4,0.1-1.8-0.4l-3-3.8l-6.3,2.7c-0.5,0.2-1.1,0.1-1.5-0.2l-8.1-7
			l-8.1-1.9l-7.2,2.2c-0.5,0.2-1.1,0-1.5-0.4l-7.7-7.7l-11.2-1.7c-0.1,0-0.3-0.1-0.4-0.1l-18-8.6c-0.5-0.3-0.8-0.8-0.8-1.4l0.5-9.5
			l-6.1-0.2H151c-0.5,0-1-0.3-1.2-0.7l-2.9-4.7c-0.1-0.1-0.1-0.3-0.2-0.4l-0.8-3.1c-0.2-0.7,0.2-1.4,0.9-1.7l10.3-4
			c5.7-24.3,14.1-63,13.2-68c-1.2-0.7-1.3-1.6-1.1-2.2c0.2-0.7,0.5-1.9,6.3-1.9h1.4l-3-5.5c-0.1-0.2-0.2-0.5-0.2-0.7l1.9-47.4
			c0-0.5,0.3-1,0.8-1.2s1-0.2,1.5,0.1l6.4,4.1c1.2,0.7,11.7,7.2,12.4,13.8c0.1,0.8,0.2,1.6,0.3,2.4l0.2-2.5l-2.1-7.3
			c-6.4-7.1-14.2-15-15.9-15.4c-3.5-0.8-6.1-3-6.2-3.1c-0.3-0.3-0.5-0.7-0.5-1.2l0.2-4.3c0-0.5,0.3-0.9,0.6-1.1
			c0.4-0.3,0.9-0.3,1.3-0.2l3.2,1.2c-0.4-1-0.7-2.3-0.7-3.7c-0.1-3.6,0.5-6.2,0.7-7.2l-4-15.5c-0.1-0.5,0.1-1.1,0.5-1.5
			c1-0.8,3.5-3.4,3.4-5.8c-0.1-1.2-0.8-2.2-2.3-3.1c-6.8-4.2-22.6-3.1-22.8-3.1c-0.3,0-0.6-0.1-0.9-0.2c-1.6-1.1-9.8-6.7-9.8-11.5
			c0-3-3.9-7.7-5.4-9.3c0,0-0.1-0.1-0.1-0.2l-2.6-3.6h-2c-0.5,0-1-0.3-1.3-0.7c-0.3-0.5-0.3-1,0-1.5l7.2-11.9
			c-2.9-1.3-8.4-4.7-7.4-10.8l1-6.1l-13.9-11c-0.6-0.5-0.7-1.4-0.3-2l0.9-1.3l-11.4-5.1c-0.4-0.2-0.7-0.5-0.8-1
			c-0.1-0.4,0-0.9,0.3-1.2c0.1-0.1,0.2-0.3,0.3-0.5c-0.7,0.1-1.9,0.4-3.9,1.3c-10.1,4.1-23.1-5.6-23.7-6c-0.2-0.2-0.4-0.4-0.5-0.7
			l-1.1-3.6h-8.6c-0.1,0-0.2,0-0.3,0c-4.7-1-15.9-3.6-17.5-6.8c-0.2-0.3-0.3-0.5-0.4-0.5c-0.1,0-0.6,0.4-0.8,0.7
			c-0.3,0.4-0.7,0.6-1.2,0.6h-4.1v2.2c0,0.8-0.6,1.4-1.4,1.4l-7,0.2c-0.4,0-0.9-0.2-1.2-0.6c-1-1.2-9.4-12.2-6.5-18.1
			c1.1-2.3,3.7-3.5,7.6-3.4c2.2,0,3.1-0.2,3.5-0.4c-0.8-1.6-6.7-5.5-13.1-8.8c-0.5-0.3-0.8-0.8-0.8-1.4c0-0.6,0.4-1.1,0.9-1.3
			l6.3-2.3l-3.7-3.6l-11,4.3c-0.4,0.2-0.9,0.1-1.3-0.1c-0.4-0.2-0.6-0.6-0.7-1.1L14.4,192c-0.1-0.6,0.3-1.3,0.9-1.5
			c10.7-4.3,36-13.7,40.1-8.8c2.6,3.1,7.9,1.5,9.6,0.8c1.1-3,5.8-14.6,15.3-12.4c9.7,2.2,20.5,11.1,20.9,11.4
			c0.1,0.1,0.2,0.2,0.3,0.3l6.5,9c1.4,0.2,5.4,0.6,6.2-2c1.7-5.5,7.5-6.1,7.8-6.1c0.5,0,0.9,0.1,1.2,0.5l3.7,4.1
			c1.4-1.6,3.6-3.6,5.7-3.7c0.9,0,1.7,0.4,2.3,1.1c0.2,0.2,0.3,0.4,0.5,0.6c0.1-0.6,0.3-1.1,0.5-1.6c0.5-0.8,1.3-1.4,2.3-1.5
			c3.2-0.5,5.8,1.5,6.8,2.4l17.1-0.4c-3-5.6-9.7-19.8-5.2-25c3.3-3.8-3.4-13.4-6-16.5c-0.1-0.1-0.1-0.2-0.2-0.3l-10.4-19.6
			c-0.2-0.5-0.2-1,0.1-1.5l5.2-8c0.4-0.6,1.1-0.8,1.8-0.6l13.1,5.2c2.2-2.2,6.9-6.5,10-5.3c1.5,0.6,2.2,2.1,2.2,4.6
			c0,7.3,0.6,13.3,0.7,14.9l3.9,4.2l8.8-1.8c0.3-0.1,0.7,0,0.9,0.1l3.7,1.8h15.2c0.3,0,0.7,0.1,0.9,0.4l5.4,4.7
			c11.4-2.7,21.5-6.4,22.1-8.1c0-0.7,0.2-1.4,0.6-1.9c-2.1-0.5-4-1.3-5.2-2.7c-1-1.2-1.4-2.7-1-4.4c1.7-7.5,19-19.9,21-21.2
			c0.2-0.1,0.3-0.2,0.5-0.2l25.2-5.6c7.1-1.8,14.8-5.2,14.8-7.4c0-4.4,3.9-8.4,5.5-9.8c-1.5-14.3-4.3-45.8,0.8-48.6
			c5-2.7,13.7-7.6,13.7-7.6c0.1-0.1,0.2-0.1,0.3-0.1l23.5-6.6c0.7-0.2,1.5,0.2,1.7,0.9l6,16l12.2,11l9.4-5.3
			c0.3-0.2,0.8-0.2,1.1-0.1c0.4,0.1,0.7,0.4,0.9,0.7l8.3,16.6h5.2c0.5,0,0.9,0.2,1.2,0.6l9.6,13.8l5.6-2.7c0.2-0.1,0.4-0.1,0.6-0.1
			h4.2c0.3,0,0.5,0.1,0.8,0.2l10.6,6.8c0.5,0.3,0.7,0.9,0.7,1.4l-1.3,8.4l-0.5,10l9.6,0.3l17.3-13.5c0.4-0.3,1-0.4,1.5-0.2
			c0.5,0.2,0.8,0.7,0.9,1.2l2.5,24.2l3.3,0.2c0.2,0,0.4,0.1,0.6,0.2l10.6,5.6h3.2c0.5,0,1,0.3,1.3,0.8l6,11l15.7-2.1
			c0.5-0.1,0.9,0.1,1.2,0.4l5.4,5.7l3.3,0.3l9-3.4c0.5-0.2,1.1-0.1,1.5,0.3l22.1,22.4l2.8-2.8c0.3-0.3,0.7-0.5,1.1-0.4
			c0.4,0,0.8,0.2,1,0.5l5.4,6.1l8.9,1.4l6.6-3.9c0.5-0.3,1-0.3,1.5,0l10.4,6.3l14.2,2.8c0.3,0.1,0.5,0.2,0.7,0.4l6.8,6.4
			c0.4,0.4,0.6,1,0.3,1.6l-20.8,51.2l-2.2,36.4c0,0.4-0.3,0.8-0.6,1.1l-8.9,6.3l-0.4,3.8c-0.1,0.7-0.7,1.3-1.4,1.3h-6.9
			c-0.5,0-1-0.3-1.3-0.7l-2.6-4.4l-4.9,0.6l-4.2,4.9l3.7,0.6c0.5,0.1,0.9,0.4,1.1,0.9c0.2,0.5,0.1,1-0.2,1.4l-38.2,51.5l-1.9,17.6
			c0,0.2-0.1,0.3-0.1,0.5l-3.3,7h2.5l18.1-19.8c0.4-0.4,1-0.6,1.5-0.4l8,2.7c0.5,0.2,0.8,0.5,0.9,1l5.3,19.8l8.5,10.3
			c0.3,0.3,0.4,0.7,0.3,1.1c0,0.4-0.2,0.7-0.6,1l-6.6,5.1l-1.5,9.7l13.8,16.4c0.3,0.4,0.4,0.9,0.3,1.4l-3,9.8
			c-0.1,0.2-0.2,0.5-0.4,0.6l-8.7,8.2c-0.3,0.3-0.7,0.4-1.1,0.4l-7-0.4l5.4,13.3l3.7,1.2c0.4,0.1,0.7,0.4,0.8,0.7l5.5,10.1
			c0.3,0.5,0.2,1.2-0.2,1.6l-7.4,8.6l4.7,15.2l14,7.1l12-2.1c0.5-0.1,0.9,0.1,1.3,0.4c0.3,0.3,0.5,0.8,0.4,1.2l-2.6,18.2
			c0,0.1,0,0.2-0.1,0.3l-2.2,6.3c-0.1,0.3-0.4,0.6-0.7,0.8L533,509.9c-0.1,0.1-0.2,0.1-0.3,0.1l-7.8,2.1l-1.8,3.5
			c-0.2,0.5-0.7,0.8-1.3,0.8H516l-8.3,3.4c-0.2,0.1-0.5,0.1-0.7,0.1l-28.5-3.7l-1.4,10c-0.1,0.7-0.7,1.2-1.4,1.2h-10.3
			c-0.6,0-1.1-0.3-1.3-0.9l-3.8-8.4l-13.1-0.4l-28.3-2c-0.2,0-0.4-0.1-0.5-0.1l-18.6-8.8l-26.4,13.7l-16.7,11.2l0.7,11.7l4.7,5.9
			c0.2,0.2,0.3,0.5,0.3,0.7l2.1,19.9l2.3,7.1c0.2,0.6,0,1.2-0.4,1.6c-0.4,0.4-1.1,0.5-1.6,0.2l-7.1-3.6l-13.2,3.5v1.7
			c0,0.7-0.5,1.3-1.2,1.4l-7,1.3c-0.4,0.1-0.8,0-1.1-0.3l-7.7-5.7l-11.1,5.8C316.1,583.2,315.9,583.3,315.6,583.3z M327.5,574.1
			c0.3,0,0.6,0.1,0.9,0.3l7.9,5.9l5.2-1v-1.7c0-0.7,0.4-1.2,1.1-1.4l14.8-3.9c0.3-0.1,0.7-0.1,1,0.1l4.4,2.3l-1.3-3.9
			c0-0.1-0.1-0.2-0.1-0.3l-2-19.6l-4.7-5.9c-0.2-0.2-0.3-0.5-0.3-0.8l-0.8-13c0-0.5,0.2-1,0.6-1.3l17.4-11.7l0.1-0.1L399,504
			c0.4-0.2,0.9-0.2,1.3,0l19,9l28,2l13.9,0.5c0.6,0,1,0.3,1.3,0.9l3.7,8.3h8.1l1.4-10.2c0.1-0.8,0.8-1.3,1.6-1.2L507,517l8.2-3.3
			c0.2-0.1,0.4-0.1,0.5-0.1h5.2l1.7-3.3c0.2-0.4,0.5-0.6,0.9-0.8l8.3-2.2l23.8-12.6l2-5.6l2.3-16.1l-10.5,1.8c-0.3,0-0.6,0-0.9-0.1
			l-15-7.6c-0.4-0.2-0.6-0.5-0.7-0.9l-5.1-16.6c-0.1-0.5,0-1,0.3-1.4l7.2-8.4l-4.7-8.7l-3.8-1.2c-0.4-0.1-0.7-0.4-0.9-0.8l-6.5-16.1
			c-0.2-0.5-0.1-1,0.2-1.4s0.8-0.6,1.3-0.6l8.6,0.5l8-7.5l2.7-8.7L526.3,379c-0.3-0.3-0.4-0.7-0.3-1.1l1.6-10.9
			c0.1-0.4,0.3-0.7,0.6-0.9l5.9-4.5l-7.8-9.4c-0.1-0.2-0.2-0.3-0.3-0.5l-5.2-19.4l-6.4-2.2l-17.9,19.6c-0.3,0.3-0.7,0.5-1.1,0.5H490
			c-0.5,0-1-0.3-1.2-0.7c-0.3-0.4-0.3-0.9-0.1-1.4l4.2-8.9l1.9-17.8c0-0.3,0.1-0.5,0.3-0.7l37-49.9l-3.8-0.6c-0.5-0.1-1-0.4-1.1-0.9
			c-0.2-0.5-0.1-1,0.3-1.4l6.2-7.3c0.2-0.3,0.6-0.5,0.9-0.5l6.4-0.8c0.6-0.1,1.1,0.2,1.4,0.7l2.6,4.6h4.7l0.3-3.2
			c0-0.4,0.3-0.8,0.6-1l8.9-6.2l2.2-36c0-0.2,0-0.3,0.1-0.5l20.5-50.5l-5.7-5.5l-14.1-2.8c-0.2,0-0.3-0.1-0.5-0.2l-9.9-6l-6.3,3.7
			c-0.3,0.2-0.6,0.2-1,0.2l-10-1.6c-0.3-0.1-0.6-0.2-0.8-0.5l-4.8-5.3l-2.8,2.8c-0.3,0.3-0.6,0.4-1,0.4l0,0c-0.4,0-0.8-0.2-1-0.4
			L502,129.1l-8.4,3.2c-0.2,0.1-0.4,0.1-0.6,0.1l-4.2-0.3c-0.4,0-0.7-0.2-0.9-0.4l-5.3-5.6l-16,2.2c-0.6,0.1-1.2-0.2-1.5-0.7
			l-6-11.1h-2.7c-0.2,0-0.5-0.1-0.7-0.2l-10.7-5.6l-4.2-0.3c-0.7-0.1-1.3-0.6-1.3-1.3l-2.3-22.8l-15.6,12.2
			c-0.3,0.2-0.6,0.3-0.9,0.3l-11.6-0.3c-0.4,0-0.8-0.2-1-0.5c-0.3-0.3-0.4-0.7-0.4-1.1l0.6-11.6l1.2-7.6l-9.5-6h-3.4l-6.5,3.1
			c-0.6,0.3-1.4,0.1-1.8-0.5L378.5,60h-5.4c-0.5,0-1.1-0.3-1.3-0.8l-8-16l-9,5c-0.5,0.3-1.2,0.2-1.7-0.2L340,36.1
			c-0.2-0.2-0.3-0.3-0.4-0.6l-5.6-15l-22,6.1c-1.2,0.7-9,5-13.6,7.6c-2.5,2-1.5,25.7,0.7,46.5c0.1,0.5-0.2,1-0.5,1.3c-0.1,0-5,4-5,8
			c0,5.5-13.1,9.2-17.1,10.2l-24.9,5.5c-5.3,3.7-18.4,14-19.6,19.3c-0.2,0.8,0,1.3,0.4,1.9c1.2,1.4,4.5,2.1,7.7,2.3
			c2.5-0.3,5.1-0.1,5.8,0s1.3,0.7,1.3,1.5c0,0.7-0.6,1.4-1.3,1.4c-0.5,0-2.9,0.2-5.7,0c-1,0.2-1.9,0.4-2.3,0.8
			c-0.2,0.2-0.3,0.3-0.3,0.5c0,4.3-13.6,8.3-25.1,11c-0.4,0.1-0.9,0-1.3-0.3l-5.6-4.8h-15c-0.2,0-0.4-0.1-0.6-0.2l-3.5-1.8l-9.1,1.9
			c-0.5,0.1-1-0.1-1.4-0.4l-4.8-5.2c-0.2-0.2-0.3-0.5-0.4-0.8c0-0.1-0.8-7-0.8-15.7c0-1.4-0.3-1.9-0.4-1.9c-1-0.4-4.6,2.2-7.5,5.3
			c-0.4,0.4-1,0.6-1.6,0.4l-12.9-5.1l-4.1,6.3l9.9,18.7c1.6,1.9,11.2,13.9,5.9,20.1c-3,3.5,2.5,16.4,6.7,23.8c0.3,0.4,0.3,1,0,1.4
			s-0.7,0.7-1.2,0.7l-20.1,0.5c-0.5,0-0.8-0.2-1.1-0.5c0,0-2.2-2.3-4.8-2c-0.1,0-0.1,0-0.2,0.1c-0.6,0.9,0,4.1,0.9,6.4
			c0.3,0.7-0.1,1.5-0.8,1.8s-1.5,0-1.9-0.6c0,0-2.1-4-4-6.3c-0.6-0.1-2.8,1.6-4.5,3.9c-0.3,0.3-0.7,0.5-1.1,0.6
			c-0.4,0-0.8-0.2-1.1-0.5l-4.3-4.7c-1.2,0.3-3.8,1.2-4.6,4c-1.5,4.6-7.1,4.6-10.2,3.9c-0.3-0.1-0.6-0.3-0.8-0.6l-6.7-9.3
			c-1.3-1-11.2-8.8-19.6-10.7c-8-1.9-12,11-12.1,11.1c-0.1,0.4-0.4,0.7-0.8,0.9s-9,4-13.6-1.4c-1.7-2-18,2.2-35.8,9.2l1.1,10.8
			l10.1-3.9c0.5-0.2,1.1-0.1,1.5,0.3l6.1,5.8c0.4,0.3,0.5,0.9,0.4,1.3c-0.1,0.5-0.4,0.9-0.9,1.1l-5.4,2c6.3,3.4,12.5,7.6,11.8,10.6
			c-0.6,2.3-3.7,2.5-6.4,2.5s-4.4,0.6-5,1.8c-1.5,3.1,2.5,10.2,5.7,14.4l4.9-0.2V237c0-0.8,0.6-1.4,1.4-1.4H48
			c0.6-0.6,1.7-1.4,2.9-1.3c0.8,0.1,1.8,0.5,2.6,2.1c0.7,1.2,7.7,3.6,15.3,5.2h9.5c0.6,0,1.2,0.4,1.4,1l1.3,4.1
			c2.1,1.5,12.8,8.5,20.5,5.4c4.4-1.8,6.7-2,7.8-0.6c0.6,0.8,0.5,1.9,0.2,2.7l11.6,5.2c0.4,0.2,0.7,0.5,0.8,0.9
			c0.1,0.4,0,0.9-0.2,1.2l-1.2,1.6l13.4,10.7c0.4,0.3,0.6,0.8,0.5,1.4l-1.1,6.9c-0.9,5.6,7,8.2,7.1,8.2c0.4,0.1,0.8,0.5,0.9,0.9
			c0.2,0.4,0.1,0.9-0.1,1.3l-6.7,11.2h0.2c0.5,0,0.9,0.2,1.2,0.6l3,4.2c0.9,1,6.1,6.7,6.1,11.2c0,2.3,4.6,6.4,8.1,8.8
			c2.9-0.2,17.1-0.8,24,3.6c2.3,1.4,3.6,3.3,3.7,5.4c0.2,3.3-2.4,6.3-3.7,7.5l3.8,15c0.1,0.3,0.1,0.6,0,0.8c0,0-0.9,2.7-0.7,6.6
			c0.1,3.6,2.1,5.5,2.2,5.5c0.5,0.5,0.6,1.2,0.3,1.8c-0.4,0.6-1.1,0.8-1.7,0.6l-5.3-1.9l-0.1,1.6c0.8,0.6,2.5,1.6,4.5,2.1
			c3.4,0.8,14.4,12.9,17.6,16.6c0.1,0.2,0.3,0.4,0.3,0.6l2.3,7.9c0,0.2,0.1,0.3,0.1,0.5l-0.8,12.5c0,0.7-0.6,1.3-1.3,1.3
			c-0.7,0.1-1.3-0.3-1.6-1c-0.1-0.3-2-6.3-2.6-12.4c-0.5-4.4-8.1-9.9-11.1-11.6l-4.3-2.8l-1.8,44.4l3.9,7.3c0.2,0.4,0.2,1,0,1.4
			c-0.3,0.4-0.7,0.7-1.2,0.7h-3.8c-0.8,0-1.7,0-2.5,0.1c0.6,2.4-0.1,9.8-5.6,36c-3.6,17.1-7.7,34.3-7.7,34.5c-0.1,0.5-0.4,0.8-0.9,1
			l-9.8,3.9l0.4,1.7l2.3,3.8h4.1l7.6,0.3c0.4,0,0.8,0.2,1,0.5c0.3,0.3,0.4,0.7,0.4,1.1l-0.5,10l16.9,8.1l11.5,1.8
			c0.3,0,0.6,0.2,0.8,0.4l7.4,7.4l6.7-2.1c0.2-0.1,0.5-0.1,0.8,0l8.8,2.1c0.2,0.1,0.4,0.2,0.6,0.3l7.6,6.7l6.4-2.8
			c0.6-0.3,1.3-0.1,1.7,0.4l2.9,3.8l4.9-2.4c0.2-0.1,0.4-0.1,0.6-0.1h12.4l1.8-8.2c0.1-0.4,0.4-0.8,0.8-1s0.9-0.2,1.3,0l25.5,12
			c0.3,0.1,0.5,0.4,0.7,0.7l5.6,11.5l9-4.1c0.3-0.1,0.7-0.2,1-0.1l10.8,3.4c0.3,0.1,0.6,0.3,0.8,0.6l4,6.2l10.7-5.6
			C327.1,574.2,327.3,574.1,327.5,574.1z M158.5,513L158.5,513L158.5,513z"/>
	</g>
	<path class="st2" d="M334.9,349.5c97.5,0,176.6-79.1,176.6-176.6c0-15.2-1.9-30-5.5-44l-2.5-2.5c-0.4-0.4-1-0.5-1.5-0.3l-9,3.4
		l-3.3-0.3l-5.4-5.7c-0.3-0.3-0.8-0.5-1.2-0.4l-15.7,2.1l-6-11c-0.3-0.5-0.7-0.8-1.3-0.8h-3.2l-10.6-5.6c-0.2-0.1-0.4-0.2-0.6-0.2
		l-3.3-0.2l-2.5-24.2c-0.1-0.5-0.4-1-0.9-1.2s-1-0.1-1.5,0.2l-17.3,13.5l-9.6-0.3l0.5-10l1.3-8.4c0.1-0.6-0.2-1.1-0.7-1.4l-10.6-6.8
		c-0.2-0.1-0.5-0.2-0.8-0.2h-4.2c-0.2,0-0.4,0-0.6,0.1l-5.6,2.7l-9.6-13.8c-0.3-0.4-0.7-0.6-1.2-0.6H374l-8.3-16.6
		c-0.2-0.4-0.5-0.6-0.9-0.7c-0.4-0.1-0.8-0.1-1.1,0.1l-9.4,5.3l-12.2-11l-6-16c-0.3-0.7-1-1.1-1.7-0.9L311,23.9
		c-0.1,0-0.2,0.1-0.3,0.1c0,0-8.7,4.9-13.7,7.6c-5.2,2.8-2.4,34.3-0.8,48.6c-1.6,1.4-5.5,5.3-5.5,9.8c0,2.2-7.7,5.6-14.8,7.4
		l-25.2,5.6c-0.2,0-0.4,0.1-0.5,0.2c-2,1.4-19.3,13.7-21,21.2c-0.4,1.7,0,3.2,1,4.4c1.1,1.3,3.1,2.2,5.2,2.7
		c-0.4,0.6-0.6,1.3-0.6,1.9c-0.7,1.7-10.7,5.4-22.1,8.1l-5.4-4.7c-0.3-0.2-0.6-0.4-0.9-0.4H191l-3.7-1.8c-0.3-0.1-0.6-0.2-0.9-0.1
		l-8.8,1.8l-3.9-4.2c-0.2-1.7-0.7-7.6-0.7-14.9c0-2.5-0.8-4-2.2-4.6c-0.6-0.2-1.2-0.2-1.8-0.2c-6.9,18.8-10.6,39.2-10.6,60.4
		c0,0.7,0,1.5,0,2.2c1.4,3.6,3,6.8,4.1,8.9l-3.8,0.1C164.4,276.4,241.1,349.5,334.9,349.5z"/>
	<path class="st2" d="M540.3,262.1l2.6,4.4c0.3,0.5,0.7,0.7,1.3,0.7h6.9c0.7,0,1.4-0.6,1.4-1.3l0.4-3.8l8.9-6.3
		c0.4-0.3,0.6-0.7,0.6-1.1l0.9-14.8c-29-20.8-64.5-33.1-103-33.1c-97.5,0-176.6,79.1-176.6,176.6c0,60.5,30.4,113.9,76.8,145.7
		l12.8-8.6l26.4-13.7l18.6,8.8c0.2,0.1,0.3,0.1,0.5,0.1l28.3,2l13.1,0.4l3.8,8.4c0.2,0.5,0.8,0.9,1.3,0.9h10.3
		c0.7,0,1.3-0.5,1.4-1.2l1.4-10l28.5,3.7c0.2,0,0.5,0,0.7-0.1l8.3-3.4h5.8c0.5,0,1.1-0.3,1.3-0.8l1.8-3.5l7.8-2.1
		c0.1,0,0.2-0.1,0.3-0.1l24.4-12.9c0.3-0.2,0.6-0.5,0.7-0.8l2.2-6.3c0-0.1,0.1-0.2,0.1-0.3l2.6-18.2c0.1-0.5-0.1-0.9-0.4-1.2
		c-0.3-0.3-0.8-0.5-1.3-0.4l-12,2.1l-14-7.1l-4.7-15.2l7.4-8.6c0.4-0.5,0.5-1.1,0.2-1.6l-5.5-10.1c-0.2-0.3-0.5-0.6-0.8-0.7
		l-3.7-1.2l-5.4-13.3l7,0.4c0.4,0,0.8-0.1,1.1-0.4l8.7-8.2c0.2-0.2,0.3-0.4,0.4-0.6l3-9.8c0.1-0.5,0-1-0.3-1.4l-13.8-16.4l1.5-9.7
		l6.6-5.1c0.3-0.2,0.5-0.6,0.6-1c0-0.4-0.1-0.8-0.3-1.1l-8.5-10.3l-5.3-19.8c-0.1-0.5-0.5-0.8-0.9-1l-8-2.7c-0.5-0.2-1.2,0-1.5,0.4
		l-18.1,19.8h-2.5l3.3-7c0.1-0.1,0.1-0.3,0.1-0.5l1.9-17.6l38.2-51.5c0.3-0.4,0.4-0.9,0.2-1.4s-0.6-0.8-1.1-0.9l-3.7-0.6l4.2-4.9
		L540.3,262.1z"/>
	<path class="st2" d="M394.9,411.1c0-97.5-79.1-176.6-176.6-176.6c-37,0-71.3,11.4-99.7,30.8l13,10.3l-1,6.1
		c-1,6.1,4.5,9.5,7.4,10.8l-7.2,11.9c-0.3,0.4-0.3,1,0,1.5s0.7,0.7,1.3,0.7h2l2.6,3.6c0,0.1,0.1,0.1,0.1,0.2
		c1.5,1.6,5.4,6.3,5.4,9.3c0,4.8,8.1,10.4,9.8,11.5c0.3,0.2,0.6,0.3,0.9,0.2c0.2,0,16-1.1,22.8,3.1c1.5,0.9,2.3,2,2.3,3.1
		c0.1,2.3-2.4,4.9-3.4,5.8c-0.4,0.4-0.6,0.9-0.5,1.5l4,15.5c-0.3,1-0.9,3.6-0.7,7.2c0,1.4,0.3,2.7,0.7,3.7l-3.2-1.2
		c-0.4-0.2-0.9-0.1-1.3,0.2c-0.4,0.3-0.6,0.7-0.6,1.1l-0.2,4.3c0,0.4,0.2,0.9,0.5,1.2c0.1,0.1,2.7,2.3,6.2,3.1
		c1.7,0.4,9.5,8.3,15.9,15.4l2.1,7.3l-0.2,2.5c-0.1-0.8-0.2-1.6-0.3-2.4c-0.7-6.6-11.3-13.1-12.4-13.8l-6.4-4.1
		c-0.4-0.3-1-0.3-1.5-0.1c-0.5,0.2-0.8,0.7-0.8,1.2l-1.9,47.4c0,0.3,0,0.5,0.2,0.7l3,5.5h-1.4c-5.9,0-6.2,1.2-6.3,1.9
		c-0.1,0.6,0,1.4,1.1,2.2c0.9,4.9-7.5,43.7-13.2,68l-10.3,4c-0.7,0.3-1.1,1-0.9,1.7l0.8,3.1c0,0.1,0.1,0.3,0.2,0.4l2.9,4.7
		c0.3,0.4,0.7,0.7,1.2,0.7h4.9l6.1,0.2l-0.5,9.5c0,0.6,0.3,1.1,0.8,1.4l18,8.6c0.1,0.1,0.3,0.1,0.4,0.1l11.2,1.7l7.7,7.7
		c0.4,0.4,0.9,0.5,1.5,0.4l7.2-2.2l8.1,1.9l8.1,7c0.4,0.4,1,0.5,1.5,0.2l6.3-2.7l3,3.8c0.4,0.5,1.2,0.7,1.8,0.4l5.7-2.7H256
		c0.7,0,1.3-0.5,1.4-1.1l1.7-7.6l23.4,11l4.7,9.5C350.5,546.8,394.9,484.1,394.9,411.1z"/>
</g>
<g class="st3">
	<path class="st1" d="M245.5,161.4l-1.9,2.5h-3.3l3-4.5h4.4l3,4.5h-3.3L245.5,161.4z M243.4,187.3v-22h4.2v22H243.4z"/>
	<path class="st1" d="M251,187.3v-22h3.9v22H251z"/>
	<path class="st1" d="M273.1,180.5h-11.9c0.3,2.8,1.8,4.1,4.1,4.1c1.8,0,3-0.8,3.7-2.3h3.7c-0.8,3.3-3.6,5.3-7.4,5.3
		c-2.4,0-4.3-0.8-5.8-2.3s-2.2-3.5-2.2-6.1c0-2.5,0.7-4.5,2.2-6.1c1.5-1.5,3.3-2.3,5.7-2.3c2.4,0,4.3,0.8,5.8,2.4
		c1.4,1.6,2.1,3.7,2.1,6.3L273.1,180.5L273.1,180.5z M261.2,177.8h8c-0.3-2.3-1.8-3.8-4-3.8C263.1,174,261.6,175.2,261.2,177.8z"/>
	<path class="st1" d="M275.1,180.2v-3.3h9.2v3.3H275.1z"/>
	<path class="st1" d="M298.3,165.2h3.9v22h-3.8V185c-1.2,1.7-2.8,2.6-5,2.6s-4-0.8-5.2-2.3c-1.3-1.5-1.9-3.5-1.9-6.1
		c0-2.5,0.6-4.6,1.9-6.1s3-2.3,5.2-2.3c2.1,0,3.8,0.8,4.9,2.4V165.2z M294.3,184.4c1.3,0,2.3-0.4,3-1.3c0.7-0.9,1.1-2.1,1.1-3.8
		c0-3.3-1.5-5.1-4.1-5.1c-2.5,0-4.1,1.9-4.1,5.3c0,1.6,0.4,2.9,1.1,3.7C292,184,293,184.4,294.3,184.4z"/>
	<path class="st1" d="M320.4,180.5h-11.9c0.3,2.8,1.8,4.1,4.1,4.1c1.8,0,3-0.8,3.7-2.3h3.7c-0.8,3.3-3.6,5.3-7.4,5.3
		c-2.4,0-4.3-0.8-5.8-2.3s-2.2-3.5-2.2-6.1c0-2.5,0.7-4.5,2.2-6.1c1.5-1.5,3.3-2.3,5.7-2.3c2.4,0,4.3,0.8,5.8,2.4
		c1.4,1.6,2.1,3.7,2.1,6.3L320.4,180.5L320.4,180.5z M308.5,177.8h8c-0.3-2.3-1.8-3.8-4-3.8S308.9,175.2,308.5,177.8z"/>
	<path class="st1" d="M322.3,180.2v-3.3h9.2v3.3H322.3z"/>
	<path class="st1" d="M350,169h-11.4v5.2H349v3.6h-10.4v9.5h-4.2v-22H350V169z"/>
	<path class="st1" d="M361.2,171.1v3.6h-1c-2.9,0-4.6,1.5-4.6,4.5v8.1h-3.9v-16h3.8v2.8c0.9-2.1,2.5-3.1,4.8-3.1
		C360.7,171.1,361,171.1,361.2,171.1z"/>
	<path class="st1" d="M372.9,187.3c-0.2-0.4-0.3-1-0.4-2c-1.1,1.5-2.8,2.3-5.1,2.3c-3.5,0-5.8-1.7-5.8-4.8c0-2.9,2-4.6,6.1-5
		l2.4-0.2c1.6-0.2,2.3-0.7,2.3-1.8c0-1.3-0.8-2-2.9-2c-2.3,0-3.2,0.6-3.3,2.5h-3.8c0.2-3.6,2.6-5.4,7.2-5.4c4.4,0,6.7,1.6,6.7,4.8
		v8.5c0,1.4,0.2,2.4,0.6,3L372.9,187.3L372.9,187.3z M372.3,181v-1.5c-0.4,0.3-1,0.6-1.8,0.6l-2.1,0.2c-2.1,0.2-2.9,1-2.9,2.3
		c0,1.4,0.9,2.2,2.7,2.2C370.6,184.9,372.3,183.6,372.3,181z"/>
	<path class="st1" d="M393.4,176.7v10.6h-3.9v-9.9c0-2-1-3-3-3c-1.9,0-3.6,1.4-3.6,4v8.9H379v-16h3.8v2.3c1.2-1.8,2.8-2.7,5-2.7
		C391.3,170.9,393.4,173,393.4,176.7z"/>
	<path class="st1" d="M398.1,185.4c-1.5-1.5-2.2-3.5-2.2-6.1c0-2.5,0.7-4.6,2.2-6.1c1.4-1.5,3.3-2.3,5.7-2.3c4.2,0,7,2.4,7.4,6.1
		h-3.9c-0.4-1.9-1.7-2.9-3.5-2.9c-2.4,0-3.9,1.7-3.9,5.1c0,3.4,1.5,5.1,3.9,5.1c1.9,0,3.3-1.1,3.6-3.1h3.9c-0.4,3.9-3.4,6.3-7.5,6.3
		C401.4,187.6,399.5,186.9,398.1,185.4z"/>
	<path class="st1" d="M428.5,180.5h-11.9c0.3,2.8,1.8,4.1,4.1,4.1c1.8,0,3-0.8,3.7-2.3h3.7c-0.8,3.3-3.6,5.3-7.4,5.3
		c-2.4,0-4.3-0.8-5.8-2.3s-2.2-3.5-2.2-6.1c0-2.5,0.7-4.5,2.2-6.1c1.5-1.5,3.3-2.3,5.7-2.3c2.4,0,4.3,0.8,5.8,2.4
		c1.4,1.6,2.1,3.7,2.1,6.3L428.5,180.5L428.5,180.5z M416.6,177.8h8c-0.3-2.3-1.8-3.8-4-3.8C418.5,174,417,175.2,416.6,177.8z"/>
</g>
<g class="st3">
	<path class="st1" d="M183.3,438.7h4.1c0,3.3,2.1,4.4,5.4,4.4c2.9,0,4.5-1.1,4.5-3.2c0-1.7-1.1-2.5-4.5-3.2l-1.9-0.4
		c-4.7-0.9-7.1-3.1-7.1-6.7c0-3.7,3-6.2,8.2-6.2c5.9,0,8.8,2.7,9,7.1h-4c-0.2-2.5-1.5-3.7-4.9-3.7c-2.6,0-4,1-4,2.7
		c0,1.8,1.1,2.6,4.3,3.3l1.9,0.4c5.2,1,7.3,3,7.3,6.5c0,4.3-3.3,6.8-8.9,6.8C186.8,446.5,183.4,443.8,183.3,438.7z"/>
	<path class="st1" d="M214.4,430h3.9v16h-3.8v-2.3c-1.2,1.8-2.9,2.7-5,2.7c-3.4,0-5.6-2-5.6-5.8V430h3.9v9.9c0,2,1,3,3,3
		c1.9,0,3.6-1.4,3.6-4L214.4,430L214.4,430z"/>
	<path class="st1" d="M232.8,424h3.9v22h-3.8v-2.2c-1.2,1.7-2.8,2.6-5,2.6s-4-0.8-5.2-2.3c-1.3-1.5-1.9-3.5-1.9-6.1
		c0-2.5,0.6-4.6,1.9-6.1c1.3-1.5,3-2.3,5.2-2.3c2.1,0,3.8,0.8,4.9,2.4L232.8,424L232.8,424z M228.8,443.2c1.3,0,2.3-0.4,3-1.3
		s1.1-2.1,1.1-3.8c0-3.3-1.5-5.1-4.1-5.1c-2.5,0-4.1,1.9-4.1,5.3c0,1.6,0.4,2.9,1.1,3.7C226.5,442.7,227.5,443.2,228.8,443.2z"/>
	<path class="st1" d="M239.3,439v-3.3h9.2v3.3H239.3z"/>
	<path class="st1" d="M253.5,443.3c-2-2.1-3-4.9-3-8.4s1-6.3,3-8.4s4.7-3.2,8-3.2s6,1.1,8,3.2s3,4.9,3,8.4s-1,6.3-3,8.4
		s-4.7,3.2-8,3.2S255.6,445.5,253.5,443.3z M261.5,442.8c2,0,3.7-0.7,4.9-2.1c1.2-1.4,1.8-3.3,1.8-5.7c0-2.4-0.6-4.3-1.8-5.7
		c-1.2-1.4-2.8-2.1-4.9-2.1c-2,0-3.6,0.7-4.8,2.1c-1.2,1.4-1.8,3.3-1.8,5.7c0,2.4,0.6,4.3,1.8,5.7
		C257.9,442.1,259.5,442.8,261.5,442.8z"/>
	<path class="st1" d="M285.4,430h3.9v16h-3.8v-2.3c-1.2,1.8-2.9,2.7-5,2.7c-3.4,0-5.6-2-5.6-5.8V430h3.9v9.9c0,2,1,3,3,3
		c1.9,0,3.6-1.4,3.6-4V430z"/>
	<path class="st1" d="M307.5,439.2h-11.9c0.3,2.8,1.8,4.1,4.1,4.1c1.8,0,3-0.8,3.7-2.3h3.7c-0.8,3.3-3.6,5.3-7.4,5.3
		c-2.4,0-4.3-0.8-5.8-2.3s-2.2-3.5-2.2-6.1c0-2.5,0.7-4.5,2.2-6.1c1.5-1.5,3.3-2.3,5.7-2.3c2.4,0,4.3,0.8,5.8,2.4
		c1.4,1.6,2.1,3.7,2.1,6.3L307.5,439.2L307.5,439.2z M295.6,436.5h8c-0.3-2.3-1.8-3.8-4-3.8S295.9,433.9,295.6,436.5z"/>
	<path class="st1" d="M308.9,440.9h3.8c0.2,2,1.2,2.7,3.6,2.7c2.1,0,3.2-0.6,3.2-1.9c0-1.1-0.7-1.7-3.1-2.1l-1.8-0.3
		c-3.5-0.6-5.2-2.2-5.2-4.8c0-3,2.4-4.8,6.6-4.8c4.5,0,6.9,1.8,7.1,5.4h-3.7c-0.1-2-1.2-2.6-3.4-2.6c-1.9,0-2.8,0.6-2.8,1.9
		c0,1.1,0.8,1.6,2.7,2l2,0.3c3.9,0.7,5.5,2.1,5.5,4.9c0,3.2-2.6,5-7.1,5C311.6,446.4,309.1,444.6,308.9,440.9z"/>
	<path class="st1" d="M333.5,433h-3.2v8.6c0,1,0.5,1.4,1.8,1.4h1.3v3c-1,0.1-1.6,0.1-2,0.1c-3.4,0-5-1.2-5-4.1v-9H324v-3h2.5v-4.6
		h3.9v4.6h3.2v3H333.5z"/>
</g>
<g class="st3">
	<path class="st1" d="M361,384.2c0,1.1,0.3,2,0.7,2.6h-4.3c-0.3-0.6-0.6-1.5-0.6-2.6l-0.1-2.4c-0.1-2.7-1.2-3.6-3.5-3.6h-5.4v8.6
		h-4.2v-22h10c5,0,7.8,2.4,7.8,6.2c0,2.6-1.3,4.4-3.7,5.3c2.3,0.7,3.1,2.2,3.2,4.7L361,384.2z M347.7,374.9h5.6
		c2.3,0,3.7-1.2,3.7-3.4c0-2.1-1.4-3.3-3.9-3.3h-5.4L347.7,374.9L347.7,374.9z"/>
	<path class="st1" d="M378.3,376.2v10.6h-3.9v-9.9c0-2-1-3-3-3c-1.9,0-3.6,1.4-3.6,4v8.9h-3.9v-22h3.9v8.2c1.2-1.7,2.8-2.5,4.9-2.5
		C376.1,370.5,378.3,372.5,378.3,376.2z"/>
	<path class="st1" d="M388.9,370.5c2.4,0,4.4,0.7,5.9,2.3c1.5,1.5,2.2,3.6,2.2,6.1s-0.7,4.6-2.2,6.1s-3.4,2.3-5.9,2.3
		s-4.4-0.8-5.9-2.3s-2.3-3.6-2.3-6.1s0.7-4.5,2.3-6.1C384.5,371.2,386.4,370.5,388.9,370.5z M388.8,366.3l-2.4,2.4h-3.6l3.6-4.5h4.7
		l3.6,4.5h-3.6L388.8,366.3z M393,378.8c0-3.3-1.6-5.1-4.1-5.1c-2.6,0-4.1,1.8-4.1,5.1c0,3.3,1.5,5.1,4.1,5.1
		C391.4,384,393,382.1,393,378.8z"/>
	<path class="st1" d="M413.8,376.2v10.6h-3.9v-9.9c0-2-1-3-3-3c-1.9,0-3.6,1.4-3.6,4v8.9h-3.9v-16h3.8v2.3c1.2-1.8,2.8-2.7,5-2.7
		C411.6,370.5,413.8,372.5,413.8,376.2z"/>
	<path class="st1" d="M432,380h-12c0.3,2.8,1.8,4.1,4.1,4.1c1.8,0,3-0.8,3.7-2.3h3.7c-0.8,3.3-3.6,5.3-7.4,5.3
		c-2.4,0-4.3-0.8-5.8-2.3s-2.2-3.5-2.2-6.1c0-2.5,0.7-4.5,2.2-6.1c1.5-1.5,3.3-2.3,5.7-2.3c2.4,0,4.3,0.8,5.8,2.4
		c1.4,1.6,2.1,3.7,2.1,6.3L432,380L432,380z M420.1,377.3h8c-0.3-2.3-1.8-3.8-4-3.8S420.4,374.7,420.1,377.3z"/>
	<path class="st1" d="M433.9,379.8v-3.3h9.2v3.3H433.9z"/>
	<path class="st1" d="M460.3,386.8l-1.7-4.9h-9.7l-1.7,4.9h-4.3l8.4-22h4.9l8.5,22H460.3z M450.2,378.4h7.1l-0.9-2.4
		c-0.8-2-1.7-4.5-2.7-7.6c-0.9,2.7-1.8,5.2-2.7,7.6L450.2,378.4z"/>
	<path class="st1" d="M466.1,386.8v-22h3.9v22H466.1z"/>
	<path class="st1" d="M487.3,372.7c1.3,1.5,1.9,3.6,1.9,6.1s-0.6,4.6-1.9,6.1s-3,2.3-5.2,2.3s-3.8-0.8-5-2.4v8.1h-3.9v-22h3.7v2.3
		c1.1-1.8,2.8-2.7,5.1-2.7C484.2,370.5,486,371.2,487.3,372.7z M481.1,384c1.3,0,2.3-0.5,3-1.4s1.1-2.2,1.1-3.9c0-3.3-1.5-5-4.1-5
		s-4.1,1.8-4.1,5.1c0,1.7,0.4,2.9,1.1,3.8C478.8,383.5,479.9,384,481.1,384z"/>
	<path class="st1" d="M506.7,380h-11.9c0.3,2.8,1.8,4.1,4.1,4.1c1.8,0,3-0.8,3.7-2.3h3.7c-0.8,3.3-3.6,5.3-7.4,5.3
		c-2.4,0-4.3-0.8-5.8-2.3s-2.2-3.5-2.2-6.1c0-2.5,0.7-4.5,2.2-6.1c1.5-1.5,3.3-2.3,5.7-2.3c2.4,0,4.3,0.8,5.8,2.4
		c1.4,1.6,2.1,3.7,2.1,6.3L506.7,380L506.7,380z M494.8,377.3h8c-0.3-2.3-1.8-3.8-4-3.8C496.6,373.5,495.2,374.7,494.8,377.3z"/>
	<path class="st1" d="M508.2,381.7h3.8c0.2,2,1.2,2.7,3.6,2.7c2.1,0,3.2-0.6,3.2-1.9c0-1.1-0.7-1.7-3.1-2.1l-1.8-0.3
		c-3.5-0.6-5.2-2.2-5.2-4.8c0-3,2.4-4.8,6.6-4.8c4.5,0,6.9,1.8,7.1,5.4h-3.7c-0.1-2-1.2-2.6-3.4-2.6c-1.9,0-2.8,0.6-2.8,1.9
		c0,1.1,0.8,1.6,2.7,2l2,0.3c3.9,0.7,5.5,2.1,5.5,4.9c0,3.2-2.6,5-7.1,5C510.8,387.2,508.4,385.4,508.2,381.7z"/>
</g>
<g>
	<g>
		<g>
			<g>
				<circle class="st4" cx="417.3" cy="437.5" r="6.5"/>
				<path class="st5" d="M417.3,444.5c-3.9,0-7-3.2-7-7s3.2-7,7-7s7,3.2,7,7S421.2,444.5,417.3,444.5z M417.3,431.4
					c-3.3,0-6.1,2.7-6.1,6.1c0,3.3,2.7,6.1,6.1,6.1c3.3,0,6.1-2.7,6.1-6.1C423.3,434.1,420.6,431.4,417.3,431.4z"/>
			</g>
			<g>
				<circle class="st6" cx="417.3" cy="437.5" r="3.7"/>
				<path class="st5" d="M417.3,441.6c-2.3,0-4.1-1.9-4.1-4.1c0-2.3,1.9-4.1,4.1-4.1s4.1,1.9,4.1,4.1
					C421.4,439.8,419.6,441.6,417.3,441.6z M417.3,434.3c-1.7,0-3.2,1.4-3.2,3.2c0,1.7,1.4,3.2,3.2,3.2s3.2-1.4,3.2-3.2
					C420.4,435.7,419,434.3,417.3,434.3z"/>
			</g>
		</g>
		<g>
			<g>
				<circle class="st4" cx="492.8" cy="438" r="6.5"/>
				<path class="st5" d="M492.8,445c-3.9,0-7-3.2-7-7s3.2-7,7-7s7,3.2,7,7S496.7,445,492.8,445z M492.8,431.9
					c-3.3,0-6.1,2.7-6.1,6.1c0,3.3,2.7,6.1,6.1,6.1c3.3,0,6.1-2.7,6.1-6.1C498.8,434.6,496.1,431.9,492.8,431.9z"/>
			</g>
			<g>
				<circle class="st6" cx="492.8" cy="438" r="3.7"/>
				<path class="st5" d="M492.8,442.1c-2.3,0-4.1-1.9-4.1-4.1c0-2.3,1.9-4.1,4.1-4.1s4.1,1.9,4.1,4.1S495.1,442.1,492.8,442.1z
					 M492.8,434.8c-1.7,0-3.2,1.4-3.2,3.2c0,1.7,1.4,3.2,3.2,3.2c1.7,0,3.2-1.4,3.2-3.2C496,436.2,494.5,434.8,492.8,434.8z"/>
			</g>
		</g>
		<g>
			<path class="st1" d="M508.3,430c-0.1-6.7-1.5-6.3-2.3-7.2s-6.6-4-6.6-4l-1.8-0.2c-7.9-10.6-20.7-19.5-22.7-20.9s-5.7-1.7-5.7-1.7
				s-54.7-0.1-62.4,0.1c-7.6,0.2-3.5-1.4-6,3.4s-2.4,30.7-2.4,30.7h-0.8v8.9h6h6c-0.1-0.5-0.2-1-0.2-1.6c0-4.3,3.5-7.8,7.8-7.8
				s7.8,3.5,7.8,7.8c0,0.5-0.1,1.1-0.2,1.6c2.8,0,51.2,0,60,0c0-0.3-0.1-0.7-0.1-1c0-4.4,3.6-8,8-8s8,3.6,8,8c0,0.2,0,0.5,0,0.7
				l8.5-0.2V430H508.3z"/>
			<path class="st5" d="M485.5,439.5h-61.1l0.1-0.6c0.1-0.5,0.1-1,0.1-1.5c0-4-3.3-7.3-7.3-7.3s-7.3,3.3-7.3,7.3c0,0.5,0,1,0.1,1.5
				l0.1,0.6h-13.1v-9.8h0.8c0-3.7,0.1-25.9,2.4-30.5c0.8-1.6,0.9-2.4,0.9-2.9c0-0.3,0.1-0.7,0.4-0.8c0.2-0.1,0.5-0.1,1.1,0
				c0.7,0.1,1.9,0.1,4,0.1c7.5-0.2,61.8-0.1,62.4-0.1l0,0c0.2,0,3.9,0.2,5.9,1.8c0.1,0.1,0.3,0.2,0.6,0.4c1.6,1.1,5.3,3.8,9.5,7.4
				c5.2,4.5,9.4,8.8,12.6,13l1.7,0.2h0.1c0.6,0.3,5.9,3.2,6.8,4.1c0.1,0.1,0.3,0.2,0.4,0.4c0.4,0.3,1,0.7,1.4,1.8
				c0.4,1.1,0.6,2.7,0.7,4.9h0.9v9.5l-9.5,0.2v-0.5c0-0.2,0-0.4,0-0.6c0-4.1-3.3-7.5-7.5-7.5c-4.1,0-7.5,3.3-7.5,7.5
				c0,0.3,0,0.6,0.1,1L485.5,439.5z M425.5,438.5h58.8c0-0.2,0-0.4,0-0.5c0-4.7,3.8-8.4,8.4-8.4s8.4,3.8,8.4,8.4c0,0.1,0,0.1,0,0.2
				l7.4-0.2v-7.6h-0.9v-0.5c-0.1-5.3-0.9-5.9-1.6-6.4c-0.2-0.1-0.4-0.3-0.6-0.5c-0.6-0.6-4.2-2.7-6.4-3.9l-1.9-0.2l-0.1-0.2
				c-4.9-6.5-12.3-13.4-22-20.4c-0.2-0.2-0.4-0.3-0.6-0.4c-1.8-1.3-5.2-1.5-5.4-1.6c-1.2,0-54.8-0.1-62.3,0.1
				c-2.2,0.1-3.4,0-4.1-0.1c-0.2,0-0.3,0-0.5,0l0,0c0,0.5-0.1,1.5-1,3.2c-1,1.9-1.7,7.8-2.1,17c-0.3,7-0.3,13.5-0.3,13.5v0.5h-0.8
				v7.9H409c0-0.4-0.1-0.7-0.1-1.1c0-4.6,3.7-8.3,8.3-8.3s8.3,3.7,8.3,8.3C425.6,437.8,425.6,438.2,425.5,438.5z"/>
		</g>
		<g>
			<path class="st6" d="M474.6,406.4c0.9,0,1.8,0.1,2.8,0.1c1.4,0,3.1-0.2,4.4,0.5c0.8,0.5,1.4,1.2,2,1.9c0.7,0.7,1.4,1.4,2,2.2
				c1.4,1.7,2.8,3.4,4.2,5.1c0.6,0.8,1.2,1.7,1.3,2.6c0.1,0.4,0,0.7-0.1,1.1c-0.7,1.8-3.6,1.4-5,1c-1.3-0.4-2.5-1-3.8-1.4
				c-2.3-0.7-4.8-0.7-7.3-1c-1.3-0.1-2.6-0.5-2.6-2l-0.2-8C472.4,407.4,473.4,406.4,474.6,406.4z"/>
			<path class="st5" d="M488.6,421.8c-0.8,0-1.7-0.2-2.5-0.4c-0.7-0.2-1.3-0.5-2-0.7c-0.6-0.2-1.2-0.5-1.8-0.7
				c-1.7-0.5-3.6-0.7-5.4-0.8c-0.6,0-1.2-0.1-1.8-0.2c-0.8-0.1-1.5-0.3-2-0.6c-0.7-0.4-1.1-1.1-1.1-1.9l-0.2-8
				c0-0.7,0.3-1.4,0.8-1.9s1.2-0.8,1.9-0.7l2.8,0.1c0.3,0,0.6,0,1,0c1.2,0,2.6,0,3.7,0.6c0.7,0.4,1.3,1,1.8,1.6
				c0.1,0.1,0.2,0.2,0.3,0.3c0.2,0.3,0.5,0.5,0.7,0.8c0.4,0.5,0.9,0.9,1.3,1.4c1.2,1.4,2.4,2.9,3.6,4.4c0.2,0.3,0.4,0.5,0.6,0.8
				c0.6,0.7,1.3,1.7,1.4,2.9c0.1,0.5,0,1-0.1,1.3C491.2,421.4,490,421.8,488.6,421.8z M474.5,406.9c-0.4,0-0.8,0.2-1.1,0.5
				c-0.3,0.3-0.5,0.7-0.5,1.2l0.2,8c0,0.6,0.3,1.4,2.2,1.6c0.6,0.1,1.2,0.1,1.8,0.1c1.9,0.1,3.8,0.3,5.6,0.9
				c0.6,0.2,1.3,0.4,1.9,0.7c0.6,0.2,1.3,0.5,1.9,0.7c1.4,0.4,3.8,0.7,4.4-0.7c0.1-0.2,0.1-0.5,0.1-0.8c-0.1-0.7-0.5-1.5-1.2-2.4
				c-0.2-0.3-0.4-0.5-0.6-0.8c-1.2-1.4-2.4-2.9-3.6-4.4c-0.4-0.5-0.9-0.9-1.3-1.4c-0.2-0.3-0.5-0.5-0.7-0.8
				c-0.1-0.1-0.2-0.2-0.3-0.3c-0.5-0.6-1-1.1-1.6-1.5c-0.9-0.5-2.1-0.5-3.2-0.5c-0.3,0-0.7,0-1,0L474.5,406.9L474.5,406.9z"/>
		</g>
		<path class="st5" d="M404.8,404.2c-0.7,0-1.4,0-2,0c-0.1,0-0.2,0.1-0.2,0.2v0.7c0,0.1,0.1,0.2,0.2,0.2c0.6,0,1.3,0,2,0
			c0.1,0,0.2-0.1,0.2-0.2v-0.7C405,404.3,404.9,404.2,404.8,404.2z"/>
		<path class="st5" d="M408.3,404.2c-0.7,0-1.4,0-2,0c-0.1,0-0.2,0.1-0.2,0.2v0.7c0,0.1,0.1,0.2,0.2,0.2c0.6,0,1.3,0,2,0
			c0.1,0,0.2-0.1,0.2-0.2v-0.7C408.4,404.2,408.4,404.2,408.3,404.2z"/>
		<g>
			<path class="st5" d="M486.6,406.5c-0.4-0.6-1.5-1.1-3.4-1.5c-2.7-0.5-7-0.8-12.8-0.8c-5.7,0-15.4,0-25.9,0c-11,0-22.7,0-31.5,0
				c0,0-0.1,0-0.1,0.1v0.9c0,0,0,0.1,0.1,0.1c8.7,0,20.5,0,31.5,0c10.5,0,20.2,0,25.9,0c5.8,0,10.1,0.3,12.8,0.9
				c1.7,0.3,2.3,0.7,2.5,0.9h0.1l0,0c0,0,0,0,0.1,0l0.8,0.4h0.1C486.8,407.1,486.8,406.8,486.6,406.5z"/>
			<path class="st5" d="M411.7,404.2c-0.7,0-1.3,0-2,0c-0.1,0-0.2,0.1-0.2,0.2v0.7c0,0.1,0.1,0.2,0.2,0.2c0.6,0,1.3,0,2,0
				c0.1,0,0.2-0.1,0.2-0.2v-0.7C411.8,404.3,411.8,404.2,411.7,404.2z"/>
		</g>
		<rect x="468.9" y="405.2" class="st5" width="1" height="33.8"/>
		<path class="st5" d="M473.6,423.7h-2.3c-0.4,0-0.6-0.3-0.6-0.6v-1.9c0-0.4,0.3-0.6,0.6-0.6h2.3c0.4,0,0.6,0.3,0.6,0.6v1.9
			C474.2,423.4,473.9,423.7,473.6,423.7z"/>
		<path class="st5" d="M509.2,430.6h-15.8c-0.3,0-0.5-0.2-0.5-0.5s0.2-0.5,0.5-0.5h15.8c0.3,0,0.5,0.2,0.5,0.5
			S509.4,430.6,509.2,430.6z"/>
	</g>
	<g>
		<path class="st7" d="M434.3,423.4h-4.4c-0.4,0-0.8-0.4-0.8-0.8s0.4-0.8,0.8-0.8h4.4c0.4,0,0.8,0.4,0.8,0.8
			C435,423.1,434.7,423.4,434.3,423.4z"/>
		<path class="st7" d="M432.1,425.6c-0.4,0-0.8-0.4-0.8-0.8v-4.4c0-0.4,0.4-0.8,0.8-0.8s0.8,0.4,0.8,0.8v4.4
			C432.9,425.2,432.5,425.6,432.1,425.6z"/>
	</g>
	<g>
		<path class="st7" d="M462.9,431.9v-0.1l0.4-0.1l-0.1-0.7l-0.4,0.1c0-0.1,0-0.1-0.1-0.2l0.3-0.2l-0.3-0.6l-0.3,0.2l-0.1-0.1
			l0.3-0.3l-0.5-0.5l-0.3,0.3l-0.1-0.1l0.2-0.3l-0.6-0.3l-0.2,0.3c-0.1,0-0.1,0-0.2-0.1l0.1-0.4l-0.7-0.1l-0.1,0.4
			c-0.1,0-0.1,0-0.2,0l0,0v-0.3h-0.7v0.3H459v-0.3h-0.7v0.3h-0.2v-0.3h-0.7v0.3h-0.2v-0.3h-0.7v0.3h-0.2v-0.3h-0.7v0.3h-0.2v-0.3
			h-0.7v0.3h-0.2v-0.3h-0.7v0.3h-0.2v-0.3h-0.7v0.3h-0.2v-0.3H452v0.3l0,0v-0.3h-0.7v0.3h-0.2v-0.3h-0.7v0.3h-0.2v-0.3h-0.7v0.3
			h-0.2v-0.3h-0.7v0.3h-0.2v-0.3h-0.7v0.3h-0.2v-0.3h-0.7v0.3c-0.1,0-0.1,0-0.2,0l-0.1-0.4l-0.7,0.1l0.1,0.4c-0.1,0-0.1,0-0.2,0.1
			l-0.2-0.3l-0.6,0.3l0.2,0.3l-0.1,0.1l-0.3-0.3l-0.5,0.5l0.3,0.2l-0.1,0.1l-0.3-0.2l-0.3,0.6l0.3,0.2c0,0.1,0,0.1-0.1,0.2l-0.4-0.1
			l-0.1,0.7h0.4l0,0v0.1l-0.4,0.1l0.1,0.7l0.4-0.1c0,0.1,0,0.1,0.1,0.2l-0.3,0.2l0.3,0.6l0.3-0.2l0.1,0.1l-0.3,0.3l0.5,0.5l0.3-0.3
			l0.1,0.1l-0.2,0.3l0.6,0.3l0.2-0.3c0.1,0,0.1,0,0.2,0.1l-0.1,0.4l0.7,0.1l0.1-0.4c0.1,0,0.1,0,0.2,0l0,0v0.3h0.7v-0.3h0.2v0.3h0.7
			v-0.3h0.2v0.3h0.7v-0.3h0.2v0.3h0.7v-0.3h0.2v0.3h0.7v-0.3h0.2v0.3h0.7v-0.3h0.2v0.3h0.7v-0.3h0.2v0.3h0.7v-0.3h0.2v0.3h0.7v-0.3
			h0.2v0.3h0.7v-0.3h0.2v0.3h0.7v-0.3h0.2v0.3h0.7v-0.3h0.2v0.3h0.7v-0.3h0.2v0.3h0.7v-0.3h0.2v0.3h0.7v-0.3c0.1,0,0.1,0,0.2,0
			l0.1,0.4l0.7-0.1l-0.1-0.4c0.1,0,0.1,0,0.2-0.1l0.2,0.3l0.6-0.3l-0.2-0.3l0.1-0.1l0.3,0.3l0.5-0.5l-0.3-0.2l0.1-0.1l0.3,0.2
			l0.3-0.6l-0.3-0.2c0-0.1,0-0.1,0.1-0.2l0.4,0.1l0.1-0.7H462.9C462.9,432,462.9,431.9,462.9,431.9z"/>
		<path class="st7" d="M464.6,426.4H463c0,0,0,0,0-0.1v-6.8c0-0.3-0.3-0.6-0.6-0.6h-1.1v-1.7c0-0.3-0.3-0.6-0.6-0.6h-10.6
			c-0.3,0-0.6,0.3-0.6,0.6v1.7h-0.7c-0.3,0-0.6,0.3-0.6,0.6v2.3h-3.3h-0.1v-14.4c0-0.1-0.1-0.3-0.3-0.3h-1.2c-0.1,0-0.3,0.1-0.3,0.3
			v1.1h-3.8v2.3h1.4c0,0,0,0,0,0.1l0,0l0,0l0,0l0,0c0,0,0,0,0,0.1l0,0l0,0l0,0l0,0l0,0l0,0l0,0l0,0l0,0l0,0l0,0l0,0l0,0l0,0l0,0l0,0
			l0,0l0,0l0,0l0,0l0,0l0,0l0,0l0,0l0,0l0,0l0,0l0,0v0.1l0,0l0,0l0,0l0,0l0,0v0.1l0,0l0,0c0,0,0,0.1,0.1,0.1l0,0l0,0l0,0l0,0l0,0
			l0,0v0.1l0,0l0,0l0,0l0,0l0,0l0,0l0,0l0,0l0,0l0,0l0,0v0.1l0,0v0.1l0,0l0,0l0,0v0.1l0,0l0,0l0,0l0,0l0,0l0,0l0,0l0,0l0,0l0,0l0,0
			l0,0l0,0l0,0l0,0l0,0l0,0v0.1l0,0l0,0l0,0l0,0l0,0l0,0l0,0l0,0l0,0l0,0l0,0l0,0l0,0l0,0v0.1l0,0l0,0v0.1v0.1l0,0l0,0l0,0l0,0l0,0
			l0,0l0,0l0,0l0,0l0,0l0,0l0,0c0,0,0,0,0,0.1l0,0v0.1l0,0l0,0l0,0l0,0l0,0v0.1l0,0v0.1v0.1l0,0l0,0l0,0l0,0l0,0c0,0,0,0,0,0.1l0,0
			l0,0l0,0l0,0l0,0c0,0,0,0.1,0,0.2l0,0l0,0c0,0,0,0,0,0.1v0.1l0,0l0,0l0,0v0.1l0,0l0,0l0,0l0,0l0,0c-0.1,0.1,0,0.1,0,0.2l0,0l0,0
			l0,0l0,0l0,0l0,0l0,0l0,0l0,0h-1.4v3h1.4l0,0v0.1v0.1l0,0l0,0l0,0l0,0l0,0c0,0,0,0,0,0.1l0,0l0,0l0,0l0,0l0,0l0,0l0,0l0,0l0,0l0,0
			l0,0l0,0l0,0l0,0l0,0l0,0l0,0l0,0l0,0c0,0,0,0,0,0.1l0,0l0,0l0,0l0,0l0,0l0,0l0,0l0,0l0,0l0,0l0,0l0,0l0,0v0.1c0,0,0,0,0,0.1
			c0,0,0,0,0,0.1c0,0,0,0,0,0.1l0,0l0,0c0,0,0,0,0,0.1l0,0l0,0l0,0l0,0c0,0,0,0,0,0.1l0,0c0,0,0,0,0,0.1v0.1v0.1l0,0l0,0l0,0l0,0
			l0,0l0,0l0,0l0,0l0,0l0,0l0,0l0,0c0,0,0,0,0,0.1l0,0l0,0l0,0l0,0l0,0l0,0l0,0l0,0l0,0v0.1l0,0l0,0c0,0,0,0,0,0.1l0,0l0,0v0.1
			c0,0,0,0,0,0.1c0,0,0,0,0,0.1l0,0l0,0l0,0l0,0l0,0c0,0,0,0,0,0.1l0,0l0,0l0,0v0.1l0,0c0,0,0,0,0,0.1l0,0l0,0l0,0l0,0l0,0v0.1l0,0
			l0,0l0,0l0,0l0,0l0,0l0,0l0,0c0,0,0,0.1,0,0.2l0,0l0,0l0,0l0,0l0,0l0,0c0,0,0,0,0,0.1l0,0l0,0l0,0c0,0,0,0,0,0.1l0,0l0,0l0,0l0,0
			v0.1l0,0l0,0v0.1l0,0l0,0l0,0l0,0c0,0,0,0,0,0.1v0.1l0,0l0,0l0,0l0,0c0,0,0,0,0,0.1l0,0l0,0l0,0v0.1l0,0l0,0l0,0v0.1v0.1l0,0
			c-0.5,0-0.5,0.1-0.5,0.1v0.4l0,0c-0.2,0.2-0.4,0.5-0.4,0.8v6.7c0,0,0,0,0,0.1l0,0l0,0v0.1l0,0c0.2,0.2,0.9,0.2,1,0.2s0.8,0,1-0.2
			l0,0V428c0,0,0,0,0-0.1l0,0l0,0v-0.1v-6.7c0-0.4-0.2-0.7-0.4-0.8l0,0v-0.4c0-0.1,0-0.1-0.4-0.1l0,0l0,0l0,0l0,0l0,0l0,0l0,0l0,0
			l0,0l0,0v-0.1l0,0l0,0l0,0c0,0,0,0,0-0.1l0,0l0,0l0,0l0,0l0,0v-0.1l0,0l0,0l0,0l0,0l0,0l0,0l0,0l0,0l0,0l0,0l0,0v-0.1l0,0l0,0l0,0
			l0,0l0,0c0.1-0.1,0-0.1,0-0.2l0,0l0,0l0,0l0,0l0,0l0,0c0,0,0,0,0-0.1l0,0l0,0l0,0V419l0,0c0,0,0,0,0-0.1l0,0l0,0l0,0l0,0l0,0l0,0
			l0,0l0,0l0,0l0,0l0,0l0,0l0,0l0,0v-0.1l0,0l0,0l0,0l0,0l0,0l0,0l0,0l0,0l0,0l0,0l0,0l0,0l0,0c0,0,0,0,0-0.1l0,0l0,0c0,0,0,0,0-0.1
			l0,0l0,0l0,0l0,0l0,0l0,0l0,0l0,0l0,0v-0.1l0,0l0,0l0,0l0,0l0,0l0,0l0,0v-0.1c0,0,0,0,0-0.1c0,0,0,0,0-0.1l0,0l0,0c0,0,0,0,0-0.1
			l0,0l0,0l0,0c0,0,0,0,0-0.1l0,0l0,0l0,0l0,0l0,0v-0.1l0,0l0,0l0,0l0,0l0,0l0,0l0,0l0,0l0,0l0,0l0,0l0,0l0,0l0,0l0,0l0,0l0,0l0,0
			l0,0l0,0l0,0l0,0l0,0l0,0c0,0,0,0,0-0.1l0,0l0,0c0,0,0,0,0-0.1l0,0l0,0l0,0l0,0c0,0,0,0,0-0.1l0,0l0,0l0,0l0,0l0,0l0,0l0,0l0,0
			v-0.1c0,0,0,0,0-0.1c0,0,0,0,0-0.1l0,0l0,0l0,0l0,0l0,0l0,0c0,0,0,0,0-0.1l0,0l0,0l0,0l0,0l0,0l0,0c0,0,0,0,0-0.1h2v10.4
			c0,0.1,0.1,0.3,0.3,0.3h1.2c0.1,0,0.3-0.1,0.3-0.3v-0.1h19.5c0.4,0,0.7-0.3,0.7-0.8v-0.3C465.3,426.8,465,426.4,464.6,426.4z
			 M445.1,425.7L445.1,425.7h3.4v0.7c0,0,0,0,0,0.1H445v-0.8L445.1,425.7L445.1,425.7z M441.4,414.9
			C441.4,414.9,441.4,414.8,441.4,414.9L441.4,414.9C441.4,414.8,441.4,414.8,441.4,414.9C441.4,414.8,441.4,414.8,441.4,414.9
			C441.4,414.8,441.4,414.8,441.4,414.9C441.4,414.8,441.4,414.8,441.4,414.9c0-0.1,0-0.1,0-0.1s0,0,0-0.1l0,0l0,0
			c0.1,0,0.1-0.1,0.1-0.1l0,0l0,0l0,0l0,0l0,0l0,0c0,0,0,0,0-0.1l0,0l0,0l0,0l0,0l0,0l0,0v-0.1l0,0l0,0l0,0l0,0l0,0l0,0v-0.1l0,0
			l0,0l0,0l0,0l0,0l0,0c0,0,0,0,0-0.1l0,0l0,0l0,0l0,0l0,0l0,0v-0.1l0,0l0,0l0,0c0,0,0,0,0-0.1l0,0l0,0l0,0l0,0l0,0l0,0l0,0v-0.1
			l0,0l0,0l0,0l0,0l0,0l0,0l0,0l0,0l0,0l0,0l0,0l0,0l0,0c0,0,0,0,0-0.1l0,0v-0.1l0,0l0,0l0,0l0,0l0,0l0,0l0,0l0,0l0,0l0,0l0,0l0,0
			l0,0l0,0l0,0l0,0l0,0c0,0,0,0,0-0.1l0,0l0,0l0,0l0,0l0,0c0,0,0,0,0-0.1l0,0l0,0l0,0l0,0v-0.1l0,0l0,0l0,0l0,0l0,0l0,0v-0.1l0,0
			l0,0l0,0l0,0l0,0l0,0l0,0l0,0v-0.1l0,0l0,0l0,0l0,0v-0.1l0,0c0,0,0,0,0-0.1v-0.1l0,0l0,0l0,0v-0.1l0,0l0,0l0,0c0,0,0,0,0-0.1l0,0
			l0,0l0,0l0,0l0,0l0,0l0,0c0-0.1,0-0.1,0-0.1l0,0l0,0l0,0l0,0l0,0l0,0l0,0l0,0l0,0v-0.1l0,0l0,0l0,0l0,0l0,0l0,0c0,0,0,0,0-0.1l0,0
			l0,0l0,0l0,0c0.1-0.1,0-0.1,0-0.2l0,0l0,0l0,0l0,0l0,0l0,0l0,0l0,0l0,0l0,0l0,0l0,0l0,0l0,0h2v4L441.4,414.9L441.4,414.9z"/>
	</g>
	<g>
		<path class="st7" d="M430.8,410.5h-0.6v-0.3h-3.8v0.3H425v-1c0-0.3-0.3-0.6-0.6-0.6h-0.8h-2.7h-2.4c-0.3,0-0.6,0.3-0.6,0.6v1h-1.3
			v-0.3h-3.8v0.3h-0.5v1.5h0.5v0.2h3.8V412h1.3v2.9c0,0.3,0.3,0.6,0.6,0.6h0.8c0,0.1-0.1,0.2-0.1,0.3v2c0,0.3,0.3,0.6,0.6,0.6h0.6
			v4.9h-0.8v3.2h3.7v-3.2h-0.6v-4.9h0.2c0.3,0,0.6-0.3,0.6-0.6v-2c0-0.1,0-0.2-0.1-0.3h0.2h0.8c0.3,0,0.6-0.3,0.6-0.6V412h1.4v0.2
			h3.8V412h0.6L430.8,410.5L430.8,410.5z"/>
	</g>
</g>
<g>
	<g>
		<g>
			<path class="st8" d="M299.2,145"/>
			<path class="st8" d="M248.4,117.2"/>
			<g>
				<path class="st1" d="M321.1,138.2c-1.7-4.3-7.3-5.3-12.2-6.5c-4.9-1.2-7.3-4-7.3-4c-12.6-10.5-19.9-9.9-19.9-9.9s-44.9,0-50.6,0
					c-5.7,0-7.2-0.1-7.6,2.1c-1,6.3,0.4,24.8-1.1,27.8c-0.1,0.2-1.8,0.2-1.8,0.2c-0.2,0.9-0.2,1.8-0.1,2.3l11.7,1.3
					c-0.2-0.6-0.2-1.3-0.2-1.9c0-4.5,3.6-8.1,8.1-8.1s8.1,3.6,8.1,8.1c0,0.7-0.1,1.4-0.3,2.1l47.5,0.4c-0.3-0.8-0.4-1.7-0.4-2.5
					c0-4.5,3.6-8.1,8.1-8.1s8.1,3.6,8.1,8.1c0,0.9-0.2,1.8-0.4,2.7l11.5,0.1l-0.1-7.8C322.2,144.6,322.8,142.6,321.1,138.2z"/>
				<path class="st5" d="M322.8,152.9l-12.7-0.1l0.2-0.6c0.3-0.8,0.4-1.7,0.4-2.5c0-4.2-3.4-7.7-7.6-7.7s-7.6,3.4-7.6,7.7
					c0,0.8,0.1,1.6,0.4,2.4l0.2,0.6l-48.9-0.5l0.2-0.6c0.2-0.6,0.3-1.3,0.3-2c0-4.2-3.4-7.7-7.6-7.7c-4.2,0-7.6,3.4-7.6,7.7
					c0,0.6,0.1,1.2,0.2,1.8l0.2,0.7l-12.8-1.4v-0.4c-0.1-0.8,0-1.7,0.1-2.5l0.1-0.4h0.4c0.5,0,1.2-0.1,1.5-0.1
					c0.7-1.8,0.6-7.9,0.6-13.9c0-5.3-0.1-10.7,0.4-13.7c0.2-1.2,0.8-1.9,1.9-2.2c1-0.3,2.5-0.3,5-0.3c0.4,0,0.8,0,1.2,0
					c1.9,0,8.1,0,15.7,0c14.7,0,34.2,0,34.9,0c0.2,0,2.1-0.1,5.4,1c2,0.7,4.1,1.7,6.3,2.9c2.7,1.6,5.6,3.6,8.5,6l0,0l0,0
					c0,0,2.4,2.7,7.1,3.9c0.5,0.1,1,0.2,1.4,0.4c2.3,0.6,4.6,1.1,6.6,2.1c2.3,1.1,3.8,2.5,4.5,4.4c1.6,4,1.2,6.2,1.1,6.6
					L322.8,152.9z M311.4,151.8l10.4,0.1l-0.1-7.4v-0.1c0,0,0.5-2-1.1-6c-1.4-3.7-6-4.8-10.4-5.8c-0.5-0.1-1-0.2-1.4-0.4
					c-4.8-1.2-7.3-3.8-7.6-4.1c-6.4-5.3-11.3-7.7-14.4-8.7c-3.3-1.1-5.1-1-5.1-1l0,0c-0.4,0-45,0-50.6,0c-0.4,0-0.8,0-1.2,0
					c-5,0-5.7,0.1-5.9,1.7c-0.5,2.8-0.4,8.3-0.4,13.5c0,6.5,0.1,12.7-0.8,14.5c-0.2,0.3-0.5,0.4-1.4,0.4c-0.2,0-0.4,0-0.5,0
					c-0.1,0.5-0.1,0.9-0.1,1.4l10.6,1.1c-0.1-0.5-0.1-0.9-0.1-1.4c0-4.8,3.9-8.6,8.6-8.6c4.7,0,8.6,3.9,8.6,8.6
					c0,0.5-0.1,1.1-0.1,1.6l46.3,0.4c-0.2-0.7-0.2-1.3-0.2-2c0-4.8,3.9-8.6,8.6-8.6s8.6,3.9,8.6,8.6
					C311.7,150.4,311.6,151.1,311.4,151.8z"/>
			</g>
			<g>
				<g>
					<circle class="st4" cx="303.2" cy="149.6" r="6.5"/>
					<path class="st5" d="M303.2,156.6c-3.9,0-7-3.2-7-7c0-3.9,3.2-7,7-7s7,3.2,7,7C310.2,153.5,307,156.6,303.2,156.6z
						 M303.2,143.6c-3.3,0-6.1,2.7-6.1,6.1c0,3.3,2.7,6.1,6.1,6.1c3.3,0,6.1-2.7,6.1-6.1C309.2,146.3,306.5,143.6,303.2,143.6z"/>
				</g>
				<g>
					<circle class="st6" cx="303.2" cy="149.6" r="3.7"/>
					<path class="st5" d="M303.2,153.8c-2.3,0-4.1-1.9-4.1-4.1c0-2.3,1.9-4.1,4.1-4.1s4.1,1.9,4.1,4.1
						C307.3,151.9,305.4,153.8,303.2,153.8z M303.2,146.4c-1.7,0-3.2,1.4-3.2,3.2c0,1.7,1.4,3.2,3.2,3.2s3.2-1.4,3.2-3.2
						C306.3,147.9,304.9,146.4,303.2,146.4z"/>
				</g>
			</g>
			<g>
				<g>
					<circle class="st4" cx="240" cy="149.6" r="6.5"/>
					<path class="st5" d="M240,156.6c-3.9,0-7-3.2-7-7c0-3.9,3.2-7,7-7c3.9,0,7,3.2,7,7C247.1,153.5,243.9,156.6,240,156.6z
						 M240,143.6c-3.3,0-6.1,2.7-6.1,6.1c0,3.3,2.7,6.1,6.1,6.1c3.3,0,6.1-2.7,6.1-6.1S243.4,143.6,240,143.6z"/>
				</g>
				<g>
					<circle class="st6" cx="240" cy="149.6" r="3.7"/>
					<path class="st5" d="M240,153.8c-2.3,0-4.1-1.9-4.1-4.1c0-2.3,1.9-4.1,4.1-4.1c2.3,0,4.1,1.9,4.1,4.1
						C244.2,151.9,242.3,153.8,240,153.8z M240,146.4c-1.7,0-3.2,1.4-3.2,3.2c0,1.7,1.4,3.2,3.2,3.2c1.7,0,3.2-1.4,3.2-3.2
						C243.2,147.9,241.8,146.4,240,146.4z"/>
				</g>
			</g>
			<path class="st8" d="M249,151"/>
			<path class="st8" d="M247.6,142.2"/>
			<path class="st5" d="M276.6,151.6l-1-0.1l0.1-2.4c0.3-5.3-0.2-8.7-0.6-10.6c-0.4-2-1-2.9-1-2.9l-0.1-0.1v-0.1l-0.1-17.7h1
				l0.1,17.5c0.4,0.7,2.1,4.4,1.6,13.9l0,0V151.6z"/>
			<path class="st5" d="M254.3,145.9h-1.7c-0.1,0-0.2,0.1-0.2,0.1v0.7c0,0.1,0.1,0.1,0.1,0.1h1.7c0.1,0,0.2-0.1,0.2-0.1V146
				C254.4,146,254.4,145.9,254.3,145.9z"/>
			<path class="st5" d="M293.1,149.3c-1.2-1.4-2.8-2.1-4.6-2.1l0,0c-4,0-12.3-0.7-12.4-0.7l0,0l-20.6-0.5c-0.1,0-0.2,0.1-0.2,0.2
				v0.7c0,0.1,0.1,0.2,0.2,0.2l20.5,0.5l0,0c0.4,0,8.5,0.7,12.4,0.7l0,0c1.5,0,2.8,0.6,3.8,1.8c0.6,0.7,0.9,1.4,1.1,1.7
				c0,0.1,0.1,0.1,0.2,0.1l0.6-0.2c0.1,0,0.1-0.1,0.1-0.2C294.2,150.9,293.8,150.1,293.1,149.3z"/>
			<g>
				<path class="st5" d="M248.4,145.8h-0.6c-0.1,0-0.2,0.1-0.2,0.2v0.7c0,0.1,0.1,0.2,0.2,0.2h0.7c0.1,0,0.2-0.1,0.2-0.2V146
					C248.6,145.9,248.5,145.8,248.4,145.8z"/>
				<path class="st5" d="M249.5,146v0.7c0,0.1,0.1,0.2,0.2,0.2h1.7c0.1,0,0.2-0.1,0.2-0.2V146c0-0.1-0.1-0.2-0.2-0.2h-1.7
					C249.6,145.8,249.5,145.9,249.5,146z"/>
			</g>
			<g>
				<line class="st9" x1="277" y1="136.2" x2="280.9" y2="136.2"/>
				<path class="st5" d="M280.9,136.7L280.9,136.7h-4c-0.3,0-0.5-0.2-0.5-0.5s0.2-0.5,0.5-0.5l0,0h4c0.3,0,0.5,0.2,0.5,0.5
					C281.4,136.4,281.2,136.7,280.9,136.7z"/>
			</g>
			<g>
				<path class="st6" d="M320.5,137.3h-2.2c0,0,0.5,4.3,3.8,4.9"/>
				<path class="st5" d="M322.1,142.7c-1.5-0.3-2.7-1.3-3.5-3c-0.6-1.2-0.7-2.3-0.7-2.4l-0.1-0.5h2.7v1H319c0.3,1.1,1.1,3.5,3.3,4
					L322.1,142.7z"/>
			</g>
			<g>
				<path class="st6" d="M276.5,123c0,0-1.3-3.4,3.9-3.1s9.2,0.7,17.5,8.7c0,0,2.8,2,1.7,4.3c-1.1,2.3-5.5,0.6-5.5,0.6l-13.7-2.6
					c0,0-2.4,0.1-3.2-3.9C276.5,123,276.5,123,276.5,123z"/>
				<path class="st5" d="M297.2,134.6c-1.4,0-2.9-0.5-3.1-0.6l-13.6-2.6c-0.2,0-0.8-0.1-1.5-0.5c-1-0.7-1.8-2-2.1-3.8l-0.8-4
					c-0.1-0.3-0.4-1.5,0.3-2.5c0.7-0.9,2.1-1.4,4.2-1.2c2.9,0.2,5.1,0.4,7.8,1.5c3,1.2,6.1,3.6,10,7.3c0.2,0.1,0.8,0.6,1.3,1.4
					c0.8,1.2,1,2.4,0.5,3.5C299.6,134.3,298.4,134.6,297.2,134.6z M280.6,130.4L280.6,130.4l13.8,2.7l0,0c0,0,1.1,0.4,2.2,0.5
					c1.4,0.1,2.3-0.2,2.6-0.9c0.9-1.9-1.5-3.7-1.5-3.7l0,0l0,0c-8.4-8-12.3-8.3-17.2-8.6c-1.7-0.1-2.8,0.2-3.3,0.8
					c-0.5,0.7-0.2,1.6-0.2,1.6l0,0l0,0l0.8,4C278.5,130.3,280.3,130.4,280.6,130.4C280.5,130.4,280.5,130.4,280.6,130.4L280.6,130.4
					z"/>
			</g>
			<g>
				<path class="st6" d="M322.3,149.6c0,0-3.4-2.2-11.4-2.2"/>
				<path class="st5" d="M322,150c0,0-0.9-0.5-2.6-1.1c-1.7-0.5-4.5-1.1-8.5-1.1v-1c8,0,11.5,2.2,11.6,2.3L322,150l0.3-0.4L322,150z
					"/>
			</g>
		</g>
		<g>
			<path class="st7" d="M266.5,125.1H266v-0.3h-3.8v0.3h-1.4v-1c0-0.3-0.3-0.6-0.6-0.6h-0.8h-2.7h-2.4c-0.3,0-0.6,0.3-0.6,0.6v1
				h-1.3v-0.3h-3.8v0.3h-0.5v1.5h0.5v0.2h3.8v-0.2h1.3v2.9c0,0.3,0.3,0.6,0.6,0.6h0.8c0,0.1-0.1,0.2-0.1,0.3v2
				c0,0.3,0.3,0.6,0.6,0.6h0.6v4.9h-0.8v3.2h3.7V138h-0.6v-4.9h0.2c0.3,0,0.6-0.3,0.6-0.6v-2c0-0.1,0-0.2-0.1-0.3h0.2h0.8
				c0.3,0,0.6-0.3,0.6-0.6v-2.9h1.4v0.2h3.8v-0.2h0.6v-1.6C266.6,125.1,266.5,125.1,266.5,125.1z"/>
		</g>
	</g>
	<g>
		<g>
			<path class="st8" d="M405.4,145"/>
			<path class="st8" d="M354.5,117.2"/>
			<g>
				<path class="st1" d="M427.2,138.2c-1.7-4.3-7.3-5.3-12.2-6.5c-4.9-1.2-7.3-4-7.3-4c-12.6-10.5-19.9-9.9-19.9-9.9s-44.9,0-50.6,0
					s-7.2-0.1-7.6,2.1c-1,6.3,0.4,24.8-1.1,27.8c-0.1,0.2-1.8,0.2-1.8,0.2c-0.2,0.9-0.2,1.8-0.1,2.3l11.7,1.3
					c-0.2-0.6-0.2-1.3-0.2-1.9c0-4.5,3.6-8.1,8.1-8.1s8.1,3.6,8.1,8.1c0,0.7-0.1,1.4-0.3,2.1l47.5,0.4c-0.3-0.8-0.4-1.7-0.4-2.5
					c0-4.5,3.6-8.1,8.1-8.1s8.1,3.6,8.1,8.1c0,0.9-0.2,1.8-0.4,2.7l11.5,0.1l-0.1-7.8C428.3,144.6,428.9,142.6,427.2,138.2z"/>
				<path class="st5" d="M428.9,152.9l-12.7-0.1l0.2-0.6c0.3-0.8,0.4-1.7,0.4-2.5c0-4.2-3.4-7.7-7.6-7.7s-7.6,3.4-7.6,7.7
					c0,0.8,0.1,1.6,0.4,2.4l0.2,0.6l-48.9-0.5l0.2-0.6c0.2-0.6,0.3-1.3,0.3-2c0-4.2-3.4-7.7-7.6-7.7s-7.6,3.4-7.6,7.7
					c0,0.6,0.1,1.2,0.2,1.8l0.2,0.7l-12.8-1.4v-0.4c-0.1-0.8,0-1.7,0.1-2.5l0.1-0.4h0.4c0.5,0,1.2-0.1,1.5-0.1
					c0.7-1.8,0.6-7.9,0.6-13.9c0-5.3-0.1-10.7,0.4-13.7c0.2-1.2,0.8-1.9,1.9-2.2c1-0.3,2.5-0.3,5-0.3c0.4,0,0.8,0,1.2,0
					c1.9,0,8.1,0,15.7,0c14.7,0,34.2,0,34.9,0c0.2,0,2.1-0.1,5.4,1c2,0.7,4.1,1.7,6.3,2.9c2.7,1.6,5.6,3.6,8.5,6l0,0l0,0
					c0,0,2.4,2.7,7.1,3.9c0.5,0.1,1,0.2,1.4,0.4c2.3,0.6,4.6,1.1,6.6,2.1c2.3,1.1,3.8,2.5,4.5,4.4c1.6,4,1.2,6.2,1.1,6.6
					L428.9,152.9z M417.6,151.8l10.4,0.1l-0.1-7.4v-0.1c0,0,0.5-2-1.1-6c-1.4-3.7-6-4.8-10.4-5.8c-0.5-0.1-1-0.2-1.4-0.4
					c-4.8-1.2-7.3-3.8-7.6-4.1c-6.4-5.3-11.3-7.7-14.4-8.7c-3.3-1.1-5.1-1-5.1-1l0,0c-0.4,0-45,0-50.6,0c-0.4,0-0.8,0-1.2,0
					c-5,0-5.7,0.1-5.9,1.7c-0.5,2.8-0.4,8.3-0.4,13.5c0,6.5,0.1,12.7-0.8,14.5c-0.2,0.3-0.5,0.4-1.4,0.4c-0.2,0-0.4,0-0.5,0
					c-0.1,0.5-0.1,0.9-0.1,1.4l10.6,1.1c-0.1-0.5-0.1-0.9-0.1-1.4c0-4.8,3.9-8.6,8.6-8.6s8.6,3.9,8.6,8.6c0,0.5-0.1,1.1-0.1,1.6
					l46.3,0.4c-0.2-0.7-0.2-1.3-0.2-2c0-4.8,3.9-8.6,8.6-8.6s8.6,3.9,8.6,8.6C417.8,150.4,417.7,151.1,417.6,151.8z"/>
			</g>
			<g>
				<g>
					<circle class="st4" cx="409.3" cy="149.6" r="6.5"/>
					<path class="st5" d="M409.3,156.6c-3.9,0-7-3.2-7-7c0-3.9,3.2-7,7-7s7,3.2,7,7C416.3,153.5,413.2,156.6,409.3,156.6z
						 M409.3,143.6c-3.3,0-6.1,2.7-6.1,6.1c0,3.3,2.7,6.1,6.1,6.1c3.3,0,6.1-2.7,6.1-6.1S412.6,143.6,409.3,143.6z"/>
				</g>
				<g>
					<circle class="st6" cx="409.3" cy="149.6" r="3.7"/>
					<path class="st5" d="M409.3,153.8c-2.3,0-4.1-1.9-4.1-4.1c0-2.3,1.9-4.1,4.1-4.1s4.1,1.9,4.1,4.1
						C413.5,151.9,411.6,153.8,409.3,153.8z M409.3,146.4c-1.7,0-3.2,1.4-3.2,3.2c0,1.7,1.4,3.2,3.2,3.2c1.7,0,3.2-1.4,3.2-3.2
						C412.5,147.9,411,146.4,409.3,146.4z"/>
				</g>
			</g>
			<g>
				<g>
					<circle class="st4" cx="346.2" cy="149.6" r="6.5"/>
					<path class="st5" d="M346.2,156.6c-3.9,0-7-3.2-7-7c0-3.9,3.2-7,7-7s7,3.2,7,7C353.2,153.5,350.1,156.6,346.2,156.6z
						 M346.2,143.6c-3.3,0-6.1,2.7-6.1,6.1c0,3.3,2.7,6.1,6.1,6.1c3.3,0,6.1-2.7,6.1-6.1C352.2,146.3,349.5,143.6,346.2,143.6z"/>
				</g>
				<g>
					<circle class="st6" cx="346.2" cy="149.6" r="3.7"/>
					<path class="st5" d="M346.2,153.8c-2.3,0-4.1-1.9-4.1-4.1c0-2.3,1.9-4.1,4.1-4.1s4.1,1.9,4.1,4.1
						C350.3,151.9,348.5,153.8,346.2,153.8z M346.2,146.4c-1.7,0-3.2,1.4-3.2,3.2c0,1.7,1.4,3.2,3.2,3.2c1.7,0,3.2-1.4,3.2-3.2
						C349.4,147.9,347.9,146.4,346.2,146.4z"/>
				</g>
			</g>
			<path class="st8" d="M355.1,151"/>
			<path class="st8" d="M353.7,142.2"/>
			<path class="st5" d="M382.7,151.6l-1-0.1l0.1-2.4c0.3-5.3-0.2-8.7-0.6-10.6c-0.4-2-1-2.9-1-2.9l-0.1-0.1v-0.1l-0.1-17.7h1
				l0.1,17.5c0.4,0.7,2.1,4.4,1.6,13.9l0,0V151.6z"/>
			<path class="st5" d="M360.4,145.9h-1.7c-0.1,0-0.2,0.1-0.2,0.1v0.7c0,0.1,0.1,0.1,0.1,0.1h1.7c0.1,0,0.2-0.1,0.2-0.1V146
				C360.6,146,360.5,145.9,360.4,145.9z"/>
			<path class="st5" d="M399.3,149.3c-1.2-1.4-2.8-2.1-4.6-2.1l0,0c-4,0-12.3-0.7-12.4-0.7l0,0l-20.6-0.5c-0.1,0-0.2,0.1-0.2,0.2
				v0.7c0,0.1,0.1,0.2,0.2,0.2l20.5,0.5l0,0c0.4,0,8.5,0.7,12.4,0.7l0,0c1.5,0,2.8,0.6,3.8,1.8c0.6,0.7,0.9,1.4,1.1,1.7
				c0,0.1,0.1,0.1,0.2,0.1l0.6-0.2c0.1,0,0.1-0.1,0.1-0.2C400.4,150.9,400,150.1,399.3,149.3z"/>
			<g>
				<path class="st5" d="M354.5,145.8h-0.6c-0.1,0-0.2,0.1-0.2,0.2v0.7c0,0.1,0.1,0.2,0.2,0.2h0.7c0.1,0,0.2-0.1,0.2-0.2V146
					C354.7,145.9,354.6,145.8,354.5,145.8z"/>
				<path class="st5" d="M355.6,146v0.7c0,0.1,0.1,0.2,0.2,0.2h1.7c0.1,0,0.2-0.1,0.2-0.2V146c0-0.1-0.1-0.2-0.2-0.2h-1.7
					C355.7,145.8,355.6,145.9,355.6,146z"/>
			</g>
			<g>
				<line class="st9" x1="383.1" y1="136.2" x2="387.1" y2="136.2"/>
				<path class="st5" d="M387.1,136.7L387.1,136.7h-4c-0.3,0-0.5-0.2-0.5-0.5s0.2-0.5,0.5-0.5l0,0h4c0.3,0,0.5,0.2,0.5,0.5
					C387.6,136.4,387.4,136.7,387.1,136.7z"/>
			</g>
			<g>
				<path class="st6" d="M426.7,137.3h-2.2c0,0,0.5,4.3,3.8,4.9"/>
				<path class="st5" d="M428.3,142.7c-1.5-0.3-2.7-1.3-3.5-3c-0.6-1.2-0.7-2.3-0.7-2.4l-0.1-0.5h2.7v1h-1.6c0.3,1.1,1.1,3.5,3.3,4
					L428.3,142.7z"/>
			</g>
			<g>
				<path class="st6" d="M382.7,123c0,0-1.3-3.4,3.9-3.1s9.2,0.7,17.5,8.7c0,0,2.8,2,1.7,4.3c-1.1,2.3-5.5,0.6-5.5,0.6l-13.7-2.6
					c0,0-2.4,0.1-3.2-3.9C382.7,123,382.7,123,382.7,123z"/>
				<path class="st5" d="M403.4,134.6c-1.4,0-2.9-0.5-3.1-0.6l-13.6-2.6c-0.2,0-0.8-0.1-1.5-0.5c-1-0.7-1.8-2-2.1-3.8l-0.8-4
					c-0.1-0.3-0.4-1.5,0.3-2.5c0.7-0.9,2.1-1.4,4.2-1.2c2.9,0.2,5.1,0.4,7.8,1.5c3,1.2,6.1,3.6,10,7.3c0.2,0.1,0.8,0.6,1.3,1.4
					c0.8,1.2,1,2.4,0.5,3.5C405.7,134.3,404.6,134.6,403.4,134.6z M386.7,130.4L386.7,130.4l13.8,2.7l0,0c0,0,1.1,0.4,2.2,0.5
					c1.4,0.1,2.3-0.2,2.6-0.9c0.9-1.9-1.5-3.7-1.5-3.7l0,0l0,0c-8.4-8-12.3-8.3-17.2-8.6c-1.7-0.1-2.8,0.2-3.3,0.8
					c-0.5,0.7-0.2,1.6-0.2,1.6l0,0l0,0l0.8,4C384.6,130.3,386.5,130.4,386.7,130.4L386.7,130.4L386.7,130.4z"/>
			</g>
			<g>
				<path class="st6" d="M428.4,149.6c0,0-3.4-2.2-11.4-2.2"/>
				<path class="st5" d="M428.2,150c0,0-0.9-0.5-2.6-1.1c-1.7-0.5-4.5-1.1-8.5-1.1v-1c8,0,11.5,2.2,11.6,2.3L428.2,150l0.3-0.4
					L428.2,150z"/>
			</g>
		</g>
		<g>
			<path class="st7" d="M372.7,125.1h-0.6v-0.3h-3.8v0.3H367v-1c0-0.3-0.3-0.6-0.6-0.6h-0.8h-2.7h-2.4c-0.3,0-0.6,0.3-0.6,0.6v1
				h-1.3v-0.3h-3.8v0.3h-0.5v1.5h0.5v0.2h3.8v-0.2h1.3v2.9c0,0.3,0.3,0.6,0.6,0.6h0.8c0,0.1-0.1,0.2-0.1,0.3v2
				c0,0.3,0.3,0.6,0.6,0.6h0.6v4.9h-0.8v3.2h3.7V138h-0.6v-4.9h0.2c0.3,0,0.6-0.3,0.6-0.6v-2c0-0.1,0-0.2-0.1-0.3h0.2h0.8
				c0.3,0,0.6-0.3,0.6-0.6v-2.9h1.4v0.2h3.8v-0.2h0.6v-1.6C372.8,125.1,372.7,125.1,372.7,125.1z"/>
		</g>
	</g>
	<g>
		<g>
			<g>
				<g>
					<circle class="st4" cx="289" cy="237.7" r="6.5"/>
					<path class="st5" d="M289,244.8c-3.9,0-7-3.2-7-7c0-3.9,3.2-7,7-7s7,3.2,7,7C296.1,241.6,292.9,244.8,289,244.8z M289,231.7
						c-3.3,0-6.1,2.7-6.1,6.1c0,3.3,2.7,6.1,6.1,6.1c3.3,0,6.1-2.7,6.1-6.1S292.4,231.7,289,231.7z"/>
				</g>
				<g>
					<circle class="st6" cx="289" cy="237.7" r="3.7"/>
					<path class="st5" d="M289,241.9c-2.3,0-4.1-1.9-4.1-4.1c0-2.3,1.9-4.1,4.1-4.1s4.1,1.9,4.1,4.1
						C293.2,240,291.3,241.9,289,241.9z M289,234.6c-1.7,0-3.2,1.4-3.2,3.2s1.4,3.2,3.2,3.2c1.7,0,3.2-1.4,3.2-3.2
						S290.8,234.6,289,234.6z"/>
				</g>
			</g>
			<g>
				<g>
					<circle class="st4" cx="364.5" cy="238.2" r="6.5"/>
					<path class="st5" d="M364.5,245.2c-3.9,0-7-3.2-7-7c0-3.9,3.2-7,7-7s7,3.2,7,7C371.6,242.1,368.4,245.2,364.5,245.2z
						 M364.5,232.2c-3.3,0-6.1,2.7-6.1,6.1c0,3.3,2.7,6.1,6.1,6.1c3.3,0,6.1-2.7,6.1-6.1S367.9,232.2,364.5,232.2z"/>
				</g>
				<g>
					<circle class="st6" cx="364.5" cy="238.2" r="3.7"/>
					<path class="st5" d="M364.5,242.4c-2.3,0-4.1-1.9-4.1-4.1c0-2.3,1.9-4.1,4.1-4.1s4.1,1.9,4.1,4.1
						C368.7,240.5,366.8,242.4,364.5,242.4z M364.5,235c-1.7,0-3.2,1.4-3.2,3.2s1.4,3.2,3.2,3.2s3.2-1.4,3.2-3.2
						S366.3,235,364.5,235z"/>
				</g>
			</g>
			<g>
				<path class="st1" d="M380,230.2c-0.1-6.7-1.5-6.3-2.3-7.2s-6.6-4-6.6-4l-1.8-0.2c-7.9-10.6-20.7-19.5-22.7-20.9
					s-5.7-1.7-5.7-1.7s-54.7-0.1-62.4,0.1c-7.6,0.2-3.5-1.4-6,3.4s-2.4,30.7-2.4,30.7h-0.8v8.9h6h6c-0.1-0.5-0.2-1-0.2-1.6
					c0-4.3,3.5-7.8,7.8-7.8s7.8,3.5,7.8,7.8c0,0.5-0.1,1.1-0.2,1.6c2.8,0,51.2,0,60,0c0-0.3-0.1-0.7-0.1-1c0-4.4,3.6-8,8-8
					s8,3.6,8,8c0,0.2,0,0.5,0,0.7l8.5-0.2v-8.5H380V230.2z"/>
				<path class="st5" d="M357.2,239.8h-61.1l0.1-0.6c0.1-0.5,0.1-1,0.1-1.5c0-4-3.3-7.3-7.3-7.3s-7.3,3.3-7.3,7.3c0,0.5,0,1,0.1,1.5
					l0.1,0.6h-13.1V230h0.8c0-3.7,0.1-25.9,2.4-30.5c0.8-1.6,0.9-2.4,0.9-2.9c0-0.3,0.1-0.7,0.4-0.8c0.2-0.1,0.5-0.1,1.1,0
					c0.7,0.1,1.9,0.1,4,0.1c7.5-0.2,61.8-0.1,62.4-0.1l0,0c0.2,0,3.9,0.2,5.9,1.8c0.1,0.1,0.3,0.2,0.6,0.4c1.6,1.1,5.3,3.8,9.5,7.4
					c5.2,4.5,9.4,8.8,12.6,13l1.7,0.2h0.1c0.6,0.3,5.9,3.2,6.8,4.1c0.1,0.1,0.3,0.2,0.4,0.4c0.4,0.3,1,0.7,1.4,1.8s0.6,2.7,0.7,4.9
					h0.9v9.5l-9.5,0.2V239c0-0.2,0-0.4,0-0.6c0-4.1-3.3-7.5-7.5-7.5c-4.1,0-7.5,3.3-7.5,7.5c0,0.3,0,0.6,0.1,1L357.2,239.8z
					 M297.3,238.8h58.8c0-0.2,0-0.4,0-0.5c0-4.7,3.8-8.4,8.4-8.4s8.4,3.8,8.4,8.4c0,0.1,0,0.1,0,0.2l7.4-0.2v-7.6h-0.9v-0.5
					c-0.1-5.3-0.9-5.9-1.6-6.4c-0.2-0.1-0.4-0.3-0.6-0.5c-0.6-0.6-4.2-2.7-6.4-3.9l-1.9-0.2l-0.1-0.2c-4.9-6.5-12.3-13.4-22-20.4
					c-0.2-0.2-0.4-0.3-0.6-0.4c-1.8-1.3-5.2-1.5-5.4-1.6c-1.2,0-54.8-0.1-62.3,0.1c-2.2,0.1-3.4,0-4.1-0.1c-0.2,0-0.3,0-0.5,0l0,0
					c0,0.5-0.1,1.5-1,3.2c-1,1.9-1.7,7.8-2.1,17c-0.3,7-0.3,13.5-0.3,13.5v0.5h-0.8v7.9h10.9c0-0.4-0.1-0.7-0.1-1.1
					c0-4.6,3.7-8.3,8.3-8.3s8.3,3.7,8.3,8.3C297.3,238.1,297.3,238.4,297.3,238.8z"/>
			</g>
			<g>
				<path class="st6" d="M346.3,206.7c0.9,0,1.8,0.1,2.8,0.1c1.4,0,3.1-0.2,4.4,0.5c0.8,0.5,1.4,1.2,2,1.9c0.7,0.7,1.4,1.4,2,2.2
					c1.4,1.7,2.8,3.4,4.2,5.1c0.6,0.8,1.2,1.7,1.3,2.6c0.1,0.4,0,0.7-0.1,1.1c-0.7,1.8-3.6,1.4-5,1c-1.3-0.4-2.5-1-3.8-1.4
					c-2.3-0.7-4.8-0.7-7.3-1c-1.3-0.1-2.6-0.5-2.6-2l-0.2-8C344.2,207.6,345.1,206.6,346.3,206.7z"/>
				<path class="st5" d="M360.3,222.1c-0.8,0-1.7-0.2-2.5-0.4c-0.7-0.2-1.3-0.5-2-0.7c-0.6-0.2-1.2-0.5-1.8-0.7
					c-1.7-0.5-3.6-0.7-5.4-0.8c-0.6,0-1.2-0.1-1.8-0.2c-0.8-0.1-1.5-0.3-2-0.6c-0.7-0.4-1.1-1.1-1.1-1.9l-0.2-8
					c0-0.7,0.3-1.4,0.8-1.9s1.2-0.8,1.9-0.7l2.8,0.1c0.3,0,0.6,0,1,0c1.2,0,2.6,0,3.7,0.6c0.7,0.4,1.3,1,1.8,1.6
					c0.1,0.1,0.2,0.2,0.3,0.3c0.2,0.3,0.5,0.5,0.7,0.8c0.4,0.5,0.9,0.9,1.3,1.4c1.2,1.4,2.4,2.9,3.6,4.4c0.2,0.3,0.4,0.5,0.6,0.8
					c0.6,0.7,1.3,1.7,1.4,2.9c0.1,0.5,0,1-0.1,1.3C363,221.7,361.7,222.1,360.3,222.1z M346.3,207.2c-0.4,0-0.8,0.2-1.1,0.5
					c-0.3,0.3-0.5,0.7-0.5,1.2l0.2,8c0,0.6,0.3,1.4,2.2,1.6c0.6,0.1,1.2,0.1,1.8,0.1c1.9,0.1,3.8,0.3,5.6,0.9
					c0.6,0.2,1.3,0.4,1.9,0.7c0.6,0.2,1.3,0.5,1.9,0.7c1.4,0.4,3.8,0.7,4.4-0.7c0.1-0.2,0.1-0.5,0.1-0.8c-0.1-0.7-0.5-1.5-1.2-2.4
					c-0.2-0.3-0.4-0.5-0.6-0.8c-1.2-1.4-2.4-2.9-3.6-4.4c-0.4-0.5-0.9-0.9-1.3-1.4c-0.2-0.3-0.5-0.5-0.7-0.8
					c-0.1-0.1-0.2-0.2-0.3-0.3c-0.5-0.6-1-1.1-1.6-1.5c-0.9-0.5-2.1-0.5-3.2-0.5c-0.3,0-0.7,0-1,0L346.3,207.2L346.3,207.2z"/>
			</g>
			<path class="st5" d="M276.6,204.5c-0.7,0-1.4,0-2,0c-0.1,0-0.2,0.1-0.2,0.2v0.7c0,0.1,0.1,0.2,0.2,0.2c0.6,0,1.3,0,2,0
				c0.1,0,0.2-0.1,0.2-0.2v-0.7C276.7,204.5,276.7,204.5,276.6,204.5z"/>
			<path class="st5" d="M280,204.4c-0.7,0-1.4,0-2,0c-0.1,0-0.2,0.1-0.2,0.2v0.7c0,0.1,0.1,0.2,0.2,0.2c0.6,0,1.3,0,2,0
				c0.1,0,0.2-0.1,0.2-0.2v-0.7C280.2,204.5,280.1,204.4,280,204.4z"/>
			<g>
				<path class="st5" d="M358.4,206.8c-0.4-0.6-1.5-1.1-3.4-1.5c-2.7-0.5-7-0.8-12.8-0.8c-5.7,0-15.4,0-25.9,0c-11,0-22.7,0-31.5,0
					c0,0-0.1,0-0.1,0.1v0.9c0,0,0,0.1,0.1,0.1c8.7,0,20.5,0,31.5,0c10.5,0,20.2,0,25.9,0c5.8,0,10.1,0.3,12.8,0.9
					c1.7,0.3,2.3,0.7,2.5,0.9h0.1l0,0c0,0,0,0,0.1,0l0.8,0.4h0.1C358.5,207.3,358.5,207.1,358.4,206.8z"/>
				<path class="st5" d="M283.4,204.4c-0.7,0-1.3,0-2,0c-0.1,0-0.2,0.1-0.2,0.2v0.7c0,0.1,0.1,0.2,0.2,0.2c0.6,0,1.3,0,2,0
					c0.1,0,0.2-0.1,0.2-0.2v-0.7C283.6,204.5,283.5,204.4,283.4,204.4z"/>
			</g>
			<rect x="340.6" y="205.4" class="st5" width="1" height="33.8"/>
			<path class="st5" d="M345.3,224H343c-0.4,0-0.6-0.3-0.6-0.6v-1.9c0-0.4,0.3-0.6,0.6-0.6h2.3c0.4,0,0.6,0.3,0.6,0.6v1.9
				C345.9,223.7,345.7,224,345.3,224z"/>
			<path class="st5" d="M380.9,230.8h-15.8c-0.3,0-0.5-0.2-0.5-0.5s0.2-0.5,0.5-0.5h15.8c0.3,0,0.5,0.2,0.5,0.5
				S381.2,230.8,380.9,230.8z"/>
		</g>
		<g>
			<path class="st7" d="M306,223.7h-4.4c-0.4,0-0.8-0.4-0.8-0.8c0-0.4,0.4-0.8,0.8-0.8h4.4c0.4,0,0.8,0.4,0.8,0.8
				S306.4,223.7,306,223.7z"/>
			<path class="st7" d="M303.8,225.8c-0.4,0-0.8-0.4-0.8-0.8v-4.4c0-0.4,0.4-0.8,0.8-0.8s0.8,0.4,0.8,0.8v4.4
				C304.6,225.5,304.3,225.8,303.8,225.8z"/>
		</g>
		<g>
			<path class="st7" d="M334.6,232.2v-0.1l0.4-0.1l-0.1-0.7l-0.4,0.1c0-0.1,0-0.1-0.1-0.2l0.3-0.2l-0.3-0.6l-0.3,0.2l-0.1-0.1
				l0.3-0.3l-0.5-0.5l-0.3,0.3l-0.1-0.1l0.2-0.3l-0.6-0.3l-0.2,0.3c-0.1,0-0.1,0-0.2-0.1l0.1-0.4L332,229l-0.1,0.4
				c-0.1,0-0.1,0-0.2,0l0,0V229H331v0.3h-0.2V229h-0.7v0.3h-0.2V229h-0.7v0.3H329V229h-0.7v0.3h-0.2V229h-0.7v0.3h-0.2V229h-0.7v0.3
				h-0.2V229h-0.7v0.3h-0.2V229h-0.7v0.3h-0.2V229h-0.7v0.3h-0.2V229H323v0.3h-0.2V229h-0.7v0.3H322V229h-0.7v0.3h-0.2V229h-0.7v0.3
				h-0.2V229h-0.7v0.3h-0.2V229h-0.7v0.3c-0.1,0-0.1,0-0.2,0l-0.1-0.4l-0.7,0.1l0.1,0.4c-0.1,0-0.1,0-0.2,0.1l-0.2-0.3l-0.6,0.3
				l0.2,0.3l-0.1,0.1l-0.3-0.3l-0.5,0.5l0.3,0.2l-0.1,0.1l-0.3-0.2l-0.3,0.6l0.3,0.2c0,0.1,0,0.1-0.1,0.2l-0.4-0.1l-0.1,0.7h0.4l0,0
				v0.1l-0.4,0.1l0.1,0.7l0.4-0.1c0,0.1,0,0.1,0.1,0.2l-0.3,0.2l0.3,0.6l0.3-0.2l0.1,0.1l-0.3,0.3l0.5,0.5l0.3-0.3l0.1,0.1l-0.2,0.3
				l0.6,0.3l0.2-0.3c0.1,0,0.1,0,0.2,0.1l-0.1,0.4l0.7,0.1l0.1-0.4c0.1,0,0.1,0,0.2,0l0,0v0.3h0.7v0.1h0.2v0.3h0.7V235h0.2v0.3h0.7
				V235h0.2v0.3h0.7V235h0.2v0.3h0.7V235h0.2v0.3h0.7V235h0.2v0.3h0.7V235h0.2v0.3h0.7V235h0.2v0.3h0.7V235h0.2v0.3h0.7V235h0.2v0.3
				h0.7V235h0.2v0.3h0.7V235h0.2v0.3h0.7V235h0.2v0.3h0.7V235h0.2v0.3h0.7V235c0.1,0,0.1,0,0.2,0l0.1,0.4l0.7-0.1l-0.1-0.4
				c0.1,0,0.1,0,0.2-0.1l0.2,0.3l0.6-0.3l-0.2-0.3l0.1-0.1l0.3,0.3l0.5-0.5l-0.3-0.2l0.1-0.1l0.3,0.2l0.3-0.6l-0.3-0.2
				c0-0.1,0-0.1,0.1-0.2l0.4,0.1l0.1-0.7L334.6,232.2L334.6,232.2z"/>
			<path class="st7" d="M336.4,226.7h-1.6c0,0,0,0,0-0.1v-6.8c0-0.3-0.3-0.6-0.6-0.6h-1.1v-1.7c0-0.3-0.3-0.6-0.6-0.6H322
				c-0.3,0-0.6,0.3-0.6,0.6v1.7h-0.7c-0.3,0-0.6,0.3-0.6,0.6v2.3h-3.3h-0.1v-14.4c0-0.1-0.1-0.3-0.3-0.3h-1.2
				c-0.1,0-0.3,0.1-0.3,0.3v1.1h-3.8v2.3h1.4c0,0,0,0,0,0.1l0,0l0,0l0,0l0,0c0,0,0,0,0,0.1l0,0l0,0l0,0l0,0l0,0l0,0l0,0l0,0l0,0l0,0
				l0,0l0,0l0,0l0,0l0,0l0,0l0,0l0,0l0,0l0,0l0,0l0,0l0,0l0,0l0,0l0,0l0,0l0,0v0.1l0,0l0,0l0,0l0,0l0,0v0.1l0,0l0,0
				c0,0,0,0.1,0.1,0.1l0,0l0,0l0,0l0,0l0,0l0,0v0.1l0,0l0,0l0,0l0,0l0,0l0,0l0,0l0,0l0,0l0,0l0,0v0.1l0,0v0.1l0,0l0,0l0,0v0.1l0,0
				l0,0l0,0l0,0l0,0l0,0l0,0l0,0l0,0l0,0l0,0l0,0l0,0l0,0l0,0l0,0l0,0v0.1l0,0l0,0l0,0l0,0l0,0l0,0l0,0l0,0l0,0l0,0l0,0l0,0l0,0l0,0
				v0.1l0,0l0,0v0.1v0.1l0,0l0,0l0,0l0,0l0,0l0,0l0,0l0,0l0,0l0,0l0,0l0,0c0,0,0,0,0,0.1l0,0v0.1l0,0l0,0l0,0l0,0l0,0v0.1l0,0v0.1
				v0.1l0,0l0,0l0,0l0,0l0,0c0,0,0,0,0,0.1l0,0l0,0l0,0l0,0l0,0c0,0,0,0.1,0,0.2l0,0l0,0c0,0,0,0,0,0.1v0.1l0,0l0,0l0,0v0.1l0,0l0,0
				l0,0l0,0l0,0c-0.1,0.1,0,0.1,0,0.2l0,0l0,0l0,0l0,0l0,0l0,0l0,0l0,0l0,0h-1.4v3h1.4l0,0v0.1v0.1l0,0l0,0l0,0l0,0l0,0
				c0,0,0,0,0,0.1l0,0l0,0l0,0l0,0l0,0l0,0l0,0l0,0l0,0l0,0l0,0l0,0l0,0l0,0l0,0l0,0l0,0l0,0l0,0c0,0,0,0,0,0.1l0,0l0,0l0,0l0,0l0,0
				l0,0l0,0l0,0l0,0l0,0l0,0l0,0l0,0v0.1c0,0,0,0,0,0.1c0,0,0,0,0,0.1c0,0,0,0,0,0.1l0,0l0,0c0,0,0,0,0,0.1l0,0l0,0l0,0l0,0
				c0,0,0,0,0,0.1l0,0c0,0,0,0,0,0.1v0.1v0.1l0,0l0,0l0,0l0,0l0,0l0,0l0,0l0,0l0,0l0,0l0,0l0,0c0,0,0,0,0,0.1l0,0l0,0l0,0l0,0l0,0
				l0,0l0,0l0,0l0,0v0.1l0,0l0,0c0,0,0,0,0,0.1l0,0l0,0v0.1c0,0,0,0,0,0.1c0,0,0,0,0,0.1l0,0l0,0l0,0l0,0l0,0c0,0,0,0,0,0.1l0,0l0,0
				l0,0v0.1l0,0c0,0,0,0,0,0.1l0,0l0,0l0,0l0,0l0,0v0.1l0,0l0,0l0,0l0,0l0,0l0,0l0,0l0,0c0,0,0,0.1,0,0.2l0,0l0,0l0,0l0,0l0,0l0,0
				c0,0,0,0,0,0.1l0,0l0,0l0,0c0,0,0,0,0,0.1l0,0l0,0l0,0l0,0v0.1l0,0l0,0v0.1l0,0l0,0l0,0l0,0c0,0,0,0,0,0.1v0.1l0,0l0,0l0,0l0,0
				c0,0,0,0,0,0.1l0,0l0,0l0,0v0.1l0,0l0,0l0,0v0.1v0.1l0,0c-0.5,0-0.5,0.1-0.5,0.1v0.4l0,0c-0.2,0.2-0.4,0.5-0.4,0.8v6.7
				c0,0,0,0,0,0.1l0,0l0,0v0.1l0,0c0.2,0.2,0.9,0.2,1,0.2s0.8,0,1-0.2l0,0v-0.1c0,0,0,0,0-0.1l0,0l0,0v-0.1v-6.7
				c0-0.4-0.2-0.7-0.4-0.8l0,0v-0.4c0-0.1,0-0.1-0.4-0.1l0,0l0,0l0,0l0,0l0,0l0,0l0,0l0,0l0,0l0,0V220l0,0l0,0l0,0c0,0,0,0,0-0.1
				l0,0l0,0l0,0l0,0l0,0v-0.1l0,0l0,0l0,0l0,0l0,0l0,0l0,0l0,0l0,0l0,0l0,0v-0.1l0,0l0,0l0,0l0,0l0,0c0.1-0.1,0-0.1,0-0.2l0,0l0,0
				l0,0l0,0l0,0l0,0c0,0,0,0,0-0.1l0,0l0,0l0,0v-0.1l0,0c0,0,0,0,0-0.1l0,0l0,0l0,0l0,0l0,0l0,0l0,0l0,0l0,0l0,0l0,0l0,0l0,0l0,0
				v-0.1l0,0l0,0l0,0l0,0l0,0l0,0l0,0l0,0l0,0l0,0l0,0l0,0l0,0c0,0,0,0,0-0.1l0,0l0,0c0,0,0,0,0-0.1l0,0l0,0l0,0l0,0l0,0l0,0l0,0
				l0,0l0,0v-0.1l0,0l0,0l0,0l0,0l0,0l0,0l0,0v-0.1c0,0,0,0,0-0.1c0,0,0,0,0-0.1l0,0l0,0c0,0,0,0,0-0.1l0,0l0,0l0,0c0,0,0,0,0-0.1
				l0,0l0,0l0,0l0,0l0,0v-0.1l0,0l0,0l0,0l0,0l0,0l0,0l0,0l0,0l0,0l0,0l0,0l0,0l0,0l0,0l0,0l0,0l0,0l0,0l0,0l0,0l0,0l0,0l0,0l0,0
				c0,0,0,0,0-0.1l0,0l0,0c0,0,0,0,0-0.1l0,0l0,0l0,0l0,0c0,0,0,0,0-0.1l0,0l0,0l0,0l0,0l0,0l0,0l0,0l0,0v-0.1c0,0,0,0,0-0.1
				c0,0,0,0,0-0.1l0,0l0,0l0,0l0,0l0,0l0,0c0,0,0,0,0-0.1l0,0l0,0l0,0l0,0l0,0l0,0c0,0,0,0,0-0.1h2v10.4c0,0.1,0.1,0.3,0.3,0.3h1.2
				c0.1,0,0.3-0.1,0.3-0.3v-0.1h19.5c0.4,0,0.7-0.3,0.7-0.8v-0.3C337.1,227,336.7,226.7,336.4,226.7z M316.8,225.9
				C316.9,225.9,316.9,226,316.8,225.9h3.4v0.7c0,0,0,0,0,0.1h-3.5v-0.8H316.8z M313.2,215.1L313.2,215.1L313.2,215.1L313.2,215.1
				L313.2,215.1L313.2,215.1L313.2,215.1c0-0.1,0-0.1,0-0.1s0,0,0-0.1l0,0l0,0c0.1,0,0.1-0.1,0.1-0.1l0,0l0,0l0,0l0,0l0,0l0,0
				c0,0,0,0,0-0.1l0,0l0,0l0,0l0,0l0,0l0,0v-0.1l0,0l0,0l0,0l0,0l0,0l0,0v-0.1l0,0l0,0l0,0l0,0l0,0l0,0c0,0,0,0,0-0.1l0,0l0,0l0,0
				l0,0l0,0l0,0v-0.1l0,0l0,0l0,0c0,0,0,0,0-0.1l0,0l0,0l0,0l0,0l0,0l0,0l0,0v-0.1l0,0l0,0l0,0l0,0l0,0l0,0l0,0l0,0l0,0l0,0l0,0l0,0
				l0,0c0,0,0,0,0-0.1l0,0v-0.1l0,0l0,0l0,0l0,0l0,0l0,0l0,0l0,0l0,0l0,0l0,0l0,0l0,0l0,0l0,0l0,0l0,0c0,0,0,0,0-0.1l0,0l0,0l0,0
				l0,0l0,0c0,0,0,0,0-0.1l0,0l0,0l0,0l0,0v-0.1l0,0l0,0l0,0l0,0l0,0l0,0v-0.1l0,0l0,0l0,0l0,0l0,0l0,0l0,0l0,0v-0.1l0,0l0,0l0,0
				l0,0v-0.1l0,0c0,0,0,0,0-0.1v-0.1l0,0l0,0l0,0V213l0,0l0,0l0,0c0,0,0,0,0-0.1l0,0l0,0l0,0l0,0l0,0l0,0l0,0c0-0.1,0-0.1,0-0.1l0,0
				l0,0l0,0l0,0l0,0l0,0l0,0l0,0l0,0v-0.1l0,0l0,0l0,0l0,0l0,0l0,0c0,0,0,0,0-0.1l0,0l0,0l0,0l0,0c0.1-0.1,0-0.1,0-0.2l0,0l0,0l0,0
				l0,0l0,0l0,0l0,0l0,0l0,0l0,0l0,0l0,0l0,0l0,0h2v4L313.2,215.1L313.2,215.1z"/>
		</g>
		<g>
			<path class="st7" d="M302.5,210.8H302v-0.3h-3.8v0.3h-1.4v-1c0-0.3-0.3-0.6-0.6-0.6h-0.8h-2.7h-2.4c-0.3,0-0.6,0.3-0.6,0.6v1
				h-1.3v-0.3h-3.8v0.3h-0.5v1.5h0.5v0.2h3.8v-0.2h1.3v2.9c0,0.3,0.3,0.6,0.6,0.6h0.8c0,0.1-0.1,0.2-0.1,0.3v2
				c0,0.3,0.3,0.6,0.6,0.6h0.6v4.9h-0.8v3.2h3.7v-3.2h-0.6v-4.9h0.2c0.3,0,0.6-0.3,0.6-0.6v-2c0-0.1,0-0.2-0.1-0.3h0.2h0.8
				c0.3,0,0.6-0.3,0.6-0.6v-2.9h1.4v0.2h3.8v-0.2h0.6v-1.5H302.5z"/>
		</g>
	</g>
	<g>
		<g>
			<g>
				<g>
					<circle class="st4" cx="297" cy="103.7" r="6.5"/>
					<path class="st5" d="M297,110.8c-3.9,0-7-3.2-7-7c0-3.9,3.2-7,7-7s7,3.2,7,7C304.1,107.6,300.9,110.8,297,110.8z M297,97.7
						c-3.3,0-6.1,2.7-6.1,6.1c0,3.3,2.7,6.1,6.1,6.1c3.3,0,6.1-2.7,6.1-6.1S300.4,97.7,297,97.7z"/>
				</g>
				<g>
					<circle class="st6" cx="297" cy="103.7" r="3.7"/>
					<path class="st5" d="M297,107.9c-2.3,0-4.1-1.9-4.1-4.1c0-2.3,1.9-4.1,4.1-4.1s4.1,1.9,4.1,4.1
						C301.2,106,299.3,107.9,297,107.9z M297,100.6c-1.7,0-3.2,1.4-3.2,3.2s1.4,3.2,3.2,3.2c1.7,0,3.2-1.4,3.2-3.2
						S298.8,100.6,297,100.6z"/>
				</g>
			</g>
			<g>
				<g>
					<circle class="st4" cx="372.5" cy="104.2" r="6.5"/>
					<path class="st5" d="M372.5,111.2c-3.9,0-7-3.2-7-7c0-3.9,3.2-7,7-7s7,3.2,7,7C379.6,108.1,376.4,111.2,372.5,111.2z
						 M372.5,98.2c-3.3,0-6.1,2.7-6.1,6.1c0,3.3,2.7,6.1,6.1,6.1c3.3,0,6.1-2.7,6.1-6.1S375.9,98.2,372.5,98.2z"/>
				</g>
				<g>
					<circle class="st6" cx="372.5" cy="104.2" r="3.7"/>
					<path class="st5" d="M372.5,108.4c-2.3,0-4.1-1.9-4.1-4.1c0-2.3,1.9-4.1,4.1-4.1s4.1,1.9,4.1,4.1
						C376.7,106.5,374.8,108.4,372.5,108.4z M372.5,101c-1.7,0-3.2,1.4-3.2,3.2s1.4,3.2,3.2,3.2s3.2-1.4,3.2-3.2
						S374.3,101,372.5,101z"/>
				</g>
			</g>
			<g>
				<path class="st1" d="M388,96.2c-0.1-6.7-1.5-6.3-2.3-7.2s-6.6-4-6.6-4l-1.8-0.2c-7.9-10.6-20.7-19.5-22.7-20.9s-5.7-1.7-5.7-1.7
					s-54.7-0.1-62.4,0.1c-7.6,0.2-3.5-1.4-6,3.4s-2.4,30.7-2.4,30.7h-0.8v8.9h6h6c-0.1-0.5-0.2-1-0.2-1.6c0-4.3,3.5-7.8,7.8-7.8
					s7.8,3.5,7.8,7.8c0,0.5-0.1,1.1-0.2,1.6c2.8,0,51.2,0,60,0c0-0.3-0.1-0.7-0.1-1c0-4.4,3.6-8,8-8s8,3.6,8,8c0,0.2,0,0.5,0,0.7
					l8.5-0.2v-8.5H388V96.2z"/>
				<path class="st5" d="M365.2,105.8h-61.1l0.1-0.6c0.1-0.5,0.1-1,0.1-1.5c0-4-3.3-7.3-7.3-7.3s-7.3,3.3-7.3,7.3c0,0.5,0,1,0.1,1.5
					l0.1,0.6h-13.1V96h0.8c0-3.7,0.1-25.9,2.4-30.5c0.8-1.6,0.9-2.4,0.9-2.9c0-0.3,0.1-0.7,0.4-0.8c0.2-0.1,0.5-0.1,1.1,0
					c0.7,0.1,1.9,0.1,4,0.1c7.5-0.2,61.8-0.1,62.4-0.1l0,0c0.2,0,3.9,0.2,5.9,1.8c0.1,0.1,0.3,0.2,0.6,0.4c1.6,1.1,5.3,3.8,9.5,7.4
					c5.2,4.5,9.4,8.8,12.6,13l1.7,0.2h0.1c0.6,0.3,5.9,3.2,6.8,4.1c0.1,0.1,0.3,0.2,0.4,0.4c0.4,0.3,1,0.7,1.4,1.8s0.6,2.7,0.7,4.9
					h0.9v9.5l-9.5,0.2V105c0-0.2,0-0.4,0-0.6c0-4.1-3.3-7.5-7.5-7.5c-4.1,0-7.5,3.3-7.5,7.5c0,0.3,0,0.6,0.1,1L365.2,105.8z
					 M305.3,104.8h58.8c0-0.2,0-0.4,0-0.5c0-4.7,3.8-8.4,8.4-8.4s8.4,3.8,8.4,8.4c0,0.1,0,0.1,0,0.2l7.4-0.2v-7.6h-0.9v-0.5
					c-0.1-5.3-0.9-5.9-1.6-6.4c-0.2-0.1-0.4-0.3-0.6-0.5c-0.6-0.6-4.2-2.7-6.4-3.9l-1.9-0.2l-0.1-0.2c-4.9-6.5-12.3-13.4-22-20.4
					c-0.2-0.2-0.4-0.3-0.6-0.4c-1.8-1.3-5.2-1.5-5.4-1.6c-1.2,0-54.8-0.1-62.3,0.1c-2.2,0.1-3.4,0-4.1-0.1c-0.2,0-0.3,0-0.5,0l0,0
					c0,0.5-0.1,1.5-1,3.2c-1,1.9-1.7,7.8-2.1,17c-0.3,7-0.3,13.5-0.3,13.5v0.5h-0.8v7.9h10.9c0-0.4-0.1-0.7-0.1-1.1
					c0-4.6,3.7-8.3,8.3-8.3s8.3,3.7,8.3,8.3C305.3,104.1,305.3,104.4,305.3,104.8z"/>
			</g>
			<g>
				<path class="st6" d="M354.3,72.7c0.9,0,1.8,0.1,2.8,0.1c1.4,0,3.1-0.2,4.4,0.5c0.8,0.5,1.4,1.2,2,1.9c0.7,0.7,1.4,1.4,2,2.2
					c1.4,1.7,2.8,3.4,4.2,5.1c0.6,0.8,1.2,1.7,1.3,2.6c0.1,0.4,0,0.7-0.1,1.1c-0.7,1.8-3.6,1.4-5,1c-1.3-0.4-2.5-1-3.8-1.4
					c-2.3-0.7-4.8-0.7-7.3-1c-1.3-0.1-2.6-0.5-2.6-2l-0.2-8C352.2,73.6,353.1,72.6,354.3,72.7z"/>
				<path class="st5" d="M368.3,88.1c-0.8,0-1.7-0.2-2.5-0.4c-0.7-0.2-1.3-0.5-2-0.7c-0.6-0.2-1.2-0.5-1.8-0.7
					c-1.7-0.5-3.6-0.7-5.4-0.8c-0.6,0-1.2-0.1-1.8-0.2c-0.8-0.1-1.5-0.3-2-0.6c-0.7-0.4-1.1-1.1-1.1-1.9l-0.2-8
					c0-0.7,0.3-1.4,0.8-1.9s1.2-0.8,1.9-0.7l2.8,0.1c0.3,0,0.6,0,1,0c1.2,0,2.6,0,3.7,0.6c0.7,0.4,1.3,1,1.8,1.6
					c0.1,0.1,0.2,0.2,0.3,0.3c0.2,0.3,0.5,0.5,0.7,0.8c0.4,0.5,0.9,0.9,1.3,1.4c1.2,1.4,2.4,2.9,3.6,4.4c0.2,0.3,0.4,0.5,0.6,0.8
					c0.6,0.7,1.3,1.7,1.4,2.9c0.1,0.5,0,1-0.1,1.3C371,87.7,369.7,88.1,368.3,88.1z M354.3,73.2c-0.4,0-0.8,0.2-1.1,0.5
					c-0.3,0.3-0.5,0.7-0.5,1.2l0.2,8c0,0.6,0.3,1.4,2.2,1.6c0.6,0.1,1.2,0.1,1.8,0.1c1.9,0.1,3.8,0.3,5.6,0.9
					c0.6,0.2,1.3,0.4,1.9,0.7c0.6,0.2,1.3,0.5,1.9,0.7c1.4,0.4,3.8,0.7,4.4-0.7c0.1-0.2,0.1-0.5,0.1-0.8c-0.1-0.7-0.5-1.5-1.2-2.4
					c-0.2-0.3-0.4-0.5-0.6-0.8c-1.2-1.4-2.4-2.9-3.6-4.4c-0.4-0.5-0.9-0.9-1.3-1.4c-0.2-0.3-0.5-0.5-0.7-0.8
					c-0.1-0.1-0.2-0.2-0.3-0.3c-0.5-0.6-1-1.1-1.6-1.5c-0.9-0.5-2.1-0.5-3.2-0.5c-0.3,0-0.7,0-1,0L354.3,73.2L354.3,73.2z"/>
			</g>
			<path class="st5" d="M284.6,70.5c-0.7,0-1.4,0-2,0c-0.1,0-0.2,0.1-0.2,0.2v0.7c0,0.1,0.1,0.2,0.2,0.2c0.6,0,1.3,0,2,0
				c0.1,0,0.2-0.1,0.2-0.2v-0.7C284.7,70.5,284.7,70.5,284.6,70.5z"/>
			<path class="st5" d="M288,70.4c-0.7,0-1.4,0-2,0c-0.1,0-0.2,0.1-0.2,0.2v0.7c0,0.1,0.1,0.2,0.2,0.2c0.6,0,1.3,0,2,0
				c0.1,0,0.2-0.1,0.2-0.2v-0.7C288.2,70.5,288.1,70.4,288,70.4z"/>
			<g>
				<path class="st5" d="M366.4,72.8c-0.4-0.6-1.5-1.1-3.4-1.5c-2.7-0.5-7-0.8-12.8-0.8c-5.7,0-15.4,0-25.9,0c-11,0-22.7,0-31.5,0
					c0,0-0.1,0-0.1,0.1v0.9c0,0,0,0.1,0.1,0.1c8.7,0,20.5,0,31.5,0c10.5,0,20.2,0,25.9,0c5.8,0,10.1,0.3,12.8,0.9
					c1.7,0.3,2.3,0.7,2.5,0.9h0.1l0,0c0,0,0,0,0.1,0l0.8,0.4h0.1C366.5,73.3,366.5,73.1,366.4,72.8z"/>
				<path class="st5" d="M291.4,70.4c-0.7,0-1.3,0-2,0c-0.1,0-0.2,0.1-0.2,0.2v0.7c0,0.1,0.1,0.2,0.2,0.2c0.6,0,1.3,0,2,0
					c0.1,0,0.2-0.1,0.2-0.2v-0.7C291.6,70.5,291.5,70.4,291.4,70.4z"/>
			</g>
			<rect x="348.6" y="71.4" class="st5" width="1" height="33.8"/>
			<path class="st5" d="M353.3,90H351c-0.4,0-0.6-0.3-0.6-0.6v-1.9c0-0.4,0.3-0.6,0.6-0.6h2.3c0.4,0,0.6,0.3,0.6,0.6v1.9
				C353.9,89.7,353.7,90,353.3,90z"/>
			<path class="st5" d="M388.9,96.8h-15.8c-0.3,0-0.5-0.2-0.5-0.5s0.2-0.5,0.5-0.5h15.8c0.3,0,0.5,0.2,0.5,0.5
				S389.2,96.8,388.9,96.8z"/>
		</g>
		<g>
			<path class="st7" d="M314,89.7h-4.4c-0.4,0-0.8-0.4-0.8-0.8c0-0.4,0.4-0.8,0.8-0.8h4.4c0.4,0,0.8,0.4,0.8,0.8
				S314.4,89.7,314,89.7z"/>
			<path class="st7" d="M311.8,91.8c-0.4,0-0.8-0.4-0.8-0.8v-4.4c0-0.4,0.4-0.8,0.8-0.8s0.8,0.4,0.8,0.8V91
				C312.6,91.5,312.3,91.8,311.8,91.8z"/>
		</g>
		<g>
			<path class="st7" d="M342.6,98.2v-0.1L343,98l-0.1-0.7l-0.4,0.1c0-0.1,0-0.1-0.1-0.2l0.3-0.2l-0.3-0.6l-0.3,0.2l-0.1-0.1l0.3-0.3
				l-0.5-0.5l-0.3,0.3l-0.1-0.1l0.2-0.3l-0.6-0.3l-0.2,0.3c-0.1,0-0.1,0-0.2-0.1l0.1-0.4L340,95l-0.1,0.4c-0.1,0-0.1,0-0.2,0l0,0V95
				H339v0.3h-0.2V95h-0.7v0.3h-0.2V95h-0.7v0.3H337V95h-0.7v0.3h-0.2V95h-0.7v0.3h-0.2V95h-0.7v0.3h-0.2V95h-0.7v0.3h-0.2V95h-0.7
				v0.3h-0.2V95h-0.7v0.3h-0.2V95H331v0.3h-0.2V95h-0.7v0.3H330V95h-0.7v0.3h-0.2V95h-0.7v0.3h-0.2V95h-0.7v0.3h-0.2V95h-0.7v0.3
				c-0.1,0-0.1,0-0.2,0l-0.1-0.4l-0.7,0.1l0.1,0.4c-0.1,0-0.1,0-0.2,0.1l-0.2-0.3l-0.6,0.3l0.2,0.3l-0.1,0.1l-0.3-0.3l-0.5,0.5
				l0.3,0.2l-0.1,0.1l-0.3-0.2l-0.3,0.6l0.3,0.2c0,0.1,0,0.1-0.1,0.2l-0.4-0.1l-0.1,0.7h0.4l0,0v0.1l-0.4,0.1l0.1,0.7l0.4-0.1
				c0,0.1,0,0.1,0.1,0.2l-0.3,0.2l0.3,0.6l0.3-0.2l0.1,0.1l-0.3,0.3l0.5,0.5l0.3-0.3l0.1,0.1l-0.2,0.3l0.6,0.3l0.2-0.3
				c0.1,0,0.1,0,0.2,0.1l-0.1,0.4l0.7,0.1l0.1-0.4c0.1,0,0.1,0,0.2,0l0,0v0.3h0.7v0.1h0.2v0.3h0.7V101h0.2v0.3h0.7V101h0.2v0.3h0.7
				V101h0.2v0.3h0.7V101h0.2v0.3h0.7V101h0.2v0.3h0.7V101h0.2v0.3h0.7V101h0.2v0.3h0.7V101h0.2v0.3h0.7V101h0.2v0.3h0.7V101h0.2v0.3
				h0.7V101h0.2v0.3h0.7V101h0.2v0.3h0.7V101h0.2v0.3h0.7V101c0.1,0,0.1,0,0.2,0l0.1,0.4l0.7-0.1l-0.1-0.4c0.1,0,0.1,0,0.2-0.1
				l0.2,0.3l0.6-0.3l-0.2-0.3l0.1-0.1l0.3,0.3l0.5-0.5l-0.3-0.2l0.1-0.1l0.3,0.2l0.3-0.6l-0.3-0.2c0-0.1,0-0.1,0.1-0.2l0.4,0.1
				l0.1-0.7L342.6,98.2L342.6,98.2z"/>
			<path class="st7" d="M344.4,92.7h-1.6c0,0,0,0,0-0.1v-6.8c0-0.3-0.3-0.6-0.6-0.6h-1.1v-1.7c0-0.3-0.3-0.6-0.6-0.6H330
				c-0.3,0-0.6,0.3-0.6,0.6v1.7h-0.7c-0.3,0-0.6,0.3-0.6,0.6v2.3h-3.3h-0.1V73.7c0-0.1-0.1-0.3-0.3-0.3h-1.2c-0.1,0-0.3,0.1-0.3,0.3
				v1.1h-3.8v2.3h1.4c0,0,0,0,0,0.1l0,0l0,0l0,0l0,0c0,0,0,0,0,0.1l0,0l0,0l0,0l0,0l0,0l0,0l0,0l0,0l0,0l0,0l0,0l0,0l0,0l0,0l0,0
				l0,0l0,0l0,0l0,0l0,0l0,0l0,0l0,0l0,0l0,0l0,0l0,0l0,0v0.1l0,0l0,0l0,0l0,0l0,0v0.1l0,0l0,0c0,0,0,0.1,0.1,0.1l0,0l0,0l0,0l0,0
				l0,0l0,0v0.1l0,0l0,0l0,0l0,0l0,0l0,0l0,0l0,0l0,0l0,0l0,0v0.1l0,0v0.1l0,0l0,0l0,0V78l0,0l0,0l0,0l0,0l0,0l0,0l0,0l0,0l0,0l0,0
				l0,0l0,0l0,0l0,0l0,0l0,0l0,0v0.1l0,0l0,0l0,0l0,0l0,0l0,0l0,0l0,0l0,0l0,0l0,0l0,0l0,0l0,0v0.1l0,0l0,0v0.1v0.1l0,0l0,0l0,0l0,0
				l0,0l0,0l0,0l0,0l0,0l0,0l0,0l0,0c0,0,0,0,0,0.1l0,0v0.1l0,0l0,0l0,0l0,0l0,0v0.1l0,0v0.1v0.1l0,0l0,0l0,0l0,0l0,0c0,0,0,0,0,0.1
				l0,0l0,0l0,0l0,0l0,0c0,0,0,0.1,0,0.2l0,0l0,0c0,0,0,0,0,0.1v0.1l0,0l0,0l0,0v0.1l0,0l0,0l0,0l0,0l0,0c-0.1,0.1,0,0.1,0,0.2l0,0
				l0,0l0,0l0,0l0,0l0,0l0,0l0,0l0,0h-1.4v3h1.4l0,0v0.1v0.1l0,0l0,0l0,0l0,0l0,0c0,0,0,0,0,0.1l0,0l0,0l0,0l0,0l0,0l0,0l0,0l0,0
				l0,0l0,0l0,0l0,0l0,0l0,0l0,0l0,0l0,0l0,0l0,0c0,0,0,0,0,0.1l0,0l0,0l0,0l0,0l0,0l0,0l0,0l0,0l0,0l0,0l0,0l0,0l0,0v0.1
				c0,0,0,0,0,0.1c0,0,0,0,0,0.1c0,0,0,0,0,0.1l0,0l0,0c0,0,0,0,0,0.1l0,0l0,0l0,0l0,0c0,0,0,0,0,0.1l0,0c0,0,0,0,0,0.1v0.1V84l0,0
				l0,0l0,0l0,0l0,0l0,0l0,0l0,0l0,0l0,0l0,0l0,0c0,0,0,0,0,0.1l0,0l0,0l0,0l0,0l0,0l0,0l0,0l0,0l0,0v0.1l0,0l0,0c0,0,0,0,0,0.1l0,0
				l0,0v0.1c0,0,0,0,0,0.1c0,0,0,0,0,0.1l0,0l0,0l0,0l0,0l0,0c0,0,0,0,0,0.1l0,0l0,0l0,0v0.1l0,0c0,0,0,0,0,0.1l0,0l0,0l0,0l0,0l0,0
				V85l0,0l0,0l0,0l0,0l0,0l0,0l0,0l0,0c0,0,0,0.1,0,0.2l0,0l0,0l0,0l0,0l0,0l0,0c0,0,0,0,0,0.1l0,0l0,0l0,0c0,0,0,0,0,0.1l0,0l0,0
				l0,0l0,0v0.1l0,0l0,0v0.1l0,0l0,0l0,0l0,0c0,0,0,0,0,0.1v0.1l0,0l0,0l0,0l0,0c0,0,0,0,0,0.1l0,0l0,0l0,0V86l0,0l0,0l0,0v0.1v0.1
				l0,0c-0.5,0-0.5,0.1-0.5,0.1v0.4l0,0c-0.2,0.2-0.4,0.5-0.4,0.8v6.7c0,0,0,0,0,0.1l0,0l0,0v0.1l0,0c0.2,0.2,0.9,0.2,1,0.2
				s0.8,0,1-0.2l0,0v-0.1c0,0,0,0,0-0.1l0,0l0,0v-0.1v-6.7c0-0.4-0.2-0.7-0.4-0.8l0,0v-0.4c0-0.1,0-0.1-0.4-0.1l0,0l0,0l0,0l0,0l0,0
				l0,0l0,0l0,0l0,0l0,0V86l0,0l0,0l0,0c0,0,0,0,0-0.1l0,0l0,0l0,0l0,0l0,0v-0.1l0,0l0,0l0,0l0,0l0,0l0,0l0,0l0,0l0,0l0,0l0,0v-0.1
				l0,0l0,0l0,0l0,0l0,0c0.1-0.1,0-0.1,0-0.2l0,0l0,0l0,0l0,0l0,0l0,0c0,0,0,0,0-0.1l0,0l0,0l0,0v-0.1l0,0c0,0,0,0,0-0.1l0,0l0,0
				l0,0l0,0l0,0l0,0l0,0l0,0l0,0l0,0l0,0l0,0l0,0l0,0v-0.1l0,0l0,0l0,0l0,0l0,0l0,0l0,0l0,0l0,0l0,0l0,0l0,0l0,0c0,0,0,0,0-0.1l0,0
				l0,0c0,0,0,0,0-0.1l0,0l0,0l0,0l0,0l0,0l0,0l0,0l0,0l0,0v-0.1l0,0l0,0l0,0l0,0l0,0l0,0l0,0v-0.1c0,0,0,0,0-0.1c0,0,0,0,0-0.1l0,0
				l0,0c0,0,0,0,0-0.1l0,0l0,0l0,0c0,0,0,0,0-0.1l0,0l0,0l0,0l0,0l0,0v-0.1l0,0l0,0l0,0l0,0l0,0l0,0l0,0l0,0l0,0l0,0l0,0l0,0l0,0
				l0,0l0,0l0,0l0,0l0,0l0,0l0,0l0,0l0,0l0,0l0,0c0,0,0,0,0-0.1l0,0l0,0c0,0,0,0,0-0.1l0,0l0,0l0,0l0,0c0,0,0,0,0-0.1l0,0l0,0l0,0
				l0,0l0,0l0,0l0,0l0,0v-0.1c0,0,0,0,0-0.1c0,0,0,0,0-0.1l0,0l0,0l0,0l0,0l0,0l0,0c0,0,0,0,0-0.1l0,0l0,0l0,0l0,0l0,0l0,0
				c0,0,0,0,0-0.1h2v10.4c0,0.1,0.1,0.3,0.3,0.3h1.2c0.1,0,0.3-0.1,0.3-0.3v-0.1h19.5c0.4,0,0.7-0.3,0.7-0.8v-0.3
				C345.1,93,344.7,92.7,344.4,92.7z M324.8,91.9C324.9,91.9,324.9,92,324.8,91.9h3.4v0.7c0,0,0,0,0,0.1h-3.5v-0.8H324.8z
				 M321.2,81.1L321.2,81.1L321.2,81.1L321.2,81.1L321.2,81.1L321.2,81.1L321.2,81.1c0-0.1,0-0.1,0-0.1s0,0,0-0.1l0,0l0,0
				c0.1,0,0.1-0.1,0.1-0.1l0,0l0,0l0,0l0,0l0,0l0,0c0,0,0,0,0-0.1l0,0l0,0l0,0l0,0l0,0l0,0v-0.1l0,0l0,0l0,0l0,0l0,0l0,0v-0.1l0,0
				l0,0l0,0l0,0l0,0l0,0c0,0,0,0,0-0.1l0,0l0,0l0,0l0,0l0,0l0,0v-0.1l0,0l0,0l0,0c0,0,0,0,0-0.1l0,0l0,0l0,0l0,0l0,0l0,0l0,0v-0.1
				l0,0l0,0l0,0l0,0l0,0l0,0l0,0l0,0l0,0l0,0l0,0l0,0l0,0c0,0,0,0,0-0.1l0,0v-0.1l0,0l0,0l0,0l0,0l0,0l0,0l0,0l0,0l0,0l0,0l0,0l0,0
				l0,0l0,0l0,0l0,0l0,0c0,0,0,0,0-0.1l0,0l0,0l0,0l0,0l0,0c0,0,0,0,0-0.1l0,0l0,0l0,0l0,0v-0.1l0,0l0,0l0,0l0,0l0,0l0,0v-0.1l0,0
				l0,0l0,0l0,0l0,0l0,0l0,0l0,0v-0.1l0,0l0,0l0,0l0,0v-0.1l0,0c0,0,0,0,0-0.1v-0.1l0,0l0,0l0,0V79l0,0l0,0l0,0c0,0,0,0,0-0.1l0,0
				l0,0l0,0l0,0l0,0l0,0l0,0c0-0.1,0-0.1,0-0.1l0,0l0,0l0,0l0,0l0,0l0,0l0,0l0,0l0,0v-0.1l0,0l0,0l0,0l0,0l0,0l0,0c0,0,0,0,0-0.1
				l0,0l0,0l0,0l0,0c0.1-0.1,0-0.1,0-0.2l0,0l0,0l0,0l0,0l0,0l0,0l0,0l0,0l0,0l0,0l0,0l0,0l0,0l0,0h2v4L321.2,81.1L321.2,81.1z"/>
		</g>
		<g>
			<path class="st7" d="M310.5,76.8H310v-0.3h-3.8v0.3h-1.4v-1c0-0.3-0.3-0.6-0.6-0.6h-0.8h-2.7h-2.4c-0.3,0-0.6,0.3-0.6,0.6v1h-1.3
				v-0.3h-3.8v0.3h-0.5v1.5h0.5v0.2h3.8v-0.2h1.3v2.9c0,0.3,0.3,0.6,0.6,0.6h0.8c0,0.1-0.1,0.2-0.1,0.3v2c0,0.3,0.3,0.6,0.6,0.6h0.6
				v4.9h-0.8v3.2h3.7v-3.2h-0.6v-4.9h0.2c0.3,0,0.6-0.3,0.6-0.6v-2c0-0.1,0-0.2-0.1-0.3h0.2h0.8c0.3,0,0.6-0.3,0.6-0.6v-2.9h1.4v0.2
				h3.8v-0.2h0.6v-1.5H310.5z"/>
		</g>
	</g>
</g>
<g>
	<g>
		<path class="st8" d="M259.4,408.8"/>
		<path class="st8" d="M208.6,380.9"/>
		<g>
			<path class="st1" d="M281.3,402c-1.7-4.3-7.3-5.3-12.2-6.5c-4.9-1.2-7.3-4-7.3-4c-12.6-10.5-19.9-9.9-19.9-9.9s-44.9,0-50.6,0
				s-7.2-0.1-7.6,2.1c-1,6.3,0.4,24.8-1.1,27.8c-0.1,0.2-1.8,0.2-1.8,0.2c-0.2,0.9-0.2,1.8-0.1,2.3l11.7,1.3
				c-0.2-0.6-0.2-1.3-0.2-1.9c0-4.5,3.6-8.1,8.1-8.1s8.1,3.6,8.1,8.1c0,0.7-0.1,1.4-0.3,2.1l47.5,0.4c-0.3-0.8-0.4-1.7-0.4-2.5
				c0-4.5,3.6-8.1,8.1-8.1s8.1,3.6,8.1,8.1c0,0.9-0.2,1.8-0.4,2.7l11.5,0.1l-0.1-7.8C282.3,408.3,283,406.3,281.3,402z"/>
			<path class="st5" d="M283,416.6l-12.7-0.1l0.2-0.6c0.3-0.8,0.4-1.7,0.4-2.5c0-4.2-3.4-7.7-7.6-7.7s-7.6,3.4-7.6,7.7
				c0,0.8,0.1,1.6,0.4,2.4l0.2,0.6l-48.9-0.5l0.2-0.6c0.2-0.6,0.3-1.3,0.3-2c0-4.2-3.4-7.7-7.6-7.7s-7.6,3.4-7.6,7.7
				c0,0.6,0.1,1.2,0.2,1.8l0.2,0.7l-12.8-1.4V414c-0.1-0.8,0-1.7,0.1-2.5l0.1-0.4h0.4c0.5,0,1.2-0.1,1.5-0.1
				c0.7-1.8,0.6-7.9,0.6-13.9c0-5.3-0.1-10.7,0.4-13.7c0.2-1.2,0.8-1.9,1.9-2.2c1-0.3,2.5-0.3,5-0.3c0.4,0,0.8,0,1.2,0
				c1.9,0,8.1,0,15.7,0c14.7,0,34.2,0,34.9,0c0.2,0,2.1-0.1,5.4,1c2,0.7,4.1,1.7,6.3,2.9c2.7,1.6,5.6,3.6,8.5,6l0,0l0,0
				c0,0,2.4,2.7,7.1,3.9c0.5,0.1,1,0.2,1.4,0.4c2.3,0.6,4.6,1.1,6.6,2.1c2.3,1.1,3.8,2.5,4.5,4.4c1.6,4,1.2,6.2,1.1,6.6V416.6z
				 M271.6,415.6l10.4,0.1l-0.1-7.4v-0.1c0,0,0.5-2-1.1-6c-1.4-3.7-6-4.8-10.4-5.8c-0.5-0.1-1-0.2-1.4-0.4c-4.8-1.2-7.3-3.8-7.6-4.1
				c-6.4-5.3-11.3-7.7-14.4-8.7c-3.3-1.1-5.1-1-5.1-1l0,0c-0.4,0-45,0-50.6,0c-0.4,0-0.8,0-1.2,0c-5,0-5.7,0.1-5.9,1.7
				c-0.5,2.8-0.4,8.3-0.4,13.5c0,6.5,0.1,12.7-0.8,14.5c-0.2,0.3-0.5,0.4-1.4,0.4c-0.2,0-0.4,0-0.5,0c-0.1,0.5-0.1,0.9-0.1,1.4
				l10.6,1.1c-0.1-0.5-0.1-0.9-0.1-1.4c0-4.8,3.9-8.6,8.6-8.6c4.7,0,8.6,3.9,8.6,8.6c0,0.5-0.1,1.1-0.1,1.6l46.3,0.4
				c-0.2-0.7-0.2-1.3-0.2-2c0-4.8,3.9-8.6,8.6-8.6s8.6,3.9,8.6,8.6C271.9,414.1,271.8,414.8,271.6,415.6z"/>
		</g>
		<g>
			<g>
				<circle class="st4" cx="263.3" cy="413.4" r="6.5"/>
				<path class="st5" d="M263.3,420.4c-3.9,0-7-3.2-7-7s3.2-7,7-7s7,3.2,7,7S267.2,420.4,263.3,420.4z M263.3,407.3
					c-3.3,0-6.1,2.7-6.1,6.1c0,3.3,2.7,6.1,6.1,6.1c3.3,0,6.1-2.7,6.1-6.1S266.7,407.3,263.3,407.3z"/>
			</g>
			<g>
				<circle class="st6" cx="263.3" cy="413.4" r="3.7"/>
				<path class="st5" d="M263.3,417.5c-2.3,0-4.1-1.9-4.1-4.1s1.9-4.1,4.1-4.1s4.1,1.9,4.1,4.1S265.6,417.5,263.3,417.5z
					 M263.3,410.2c-1.7,0-3.2,1.4-3.2,3.2c0,1.7,1.4,3.2,3.2,3.2c1.7,0,3.2-1.4,3.2-3.2S265.1,410.2,263.3,410.2z"/>
			</g>
		</g>
		<g>
			<g>
				<circle class="st4" cx="200.2" cy="413.4" r="6.5"/>
				<path class="st5" d="M200.2,420.4c-3.9,0-7-3.2-7-7s3.2-7,7-7c3.9,0,7,3.2,7,7S204.1,420.4,200.2,420.4z M200.2,407.3
					c-3.3,0-6.1,2.7-6.1,6.1c0,3.3,2.7,6.1,6.1,6.1c3.3,0,6.1-2.7,6.1-6.1S203.5,407.3,200.2,407.3z"/>
			</g>
			<g>
				<circle class="st6" cx="200.2" cy="413.4" r="3.7"/>
				<path class="st5" d="M200.2,417.5c-2.3,0-4.1-1.9-4.1-4.1s1.9-4.1,4.1-4.1s4.1,1.9,4.1,4.1S202.5,417.5,200.2,417.5z
					 M200.2,410.2c-1.7,0-3.2,1.4-3.2,3.2c0,1.7,1.4,3.2,3.2,3.2s3.2-1.4,3.2-3.2S202,410.2,200.2,410.2z"/>
			</g>
		</g>
		<path class="st8" d="M209.1,414.8"/>
		<path class="st8" d="M207.8,406"/>
		<path class="st5" d="M236.8,415.3l-1-0.1l0.1-2.4c0.3-5.3-0.2-8.7-0.6-10.6c-0.4-2-1-2.9-1-2.9l-0.1-0.1v-0.1l-0.1-17.7h1
			l0.1,17.5c0.4,0.7,2.1,4.4,1.6,13.9l0,0V415.3z"/>
		<path class="st5" d="M214.5,409.7h-1.7c-0.1,0-0.2,0.1-0.2,0.1v0.7c0,0.1,0.1,0.1,0.1,0.1h1.7c0.1,0,0.2-0.1,0.2-0.1v-0.7
			C214.6,409.8,214.5,409.7,214.5,409.7z"/>
		<path class="st5" d="M253.3,413c-1.2-1.4-2.8-2.1-4.6-2.1l0,0c-4,0-12.3-0.7-12.4-0.7l0,0l-20.6-0.5c-0.1,0-0.2,0.1-0.2,0.2v0.7
			c0,0.1,0.1,0.2,0.2,0.2l20.5,0.5l0,0c0.4,0,8.5,0.7,12.4,0.7l0,0c1.5,0,2.8,0.6,3.8,1.8c0.6,0.7,0.9,1.4,1.1,1.7
			c0,0.1,0.1,0.1,0.2,0.1l0.6-0.2c0.1,0,0.1-0.1,0.1-0.2C254.4,414.6,254,413.8,253.3,413z"/>
		<g>
			<path class="st5" d="M208.6,409.5H208c-0.1,0-0.2,0.1-0.2,0.2v0.7c0,0.1,0.1,0.2,0.2,0.2h0.7c0.1,0,0.2-0.1,0.2-0.2v-0.7
				C208.7,409.6,208.7,409.5,208.6,409.5z"/>
			<path class="st5" d="M209.7,409.7v0.7c0,0.1,0.1,0.2,0.2,0.2h1.7c0.1,0,0.2-0.1,0.2-0.2v-0.7c0-0.1-0.1-0.2-0.2-0.2h-1.7
				C209.7,409.6,209.7,409.6,209.7,409.7z"/>
		</g>
		<g>
			<line class="st9" x1="237.1" y1="399.9" x2="241.1" y2="399.9"/>
			<path class="st5" d="M241.1,400.4L241.1,400.4h-4c-0.3,0-0.5-0.2-0.5-0.5s0.2-0.5,0.5-0.5l0,0h4c0.3,0,0.5,0.2,0.5,0.5
				C241.6,400.2,241.4,400.4,241.1,400.4z"/>
		</g>
		<g>
			<path class="st6" d="M280.7,401h-2.2c0,0,0.5,4.3,3.8,4.9"/>
			<path class="st5" d="M282.3,406.4c-1.5-0.3-2.7-1.3-3.5-3c-0.6-1.2-0.7-2.3-0.7-2.4l-0.1-0.5h2.7v1h-1.6c0.3,1.1,1.1,3.5,3.3,4
				L282.3,406.4z"/>
		</g>
		<g>
			<path class="st6" d="M236.7,386.8c0,0-1.3-3.4,3.9-3.1s9.2,0.7,17.5,8.7c0,0,2.8,2,1.7,4.3c-1.1,2.3-5.5,0.6-5.5,0.6l-13.7-2.6
				c0,0-2.4,0.1-3.2-3.9C236.7,386.8,236.7,386.8,236.7,386.8z"/>
			<path class="st5" d="M257.4,398.4c-1.4,0-2.9-0.5-3.1-0.6l-13.6-2.6c-0.2,0-0.8-0.1-1.5-0.5c-1-0.7-1.8-2-2.1-3.8l-0.8-4
				c-0.1-0.3-0.4-1.5,0.3-2.5c0.7-0.9,2.1-1.4,4.2-1.2c2.9,0.2,5.1,0.4,7.8,1.5c3,1.2,6.1,3.6,10,7.3c0.2,0.1,0.8,0.6,1.3,1.4
				c0.8,1.2,1,2.4,0.5,3.5C259.7,398,258.6,398.4,257.4,398.4z M240.8,394.1L240.8,394.1l13.8,2.7l0,0c0,0,1.1,0.4,2.2,0.5
				c1.4,0.1,2.3-0.2,2.6-0.9c0.9-1.9-1.5-3.7-1.5-3.7l0,0l0,0c-8.4-8-12.3-8.3-17.2-8.6c-1.7-0.1-2.8,0.2-3.3,0.8
				c-0.5,0.7-0.2,1.6-0.2,1.6l0,0l0,0l0.8,4C238.7,394.1,240.5,394.1,240.8,394.1C240.7,394.1,240.7,394.1,240.8,394.1L240.8,394.1z
				"/>
		</g>
		<g>
			<path class="st6" d="M282.5,413.4c0,0-3.4-2.2-11.4-2.2"/>
			<path class="st5" d="M282.2,413.8c0,0-0.9-0.5-2.6-1.1c-1.7-0.5-4.5-1.1-8.5-1.1v-1c8,0,11.5,2.2,11.6,2.3L282.2,413.8l0.3-0.4
				L282.2,413.8z"/>
		</g>
	</g>
	<g>
		<path class="st7" d="M226.7,388.8h-0.6v-0.3h-3.8v0.3H221v-1c0-0.3-0.3-0.6-0.6-0.6h-0.8h-2.7h-2.4c-0.3,0-0.6,0.3-0.6,0.6v1h-1.3
			v-0.3h-3.8v0.3h-0.5v1.5h0.5v0.2h3.8v-0.2h1.3v2.9c0,0.3,0.3,0.6,0.6,0.6h0.8c0,0.1-0.1,0.2-0.1,0.3v2c0,0.3,0.3,0.6,0.6,0.6h0.6
			v4.9h-0.8v3.2h3.7v-3.2h-0.6v-4.9h0.2c0.3,0,0.6-0.3,0.6-0.6v-2c0-0.1,0-0.2-0.1-0.3h0.2h0.8c0.3,0,0.6-0.3,0.6-0.6v-2.9h1.4v0.2
			h3.8v-0.2h0.6v-1.5H226.7z"/>
	</g>
</g>
<g>
	<g>
		<path class="st8" d="M460.1,346.1"/>
		<path class="st8" d="M409.2,318.3"/>
		<g>
			<path class="st1" d="M481.9,339.3c-1.7-4.3-7.3-5.3-12.2-6.5c-4.9-1.2-7.3-4-7.3-4c-12.6-10.5-19.9-9.9-19.9-9.9s-44.9,0-50.6,0
				s-7.2-0.1-7.6,2.1c-1,6.3,0.4,24.8-1.1,27.8c-0.1,0.2-1.8,0.2-1.8,0.2c-0.2,0.9-0.2,1.8-0.1,2.3l11.7,1.3
				c-0.2-0.6-0.2-1.3-0.2-1.9c0-4.5,3.6-8.1,8.1-8.1s8.1,3.6,8.1,8.1c0,0.7-0.1,1.4-0.3,2.1l47.5,0.4c-0.3-0.8-0.4-1.7-0.4-2.5
				c0-4.5,3.6-8.1,8.1-8.1s8.1,3.6,8.1,8.1c0,0.9-0.2,1.8-0.4,2.7l11.5,0.1l-0.1-7.8C483,345.7,483.6,343.7,481.9,339.3z"/>
			<path class="st5" d="M483.6,354l-12.7-0.1l0.2-0.6c0.3-0.8,0.4-1.7,0.4-2.5c0-4.2-3.4-7.7-7.6-7.7s-7.6,3.4-7.6,7.7
				c0,0.8,0.1,1.6,0.4,2.4l0.2,0.6l-48.9-0.5l0.2-0.6c0.2-0.6,0.3-1.3,0.3-2c0-4.2-3.4-7.7-7.6-7.7s-7.6,3.4-7.6,7.7
				c0,0.6,0.1,1.2,0.2,1.8l0.2,0.7l-12.8-1.4v-0.4c-0.1-0.8,0-1.7,0.1-2.5l0.1-0.4h0.4c0.5,0,1.2-0.1,1.5-0.1
				c0.7-1.8,0.6-7.9,0.6-13.9c0-5.3-0.1-10.7,0.4-13.7c0.2-1.2,0.8-1.9,1.9-2.2c1-0.3,2.5-0.3,5-0.3c0.4,0,0.8,0,1.2,0
				c1.9,0,8.1,0,15.7,0c14.7,0,34.2,0,34.9,0c0.2,0,2.1-0.1,5.4,1c2,0.7,4.1,1.7,6.3,2.9c2.7,1.6,5.6,3.6,8.5,6l0,0l0,0
				c0,0,2.4,2.7,7.1,3.9c0.5,0.1,1,0.2,1.4,0.4c2.3,0.6,4.6,1.1,6.6,2.1c2.3,1.1,3.8,2.5,4.5,4.4c1.6,4,1.2,6.2,1.1,6.6L483.6,354z
				 M472.3,352.9l10.4,0.1l-0.1-7.4v-0.1c0,0,0.5-2-1.1-6c-1.4-3.7-6-4.8-10.4-5.8c-0.5-0.1-1-0.2-1.4-0.4c-4.8-1.2-7.3-3.8-7.6-4.1
				c-6.4-5.3-11.3-7.7-14.4-8.7c-3.3-1.1-5.1-1-5.1-1l0,0c-0.4,0-45,0-50.6,0c-0.4,0-0.8,0-1.2,0c-5,0-5.7,0.1-5.9,1.7
				c-0.5,2.8-0.4,8.3-0.4,13.5c0,6.5,0.1,12.7-0.8,14.5c-0.2,0.3-0.5,0.4-1.4,0.4c-0.2,0-0.4,0-0.5,0c-0.1,0.5-0.1,0.9-0.1,1.4
				l10.6,1.1c-0.1-0.5-0.1-0.9-0.1-1.4c0-4.8,3.9-8.6,8.6-8.6s8.6,3.9,8.6,8.6c0,0.5-0.1,1.1-0.1,1.6l46.3,0.4
				c-0.2-0.7-0.2-1.3-0.2-2c0-4.8,3.9-8.6,8.6-8.6s8.6,3.9,8.6,8.6C472.5,351.5,472.4,352.2,472.3,352.9z"/>
		</g>
		<g>
			<g>
				<circle class="st4" cx="464" cy="350.7" r="6.5"/>
				<path class="st5" d="M464,357.7c-3.9,0-7-3.2-7-7c0-3.9,3.2-7,7-7s7,3.2,7,7C471,354.6,467.9,357.7,464,357.7z M464,344.7
					c-3.3,0-6.1,2.7-6.1,6.1c0,3.3,2.7,6.1,6.1,6.1c3.3,0,6.1-2.7,6.1-6.1C470.1,347.4,467.3,344.7,464,344.7z"/>
			</g>
			<g>
				<circle class="st6" cx="464" cy="350.7" r="3.7"/>
				<path class="st5" d="M464,354.9c-2.3,0-4.1-1.9-4.1-4.1c0-2.3,1.9-4.1,4.1-4.1s4.1,1.9,4.1,4.1C468.2,353,466.3,354.9,464,354.9
					z M464,347.5c-1.7,0-3.2,1.4-3.2,3.2c0,1.7,1.4,3.2,3.2,3.2c1.7,0,3.2-1.4,3.2-3.2C467.2,349,465.7,347.5,464,347.5z"/>
			</g>
		</g>
		<g>
			<g>
				<circle class="st4" cx="400.9" cy="350.7" r="6.5"/>
				<path class="st5" d="M400.9,357.7c-3.9,0-7-3.2-7-7c0-3.9,3.2-7,7-7s7,3.2,7,7C407.9,354.6,404.8,357.7,400.9,357.7z
					 M400.9,344.7c-3.3,0-6.1,2.7-6.1,6.1c0,3.3,2.7,6.1,6.1,6.1c3.3,0,6.1-2.7,6.1-6.1C406.9,347.4,404.2,344.7,400.9,344.7z"/>
			</g>
			<g>
				<circle class="st6" cx="400.9" cy="350.7" r="3.7"/>
				<path class="st5" d="M400.9,354.9c-2.3,0-4.1-1.9-4.1-4.1c0-2.3,1.9-4.1,4.1-4.1s4.1,1.9,4.1,4.1
					C405,353,403.2,354.9,400.9,354.9z M400.9,347.5c-1.7,0-3.2,1.4-3.2,3.2c0,1.7,1.4,3.2,3.2,3.2c1.7,0,3.2-1.4,3.2-3.2
					C404.1,349,402.6,347.5,400.9,347.5z"/>
			</g>
		</g>
		<path class="st8" d="M409.8,352.1"/>
		<path class="st8" d="M408.4,343.3"/>
		<path class="st5" d="M437.4,352.7l-1-0.1l0.1-2.4c0.3-5.3-0.2-8.7-0.6-10.6c-0.4-2-1-2.9-1-2.9l-0.1-0.1v-0.1l-0.1-17.7h1
			l0.1,17.5c0.4,0.7,2.1,4.4,1.6,13.9l0,0V352.7z"/>
		<path class="st5" d="M415.1,347h-1.7c-0.1,0-0.2,0.1-0.2,0.1v0.7c0,0.1,0.1,0.1,0.1,0.1h1.7c0.1,0,0.2-0.1,0.2-0.1v-0.7
			C415.3,347.1,415.2,347,415.1,347z"/>
		<path class="st5" d="M454,350.4c-1.2-1.4-2.8-2.1-4.6-2.1l0,0c-4,0-12.3-0.7-12.4-0.7l0,0l-20.6-0.5c-0.1,0-0.2,0.1-0.2,0.2v0.7
			c0,0.1,0.1,0.2,0.2,0.2l20.5,0.5l0,0c0.4,0,8.5,0.7,12.4,0.7l0,0c1.5,0,2.8,0.6,3.8,1.8c0.6,0.7,0.9,1.4,1.1,1.7
			c0,0.1,0.1,0.1,0.2,0.1l0.6-0.2c0.1,0,0.1-0.1,0.1-0.2C455.1,352,454.7,351.2,454,350.4z"/>
		<g>
			<path class="st5" d="M409.2,346.9h-0.6c-0.1,0-0.2,0.1-0.2,0.2v0.7c0,0.1,0.1,0.2,0.2,0.2h0.7c0.1,0,0.2-0.1,0.2-0.2v-0.7
				C409.4,347,409.3,346.9,409.2,346.9z"/>
			<path class="st5" d="M410.3,347.1v0.7c0,0.1,0.1,0.2,0.2,0.2h1.7c0.1,0,0.2-0.1,0.2-0.2v-0.7c0-0.1-0.1-0.2-0.2-0.2h-1.7
				C410.4,346.9,410.3,347,410.3,347.1z"/>
		</g>
		<g>
			<line class="st9" x1="437.8" y1="337.3" x2="441.8" y2="337.3"/>
			<path class="st5" d="M441.8,337.8L441.8,337.8h-4c-0.3,0-0.5-0.2-0.5-0.5c0-0.3,0.2-0.5,0.5-0.5l0,0h4c0.3,0,0.5,0.2,0.5,0.5
				C442.3,337.5,442.1,337.8,441.8,337.8z"/>
		</g>
		<g>
			<path class="st6" d="M481.4,338.4h-2.2c0,0,0.5,4.3,3.8,4.9"/>
			<path class="st5" d="M483,343.8c-1.5-0.3-2.7-1.3-3.5-3c-0.6-1.2-0.7-2.3-0.7-2.4l-0.1-0.5h2.7v1h-1.6c0.3,1.1,1.1,3.5,3.3,4
				L483,343.8z"/>
		</g>
		<g>
			<path class="st6" d="M437.4,324.1c0,0-1.3-3.4,3.9-3.1c5.2,0.3,9.2,0.7,17.5,8.7c0,0,2.8,2,1.7,4.3c-1.1,2.3-5.5,0.6-5.5,0.6
				l-13.7-2.6c0,0-2.4,0.1-3.2-3.9C437.4,324.1,437.4,324.1,437.4,324.1z"/>
			<path class="st5" d="M458.1,335.7c-1.4,0-2.9-0.5-3.1-0.6l-13.6-2.6c-0.2,0-0.8-0.1-1.5-0.5c-1-0.7-1.8-2-2.1-3.8l-0.8-4
				c-0.1-0.3-0.4-1.5,0.3-2.5c0.7-0.9,2.1-1.4,4.2-1.2c2.9,0.2,5.1,0.4,7.8,1.5c3,1.2,6.1,3.6,10,7.3c0.2,0.1,0.8,0.6,1.3,1.4
				c0.8,1.2,1,2.4,0.5,3.5C460.4,335.4,459.3,335.7,458.1,335.7z M441.4,331.5L441.4,331.5l13.8,2.7l0,0c0,0,1.1,0.4,2.2,0.5
				c1.4,0.1,2.3-0.2,2.6-0.9c0.9-1.9-1.5-3.7-1.5-3.7l0,0l0,0c-8.4-8-12.3-8.3-17.2-8.6c-1.7-0.1-2.8,0.2-3.3,0.8
				c-0.5,0.7-0.2,1.6-0.2,1.6l0,0l0,0l0.8,4C439.3,331.4,441.2,331.5,441.4,331.5L441.4,331.5L441.4,331.5z"/>
		</g>
		<g>
			<path class="st6" d="M483.1,350.7c0,0-3.4-2.2-11.4-2.2"/>
			<path class="st5" d="M482.9,351.1c0,0-0.9-0.5-2.6-1.1c-1.7-0.5-4.5-1.1-8.5-1.1v-1c8,0,11.5,2.2,11.6,2.3L482.9,351.1l0.3-0.4
				L482.9,351.1z"/>
		</g>
	</g>
	<g>
		<path class="st7" d="M427.4,326.2h-0.6v-0.3H423v0.3h-1.3v-1c0-0.3-0.3-0.6-0.6-0.6h-0.8h-2.7h-2.4c-0.3,0-0.6,0.3-0.6,0.6v1h-1.3
			v-0.3h-3.8v0.3H409v1.5h0.5v0.2h3.8v-0.2h1.3v2.9c0,0.3,0.3,0.6,0.6,0.6h0.8c0,0.1-0.1,0.2-0.1,0.3v2c0,0.3,0.3,0.6,0.6,0.6h0.6
			v4.9h-0.8v3.2h3.7v-3.1h-0.6v-4.9h0.2c0.3,0,0.6-0.3,0.6-0.6v-2c0-0.1,0-0.2-0.1-0.3h0.2h0.8c0.3,0,0.6-0.3,0.6-0.6v-2.9h1.4v0.2
			h3.8v-0.2h0.6v-1.6C427.5,326.2,427.4,326.2,427.4,326.2z"/>
	</g>
</g>
</svg>
