<?xml version="1.0" encoding="utf-8"?>
<!-- Generator: Adobe Illustrator 24.3.0, SVG Export Plug-In . SVG Version: 6.00 Build 0)  -->
<svg version="1.1" id="Layer_1" xmlns="http://www.w3.org/2000/svg" xmlns:xlink="http://www.w3.org/1999/xlink" x="0px" y="0px"
	 viewBox="0 0 500 500" style="enable-background:new 0 0 500 500;" width="500" height="500" xml:space="preserve">
<style type="text/css">
	.st0{fill:#FFFFFF;}
	.st1{fill:#019B57;}
	.st2{fill:#121115;}
	.st3{fill:#A6998C;}
</style>
<g>
	<circle class="st0" cx="248.5" cy="248.2" r="214"/>
	<g>
		<path class="st1" d="M250.2,27.5c122.8,0,222.2,99.5,222.3,222.3c0,122.9-99.6,222.4-222.6,222.4
			c-122.7-0.1-222.2-99.8-222.1-222.5C27.9,126.9,127.4,27.5,250.2,27.5z M301.1,444.1c87.9-22.2,161-109.4,148.6-218
			C438.1,125.6,352,48.4,249,48.8C143.7,49.3,55,132.2,49.4,239.1c-5.2,99.2,62.1,183.1,150.6,205.2
			c-61.2-24.6-95.2-88.9-82.3-152.8c12.1-59.9,64.1-104.8,125.4-107.9c61.9-3.2,118.1,36,136.2,94.9c9.2,30.1,8.4,60.1-3.2,89.3
			C361.9,403.6,336.6,428.7,301.1,444.1z M202.5,430.9c0.8,0,1.2,0.1,1.7,0.1c28.5,0,57.1,0,85.6,0c9.7,0,19.1-2,27.9-6.1
			c30.8-14.3,46.8-44.6,41.3-78.1c-5.3-32.2-35.2-58.1-67.9-58.3c-26.3-0.2-52.5-0.1-78.8-0.1c-3.7,0-6.8-1.2-9.1-4.1
			c-2.6-3.4-3.1-7.2-1.2-11.2c2-4.2,5.6-6.1,10.2-6.1c19.5,0,39.1,0,58.6,0c0.7,0,1.5,0,2.3,0c8.3-20.3,16.5-40.4,24.8-60.7
			c-0.8,0-1.2,0-1.6,0c-28,0-56.1,0-84.1,0c-4.1,0-8.2,0.4-12.2,1c-38.3,5.7-65.6,43.6-59,81.7c6.1,35.3,35.5,60,71.3,60
			c25.2,0,50.4,0,75.6,0c6.8,0,11.5,4.3,11.5,10.5c0,6.3-4.7,10.7-11.5,10.7c-19.4,0-38.8,0-58.3,0c-0.7,0-1.5,0-2.3,0
			C219,390.5,210.8,410.6,202.5,430.9z M300.6,444.4l-0.1-0.1l0,0.1L300.6,444.4z"/>
		<path class="st2" d="M265.3,121.5c3.1,0.5,6,0.9,9.2,1.4c0.7,11.3,1.4,22.5,2.1,33.8c-2.7-0.4-5.1-0.8-7.8-1.2c0-2.1,0-4.2,0-6.5
			c-2.1-0.3-4-0.7-6-1c-0.6,2-1.3,4-1.8,5.7c-5.3,0-10.4,0-15.8,0c-0.3-2.7-0.6-5.3-0.9-8c-0.4-4.2-1.4-5-5.6-4.3
			c0.3,4.2,0.7,8.4,1,12.9c-2.5,0.2-5,0.4-7.7,0.6c-0.9-10.9-1.8-21.8-2.7-33.6c5.4,0,10.8-0.3,16.1,0.1c3,0.2,4.6,2.7,5.1,5.6
			c0.7,3.8,1.1,7.6-3.1,10.3c3.7,0.7,4.2,3.2,4.6,6c0.3,2.9,0.8,5.8,1.8,8.7C257.4,142,261.3,131.9,265.3,121.5z M238.2,136.1
			c1.9-0.9,4.1-1.4,4.4-2.4c0.5-1.7,0.3-4.1-0.5-5.6c-0.5-0.9-2.9-0.8-4.7-1.2C237.7,130.1,237.9,132.7,238.2,136.1z M268.9,128.3
			c-1.6,5-3,9.5-4.4,14.2c1.6,0.2,2.9,0.4,4.4,0.7C268.9,138.3,268.9,133.6,268.9,128.3z"/>
		<path class="st2" d="M212.8,72.4c4.1-0.6,7.9-1.2,11.7-1.7c4.7-0.6,7.6,0.5,9.2,3.7c2.2,4.4,1.7,8.6-1.6,12.1
			c3.2,0.4,4.1,2.6,4.6,5.3c0.6,3.3,1.5,6.6,2.3,10.1c-2.3,0.3-5,0.7-8.1,1.2c-0.5-2.6-0.9-5.2-1.4-7.7c-0.8-4.5-2.1-5.5-6-4.1
			c0.6,4.1,1.2,8.3,1.9,12.6c-2.5,0.4-5,0.8-7.7,1.2C216.1,94.2,214.5,83.4,212.8,72.4z M222.7,85.8c1.7-1,4-1.5,4.3-2.6
			c0.5-1.7,0-4.1-1-5.5c-0.6-0.9-2.9-0.6-4.7-0.8C221.8,80,222.2,82.5,222.7,85.8z"/>
		<path class="st2" d="M377.1,120.5c2.5,2.8,5,5.5,7.4,8.2c2.6,2.9,4.7,5.9,2.7,10c-2.2,4.3-6.1,6.4-11,5.8c1.2,2.8,0,4.8-1.9,6.7
			c-2.5,2.4-4.7,4.9-7.2,7.5c-1.5-1.7-3.4-3.7-5.6-6.1c2.1-2,4.2-3.8,6.2-5.8c2.9-2.9,2.9-3.9-0.2-6.9c-3.1,2.8-6.3,5.7-9.6,8.7
			c-1.7-1.8-3.3-3.7-5.2-5.7C360.8,135.3,368.9,127.9,377.1,120.5z M371.6,136c1.6,0.9,3.2,2.6,4.2,2.3c1.7-0.5,3.6-2,4.3-3.6
			c0.5-1-1-2.9-1.8-4.7C375.9,132.1,374,133.8,371.6,136z"/>
		<path class="st2" d="M170.3,195.7c-8.5-7.2-16.8-14.2-25.5-21.6c3.5-3.6,6.8-7.4,10.4-10.8c2.6-2.3,5.8-2.2,8.7,0.1
			c4.8,3.8,9.5,7.7,14,11.8c3.1,2.9,3.4,6.6,0.8,10.2C176.1,189,173.1,192.3,170.3,195.7z M154.6,172.3c5.4,4.6,10.8,9.1,16.1,13.6
			c2.8-2.9,2.8-4.3-0.1-6.8c-3-2.6-6-5.1-9.1-7.6C158.3,168.8,157.4,168.9,154.6,172.3z"/>
		<path class="st2" d="M346.1,101.1c-0.1,0.4-0.1,1.5-0.5,2.3c-3.3,5.9-6.5,11.9-10.3,17.5c-2.8,4.1-7,4.2-11.9,1.4
			c-5.4-3-7.6-6.7-5.5-11.2c2.9-6.2,6.4-12.2,10.1-17.9c2.1-3.3,6.1-3.7,10.2-2.1C343.3,93,346.2,96.5,346.1,101.1z M338.9,98.9
			c-0.7-0.6-1.4-1.9-2.1-1.8c-1.1,0-2.7,0.6-3.2,1.5c-2.8,4.5-5.4,9.2-8,13.8c-0.9,1.6-1.5,3.5,0.6,4.6c2,1.1,3.2-0.5,4.1-2
			c2.6-4.5,5.2-9,7.8-13.5C338.4,100.8,338.5,100.1,338.9,98.9z"/>
		<path class="st2" d="M198,76.5c2.5-0.8,4.8-1.5,7.4-2.4c0.7,2.2,1.4,4.4,2.1,6.5c1.9,6,3.9,12,5.6,18.1c1.2,4.3-0.5,7.7-4.5,9.6
			c-1.9,0.9-4,1.6-6,1.9c-4,0.7-7.5-1.3-8.9-5.3c-2.9-8.1-5.3-16.3-8-24.5c2.5-0.8,4.9-1.6,7.4-2.4c2.4,7.7,4.9,15.3,7.2,22.8
			c0.6,1.9,1.2,3.9,3.8,3c2.4-0.8,1.9-2.7,1.3-4.6C202.8,91.7,200.4,84.2,198,76.5z"/>
		<path class="st2" d="M94.8,156.9c1.3-2.3,2.6-4.4,4-6.8c7.7,4.7,15.5,9,22.9,14c1.7,1.2,2.9,4.4,2.8,6.7
			c-0.2,9.1-8.5,13.6-16.3,9.1c-6.6-3.8-13.2-7.6-20-11.6c1.3-2.2,2.5-4.4,3.9-6.8c4.5,2.6,9,5.2,13.5,7.8c2.6,1.5,5.2,3,7.8,4.5
			c1.6,0.9,3.1,1.4,4.2-0.6c1.1-2-0.1-3.2-1.7-4.1c-6.7-3.9-13.4-7.8-20.2-11.7C95.5,157.3,95.2,157.1,94.8,156.9z"/>
		<path class="st2" d="M355.3,102.2c2,1.6,4,3.2,6.1,4.8c-5,6.3-10,12.5-15,18.7c-1.2,1.5-2.5,3-0.5,4.7c2.1,1.7,3.4,0.2,4.7-1.4
			c5-6.2,9.9-12.3,15-18.6c2,1.6,3.9,3.1,6.1,4.8c-4.2,5.2-8.3,10.3-12.4,15.4c-1.3,1.6-2.5,3.2-3.9,4.6c-3.1,3.2-6.7,3.7-10.6,1.5
			c-7.8-4.2-9.1-10.2-3.5-17.1c2.6-3.2,5.1-6.4,7.7-9.5C351,107.6,353.1,104.9,355.3,102.2z"/>
		<path class="st2" d="M165.3,152c2.1-1.6,4.1-3,6.3-4.6c4.8,6.5,9.5,13,14.2,19.4c1.1,1.6,2.3,3.1,4.4,1.5c2-1.5,1-3.2-0.1-4.7
			c-4.7-6.4-9.4-12.8-14.2-19.3c2.1-1.6,4.1-3,6.3-4.6c5.1,7.1,10.4,13.9,15.2,21c3.1,4.6,1.4,9.2-4.1,12.9
			c-5.2,3.6-9.6,3.1-13.4-1.8C174.9,165.3,170.2,158.7,165.3,152z"/>
		<path class="st2" d="M319.8,95c-2.5-0.9-4.8-1.8-7.1-2.7c0.4-1.3,1.1-2.6,1-3.8c-0.1-1.1-0.8-2.7-1.7-3.1c-0.7-0.3-2.7,0.6-3,1.5
			c-2.3,5.4-4.4,10.9-6.3,16.5c-0.3,0.8,0.5,2.7,1.3,2.9c0.9,0.3,2.7-0.1,3.3-0.8c1.1-1.4,1.7-3.3,2.6-5.1c2.3,0.9,4.6,1.8,6.9,2.6
			c-2.3,9.9-9.2,12.9-17.6,7.8c-3.8-2.3-5.2-5.6-3.7-10c1.8-5.5,3.8-11,6.1-16.3c2.5-5.8,7-7.1,13.5-4.4c6.1,2.5,7.9,6.5,5.8,12.4
			C320.5,93.3,320.2,94.1,319.8,95z"/>
		<path class="st2" d="M251.1,90.6c2.4,0.2,4.7,0.3,7,0.5c0,1.2-0.4,2.6,0.1,3.4c0.6,1.1,1.7,2.3,2.8,2.5c0.7,0.1,2.4-1.5,2.4-2.3
			c-0.1-1.6-0.7-3.4-1.8-4.5c-1.8-1.8-4.1-3-6-4.8c-3.6-3.2-4.2-9-1.7-13.1c2.1-3.5,7.4-4.9,12.2-3.1c4.4,1.6,6.5,5.4,5.7,10.7
			c-2.3-0.2-4.6-0.3-7-0.5c0-0.6,0.2-1.3,0-1.7c-0.5-1.1-1-2.3-1.9-3c-0.4-0.3-2.4,0.3-2.5,0.8c-0.3,1.3-0.4,3.1,0.3,3.9
			c1.3,1.6,3.1,2.6,4.8,3.8c5.4,3.8,6.9,7.9,5,13.8c-1.6,5-6.1,7.2-12.4,5.8c-5-1.1-7.6-4.6-7.1-9.6C250.9,92.4,251,91.6,251.1,90.6
			z"/>
		<path class="st2" d="M104.9,197.4c2,1.1,3.8,2.1,5.7,3.2c-0.9,2.4-1.8,4.7-2.8,7.3c-9.4-6.2-18.8-12.4-28.3-18.6
			c1.1-2.9,2.2-5.7,3.3-8.8c11.1,1.7,22.2,3.4,33.5,5.2c-1,2.5-1.9,4.9-2.8,7.3c-2.2-0.4-4.2-0.8-6.4-1.2
			C106.4,193.7,105.7,195.4,104.9,197.4z M87.9,187.3c0,0.1-0.1,0.3-0.1,0.4c3.9,2.2,7.9,4.5,12,6.8c0.5-1.4,1.1-2.7,1.6-4.2
			C96.8,189.3,92.3,188.3,87.9,187.3z"/>
		<path class="st2" d="M289.4,161.4c7.9-8.3,15.5-16.4,23.3-24.6c2.7,1.6,5.3,3.2,8,4.8c-3.6,10.7-7.2,21.3-10.9,32
			c-2.3-1.4-4.5-2.7-6.7-4c0.8-2,1.5-3.9,2.3-6.1c-1.7-1-3.4-2.1-5.2-3.1c-1.4,1.7-2.7,3.3-4.1,5
			C293.9,164.1,291.7,162.8,289.4,161.4z M313.3,144.8c-0.2,0.3-0.5,0.5-0.7,0.8c-2.8,3.4-5.7,6.8-8.6,10.3c1.4,0.8,2.6,1.5,3.8,2.3
			c1.8-4.4,3.6-8.5,5.3-12.7C313.2,145.2,313.2,145,313.3,144.8c0-0.1,0.1-0.1,0.1-0.1C313.4,144.6,313.3,144.7,313.3,144.8z"/>
		<path class="st2" d="M384,163.5c1.1,1.9,2.2,3.9,3.4,6c-0.9,0.6-2.2,0.9-2.6,1.7c-0.6,1.2-0.7,2.7-1,4.1c1.3,0.2,3.1,1.1,3.8,0.5
			c1.2-1,2.1-2.7,2.5-4.2c0.5-2,0.2-4.3,0.5-6.4c0.6-5.6,5.7-10,10.9-9.5c4.8,0.4,9.1,6.1,8.8,11.5c-0.2,3.2-2.2,5.7-6,7.7
			c-0.6-1-1.2-2-1.7-3.1c-0.6-1-1.1-2-1.7-3c0.5-0.4,1.2-0.6,1.5-1.1c0.6-1,1.3-2.2,1.3-3.3c0-0.5-1.6-1.7-2.1-1.6
			c-1.2,0.4-2.8,1.3-3,2.3c-0.6,2.7-0.6,5.5-0.7,8.2c-0.2,3.1-1.4,5.5-3.9,7.4c-7.3,5.4-14.8,2.6-16.9-6.3
			C375.8,169.3,378.1,165.8,384,163.5z"/>
		<path class="st2" d="M92.7,225.7c0.5-2.4,1-4.6,1.5-7c0.9,0.2,1.7,0.5,2.5,0.4c1.2-0.2,2.6-0.4,3.4-1.2c0.5-0.5,0.6-2.4,0.1-2.8
			c-0.9-0.8-2.4-1.4-3.6-1.4c-1,0-2.2,0.9-3,1.6c-1.6,1.4-3.1,3.2-4.7,4.6c-4.2,3.7-10.5,3.6-14.3-0.2c-3.2-3.1-3-9.9,0.4-13.8
			c2.7-3.1,6.2-3.3,10.2-2.4c-0.5,2.3-1,4.5-1.5,6.9c-0.7-0.1-1.4-0.3-1.9-0.2c-1.1,0.3-2.4,0.7-3.1,1.5c-0.4,0.5-0.1,2.4,0.3,2.6
			c1.1,0.5,2.9,1,3.7,0.5c1.9-1.2,3.4-2.9,4.9-4.6c4.3-4.4,8.1-5.2,13.6-3c4.9,2,6.7,6.4,4.8,12.4c-1.7,5.5-5.3,7.8-10.6,6.6
			C94.7,226.1,93.8,225.9,92.7,225.7z"/>
		<path class="st2" d="M428.5,217.8c-2.2,0.5-4.3,1-6.4,1.5c-0.8-3.3-1.5-6.4-2.3-9.8c-1.9,0.4-3.8,0.9-5.9,1.3
			c0.7,3.2,1.4,6.3,2.1,9.5c-2.2,0.5-4.2,1-6.4,1.5c-0.7-3.1-1.4-6.2-2.2-9.4c-2.3,0.5-4.5,1-6.9,1.6c0.8,3.5,1.5,6.8,2.3,10.3
			c-2.2,0.5-4.2,1-6.4,1.5c-1.4-5.9-2.7-11.8-4.1-17.9c10.7-2.5,21.3-4.9,32.2-7.4C425.8,206.2,427.1,211.9,428.5,217.8z"/>
		<path class="st2" d="M292.4,93.5c-3.3-0.7-6.3-1.3-9.5-2c-0.5,2.4-1,4.6-1.5,7c3.5,0.8,6.9,1.5,10.3,2.2c-0.5,2.2-0.9,4.2-1.4,6.5
			c-6-1.3-11.9-2.5-17.9-3.8c2.3-10.8,4.6-21.4,6.9-32.3c5.8,1.2,11.5,2.4,17.4,3.7c-0.5,2.2-0.9,4.2-1.4,6.5
			c-3.3-0.7-6.5-1.4-9.8-2c-0.4,2-0.8,3.8-1.3,5.9c3.1,0.7,6.2,1.4,9.5,2.1C293.3,89.3,292.9,91.3,292.4,93.5z"/>
		<path class="st2" d="M121.5,122.2c4.4-4,8.7-7.9,13.1-12c1.5,1.7,3,3.3,4.5,4.9c-2.5,2.3-4.9,4.5-7.4,6.8c1.4,1.5,2.7,2.9,4.1,4.5
			c2.4-2.2,4.7-4.3,7.2-6.5c1.5,1.6,2.9,3.2,4.5,4.8c-2.4,2.2-4.7,4.4-7.1,6.6c1.6,1.8,3.2,3.5,4.8,5.3c2.6-2.4,5.2-4.7,7.8-7.1
			c1.5,1.7,2.9,3.2,4.5,4.9c-4.5,4.1-9,8.2-13.5,12.3C136.4,138.5,129,130.4,121.5,122.2z"/>
		<path class="st2" d="M190.3,107c1,2,1.9,3.9,2.9,5.9c-5.4,2.7-10.8,5.3-16.4,8.1c-4.9-9.9-9.7-19.7-14.6-29.7
			c5.4-2.6,10.6-5.2,15.9-7.8c1,2,1.9,3.8,2.9,5.9c-3,1.5-5.9,2.9-9,4.5c0.9,1.8,1.7,3.5,2.7,5.4c2.9-1.4,5.7-2.8,8.7-4.2
			c1,2,1.9,3.8,2.9,5.9c-2.9,1.5-5.8,2.9-8.7,4.3c1.1,2.2,2.1,4.2,3.2,6.4C184,110.1,187.1,108.6,190.3,107z"/>
		<path class="st2" d="M290.3,127c-1.3,7.5-2.7,14.8-4,22.2c0.1,0.1,0.2,0.1,0.4,0.2c3.7-6.5,7.4-13,11.2-19.6
			c2.5,0.9,4.8,1.7,7.3,2.6c-6.1,9.6-12,19.1-18.1,28.7c-2.9-1-5.7-2.1-8.6-3.1c1.5-11.1,3-22.2,4.5-33.5
			C285.5,125.3,287.8,126.2,290.3,127z"/>
		<path class="st2" d="M126.8,149.5c-4.8-5.5-9.6-11.1-14.6-16.8c1.6-1.9,3.2-3.9,4.9-6c7.1,8.9,14.1,17.7,21.1,26.5
			c-1.9,2.4-3.8,4.7-5.8,7.1c-10-5.1-20.1-10.1-30.2-15.3c1.7-2.1,3.2-4,4.8-6c6.6,3.6,13,7.2,19.5,10.7c0.1,0.1,0.3,0.2,0.9,0.6
			C126.9,149.7,126.9,149.6,126.8,149.5z"/>
		<path class="st2" d="M389.5,200.2c-0.9-2.4-1.8-4.7-2.8-7.2c8.2-3.2,16.4-6.3,24.7-9.5c-0.7-1.9-1.4-3.7-2.1-5.7
			c2-0.8,4-1.5,6.1-2.4c2.4,6.3,4.8,12.4,7.2,18.8c-2,0.8-4,1.5-6.1,2.4c-0.8-2-1.5-3.8-2.3-5.8C406,193.9,397.9,197,389.5,200.2z"
			/>
		<path class="st2" d="M209.6,134.2c-2,0.6-3.8,1.2-5.8,1.8c-0.7-2.1-1.3-4-2-6.3c6.4-2,12.8-4,19.2-6c0.7,2.2,1.3,4.1,2,6.3
			c-2,0.7-3.9,1.3-5.9,2c2.7,8.5,5.3,16.8,7.9,25.2c-2.5,0.8-4.9,1.5-7.4,2.3C214.9,151,212.3,142.7,209.6,134.2z"/>
		<path class="st2" d="M156.5,94.6c1.3,1.9,2.5,3.7,3.7,5.5c-1.7,1.2-3.4,2.3-5.2,3.5c5,7.3,9.9,14.5,14.9,21.9
			c-2.1,1.4-4.2,2.9-6.4,4.4c-5-7.3-9.9-14.5-14.9-21.9c-1.7,1.1-3.3,2.2-5,3.4c-1.2-1.8-2.4-3.5-3.8-5.4
			C145.4,102.2,150.9,98.4,156.5,94.6z"/>
		<path class="st2" d="M328.3,183.4c2,2.4,4,4.8,6.1,7.3c-1.7,1.4-3.3,2.8-5,4.3c-3.7-4.4-7.4-8.7-11.1-13.2
			c8.4-7.1,16.8-14.2,25.3-21.3c1.7,2,3.3,3.9,5,5.9C341.8,172,335.1,177.7,328.3,183.4z"/>
		<path class="st2" d="M316.1,180c-2-1.7-3.8-3.4-5.9-5.1c7.2-8.3,14.5-16.6,21.8-24.9c1.9,1.7,3.8,3.3,5.9,5.1
			C330.7,163.4,323.5,171.7,316.1,180z"/>
		<path class="st2" d="M395.2,141.6c1.5,2.2,3,4.2,4.5,6.3c-8.9,6.4-17.8,12.7-26.9,19.2c-1.5-2.1-3-4.1-4.5-6.3
			C377.3,154.4,386.2,148.1,395.2,141.6z"/>
		<path class="st3" d="M313.1,145.5c-0.2,0-0.4,0-0.6,0c0.2-0.3,0.5-0.5,0.7-0.8l0,0C313.2,145,313.2,145.2,313.1,145.5z"/>
		<path class="st3" d="M313.3,144.8c0.1-0.1,0.1-0.1,0.1-0.1C313.4,144.6,313.3,144.7,313.3,144.8
			C313.2,144.7,313.3,144.8,313.3,144.8z"/>
	</g>
</g>
</svg>
