<?xml version="1.0" encoding="utf-8"?>
<!-- Generator: Adobe Illustrator 27.6.1, SVG Export Plug-In . SVG Version: 6.00 Build 0)  -->
<svg version="1.1" id="Layer_1" xmlns="http://www.w3.org/2000/svg" xmlns:xlink="http://www.w3.org/1999/xlink" x="0px" y="0px"
	 viewBox="0 0 600 600" style="enable-background:new 0 0 600 600;" width="600px" height="600px" xml:space="preserve">
<style type="text/css">
	.st0{fill:url(#SVGID_1_);}
	.st1{fill:#FFFFFF;}
	.st2{opacity:0.16;fill:#FFFFFF;enable-background:new    ;}
	.st3{opacity:0.5;}
	.st4{fill:#DDDDDD;}
	.st5{fill:#333333;}
	.st6{fill:#EAE4DF;}
	.st7{fill:#07070C;}
	.st8{fill:#EAE4DF;stroke:#333333;stroke-width:20;stroke-miterlimit:10;}
	.st9{fill:none;}
</style>
<g>
	<g>
		
			<linearGradient id="SVGID_1_" gradientUnits="userSpaceOnUse" x1="212.118" y1="453.6377" x2="479.7842" y2="917.2498" gradientTransform="matrix(1 0 0 1 0 -377.4489)">
			<stop  offset="0" style="stop-color:#43B649"/>
			<stop  offset="1" style="stop-color:#339C8F"/>
		</linearGradient>
		<path class="st0" d="M158.5,513c0,0,16.2-68.5,13-70.1s4.1-1.6,4.1-1.6h3.8l-4.1-7.6l1.9-47.4l6.4,4.1c0,0,11.1,6.7,11.8,12.7
			c0.6,6,2.5,12.1,2.5,12.1l0.8-12.5l-2.3-7.9c0,0-13.7-15.4-16.9-16.1c-3.2-0.8-5.6-2.8-5.6-2.8l0.2-4.3l7.1,2.6
			c0,0-2.5-2.3-2.7-6.6c-0.1-4.3,0.8-7.1,0.8-7.1l-4.1-15.9c0,0,8.2-6.7,0.9-11.2s-23.7-3.3-23.7-3.3s-9.1-6.1-9.1-10.3
			c0-4.2-5.8-10.3-5.8-10.3l-3-4.2H132l8.1-13.4c0,0-9.2-2.9-8.1-9.8c1.1-6.9,1.1-6.9,1.1-6.9l-14.5-11.6l2-2.7l-13.1-5.8
			c0,0,4.1-5.3-5.3-1.5s-22.3-5.8-22.3-5.8l-1.5-4.6h-9.7c0,0-15-3.1-16.5-6.1s-3.6,0-3.6,0H43v3.6l-7,0.2c0,0-15.2-19.4,0-19.1
			s-9-11.9-9-11.9l8.5-3.1l-6.1-5.8l-11.9,4.6L16,191.8c0,0,34.6-13.8,38.5-9.2s11.9,1,11.9,1s4.4-14.3,13.8-12.1
			s20.3,11.1,20.3,11.1l6.8,9.4c0,0,7,1.7,8.4-2.9s6.5-5.1,6.5-5.1l4.8,5.3c0,0,4.8-6.3,6.8-3.9c1.9,2.4,4.1,6.5,4.1,6.5
			s-2.9-8,0.5-8.5s6.1,2.4,6.1,2.4l20.1-0.5c0,0-11.3-19.8-6.6-25.4c4.8-5.6-6-18.4-6-18.4l-10.4-19.6l5.2-8l14,5.6
			c0,0,10.4-11.2,10.4-2.4s0.8,15.6,0.8,15.6l4.8,5.2l9.6-2l4,2H206l6,5.2c0,0,24-5.6,24-9.6s9.6-2.8,9.6-2.8s-16.8,1.2-15.2-6
			s20.4-20.4,20.4-20.4l25.2-5.6c0,0,16-4,16-8.8s5.6-9.2,5.6-9.2s-5-45.2,0-47.9s13.7-7.6,13.7-7.6l23.5-6.6l6.1,16.3L354.1,47
			l10.3-5.8l8.7,17.4h6.1l10.3,14.8l6.8-3.2h4.2l10.6,6.8l-1.3,8.4L409.2,97l11.6,0.3l17.7-13.8l2.6,25.4l4.5,0.3l10.9,5.8h3.5
			l6.4,11.9l16.7-2.3l5.8,6.1l4.2,0.3l9.3-3.5l23.2,23.5l3.9-3.9l5.8,6.4l10,1.6l7.1-4.2l10.6,6.4l14.5,2.9l6.8,6.4l-20.9,51.5
			l-2.3,36.7l-9.5,6.6l-0.5,4.5h-6.9l-3-5.3l-6.4,0.8l-6.2,7.3l6.2,1l-38.5,51.9l-1.9,18l-4.3,9.1h5.4l18.5-20.3l8,2.7l5.4,20.1
			l8.7,10.5l-7.1,5.5l-1.6,10.9l14.2,16.9l-3,9.8l-8.7,8.2l-9.3-0.5l6.5,16.1l4.4,1.4l5.5,10.1l-7.9,9.2l5.1,16.6l15,7.6l12.5-2.1
			l-2.6,18.2l-2.2,6.3l-24.4,12.9l-8.5,2.3l-2.1,4.1h-6.1l-8.6,3.5l-29.9-3.9l-1.6,11.5h-10.3l-4.1-9.2l-14-0.5l-28.2-2l-19.3-9.1
			l-27.1,14.1l-17.4,11.7l0.8,13l4.9,6.2l2.1,20l2.3,7.3l-7.5-3.9l-14.8,3.9v2.9l-7,1.3l-8.4-6.2l-11.9,6.2l-4.7-7.3l-10.8-3.4
			L290,576l-6.2-12.8l-25.5-12l-2.1,9.4h-13.5l-6,2.9l-3.6-4.7l-7.3,3.1l-8.3-7.3l-8.8-2.1l-7.5,2.3l-8.1-8.1l-11.7-1.8l-18-8.6
			l0.5-10.9l-7.5-0.3h-4.9l-2.9-4.7l-0.8-3.1L158.5,513z"/>
		<path class="st1" d="M315.6,583.3c-0.5,0-0.9-0.2-1.2-0.7l-4.4-6.8l-9.8-3.1l-9.8,4.5c-0.7,0.3-1.6,0-1.9-0.7l-6-12.3l-23.4-11
			l-1.7,7.6c-0.1,0.7-0.7,1.1-1.4,1.1h-13.2l-5.7,2.7c-0.6,0.3-1.4,0.1-1.8-0.4l-3-3.8l-6.3,2.7c-0.5,0.2-1.1,0.1-1.5-0.2l-8.1-7
			l-8.1-1.9l-7.2,2.2c-0.5,0.2-1.1,0-1.5-0.4l-7.7-7.7l-11.2-1.7c-0.1,0-0.3-0.1-0.4-0.1l-18-8.6c-0.5-0.3-0.8-0.8-0.8-1.4l0.5-9.5
			l-6.1-0.2H151c-0.5,0-1-0.3-1.2-0.7l-2.9-4.7c-0.1-0.1-0.1-0.3-0.2-0.4l-0.8-3.1c-0.2-0.7,0.2-1.4,0.9-1.7l10.3-4
			c5.7-24.3,14.1-63,13.2-68c-1.2-0.7-1.3-1.6-1.1-2.2c0.2-0.7,0.5-1.9,6.3-1.9h1.4l-3-5.5c-0.1-0.2-0.2-0.5-0.2-0.7l1.9-47.4
			c0-0.5,0.3-1,0.8-1.2s1-0.2,1.5,0.1l6.4,4.1c1.2,0.7,11.7,7.2,12.4,13.8c0.1,0.8,0.2,1.6,0.3,2.4l0.2-2.5l-2.1-7.3
			c-6.4-7.1-14.2-15-15.9-15.4c-3.5-0.8-6.1-3-6.2-3.1c-0.3-0.3-0.5-0.7-0.5-1.2l0.2-4.3c0-0.5,0.3-0.9,0.6-1.1
			c0.4-0.3,0.9-0.3,1.3-0.2l3.2,1.2c-0.4-1-0.7-2.3-0.7-3.7c-0.1-3.6,0.5-6.2,0.7-7.2l-4-15.5c-0.1-0.5,0.1-1.1,0.5-1.5
			c1-0.8,3.5-3.4,3.4-5.8c-0.1-1.2-0.8-2.2-2.3-3.1c-6.8-4.2-22.6-3.1-22.8-3.1c-0.3,0-0.6-0.1-0.9-0.2c-1.6-1.1-9.8-6.7-9.8-11.5
			c0-3-3.9-7.7-5.4-9.3c0,0-0.1-0.1-0.1-0.2l-2.6-3.6h-2c-0.5,0-1-0.3-1.3-0.7c-0.3-0.5-0.3-1,0-1.5l7.2-11.9
			c-2.9-1.3-8.4-4.7-7.4-10.8l1-6.1l-13.9-11c-0.6-0.5-0.7-1.4-0.3-2l0.9-1.3l-11.4-5.1c-0.4-0.2-0.7-0.5-0.8-1
			c-0.1-0.4,0-0.9,0.3-1.2c0.1-0.1,0.2-0.3,0.3-0.5c-0.7,0.1-1.9,0.4-3.9,1.3c-10.1,4.1-23.1-5.6-23.7-6c-0.2-0.2-0.4-0.4-0.5-0.7
			l-1.1-3.6h-8.6c-0.1,0-0.2,0-0.3,0c-4.7-1-15.9-3.6-17.5-6.8c-0.2-0.3-0.3-0.5-0.4-0.5c-0.1,0-0.6,0.4-0.8,0.7
			c-0.3,0.4-0.7,0.6-1.2,0.6h-4.1v2.2c0,0.8-0.6,1.4-1.4,1.4l-7,0.2c-0.4,0-0.9-0.2-1.2-0.6c-1-1.2-9.4-12.2-6.5-18.1
			c1.1-2.3,3.7-3.5,7.6-3.4c2.2,0,3.1-0.2,3.5-0.4c-0.8-1.6-6.7-5.5-13.1-8.8c-0.5-0.3-0.8-0.8-0.8-1.4c0-0.6,0.4-1.1,0.9-1.3
			l6.3-2.3l-3.7-3.6l-11,4.3c-0.4,0.2-0.9,0.1-1.3-0.1c-0.4-0.2-0.6-0.6-0.7-1.1L14.4,192c-0.1-0.6,0.3-1.3,0.9-1.5
			c10.7-4.3,36-13.7,40.1-8.8c2.6,3.1,7.9,1.5,9.6,0.8c1.1-3,5.8-14.6,15.3-12.4c9.7,2.2,20.5,11.1,20.9,11.4
			c0.1,0.1,0.2,0.2,0.3,0.3l6.5,9c1.4,0.2,5.4,0.6,6.2-2c1.7-5.5,7.5-6.1,7.8-6.1c0.5,0,0.9,0.1,1.2,0.5l3.7,4.1
			c1.4-1.6,3.6-3.6,5.7-3.7c0.9,0,1.7,0.4,2.3,1.1c0.2,0.2,0.3,0.4,0.5,0.6c0.1-0.6,0.3-1.1,0.5-1.6c0.5-0.8,1.3-1.4,2.3-1.5
			c3.2-0.5,5.8,1.5,6.8,2.4l17.1-0.4c-3-5.6-9.7-19.8-5.2-25c3.3-3.8-3.4-13.4-6-16.5c-0.1-0.1-0.1-0.2-0.2-0.3l-10.4-19.6
			c-0.2-0.5-0.2-1,0.1-1.5l5.2-8c0.4-0.6,1.1-0.8,1.8-0.6l13.1,5.2c2.2-2.2,6.9-6.5,10-5.3c1.5,0.6,2.2,2.1,2.2,4.6
			c0,7.3,0.6,13.3,0.7,14.9l3.9,4.2l8.8-1.8c0.3-0.1,0.7,0,0.9,0.1l3.7,1.8h15.2c0.3,0,0.7,0.1,0.9,0.4l5.4,4.7
			c11.4-2.7,21.5-6.4,22.1-8.1c0-0.7,0.2-1.4,0.6-1.9c-2.1-0.5-4-1.3-5.2-2.7c-1-1.2-1.4-2.7-1-4.4c1.7-7.5,19-19.9,21-21.2
			c0.2-0.1,0.3-0.2,0.5-0.2l25.2-5.6c7.1-1.8,14.8-5.2,14.8-7.4c0-4.4,3.9-8.4,5.5-9.8c-1.5-14.3-4.3-45.8,0.8-48.6
			c5-2.7,13.7-7.6,13.7-7.6c0.1-0.1,0.2-0.1,0.3-0.1l23.5-6.6c0.7-0.2,1.5,0.2,1.7,0.9l6,16l12.2,11l9.4-5.3
			c0.3-0.2,0.8-0.2,1.1-0.1c0.4,0.1,0.7,0.4,0.9,0.7l8.3,16.6h5.2c0.5,0,0.9,0.2,1.2,0.6l9.6,13.8l5.6-2.7c0.2-0.1,0.4-0.1,0.6-0.1
			h4.2c0.3,0,0.5,0.1,0.8,0.2l10.6,6.8c0.5,0.3,0.7,0.9,0.7,1.4l-1.3,8.4l-0.5,10l9.6,0.3l17.3-13.5c0.4-0.3,1-0.4,1.5-0.2
			c0.5,0.2,0.8,0.7,0.9,1.2l2.5,24.2l3.3,0.2c0.2,0,0.4,0.1,0.6,0.2l10.6,5.6h3.2c0.5,0,1,0.3,1.3,0.8l6,11l15.7-2.1
			c0.5-0.1,0.9,0.1,1.2,0.4l5.4,5.7l3.3,0.3l9-3.4c0.5-0.2,1.1-0.1,1.5,0.3l22.1,22.4l2.8-2.8c0.3-0.3,0.7-0.5,1.1-0.4
			c0.4,0,0.8,0.2,1,0.5l5.4,6.1l8.9,1.4l6.6-3.9c0.5-0.3,1-0.3,1.5,0l10.4,6.3l14.2,2.8c0.3,0.1,0.5,0.2,0.7,0.4l6.8,6.4
			c0.4,0.4,0.6,1,0.3,1.6l-20.8,51.2l-2.2,36.4c0,0.4-0.3,0.8-0.6,1.1l-8.9,6.3l-0.4,3.8c-0.1,0.7-0.7,1.3-1.4,1.3h-6.9
			c-0.5,0-1-0.3-1.3-0.7l-2.6-4.4l-4.9,0.6l-4.2,4.9l3.7,0.6c0.5,0.1,0.9,0.4,1.1,0.9c0.2,0.5,0.1,1-0.2,1.4l-38.2,51.5l-1.9,17.6
			c0,0.2-0.1,0.3-0.1,0.5l-3.3,7h2.5l18.1-19.8c0.4-0.4,1-0.6,1.5-0.4l8,2.7c0.5,0.2,0.8,0.5,0.9,1l5.3,19.8l8.5,10.3
			c0.3,0.3,0.4,0.7,0.3,1.1c0,0.4-0.2,0.7-0.6,1l-6.6,5.1l-1.5,9.7l13.8,16.4c0.3,0.4,0.4,0.9,0.3,1.4l-3,9.8
			c-0.1,0.2-0.2,0.5-0.4,0.6l-8.7,8.2c-0.3,0.3-0.7,0.4-1.1,0.4l-7-0.4l5.4,13.3l3.7,1.2c0.4,0.1,0.7,0.4,0.8,0.7l5.5,10.1
			c0.3,0.5,0.2,1.2-0.2,1.6l-7.4,8.6l4.7,15.2l14,7.1l12-2.1c0.5-0.1,0.9,0.1,1.3,0.4c0.3,0.3,0.5,0.8,0.4,1.2l-2.6,18.2
			c0,0.1,0,0.2-0.1,0.3l-2.2,6.3c-0.1,0.3-0.4,0.6-0.7,0.8L533,509.9c-0.1,0.1-0.2,0.1-0.3,0.1l-7.8,2.1l-1.8,3.5
			c-0.2,0.5-0.7,0.8-1.3,0.8H516l-8.3,3.4c-0.2,0.1-0.5,0.1-0.7,0.1l-28.5-3.7l-1.4,10c-0.1,0.7-0.7,1.2-1.4,1.2h-10.3
			c-0.6,0-1.1-0.3-1.3-0.9l-3.8-8.4l-13.1-0.4l-28.3-2c-0.2,0-0.4-0.1-0.5-0.1l-18.6-8.8l-26.4,13.7l-16.7,11.2l0.7,11.7l4.7,5.9
			c0.2,0.2,0.3,0.5,0.3,0.7l2.1,19.9l2.3,7.1c0.2,0.6,0,1.2-0.4,1.6c-0.4,0.4-1.1,0.5-1.6,0.2l-7.1-3.6l-13.2,3.5v1.7
			c0,0.7-0.5,1.3-1.2,1.4l-7,1.3c-0.4,0.1-0.8,0-1.1-0.3l-7.7-5.7l-11.1,5.8C316.1,583.2,315.9,583.3,315.6,583.3z M327.5,574.1
			c0.3,0,0.6,0.1,0.9,0.3l7.9,5.9l5.2-1v-1.7c0-0.7,0.4-1.2,1.1-1.4l14.8-3.9c0.3-0.1,0.7-0.1,1,0.1l4.4,2.3l-1.3-3.9
			c0-0.1-0.1-0.2-0.1-0.3l-2-19.6l-4.7-5.9c-0.2-0.2-0.3-0.5-0.3-0.8l-0.8-13c0-0.5,0.2-1,0.6-1.3l17.4-11.7l0.1-0.1L399,504
			c0.4-0.2,0.9-0.2,1.3,0l19,9l28,2l13.9,0.5c0.6,0,1,0.3,1.3,0.9l3.7,8.3h8.1l1.4-10.2c0.1-0.8,0.8-1.3,1.6-1.2L507,517l8.2-3.3
			c0.2-0.1,0.4-0.1,0.5-0.1h5.2l1.7-3.3c0.2-0.4,0.5-0.6,0.9-0.8l8.3-2.2l23.8-12.6l2-5.6l2.3-16.1l-10.5,1.8c-0.3,0-0.6,0-0.9-0.1
			l-15-7.6c-0.4-0.2-0.6-0.5-0.7-0.9l-5.1-16.6c-0.1-0.5,0-1,0.3-1.4l7.2-8.4l-4.7-8.7l-3.8-1.2c-0.4-0.1-0.7-0.4-0.9-0.8l-6.5-16.1
			c-0.2-0.5-0.1-1,0.2-1.4s0.8-0.6,1.3-0.6l8.6,0.5l8-7.5l2.7-8.7L526.3,379c-0.3-0.3-0.4-0.7-0.3-1.1l1.6-10.9
			c0.1-0.4,0.3-0.7,0.6-0.9l5.9-4.5l-7.8-9.4c-0.1-0.2-0.2-0.3-0.3-0.5l-5.2-19.4l-6.4-2.2l-17.9,19.6c-0.3,0.3-0.7,0.5-1.1,0.5H490
			c-0.5,0-1-0.3-1.2-0.7c-0.3-0.4-0.3-0.9-0.1-1.4l4.2-8.9l1.9-17.8c0-0.3,0.1-0.5,0.3-0.7l37-49.9l-3.8-0.6c-0.5-0.1-1-0.4-1.1-0.9
			c-0.2-0.5-0.1-1,0.3-1.4l6.2-7.3c0.2-0.3,0.6-0.5,0.9-0.5l6.4-0.8c0.6-0.1,1.1,0.2,1.4,0.7l2.6,4.6h4.7l0.3-3.2
			c0-0.4,0.3-0.8,0.6-1l8.9-6.2l2.2-36c0-0.2,0-0.3,0.1-0.5l20.5-50.5l-5.7-5.5l-14.1-2.8c-0.2,0-0.3-0.1-0.5-0.2l-9.9-6l-6.3,3.7
			c-0.3,0.2-0.6,0.2-1,0.2l-10-1.6c-0.3-0.1-0.6-0.2-0.8-0.5l-4.8-5.3l-2.8,2.8c-0.3,0.3-0.6,0.4-1,0.4l0,0c-0.4,0-0.8-0.2-1-0.4
			L502,129.1l-8.4,3.2c-0.2,0.1-0.4,0.1-0.6,0.1l-4.2-0.3c-0.4,0-0.7-0.2-0.9-0.4l-5.3-5.6l-16,2.2c-0.6,0.1-1.2-0.2-1.5-0.7
			l-6-11.1h-2.7c-0.2,0-0.5-0.1-0.7-0.2l-10.7-5.6l-4.2-0.3c-0.7-0.1-1.3-0.6-1.3-1.3l-2.3-22.8l-15.6,12.2
			c-0.3,0.2-0.6,0.3-0.9,0.3l-11.6-0.3c-0.4,0-0.8-0.2-1-0.5c-0.3-0.3-0.4-0.7-0.4-1.1l0.6-11.6l1.2-7.6l-9.5-6h-3.4l-6.5,3.1
			c-0.6,0.3-1.4,0.1-1.8-0.5L378.5,60h-5.4c-0.5,0-1.1-0.3-1.3-0.8l-8-16l-9,5c-0.5,0.3-1.2,0.2-1.7-0.2L340,36.1
			c-0.2-0.2-0.3-0.3-0.4-0.6l-5.6-15l-22,6.1c-1.2,0.7-9,5-13.6,7.6c-2.5,2-1.5,25.7,0.7,46.5c0.1,0.5-0.2,1-0.5,1.3c-0.1,0-5,4-5,8
			c0,5.5-13.1,9.2-17.1,10.2l-24.9,5.5c-5.3,3.7-18.4,14-19.6,19.3c-0.2,0.8,0,1.3,0.4,1.9c1.2,1.4,4.5,2.1,7.7,2.3
			c2.5-0.3,5.1-0.1,5.8,0s1.3,0.7,1.3,1.5c0,0.7-0.6,1.4-1.3,1.4c-0.5,0-2.9,0.2-5.7,0c-1,0.2-1.9,0.4-2.3,0.8
			c-0.2,0.2-0.3,0.3-0.3,0.5c0,4.3-13.6,8.3-25.1,11c-0.4,0.1-0.9,0-1.3-0.3l-5.6-4.8h-15c-0.2,0-0.4-0.1-0.6-0.2l-3.5-1.8l-9.1,1.9
			c-0.5,0.1-1-0.1-1.4-0.4l-4.8-5.2c-0.2-0.2-0.3-0.5-0.4-0.8c0-0.1-0.8-7-0.8-15.7c0-1.4-0.3-1.9-0.4-1.9c-1-0.4-4.6,2.2-7.5,5.3
			c-0.4,0.4-1,0.6-1.6,0.4l-12.9-5.1l-4.1,6.3l9.9,18.7c1.6,1.9,11.2,13.9,5.9,20.1c-3,3.5,2.5,16.4,6.7,23.8c0.3,0.4,0.3,1,0,1.4
			s-0.7,0.7-1.2,0.7l-20.1,0.5c-0.5,0-0.8-0.2-1.1-0.5c0,0-2.2-2.3-4.8-2c-0.1,0-0.1,0-0.2,0.1c-0.6,0.9,0,4.1,0.9,6.4
			c0.3,0.7-0.1,1.5-0.8,1.8s-1.5,0-1.9-0.6c0,0-2.1-4-4-6.3c-0.6-0.1-2.8,1.6-4.5,3.9c-0.3,0.3-0.7,0.5-1.1,0.6
			c-0.4,0-0.8-0.2-1.1-0.5l-4.3-4.7c-1.2,0.3-3.8,1.2-4.6,4c-1.5,4.6-7.1,4.6-10.2,3.9c-0.3-0.1-0.6-0.3-0.8-0.6l-6.7-9.3
			c-1.3-1-11.2-8.8-19.6-10.7c-8-1.9-12,11-12.1,11.1c-0.1,0.4-0.4,0.7-0.8,0.9s-9,4-13.6-1.4c-1.7-2-18,2.2-35.8,9.2l1.1,10.8
			l10.1-3.9c0.5-0.2,1.1-0.1,1.5,0.3l6.1,5.8c0.4,0.3,0.5,0.9,0.4,1.3c-0.1,0.5-0.4,0.9-0.9,1.1l-5.4,2c6.3,3.4,12.5,7.6,11.8,10.6
			c-0.6,2.3-3.7,2.5-6.4,2.5s-4.4,0.6-5,1.8c-1.5,3.1,2.5,10.2,5.7,14.4l4.9-0.2V237c0-0.8,0.6-1.4,1.4-1.4H48
			c0.6-0.6,1.7-1.4,2.9-1.3c0.8,0.1,1.8,0.5,2.6,2.1c0.7,1.2,7.7,3.6,15.3,5.2h9.5c0.6,0,1.2,0.4,1.4,1l1.3,4.1
			c2.1,1.5,12.8,8.5,20.5,5.4c4.4-1.8,6.7-2,7.8-0.6c0.6,0.8,0.5,1.9,0.2,2.7l11.6,5.2c0.4,0.2,0.7,0.5,0.8,0.9
			c0.1,0.4,0,0.9-0.2,1.2l-1.2,1.6l13.4,10.7c0.4,0.3,0.6,0.8,0.5,1.4l-1.1,6.9c-0.9,5.6,7,8.2,7.1,8.2c0.4,0.1,0.8,0.5,0.9,0.9
			c0.2,0.4,0.1,0.9-0.1,1.3l-6.7,11.2h0.2c0.5,0,0.9,0.2,1.2,0.6l3,4.2c0.9,1,6.1,6.7,6.1,11.2c0,2.3,4.6,6.4,8.1,8.8
			c2.9-0.2,17.1-0.8,24,3.6c2.3,1.4,3.6,3.3,3.7,5.4c0.2,3.3-2.4,6.3-3.7,7.5l3.8,15c0.1,0.3,0.1,0.6,0,0.8c0,0-0.9,2.7-0.7,6.6
			c0.1,3.6,2.1,5.5,2.2,5.5c0.5,0.5,0.6,1.2,0.3,1.8c-0.4,0.6-1.1,0.8-1.7,0.6l-5.3-1.9l-0.1,1.6c0.8,0.6,2.5,1.6,4.5,2.1
			c3.4,0.8,14.4,12.9,17.6,16.6c0.1,0.2,0.3,0.4,0.3,0.6l2.3,7.9c0,0.2,0.1,0.3,0.1,0.5l-0.8,12.5c0,0.7-0.6,1.3-1.3,1.3
			c-0.7,0.1-1.3-0.3-1.6-1c-0.1-0.3-2-6.3-2.6-12.4c-0.5-4.4-8.1-9.9-11.1-11.6l-4.3-2.8l-1.8,44.4l3.9,7.3c0.2,0.4,0.2,1,0,1.4
			c-0.3,0.4-0.7,0.7-1.2,0.7h-3.8c-0.8,0-1.7,0-2.5,0.1c0.6,2.4-0.1,9.8-5.6,36c-3.6,17.1-7.7,34.3-7.7,34.5c-0.1,0.5-0.4,0.8-0.9,1
			l-9.8,3.9l0.4,1.7l2.3,3.8h4.1l7.6,0.3c0.4,0,0.8,0.2,1,0.5c0.3,0.3,0.4,0.7,0.4,1.1l-0.5,10l16.9,8.1l11.5,1.8
			c0.3,0,0.6,0.2,0.8,0.4l7.4,7.4l6.7-2.1c0.2-0.1,0.5-0.1,0.8,0l8.8,2.1c0.2,0.1,0.4,0.2,0.6,0.3l7.6,6.7l6.4-2.8
			c0.6-0.3,1.3-0.1,1.7,0.4l2.9,3.8l4.9-2.4c0.2-0.1,0.4-0.1,0.6-0.1h12.4l1.8-8.2c0.1-0.4,0.4-0.8,0.8-1s0.9-0.2,1.3,0l25.5,12
			c0.3,0.1,0.5,0.4,0.7,0.7l5.6,11.5l9-4.1c0.3-0.1,0.7-0.2,1-0.1l10.8,3.4c0.3,0.1,0.6,0.3,0.8,0.6l4,6.2l10.7-5.6
			C327.1,574.2,327.3,574.1,327.5,574.1z M158.5,513L158.5,513L158.5,513z"/>
	</g>
</g>
<g>
	<path class="st2" d="M527.1,430l-0.4-0.1c-0.4-0.1-0.7-0.4-0.9-0.8l-6.5-16.1c-0.2-0.5-0.1-1,0.2-1.4s0.8-0.6,1.3-0.6l8.6,0.5
		l3.1-2.9c0-0.1,0.1-0.2,0.1-0.3c0.2-0.2,0.4-0.4,0.6-0.5l4.1-3.9l2.7-8.7L526.3,379c-0.3-0.3-0.4-0.7-0.3-1.1l1.6-10.9
		c0.1-0.4,0.3-0.7,0.6-0.9l5.9-4.5l-7.8-9.4c-0.1-0.2-0.2-0.3-0.3-0.5l-5.2-19.4l-6.4-2.2l-17.9,19.6c-0.3,0.3-0.7,0.5-1.1,0.5H490
		c-0.5,0-1-0.3-1.2-0.7c-0.3-0.4-0.3-0.9-0.1-1.4l4.2-8.9l1.9-17.8c0-0.3,0.1-0.5,0.3-0.7l37-49.9l-3.8-0.6c-0.5-0.1-1-0.4-1.1-0.9
		c-0.2-0.5-0.1-1,0.3-1.4l6.2-7.3c0.2-0.3,0.6-0.5,0.9-0.5l3-0.4c-21.3-22.5-51.5-36.6-84.9-36.6c-64.5,0-116.9,52.3-116.9,116.9
		s52.3,116.9,116.9,116.9C480.9,456.8,506.9,446.8,527.1,430z"/>
</g>
<g>
	<path class="st2" d="M354.2,529.9l17.4-11.7l0.1-0.1L399,504c0.4-0.2,0.9-0.2,1.3,0l19,9l28,2l13.9,0.5c0.6,0,1,0.3,1.3,0.9
		l3.7,8.3h8.1l1.4-10.2c0.1-0.8,0.8-1.3,1.6-1.2L507,517l8.2-3.3c0.2-0.1,0.4-0.1,0.5-0.1h5.2l1.7-3.3c0.2-0.4,0.5-0.6,0.9-0.8
		l8.3-2.2l23.8-12.6l2-5.6l2.2-15.2c-0.1-0.3-0.2-0.5-0.4-0.8l-10,1.7c-0.3,0-0.6,0-0.9-0.1l-15-7.6c-0.4-0.2-0.6-0.5-0.7-0.9
		l-5.1-16.6c-0.1-0.5,0-1,0.3-1.4l7.2-8.4l-3.8-7c-0.7-0.7-1.5-1.4-2.2-2.1l-2.5-0.8c-0.4-0.1-0.7-0.4-0.9-0.8l-1-2.4
		c-24.3-21.2-56.2-34.1-91.2-34.1c-76.1,0-137.9,61-137.9,136.3c0,14.5,2.3,28.4,6.5,41.5l8.9,2.8c0.3,0.1,0.6,0.3,0.8,0.6l4,6.2
		l10.7-5.6c0.5-0.2,0.7-0.3,0.9-0.3c0.3,0,0.6,0.1,0.9,0.3l7.9,5.9l5.2-1v-1.7c0-0.7,0.4-1.2,1.1-1.4l14.8-3.9
		c0.3-0.1,0.7-0.1,1,0.1l4.4,2.3l-1.3-3.9c0-0.1-0.1-0.2-0.1-0.3l-2-19.6l-4.7-5.9c-0.2-0.2-0.3-0.5-0.3-0.8l-0.8-13
		C353.6,530.7,353.8,530.2,354.2,529.9z"/>
</g>
<g>
	<path class="st2" d="M35.9,223.1c-2.7,0-4.4,0.6-5,1.8c-1.5,3.1,2.5,10.2,5.7,14.4l4.9-0.2V237c0-0.8,0.6-1.4,1.4-1.4H48
		c0.6-0.6,1.7-1.4,2.9-1.3c0.8,0.1,1.8,0.5,2.6,2.1c0.7,1.2,7.7,3.6,15.3,5.2h9.5c0.6,0,1.2,0.4,1.4,1l1.3,4.1
		c2.1,1.5,12.8,8.5,20.5,5.4c4.4-1.8,6.7-2,7.8-0.6c0.6,0.8,0.5,1.9,0.2,2.7l11.6,5.2c0.4,0.2,0.7,0.5,0.8,0.9
		c0.1,0.4,0,0.9-0.2,1.2l-1.2,1.6l13.4,10.7c0.4,0.3,0.6,0.8,0.5,1.4l-0.6,3.5c1.1,0,2.3,0,3.4,0c83.7,0,151.6-65.9,151.6-147.1
		c0-11.7-1.4-23.1-4.1-34c-3.3,1.3-6.6,2.2-8.3,2.6l-24.9,5.5c-5.3,3.7-18.4,14-19.6,19.3c-0.2,0.8,0,1.3,0.4,1.9
		c1.2,1.4,4.5,2.1,7.7,2.3c2.5-0.3,5.1-0.1,5.8,0s1.3,0.7,1.3,1.5c0,0.7-0.6,1.4-1.3,1.4c-0.5,0-2.9,0.2-5.7,0
		c-1,0.2-1.9,0.4-2.3,0.8c-0.2,0.2-0.3,0.3-0.3,0.5c0,4.3-13.6,8.3-25.1,11c-0.4,0.1-0.9,0-1.3-0.3l-5.6-4.8h-15
		c-0.2,0-0.4-0.1-0.6-0.2l-3.5-1.8l-9.1,1.9c-0.5,0.1-1-0.1-1.4-0.4l-4.8-5.2c-0.2-0.2-0.3-0.5-0.4-0.8c0-0.1-0.8-7-0.8-15.7
		c0-1.4-0.3-1.9-0.4-1.9c-1-0.4-4.6,2.2-7.5,5.3c-0.4,0.4-1,0.6-1.6,0.4l-12.9-5.1l-4.1,6.3l9.9,18.7c1.6,1.9,11.2,13.9,5.9,20.1
		c-3,3.5,2.5,16.4,6.7,23.8c0.3,0.4,0.3,1,0,1.4s-0.7,0.7-1.2,0.7l-20.1,0.5c-0.5,0-0.8-0.2-1.1-0.5c0,0-2.2-2.3-4.8-2
		c-0.1,0-0.1,0-0.2,0.1c-0.6,0.9,0,4.1,0.9,6.4c0.3,0.7-0.1,1.5-0.8,1.8s-1.5,0-1.9-0.6c0,0-2.1-4-4-6.3c-0.6-0.1-2.8,1.6-4.5,3.9
		c-0.3,0.3-0.7,0.5-1.1,0.6c-0.4,0-0.8-0.2-1.1-0.5l-4.3-4.7c-1.2,0.3-3.8,1.2-4.6,4c-1.5,4.6-7.1,4.6-10.2,3.9
		c-0.3-0.1-0.6-0.3-0.8-0.6l-6.7-9.3c-1.3-1-11.2-8.8-19.6-10.7c-8-1.9-12,11-12.1,11.1c-0.1,0.4-0.4,0.7-0.8,0.9s-9,4-13.6-1.4
		c-1.7-2-18,2.2-35.8,9.2l1.1,10.8l10.1-3.9c0.5-0.2,1.1-0.1,1.5,0.3l6.1,5.8c0.4,0.3,0.5,0.9,0.4,1.3c-0.1,0.5-0.4,0.9-0.9,1.1
		l-5.4,2c6.3,3.4,12.5,7.6,11.8,10.6C41.7,222.9,38.6,223.1,35.9,223.1z"/>
</g>
<g>
	<path class="st2" d="M293.6,90c0,5.5-13.1,9.2-17.1,10.2l-24.9,5.5c-2.8,1.9-7.7,5.7-12,9.6c-1,4.4-1.8,9-2.3,13.5
		c0.9,0.2,1.9,0.3,2.8,0.3c2.5-0.3,5.1-0.1,5.8,0s1.3,0.7,1.3,1.5c0,0.7-0.6,1.4-1.3,1.4c-0.5,0-2.9,0.2-5.7,0
		c-1,0.2-1.9,0.4-2.3,0.8c-0.2,0.2-0.3,0.3-0.3,0.5c0,0.7-0.3,1.3-0.9,2c-0.2,3.1-0.3,6.3-0.3,9.5c0,73.9,59.9,133.9,133.9,133.9
		s133.9-59.9,133.9-133.9c0-4.9-0.3-9.7-0.8-14.4l-1.3-1.4l-8.4,3.2c-0.2,0.1-0.4,0.1-0.6,0.1l-4.2-0.3c-0.4,0-0.7-0.2-0.9-0.4
		l-5.3-5.6l-16,2.2c-0.6,0.1-1.2-0.2-1.5-0.7l-6-11.1h-2.7c-0.2,0-0.5-0.1-0.7-0.2l-10.7-5.6l-4.2-0.3c-0.7-0.1-1.3-0.6-1.3-1.3
		l-2.3-22.8l-15.6,12.2c-0.3,0.2-0.6,0.3-0.9,0.3l-11.6-0.3c-0.4,0-0.8-0.2-1-0.5c-0.3-0.3-0.4-0.7-0.4-1.1l0.6-11.6l1.2-7.6l-9.5-6
		h-3.4l-6.5,3.1c-0.6,0.3-1.4,0.1-1.8-0.5L378.5,60h-5.4c-0.5,0-1.1-0.3-1.3-0.8l-8-16l-9,5c-0.5,0.3-1.2,0.2-1.7-0.2L340,36.1
		c-0.2-0.2-0.3-0.3-0.4-0.6l-5.6-15l-22,6.1c-1.2,0.7-9,5-13.6,7.6c-2.5,2-1.5,25.7,0.7,46.5c0.1,0.5-0.2,1-0.5,1.3
		C298.5,82,293.6,86,293.6,90z"/>
</g>
<g class="st3">
	<path class="st1" d="M297.6,173.5l-1.3,1.7h-2.2l2-3h3l2,3h-2.2L297.6,173.5z M296.2,191v-14.8h2.8V191H296.2z"/>
	<path class="st1" d="M301.3,191v-14.8h2.6V191H301.3z"/>
	<path class="st1" d="M316.2,186.4h-8c0.2,1.9,1.2,2.8,2.8,2.8c1.2,0,2-0.5,2.5-1.6h2.5c-0.5,2.2-2.4,3.6-5,3.6
		c-1.6,0-2.9-0.5-3.9-1.6c-1-1-1.5-2.4-1.5-4.1c0-1.7,0.5-3,1.5-4.1c1-1,2.2-1.6,3.8-1.6c1.6,0,2.9,0.5,3.9,1.6
		c0.9,1.1,1.4,2.5,1.4,4.2L316.2,186.4L316.2,186.4z M308.2,184.6h5.4c-0.2-1.6-1.2-2.6-2.7-2.6C309.5,182,308.5,182.8,308.2,184.6z
		"/>
	<path class="st1" d="M317.6,186.2V184h6.2v2.2H317.6z"/>
	<path class="st1" d="M333.2,176.1h2.6v14.8h-2.6v-1.5c-0.8,1.1-1.9,1.8-3.4,1.8s-2.7-0.5-3.5-1.6c-0.9-1-1.3-2.4-1.3-4.1
		c0-1.7,0.4-3.1,1.3-4.1s2-1.6,3.5-1.6c1.4,0,2.6,0.5,3.3,1.6v-5.3H333.2z M330.5,189c0.9,0,1.6-0.3,2-0.9s0.7-1.4,0.7-2.6
		c0-2.2-1-3.4-2.8-3.4c-1.7,0-2.8,1.3-2.8,3.6c0,1.1,0.3,2,0.7,2.5C329,188.8,329.7,189,330.5,189z"/>
	<path class="st1" d="M348.2,186.4h-8c0.2,1.9,1.2,2.8,2.8,2.8c1.2,0,2-0.5,2.5-1.6h2.5c-0.5,2.2-2.4,3.6-5,3.6
		c-1.6,0-2.9-0.5-3.9-1.6c-1-1-1.5-2.4-1.5-4.1c0-1.7,0.5-3,1.5-4.1c1-1,2.2-1.6,3.8-1.6c1.6,0,2.9,0.5,3.9,1.6
		c0.9,1.1,1.4,2.5,1.4,4.2L348.2,186.4L348.2,186.4z M340.1,184.6h5.4c-0.2-1.6-1.2-2.6-2.7-2.6S340.4,182.8,340.1,184.6z"/>
	<path class="st1" d="M349.4,186.2V184h6.2v2.2H349.4z"/>
	<path class="st1" d="M368.1,178.6h-7.7v3.5h7v2.4h-7v6.4h-2.8v-14.8h10.5V178.6z"/>
	<path class="st1" d="M375.7,180.1v2.4H375c-2,0-3.1,1-3.1,3v5.5h-2.6v-10.8h2.6v1.9c0.6-1.4,1.7-2.1,3.2-2.1
		C375.3,180.1,375.5,180.1,375.7,180.1z"/>
	<path class="st1" d="M383.6,191c-0.1-0.3-0.2-0.7-0.3-1.3c-0.7,1-1.9,1.6-3.4,1.6c-2.4,0-3.9-1.1-3.9-3.2c0-2,1.3-3.1,4.1-3.4
		l1.6-0.1c1.1-0.1,1.6-0.5,1.6-1.2c0-0.9-0.5-1.3-2-1.3c-1.6,0-2.2,0.4-2.2,1.7h-2.6c0.1-2.4,1.8-3.6,4.9-3.6c3,0,4.5,1.1,4.5,3.2
		v5.7c0,0.9,0.1,1.6,0.4,2L383.6,191L383.6,191z M383.2,186.7v-1c-0.3,0.2-0.7,0.4-1.2,0.4l-1.4,0.1c-1.4,0.1-2,0.7-2,1.6
		c0,0.9,0.6,1.5,1.8,1.5C382,189.4,383.2,188.5,383.2,186.7z"/>
	<path class="st1" d="M397.4,183.8v7.2h-2.6v-6.7c0-1.3-0.7-2-2-2s-2.4,0.9-2.4,2.7v6h-2.6v-10.8h2.6v1.6c0.8-1.2,1.9-1.8,3.4-1.8
		C396,179.9,397.4,181.3,397.4,183.8z"/>
	<path class="st1" d="M400.6,189.7c-1-1-1.5-2.4-1.5-4.1c0-1.7,0.5-3.1,1.5-4.1c0.9-1,2.2-1.6,3.8-1.6c2.8,0,4.7,1.6,5,4.1h-2.6
		c-0.3-1.3-1.1-2-2.4-2c-1.6,0-2.6,1.1-2.6,3.4s1,3.4,2.6,3.4c1.3,0,2.2-0.7,2.4-2.1h2.6c-0.3,2.6-2.3,4.2-5.1,4.2
		C402.8,191.2,401.5,190.7,400.6,189.7z"/>
	<path class="st1" d="M421.1,186.4h-8c0.2,1.9,1.2,2.8,2.8,2.8c1.2,0,2-0.5,2.5-1.6h2.5c-0.5,2.2-2.4,3.6-5,3.6
		c-1.6,0-2.9-0.5-3.9-1.6c-1-1-1.5-2.4-1.5-4.1c0-1.7,0.5-3,1.5-4.1c1-1,2.2-1.6,3.8-1.6c1.6,0,2.9,0.5,3.9,1.6
		c0.9,1.1,1.4,2.5,1.4,4.2L421.1,186.4L421.1,186.4z M413,184.6h5.4c-0.2-1.6-1.2-2.6-2.7-2.6C414.3,182,413.3,182.8,413,184.6z"/>
</g>
<g>
	<g>
		<g>
			<g>
				<g>
					<g>
						<circle class="st4" cx="261.1" cy="246.7" r="6.5"/>
						<path class="st5" d="M261.1,253.8c-3.9,0-7-3.2-7-7c0-3.9,3.2-7,7-7s7,3.2,7,7C268.2,250.6,265,253.8,261.1,253.8z
							 M261.1,240.7c-3.3,0-6.1,2.7-6.1,6.1c0,3.3,2.7,6.1,6.1,6.1c3.3,0,6.1-2.7,6.1-6.1S264.5,240.7,261.1,240.7z"/>
					</g>
					<g>
						<circle class="st6" cx="261.1" cy="246.7" r="3.7"/>
						<path class="st5" d="M261.1,250.9c-2.3,0-4.1-1.9-4.1-4.1c0-2.3,1.9-4.1,4.1-4.1s4.1,1.9,4.1,4.1
							C265.3,249,263.4,250.9,261.1,250.9z M261.1,243.6c-1.7,0-3.2,1.4-3.2,3.2s1.4,3.2,3.2,3.2c1.7,0,3.2-1.4,3.2-3.2
							S262.9,243.6,261.1,243.6z"/>
					</g>
				</g>
				<g>
					<g>
						<circle class="st4" cx="336.6" cy="247.2" r="6.5"/>
						<path class="st5" d="M336.6,254.2c-3.9,0-7-3.2-7-7c0-3.9,3.2-7,7-7s7,3.2,7,7C343.7,251.1,340.5,254.2,336.6,254.2z
							 M336.6,241.2c-3.3,0-6.1,2.7-6.1,6.1c0,3.3,2.7,6.1,6.1,6.1c3.3,0,6.1-2.7,6.1-6.1S340,241.2,336.6,241.2z"/>
					</g>
					<g>
						<circle class="st6" cx="336.6" cy="247.2" r="3.7"/>
						<path class="st5" d="M336.6,251.4c-2.3,0-4.1-1.9-4.1-4.1c0-2.3,1.9-4.1,4.1-4.1s4.1,1.9,4.1,4.1
							C340.8,249.5,338.9,251.4,336.6,251.4z M336.6,244c-1.7,0-3.2,1.4-3.2,3.2s1.4,3.2,3.2,3.2s3.2-1.4,3.2-3.2
							S338.4,244,336.6,244z"/>
					</g>
				</g>
				<g>
					<path class="st1" d="M352.1,239.2c-0.1-6.7-1.5-6.3-2.3-7.2s-6.6-4-6.6-4l-1.8-0.2c-7.9-10.6-20.7-19.5-22.7-20.9
						s-5.7-1.7-5.7-1.7s-54.7-0.1-62.4,0.1c-7.6,0.2-3.5-1.4-6,3.4s-2.4,30.7-2.4,30.7h-0.8v8.9h6h6c-0.1-0.5-0.2-1-0.2-1.6
						c0-4.3,3.5-7.8,7.8-7.8s7.8,3.5,7.8,7.8c0,0.5-0.1,1.1-0.2,1.6c2.8,0,51.2,0,60,0c0-0.3-0.1-0.7-0.1-1c0-4.4,3.6-8,8-8
						s8,3.6,8,8c0,0.2,0,0.5,0,0.7l8.5-0.2v-8.5h-0.9L352.1,239.2L352.1,239.2z"/>
					<path class="st5" d="M329.3,248.8h-61.1l0.1-0.6c0.1-0.5,0.1-1,0.1-1.5c0-4-3.3-7.3-7.3-7.3s-7.3,3.3-7.3,7.3
						c0,0.5,0,1,0.1,1.5l0.1,0.6h-13.1V239h0.8c0-3.7,0.1-25.9,2.4-30.5c0.8-1.6,0.9-2.4,0.9-2.9c0-0.3,0.1-0.7,0.4-0.8
						c0.2-0.1,0.5-0.1,1.1,0c0.7,0.1,1.9,0.1,4,0.1c7.5-0.2,61.8-0.1,62.4-0.1l0,0c0.2,0,3.9,0.2,5.9,1.8c0.1,0.1,0.3,0.2,0.6,0.4
						c1.6,1.1,5.3,3.8,9.5,7.4c5.2,4.5,9.4,8.8,12.6,13l1.7,0.2h0.1c0.6,0.3,5.9,3.2,6.8,4.1c0.1,0.1,0.3,0.2,0.4,0.4
						c0.4,0.3,1,0.7,1.4,1.8s0.6,2.7,0.7,4.9h0.9v9.5l-9.5,0.2V248c0-0.2,0-0.4,0-0.6c0-4.1-3.3-7.5-7.5-7.5c-4.1,0-7.5,3.3-7.5,7.5
						c0,0.3,0,0.6,0.1,1L329.3,248.8z M269.4,247.8h58.8c0-0.2,0-0.4,0-0.5c0-4.7,3.8-8.4,8.4-8.4s8.4,3.8,8.4,8.4
						c0,0.1,0,0.1,0,0.2l7.4-0.2v-7.6h-0.9v-0.5c-0.1-5.3-0.9-5.9-1.6-6.4c-0.2-0.1-0.4-0.3-0.6-0.5c-0.6-0.6-4.2-2.7-6.4-3.9
						l-1.9-0.2l-0.1-0.2c-4.9-6.5-12.3-13.4-22-20.4c-0.2-0.2-0.4-0.3-0.6-0.4c-1.8-1.3-5.2-1.5-5.4-1.6c-1.2,0-54.8-0.1-62.3,0.1
						c-2.2,0.1-3.4,0-4.1-0.1c-0.2,0-0.3,0-0.5,0l0,0c0,0.5-0.1,1.5-1,3.2c-1,1.9-1.7,7.8-2.1,17c-0.3,7-0.3,13.5-0.3,13.5v0.5h-0.8
						v7.9h10.9c0-0.4-0.1-0.7-0.1-1.1c0-4.6,3.7-8.3,8.3-8.3s8.3,3.7,8.3,8.3C269.4,247.1,269.4,247.4,269.4,247.8z"/>
				</g>
				<g>
					<path class="st6" d="M318.4,215.7c0.9,0,1.8,0.1,2.8,0.1c1.4,0,3.1-0.2,4.4,0.5c0.8,0.5,1.4,1.2,2,1.9c0.7,0.7,1.4,1.4,2,2.2
						c1.4,1.7,2.8,3.4,4.2,5.1c0.6,0.8,1.2,1.7,1.3,2.6c0.1,0.4,0,0.7-0.1,1.1c-0.7,1.8-3.6,1.4-5,1c-1.3-0.4-2.5-1-3.8-1.4
						c-2.3-0.7-4.8-0.7-7.3-1c-1.3-0.1-2.6-0.5-2.6-2l-0.2-8C316.3,216.6,317.2,215.6,318.4,215.7z"/>
					<path class="st5" d="M332.4,231.1c-0.8,0-1.7-0.2-2.5-0.4c-0.7-0.2-1.3-0.5-2-0.7c-0.6-0.2-1.2-0.5-1.8-0.7
						c-1.7-0.5-3.6-0.7-5.4-0.8c-0.6,0-1.2-0.1-1.8-0.2c-0.8-0.1-1.5-0.3-2-0.6c-0.7-0.4-1.1-1.1-1.1-1.9l-0.2-8
						c0-0.7,0.3-1.4,0.8-1.9s1.2-0.8,1.9-0.7l2.8,0.1c0.3,0,0.6,0,1,0c1.2,0,2.6,0,3.7,0.6c0.7,0.4,1.3,1,1.8,1.6
						c0.1,0.1,0.2,0.2,0.3,0.3c0.2,0.3,0.5,0.5,0.7,0.8c0.4,0.5,0.9,0.9,1.3,1.4c1.2,1.4,2.4,2.9,3.6,4.4c0.2,0.3,0.4,0.5,0.6,0.8
						c0.6,0.7,1.3,1.7,1.4,2.9c0.1,0.5,0,1-0.1,1.3C335.1,230.7,333.8,231.1,332.4,231.1z M318.4,216.2c-0.4,0-0.8,0.2-1.1,0.5
						c-0.3,0.3-0.5,0.7-0.5,1.2l0.2,8c0,0.6,0.3,1.4,2.2,1.6c0.6,0.1,1.2,0.1,1.8,0.1c1.9,0.1,3.8,0.3,5.6,0.9
						c0.6,0.2,1.3,0.4,1.9,0.7c0.6,0.2,1.3,0.5,1.9,0.7c1.4,0.4,3.8,0.7,4.4-0.7c0.1-0.2,0.1-0.5,0.1-0.8c-0.1-0.7-0.5-1.5-1.2-2.4
						c-0.2-0.3-0.4-0.5-0.6-0.8c-1.2-1.4-2.4-2.9-3.6-4.4c-0.4-0.5-0.9-0.9-1.3-1.4c-0.2-0.3-0.5-0.5-0.7-0.8
						c-0.1-0.1-0.2-0.2-0.3-0.3c-0.5-0.6-1-1.1-1.6-1.5c-0.9-0.5-2.1-0.5-3.2-0.5c-0.3,0-0.7,0-1,0L318.4,216.2L318.4,216.2z"/>
				</g>
				<path class="st5" d="M248.7,213.5c-0.7,0-1.4,0-2,0c-0.1,0-0.2,0.1-0.2,0.2v0.7c0,0.1,0.1,0.2,0.2,0.2c0.6,0,1.3,0,2,0
					c0.1,0,0.2-0.1,0.2-0.2v-0.7C248.8,213.5,248.8,213.5,248.7,213.5z"/>
				<path class="st5" d="M252.1,213.4c-0.7,0-1.4,0-2,0c-0.1,0-0.2,0.1-0.2,0.2v0.7c0,0.1,0.1,0.2,0.2,0.2c0.6,0,1.3,0,2,0
					c0.1,0,0.2-0.1,0.2-0.2v-0.7C252.3,213.5,252.2,213.4,252.1,213.4z"/>
				<g>
					<path class="st5" d="M330.5,215.8c-0.4-0.6-1.5-1.1-3.4-1.5c-2.7-0.5-7-0.8-12.8-0.8c-5.7,0-15.4,0-25.9,0c-11,0-22.7,0-31.5,0
						c0,0-0.1,0-0.1,0.1v0.9c0,0,0,0.1,0.1,0.1c8.7,0,20.5,0,31.5,0c10.5,0,20.2,0,25.9,0c5.8,0,10.1,0.3,12.8,0.9
						c1.7,0.3,2.3,0.7,2.5,0.9h0.1l0,0c0,0,0,0,0.1,0l0.8,0.4h0.1C330.6,216.3,330.6,216.1,330.5,215.8z"/>
					<path class="st5" d="M255.5,213.4c-0.7,0-1.3,0-2,0c-0.1,0-0.2,0.1-0.2,0.2v0.7c0,0.1,0.1,0.2,0.2,0.2c0.6,0,1.3,0,2,0
						c0.1,0,0.2-0.1,0.2-0.2v-0.7C255.7,213.5,255.6,213.4,255.5,213.4z"/>
				</g>
				<rect x="312.7" y="214.4" class="st5" width="1" height="33.8"/>
				<path class="st5" d="M317.4,233h-2.3c-0.4,0-0.6-0.3-0.6-0.6v-1.9c0-0.4,0.3-0.6,0.6-0.6h2.3c0.4,0,0.6,0.3,0.6,0.6v1.9
					C318,232.7,317.8,233,317.4,233z"/>
				<path class="st5" d="M353,239.8h-15.8c-0.3,0-0.5-0.2-0.5-0.5s0.2-0.5,0.5-0.5H353c0.3,0,0.5,0.2,0.5,0.5S353.3,239.8,353,239.8
					z"/>
			</g>
			<g>
				<path class="st7" d="M278.1,232.7h-4.4c-0.4,0-0.8-0.4-0.8-0.8c0-0.4,0.4-0.8,0.8-0.8h4.4c0.4,0,0.8,0.4,0.8,0.8
					S278.5,232.7,278.1,232.7z"/>
				<path class="st7" d="M275.9,234.8c-0.4,0-0.8-0.4-0.8-0.8v-4.4c0-0.4,0.4-0.8,0.8-0.8s0.8,0.4,0.8,0.8v4.4
					C276.7,234.5,276.4,234.8,275.9,234.8z"/>
			</g>
			<g>
				<path class="st7" d="M306.7,241.2v-0.1l0.4-0.1l-0.1-0.7l-0.4,0.1c0-0.1,0-0.1-0.1-0.2l0.3-0.2l-0.3-0.6l-0.3,0.2l-0.1-0.1
					l0.3-0.3l-0.5-0.5l-0.3,0.3l-0.1-0.1l0.2-0.3l-0.6-0.3l-0.2,0.3c-0.1,0-0.1,0-0.2-0.1l0.1-0.4l-0.7-0.1l-0.1,0.4
					c-0.1,0-0.1,0-0.2,0l0,0V238h-0.7v0.3h-0.2V238h-0.7v0.3H302V238h-0.7v0.3h-0.2V238h-0.7v0.3h-0.2V238h-0.7v0.3h-0.2V238h-0.7
					v0.3h-0.2V238h-0.7v0.3h-0.2V238h-0.7v0.3h-0.2V238h-0.7v0.3h-0.2V238h-0.6v0.3h-0.2V238h-0.7v0.3h-0.1V238h-0.7v0.3h-0.2V238
					h-0.7v0.3h-0.2V238h-0.7v0.3h-0.2V238h-0.7v0.3c-0.1,0-0.1,0-0.2,0l-0.1-0.4l-0.7,0.1l0.1,0.4c-0.1,0-0.1,0-0.2,0.1l-0.2-0.3
					l-0.6,0.3l0.2,0.3l-0.1,0.1l-0.3-0.3l-0.5,0.5l0.3,0.2l-0.1,0.1l-0.3-0.2l-0.3,0.6l0.3,0.2c0,0.1,0,0.1-0.1,0.2l-0.4-0.1
					l-0.1,0.7h0.4l0,0v0.1l-0.4,0.1l0.1,0.7l0.4-0.1c0,0.1,0,0.1,0.1,0.2l-0.3,0.2l0.3,0.6l0.3-0.2l0.1,0.1l-0.3,0.3l0.5,0.5
					l0.3-0.3l0.1,0.1l-0.2,0.3l0.6,0.3l0.2-0.3c0.1,0,0.1,0,0.2,0.1l-0.1,0.4l0.7,0.1l0.1-0.4c0.1,0,0.1,0,0.2,0l0,0v0.3h0.7v0.1
					h0.2v0.3h0.7V244h0.2v0.3h0.7V244h0.2v0.3h0.7V244h0.2v0.3h0.7V244h0.2v0.3h0.7V244h0.2v0.3h0.7V244h0.2v0.3h0.7V244h0.2v0.3
					h0.7V244h0.2v0.3h0.7V244h0.2v0.3h0.7V244h0.2v0.3h0.7V244h0.2v0.3h0.7V244h0.2v0.3h0.7V244h0.2v0.3h0.7V244c0.1,0,0.1,0,0.2,0
					l0.1,0.4l0.7-0.1l-0.1-0.4c0.1,0,0.1,0,0.2-0.1l0.2,0.3l0.6-0.3l-0.2-0.3l0.1-0.1l0.3,0.3l0.5-0.5l-0.3-0.2l0.1-0.1l0.3,0.2
					l0.3-0.6l-0.3-0.2c0-0.1,0-0.1,0.1-0.2l0.4,0.1l0.1-0.7L306.7,241.2L306.7,241.2z"/>
				<path class="st7" d="M308.5,235.7h-1.6c0,0,0,0,0-0.1v-6.8c0-0.3-0.3-0.6-0.6-0.6h-1.1v-1.7c0-0.3-0.3-0.6-0.6-0.6h-10.5
					c-0.3,0-0.6,0.3-0.6,0.6v1.7h-0.7c-0.3,0-0.6,0.3-0.6,0.6v2.3h-3.3h-0.1v-14.4c0-0.1-0.1-0.3-0.3-0.3h-1.2
					c-0.1,0-0.3,0.1-0.3,0.3v1.1h-3.8v2.3h1.4c0,0,0,0,0,0.1l0,0l0,0l0,0l0,0c0,0,0,0,0,0.1l0,0l0,0l0,0l0,0l0,0l0,0l0,0l0,0l0,0
					l0,0l0,0l0,0l0,0l0,0l0,0l0,0l0,0l0,0l0,0l0,0l0,0l0,0l0,0l0,0l0,0l0,0l0,0l0,0v0.1l0,0l0,0l0,0l0,0l0,0v0.1l0,0l0,0
					c0,0,0,0.1,0.1,0.1l0,0l0,0l0,0l0,0l0,0l0,0v0.1l0,0l0,0l0,0l0,0l0,0l0,0l0,0l0,0l0,0l0,0l0,0v0.1l0,0v0.1l0,0l0,0l0,0v0.1l0,0
					l0,0l0,0l0,0l0,0l0,0l0,0l0,0l0,0l0,0l0,0l0,0l0,0l0,0l0,0l0,0l0,0v0.1l0,0l0,0l0,0l0,0l0,0l0,0l0,0l0,0l0,0l0,0l0,0l0,0l0,0
					l0,0v0.1l0,0l0,0v0.1v0.1l0,0l0,0l0,0l0,0l0,0l0,0l0,0l0,0l0,0l0,0l0,0l0,0c0,0,0,0,0,0.1l0,0v0.1l0,0l0,0l0,0l0,0l0,0v0.1l0,0
					v0.1v0.1l0,0l0,0l0,0l0,0l0,0c0,0,0,0,0,0.1l0,0l0,0l0,0l0,0l0,0c0,0,0,0.1,0,0.2l0,0l0,0c0,0,0,0,0,0.1v0.1l0,0l0,0l0,0v0.1
					l0,0l0,0l0,0l0,0l0,0c-0.1,0.1,0,0.1,0,0.2l0,0l0,0l0,0l0,0l0,0l0,0l0,0l0,0l0,0h-1.4v3h1.4l0,0v0.1v0.1l0,0l0,0l0,0l0,0l0,0
					c0,0,0,0,0,0.1l0,0l0,0l0,0l0,0l0,0l0,0l0,0l0,0l0,0l0,0l0,0l0,0l0,0l0,0l0,0l0,0l0,0l0,0l0,0c0,0,0,0,0,0.1l0,0l0,0l0,0l0,0
					l0,0l0,0l0,0l0,0l0,0l0,0l0,0l0,0l0,0v0.1c0,0,0,0,0,0.1c0,0,0,0,0,0.1c0,0,0,0,0,0.1l0,0l0,0c0,0,0,0,0,0.1l0,0l0,0l0,0l0,0
					c0,0,0,0,0,0.1l0,0c0,0,0,0,0,0.1v0.1v0.1l0,0l0,0l0,0l0,0l0,0l0,0l0,0l0,0l0,0l0,0l0,0l0,0c0,0,0,0,0,0.1l0,0l0,0l0,0l0,0l0,0
					l0,0l0,0l0,0l0,0v0.1l0,0l0,0c0,0,0,0,0,0.1l0,0l0,0v0.1c0,0,0,0,0,0.1c0,0,0,0,0,0.1l0,0l0,0l0,0l0,0l0,0c0,0,0,0,0,0.1l0,0
					l0,0l0,0v0.1l0,0c0,0,0,0,0,0.1l0,0l0,0l0,0l0,0l0,0v0.1l0,0l0,0l0,0l0,0l0,0l0,0l0,0l0,0c0,0,0,0.1,0,0.2l0,0l0,0l0,0l0,0l0,0
					l0,0c0,0,0,0,0,0.1l0,0l0,0l0,0c0,0,0,0,0,0.1l0,0l0,0l0,0l0,0v0.1l0,0l0,0v0.1l0,0l0,0l0,0l0,0c0,0,0,0,0,0.1v0.1l0,0l0,0l0,0
					l0,0c0,0,0,0,0,0.1l0,0l0,0l0,0v0.1l0,0l0,0l0,0v0.1v0.1l0,0c-0.5,0-0.5,0.1-0.5,0.1v0.4l0,0c-0.2,0.2-0.4,0.5-0.4,0.8v6.7
					c0,0,0,0,0,0.1l0,0l0,0v0.1l0,0c0.2,0.2,0.9,0.2,1,0.2s0.8,0,1-0.2l0,0v-0.1c0,0,0,0,0-0.1l0,0l0,0v-0.1v-6.7
					c0-0.4-0.2-0.7-0.4-0.8l0,0v-0.4c0-0.1,0-0.1-0.4-0.1l0,0l0,0l0,0l0,0l0,0l0,0l0,0l0,0l0,0l0,0V229l0,0l0,0l0,0c0,0,0,0,0-0.1
					l0,0l0,0l0,0l0,0l0,0v-0.1l0,0l0,0l0,0l0,0l0,0l0,0l0,0l0,0l0,0l0,0l0,0v-0.1l0,0l0,0l0,0l0,0l0,0c0.1-0.1,0-0.1,0-0.2l0,0l0,0
					l0,0l0,0l0,0l0,0c0,0,0,0,0-0.1l0,0l0,0l0,0v-0.1l0,0c0,0,0,0,0-0.1l0,0l0,0l0,0l0,0l0,0l0,0l0,0l0,0l0,0l0,0l0,0l0,0l0,0l0,0
					v-0.1l0,0l0,0l0,0l0,0l0,0l0,0l0,0l0,0l0,0l0,0l0,0l0,0l0,0c0,0,0,0,0-0.1l0,0l0,0c0,0,0,0,0-0.1l0,0l0,0l0,0l0,0l0,0l0,0l0,0
					l0,0l0,0v-0.1l0,0l0,0l0,0l0,0l0,0l0,0l0,0v-0.1c0,0,0,0,0-0.1c0,0,0,0,0-0.1l0,0l0,0c0,0,0,0,0-0.1l0,0l0,0l0,0c0,0,0,0,0-0.1
					l0,0l0,0l0,0l0,0l0,0v-0.1l0,0l0,0l0,0l0,0l0,0l0,0l0,0l0,0l0,0l0,0l0,0l0,0l0,0l0,0l0,0l0,0l0,0l0,0l0,0l0,0l0,0l0,0l0,0l0,0
					c0,0,0,0,0-0.1l0,0l0,0c0,0,0,0,0-0.1l0,0l0,0l0,0l0,0c0,0,0,0,0-0.1l0,0l0,0l0,0l0,0l0,0l0,0l0,0l0,0v-0.1c0,0,0,0,0-0.1
					c0,0,0,0,0-0.1l0,0l0,0l0,0l0,0l0,0l0,0c0,0,0,0,0-0.1l0,0l0,0l0,0l0,0l0,0l0,0c0,0,0,0,0-0.1h2v10.4c0,0.1,0.1,0.3,0.3,0.3h1.2
					c0.1,0,0.3-0.1,0.3-0.3v-0.1h19.5c0.4,0,0.7-0.3,0.7-0.8v-0.3C309.2,236,308.8,235.7,308.5,235.7z M288.9,234.9
					C289,234.9,289,235,288.9,234.9h3.4v0.7c0,0,0,0,0,0.1h-3.5v-0.8H288.9z M285.3,224.1L285.3,224.1L285.3,224.1L285.3,224.1
					L285.3,224.1L285.3,224.1L285.3,224.1c0-0.1,0-0.1,0-0.1s0,0,0-0.1l0,0l0,0c0.1,0,0.1-0.1,0.1-0.1l0,0l0,0l0,0l0,0l0,0l0,0
					c0,0,0,0,0-0.1l0,0l0,0l0,0l0,0l0,0l0,0v-0.1l0,0l0,0l0,0l0,0l0,0l0,0v-0.1l0,0l0,0l0,0l0,0l0,0l0,0c0,0,0,0,0-0.1l0,0l0,0l0,0
					l0,0l0,0l0,0v-0.1l0,0l0,0l0,0c0,0,0,0,0-0.1l0,0l0,0l0,0l0,0l0,0l0,0l0,0v-0.1l0,0l0,0l0,0l0,0l0,0l0,0l0,0l0,0l0,0l0,0l0,0
					l0,0l0,0c0,0,0,0,0-0.1l0,0v-0.1l0,0l0,0l0,0l0,0l0,0l0,0l0,0l0,0l0,0l0,0l0,0l0,0l0,0l0,0l0,0l0,0l0,0c0,0,0,0,0-0.1l0,0l0,0
					l0,0l0,0l0,0c0,0,0,0,0-0.1l0,0l0,0l0,0l0,0v-0.1l0,0l0,0l0,0l0,0l0,0l0,0v-0.1l0,0l0,0l0,0l0,0l0,0l0,0l0,0l0,0v-0.1l0,0l0,0
					l0,0l0,0v-0.1l0,0c0,0,0,0,0-0.1v-0.1l0,0l0,0l0,0V222l0,0l0,0l0,0c0,0,0,0,0-0.1l0,0l0,0l0,0l0,0l0,0l0,0l0,0
					c0-0.1,0-0.1,0-0.1l0,0l0,0l0,0l0,0l0,0l0,0l0,0l0,0l0,0v-0.1l0,0l0,0l0,0l0,0l0,0l0,0c0,0,0,0,0-0.1l0,0l0,0l0,0l0,0
					c0.1-0.1,0-0.1,0-0.2l0,0l0,0l0,0l0,0l0,0l0,0l0,0l0,0l0,0l0,0l0,0l0,0l0,0l0,0h2v4L285.3,224.1L285.3,224.1z"/>
			</g>
			<g>
				<path class="st7" d="M274.6,219.8h-0.5v-0.3h-3.8v0.3h-1.4v-1c0-0.3-0.3-0.6-0.6-0.6h-0.8h-2.7h-2.4c-0.3,0-0.6,0.3-0.6,0.6v1
					h-1.3v-0.3h-3.8v0.3h-0.5v1.5h0.5v0.2h3.8v-0.2h1.3v2.9c0,0.3,0.3,0.6,0.6,0.6h0.8c0,0.1-0.1,0.2-0.1,0.3v2
					c0,0.3,0.3,0.6,0.6,0.6h0.6v4.9h-0.8v3.2h3.7v-3.2h-0.6v-4.9h0.2c0.3,0,0.6-0.3,0.6-0.6v-2c0-0.1,0-0.2-0.1-0.3h0.2h0.8
					c0.3,0,0.6-0.3,0.6-0.6v-2.9h1.4v0.2h3.8v-0.2h0.6v-1.5H274.6z"/>
			</g>
		</g>
		<g>
			<g>
				<g>
					<g>
						<circle class="st4" cx="377.1" cy="246.7" r="6.5"/>
						<path class="st5" d="M377.1,253.8c-3.9,0-7-3.2-7-7c0-3.9,3.2-7,7-7s7,3.2,7,7C384.2,250.6,381,253.8,377.1,253.8z
							 M377.1,240.7c-3.3,0-6.1,2.7-6.1,6.1c0,3.3,2.7,6.1,6.1,6.1c3.3,0,6.1-2.7,6.1-6.1S380.5,240.7,377.1,240.7z"/>
					</g>
					<g>
						<circle class="st6" cx="377.1" cy="246.7" r="3.7"/>
						<path class="st5" d="M377.1,250.9c-2.3,0-4.1-1.9-4.1-4.1c0-2.3,1.9-4.1,4.1-4.1s4.1,1.9,4.1,4.1
							C381.3,249,379.4,250.9,377.1,250.9z M377.1,243.6c-1.7,0-3.2,1.4-3.2,3.2s1.4,3.2,3.2,3.2c1.7,0,3.2-1.4,3.2-3.2
							S378.9,243.6,377.1,243.6z"/>
					</g>
				</g>
				<g>
					<g>
						<circle class="st4" cx="452.6" cy="247.2" r="6.5"/>
						<path class="st5" d="M452.6,254.2c-3.9,0-7-3.2-7-7c0-3.9,3.2-7,7-7s7,3.2,7,7C459.7,251.1,456.5,254.2,452.6,254.2z
							 M452.6,241.2c-3.3,0-6.1,2.7-6.1,6.1c0,3.3,2.7,6.1,6.1,6.1c3.3,0,6.1-2.7,6.1-6.1S456,241.2,452.6,241.2z"/>
					</g>
					<g>
						<circle class="st6" cx="452.6" cy="247.2" r="3.7"/>
						<path class="st5" d="M452.6,251.4c-2.3,0-4.1-1.9-4.1-4.1c0-2.3,1.9-4.1,4.1-4.1s4.1,1.9,4.1,4.1
							C456.8,249.5,454.9,251.4,452.6,251.4z M452.6,244c-1.7,0-3.2,1.4-3.2,3.2s1.4,3.2,3.2,3.2s3.2-1.4,3.2-3.2
							S454.4,244,452.6,244z"/>
					</g>
				</g>
				<g>
					<path class="st1" d="M468.1,239.2c-0.1-6.7-1.5-6.3-2.3-7.2s-6.6-4-6.6-4l-1.8-0.2c-7.9-10.6-20.7-19.5-22.7-20.9
						s-5.7-1.7-5.7-1.7s-54.7-0.1-62.4,0.1c-7.6,0.2-3.5-1.4-6,3.4s-2.4,30.7-2.4,30.7h-0.8v8.9h6h6c-0.1-0.5-0.2-1-0.2-1.6
						c0-4.3,3.5-7.8,7.8-7.8s7.8,3.5,7.8,7.8c0,0.5-0.1,1.1-0.2,1.6c2.8,0,51.2,0,60,0c0-0.3-0.1-0.7-0.1-1c0-4.4,3.6-8,8-8
						s8,3.6,8,8c0,0.2,0,0.5,0,0.7l8.5-0.2v-8.5h-0.9L468.1,239.2L468.1,239.2z"/>
					<path class="st5" d="M445.3,248.8h-61.1l0.1-0.6c0.1-0.5,0.1-1,0.1-1.5c0-4-3.3-7.3-7.3-7.3s-7.3,3.3-7.3,7.3
						c0,0.5,0,1,0.1,1.5l0.1,0.6h-13.1V239h0.8c0-3.7,0.1-25.9,2.4-30.5c0.8-1.6,0.9-2.4,0.9-2.9c0-0.3,0.1-0.7,0.4-0.8
						c0.2-0.1,0.5-0.1,1.1,0c0.7,0.1,1.9,0.1,4,0.1c7.5-0.2,61.8-0.1,62.4-0.1l0,0c0.2,0,3.9,0.2,5.9,1.8c0.1,0.1,0.3,0.2,0.6,0.4
						c1.6,1.1,5.3,3.8,9.5,7.4c5.2,4.5,9.4,8.8,12.6,13l1.7,0.2h0.1c0.6,0.3,5.9,3.2,6.8,4.1c0.1,0.1,0.3,0.2,0.4,0.4
						c0.4,0.3,1,0.7,1.4,1.8s0.6,2.7,0.7,4.9h0.9v9.5l-9.5,0.2V248c0-0.2,0-0.4,0-0.6c0-4.1-3.3-7.5-7.5-7.5c-4.1,0-7.5,3.3-7.5,7.5
						c0,0.3,0,0.6,0.1,1L445.3,248.8z M385.4,247.8h58.8c0-0.2,0-0.4,0-0.5c0-4.7,3.8-8.4,8.4-8.4s8.4,3.8,8.4,8.4
						c0,0.1,0,0.1,0,0.2l7.4-0.2v-7.6h-0.9v-0.5c-0.1-5.3-0.9-5.9-1.6-6.4c-0.2-0.1-0.4-0.3-0.6-0.5c-0.6-0.6-4.2-2.7-6.4-3.9
						l-1.9-0.2l-0.1-0.2c-4.9-6.5-12.3-13.4-22-20.4c-0.2-0.2-0.4-0.3-0.6-0.4c-1.8-1.3-5.2-1.5-5.4-1.6c-1.2,0-54.8-0.1-62.3,0.1
						c-2.2,0.1-3.4,0-4.1-0.1c-0.2,0-0.3,0-0.5,0l0,0c0,0.5-0.1,1.5-1,3.2c-1,1.9-1.7,7.8-2.1,17c-0.3,7-0.3,13.5-0.3,13.5v0.5h-0.8
						v7.9h10.9c0-0.4-0.1-0.7-0.1-1.1c0-4.6,3.7-8.3,8.3-8.3s8.3,3.7,8.3,8.3C385.4,247.1,385.4,247.4,385.4,247.8z"/>
				</g>
				<g>
					<path class="st6" d="M434.4,215.7c0.9,0,1.8,0.1,2.8,0.1c1.4,0,3.1-0.2,4.4,0.5c0.8,0.5,1.4,1.2,2,1.9c0.7,0.7,1.4,1.4,2,2.2
						c1.4,1.7,2.8,3.4,4.2,5.1c0.6,0.8,1.2,1.7,1.3,2.6c0.1,0.4,0,0.7-0.1,1.1c-0.7,1.8-3.6,1.4-5,1c-1.3-0.4-2.5-1-3.8-1.4
						c-2.3-0.7-4.8-0.7-7.3-1c-1.3-0.1-2.6-0.5-2.6-2l-0.2-8C432.3,216.6,433.2,215.6,434.4,215.7z"/>
					<path class="st5" d="M448.4,231.1c-0.8,0-1.7-0.2-2.5-0.4c-0.7-0.2-1.3-0.5-2-0.7c-0.6-0.2-1.2-0.5-1.8-0.7
						c-1.7-0.5-3.6-0.7-5.4-0.8c-0.6,0-1.2-0.1-1.8-0.2c-0.8-0.1-1.5-0.3-2-0.6c-0.7-0.4-1.1-1.1-1.1-1.9l-0.2-8
						c0-0.7,0.3-1.4,0.8-1.9s1.2-0.8,1.9-0.7l2.8,0.1c0.3,0,0.6,0,1,0c1.2,0,2.6,0,3.7,0.6c0.7,0.4,1.3,1,1.8,1.6
						c0.1,0.1,0.2,0.2,0.3,0.3c0.2,0.3,0.5,0.5,0.7,0.8c0.4,0.5,0.9,0.9,1.3,1.4c1.2,1.4,2.4,2.9,3.6,4.4c0.2,0.3,0.4,0.5,0.6,0.8
						c0.6,0.7,1.3,1.7,1.4,2.9c0.1,0.5,0,1-0.1,1.3C451.1,230.7,449.8,231.1,448.4,231.1z M434.4,216.2c-0.4,0-0.8,0.2-1.1,0.5
						c-0.3,0.3-0.5,0.7-0.5,1.2l0.2,8c0,0.6,0.3,1.4,2.2,1.6c0.6,0.1,1.2,0.1,1.8,0.1c1.9,0.1,3.8,0.3,5.6,0.9
						c0.6,0.2,1.3,0.4,1.9,0.7c0.6,0.2,1.3,0.5,1.9,0.7c1.4,0.4,3.8,0.7,4.4-0.7c0.1-0.2,0.1-0.5,0.1-0.8c-0.1-0.7-0.5-1.5-1.2-2.4
						c-0.2-0.3-0.4-0.5-0.6-0.8c-1.2-1.4-2.4-2.9-3.6-4.4c-0.4-0.5-0.9-0.9-1.3-1.4c-0.2-0.3-0.5-0.5-0.7-0.8
						c-0.1-0.1-0.2-0.2-0.3-0.3c-0.5-0.6-1-1.1-1.6-1.5c-0.9-0.5-2.1-0.5-3.2-0.5c-0.3,0-0.7,0-1,0L434.4,216.2L434.4,216.2z"/>
				</g>
				<path class="st5" d="M364.7,213.5c-0.7,0-1.4,0-2,0c-0.1,0-0.2,0.1-0.2,0.2v0.7c0,0.1,0.1,0.2,0.2,0.2c0.6,0,1.3,0,2,0
					c0.1,0,0.2-0.1,0.2-0.2v-0.7C364.8,213.5,364.8,213.5,364.7,213.5z"/>
				<path class="st5" d="M368.1,213.4c-0.7,0-1.4,0-2,0c-0.1,0-0.2,0.1-0.2,0.2v0.7c0,0.1,0.1,0.2,0.2,0.2c0.6,0,1.3,0,2,0
					c0.1,0,0.2-0.1,0.2-0.2v-0.7C368.3,213.5,368.2,213.4,368.1,213.4z"/>
				<g>
					<path class="st5" d="M446.5,215.8c-0.4-0.6-1.5-1.1-3.4-1.5c-2.7-0.5-7-0.8-12.8-0.8c-5.7,0-15.4,0-25.9,0c-11,0-22.7,0-31.5,0
						c0,0-0.1,0-0.1,0.1v0.9c0,0,0,0.1,0.1,0.1c8.7,0,20.5,0,31.5,0c10.5,0,20.2,0,25.9,0c5.8,0,10.1,0.3,12.8,0.9
						c1.7,0.3,2.3,0.7,2.5,0.9h0.1l0,0c0,0,0,0,0.1,0l0.8,0.4h0.1C446.6,216.3,446.6,216.1,446.5,215.8z"/>
					<path class="st5" d="M371.5,213.4c-0.7,0-1.3,0-2,0c-0.1,0-0.2,0.1-0.2,0.2v0.7c0,0.1,0.1,0.2,0.2,0.2c0.6,0,1.3,0,2,0
						c0.1,0,0.2-0.1,0.2-0.2v-0.7C371.7,213.5,371.6,213.4,371.5,213.4z"/>
				</g>
				<rect x="428.7" y="214.4" class="st5" width="1" height="33.8"/>
				<path class="st5" d="M433.4,233h-2.3c-0.4,0-0.6-0.3-0.6-0.6v-1.9c0-0.4,0.3-0.6,0.6-0.6h2.3c0.4,0,0.6,0.3,0.6,0.6v1.9
					C434,232.7,433.8,233,433.4,233z"/>
				<path class="st5" d="M469,239.8h-15.8c-0.3,0-0.5-0.2-0.5-0.5s0.2-0.5,0.5-0.5H469c0.3,0,0.5,0.2,0.5,0.5S469.3,239.8,469,239.8
					z"/>
			</g>
			<g>
				<path class="st7" d="M394.1,232.7h-4.4c-0.4,0-0.8-0.4-0.8-0.8c0-0.4,0.4-0.8,0.8-0.8h4.4c0.4,0,0.8,0.4,0.8,0.8
					S394.5,232.7,394.1,232.7z"/>
				<path class="st7" d="M391.9,234.8c-0.4,0-0.8-0.4-0.8-0.8v-4.4c0-0.4,0.4-0.8,0.8-0.8s0.8,0.4,0.8,0.8v4.4
					C392.7,234.5,392.4,234.8,391.9,234.8z"/>
			</g>
			<g>
				<path class="st7" d="M422.7,241.2v-0.1l0.4-0.1l-0.1-0.7l-0.4,0.1c0-0.1,0-0.1-0.1-0.2l0.3-0.2l-0.3-0.6l-0.3,0.2l-0.1-0.1
					l0.3-0.3l-0.5-0.5l-0.3,0.3l-0.1-0.1l0.2-0.3l-0.6-0.3l-0.2,0.3c-0.1,0-0.1,0-0.2-0.1l0.1-0.4l-0.7-0.1l-0.1,0.4
					c-0.1,0-0.1,0-0.2,0l0,0V238h-0.7v0.3h-0.2V238h-0.7v0.3H418V238h-0.7v0.3h-0.2V238h-0.7v0.3h-0.2V238h-0.7v0.3h-0.2V238h-0.7
					v0.3h-0.2V238h-0.7v0.3h-0.2V238h-0.7v0.3h-0.2V238h-0.7v0.3h-0.2V238h-0.6v0.3h-0.2V238h-0.7v0.3h-0.1V238h-0.7v0.3h-0.2V238
					h-0.7v0.3h-0.2V238h-0.7v0.3h-0.2V238h-0.7v0.3c-0.1,0-0.1,0-0.2,0l-0.1-0.4l-0.7,0.1l0.1,0.4c-0.1,0-0.1,0-0.2,0.1l-0.2-0.3
					l-0.6,0.3l0.2,0.3l-0.1,0.1l-0.3-0.3l-0.5,0.5l0.3,0.2l-0.1,0.1l-0.3-0.2l-0.3,0.6l0.3,0.2c0,0.1,0,0.1-0.1,0.2l-0.4-0.1
					l-0.1,0.7h0.4l0,0v0.1l-0.4,0.1l0.1,0.7l0.4-0.1c0,0.1,0,0.1,0.1,0.2l-0.3,0.2l0.3,0.6l0.3-0.2l0.1,0.1l-0.3,0.3l0.5,0.5
					l0.3-0.3l0.1,0.1l-0.2,0.3l0.6,0.3l0.2-0.3c0.1,0,0.1,0,0.2,0.1l-0.1,0.4l0.7,0.1l0.1-0.4c0.1,0,0.1,0,0.2,0l0,0v0.3h0.7v0.1
					h0.2v0.3h0.7V244h0.2v0.3h0.7V244h0.2v0.3h0.7V244h0.2v0.3h0.7V244h0.2v0.3h0.7V244h0.2v0.3h0.7V244h0.2v0.3h0.7V244h0.2v0.3
					h0.7V244h0.2v0.3h0.7V244h0.2v0.3h0.7V244h0.2v0.3h0.7V244h0.2v0.3h0.7V244h0.2v0.3h0.7V244h0.2v0.3h0.7V244c0.1,0,0.1,0,0.2,0
					l0.1,0.4l0.7-0.1l-0.1-0.4c0.1,0,0.1,0,0.2-0.1l0.2,0.3l0.6-0.3l-0.2-0.3l0.1-0.1l0.3,0.3l0.5-0.5l-0.3-0.2l0.1-0.1l0.3,0.2
					l0.3-0.6l-0.3-0.2c0-0.1,0-0.1,0.1-0.2l0.4,0.1l0.1-0.7L422.7,241.2L422.7,241.2z"/>
				<path class="st7" d="M424.5,235.7h-1.6c0,0,0,0,0-0.1v-6.8c0-0.3-0.3-0.6-0.6-0.6h-1.1v-1.7c0-0.3-0.3-0.6-0.6-0.6h-10.5
					c-0.3,0-0.6,0.3-0.6,0.6v1.7h-0.7c-0.3,0-0.6,0.3-0.6,0.6v2.3h-3.3h-0.1v-14.4c0-0.1-0.1-0.3-0.3-0.3h-1.2
					c-0.1,0-0.3,0.1-0.3,0.3v1.1h-3.8v2.3h1.4c0,0,0,0,0,0.1l0,0l0,0l0,0l0,0c0,0,0,0,0,0.1l0,0l0,0l0,0l0,0l0,0l0,0l0,0l0,0l0,0
					l0,0l0,0l0,0l0,0l0,0l0,0l0,0l0,0l0,0l0,0l0,0l0,0l0,0l0,0l0,0l0,0l0,0l0,0l0,0v0.1l0,0l0,0l0,0l0,0l0,0v0.1l0,0l0,0
					c0,0,0,0.1,0.1,0.1l0,0l0,0l0,0l0,0l0,0l0,0v0.1l0,0l0,0l0,0l0,0l0,0l0,0l0,0l0,0l0,0l0,0l0,0v0.1l0,0v0.1l0,0l0,0l0,0v0.1l0,0
					l0,0l0,0l0,0l0,0l0,0l0,0l0,0l0,0l0,0l0,0l0,0l0,0l0,0l0,0l0,0l0,0v0.1l0,0l0,0l0,0l0,0l0,0l0,0l0,0l0,0l0,0l0,0l0,0l0,0l0,0
					l0,0v0.1l0,0l0,0v0.1v0.1l0,0l0,0l0,0l0,0l0,0l0,0l0,0l0,0l0,0l0,0l0,0l0,0c0,0,0,0,0,0.1l0,0v0.1l0,0l0,0l0,0l0,0l0,0v0.1l0,0
					v0.1v0.1l0,0l0,0l0,0l0,0l0,0c0,0,0,0,0,0.1l0,0l0,0l0,0l0,0l0,0c0,0,0,0.1,0,0.2l0,0l0,0c0,0,0,0,0,0.1v0.1l0,0l0,0l0,0v0.1
					l0,0l0,0l0,0l0,0l0,0c-0.1,0.1,0,0.1,0,0.2l0,0l0,0l0,0l0,0l0,0l0,0l0,0l0,0l0,0h-1.4v3h1.4l0,0v0.1v0.1l0,0l0,0l0,0l0,0l0,0
					c0,0,0,0,0,0.1l0,0l0,0l0,0l0,0l0,0l0,0l0,0l0,0l0,0l0,0l0,0l0,0l0,0l0,0l0,0l0,0l0,0l0,0l0,0c0,0,0,0,0,0.1l0,0l0,0l0,0l0,0
					l0,0l0,0l0,0l0,0l0,0l0,0l0,0l0,0l0,0v0.1c0,0,0,0,0,0.1c0,0,0,0,0,0.1c0,0,0,0,0,0.1l0,0l0,0c0,0,0,0,0,0.1l0,0l0,0l0,0l0,0
					c0,0,0,0,0,0.1l0,0c0,0,0,0,0,0.1v0.1v0.1l0,0l0,0l0,0l0,0l0,0l0,0l0,0l0,0l0,0l0,0l0,0l0,0c0,0,0,0,0,0.1l0,0l0,0l0,0l0,0l0,0
					l0,0l0,0l0,0l0,0v0.1l0,0l0,0c0,0,0,0,0,0.1l0,0l0,0v0.1c0,0,0,0,0,0.1c0,0,0,0,0,0.1l0,0l0,0l0,0l0,0l0,0c0,0,0,0,0,0.1l0,0
					l0,0l0,0v0.1l0,0c0,0,0,0,0,0.1l0,0l0,0l0,0l0,0l0,0v0.1l0,0l0,0l0,0l0,0l0,0l0,0l0,0l0,0c0,0,0,0.1,0,0.2l0,0l0,0l0,0l0,0l0,0
					l0,0c0,0,0,0,0,0.1l0,0l0,0l0,0c0,0,0,0,0,0.1l0,0l0,0l0,0l0,0v0.1l0,0l0,0v0.1l0,0l0,0l0,0l0,0c0,0,0,0,0,0.1v0.1l0,0l0,0l0,0
					l0,0c0,0,0,0,0,0.1l0,0l0,0l0,0v0.1l0,0l0,0l0,0v0.1v0.1l0,0c-0.5,0-0.5,0.1-0.5,0.1v0.4l0,0c-0.2,0.2-0.4,0.5-0.4,0.8v6.7
					c0,0,0,0,0,0.1l0,0l0,0v0.1l0,0c0.2,0.2,0.9,0.2,1,0.2s0.8,0,1-0.2l0,0v-0.1c0,0,0,0,0-0.1l0,0l0,0v-0.1v-6.7
					c0-0.4-0.2-0.7-0.4-0.8l0,0v-0.4c0-0.1,0-0.1-0.4-0.1l0,0l0,0l0,0l0,0l0,0l0,0l0,0l0,0l0,0l0,0V229l0,0l0,0l0,0c0,0,0,0,0-0.1
					l0,0l0,0l0,0l0,0l0,0v-0.1l0,0l0,0l0,0l0,0l0,0l0,0l0,0l0,0l0,0l0,0l0,0v-0.1l0,0l0,0l0,0l0,0l0,0c0.1-0.1,0-0.1,0-0.2l0,0l0,0
					l0,0l0,0l0,0l0,0c0,0,0,0,0-0.1l0,0l0,0l0,0v-0.1l0,0c0,0,0,0,0-0.1l0,0l0,0l0,0l0,0l0,0l0,0l0,0l0,0l0,0l0,0l0,0l0,0l0,0l0,0
					v-0.1l0,0l0,0l0,0l0,0l0,0l0,0l0,0l0,0l0,0l0,0l0,0l0,0l0,0c0,0,0,0,0-0.1l0,0l0,0c0,0,0,0,0-0.1l0,0l0,0l0,0l0,0l0,0l0,0l0,0
					l0,0l0,0v-0.1l0,0l0,0l0,0l0,0l0,0l0,0l0,0v-0.1c0,0,0,0,0-0.1c0,0,0,0,0-0.1l0,0l0,0c0,0,0,0,0-0.1l0,0l0,0l0,0c0,0,0,0,0-0.1
					l0,0l0,0l0,0l0,0l0,0v-0.1l0,0l0,0l0,0l0,0l0,0l0,0l0,0l0,0l0,0l0,0l0,0l0,0l0,0l0,0l0,0l0,0l0,0l0,0l0,0l0,0l0,0l0,0l0,0l0,0
					c0,0,0,0,0-0.1l0,0l0,0c0,0,0,0,0-0.1l0,0l0,0l0,0l0,0c0,0,0,0,0-0.1l0,0l0,0l0,0l0,0l0,0l0,0l0,0l0,0v-0.1c0,0,0,0,0-0.1
					c0,0,0,0,0-0.1l0,0l0,0l0,0l0,0l0,0l0,0c0,0,0,0,0-0.1l0,0l0,0l0,0l0,0l0,0l0,0c0,0,0,0,0-0.1h2v10.4c0,0.1,0.1,0.3,0.3,0.3h1.2
					c0.1,0,0.3-0.1,0.3-0.3v-0.1h19.5c0.4,0,0.7-0.3,0.7-0.8v-0.3C425.2,236,424.8,235.7,424.5,235.7z M404.9,234.9
					C405,234.9,405,235,404.9,234.9h3.4v0.7c0,0,0,0,0,0.1h-3.5v-0.8H404.9z M401.3,224.1L401.3,224.1L401.3,224.1L401.3,224.1
					L401.3,224.1L401.3,224.1L401.3,224.1c0-0.1,0-0.1,0-0.1s0,0,0-0.1l0,0l0,0c0.1,0,0.1-0.1,0.1-0.1l0,0l0,0l0,0l0,0l0,0l0,0
					c0,0,0,0,0-0.1l0,0l0,0l0,0l0,0l0,0l0,0v-0.1l0,0l0,0l0,0l0,0l0,0l0,0v-0.1l0,0l0,0l0,0l0,0l0,0l0,0c0,0,0,0,0-0.1l0,0l0,0l0,0
					l0,0l0,0l0,0v-0.1l0,0l0,0l0,0c0,0,0,0,0-0.1l0,0l0,0l0,0l0,0l0,0l0,0l0,0v-0.1l0,0l0,0l0,0l0,0l0,0l0,0l0,0l0,0l0,0l0,0l0,0
					l0,0l0,0c0,0,0,0,0-0.1l0,0v-0.1l0,0l0,0l0,0l0,0l0,0l0,0l0,0l0,0l0,0l0,0l0,0l0,0l0,0l0,0l0,0l0,0l0,0c0,0,0,0,0-0.1l0,0l0,0
					l0,0l0,0l0,0c0,0,0,0,0-0.1l0,0l0,0l0,0l0,0v-0.1l0,0l0,0l0,0l0,0l0,0l0,0v-0.1l0,0l0,0l0,0l0,0l0,0l0,0l0,0l0,0v-0.1l0,0l0,0
					l0,0l0,0v-0.1l0,0c0,0,0,0,0-0.1v-0.1l0,0l0,0l0,0V222l0,0l0,0l0,0c0,0,0,0,0-0.1l0,0l0,0l0,0l0,0l0,0l0,0l0,0
					c0-0.1,0-0.1,0-0.1l0,0l0,0l0,0l0,0l0,0l0,0l0,0l0,0l0,0v-0.1l0,0l0,0l0,0l0,0l0,0l0,0c0,0,0,0,0-0.1l0,0l0,0l0,0l0,0
					c0.1-0.1,0-0.1,0-0.2l0,0l0,0l0,0l0,0l0,0l0,0l0,0l0,0l0,0l0,0l0,0l0,0l0,0l0,0h2v4L401.3,224.1L401.3,224.1z"/>
			</g>
			<g>
				<path class="st7" d="M390.6,219.8h-0.5v-0.3h-3.8v0.3h-1.4v-1c0-0.3-0.3-0.6-0.6-0.6h-0.8h-2.7h-2.4c-0.3,0-0.6,0.3-0.6,0.6v1
					h-1.3v-0.3h-3.8v0.3h-0.5v1.5h0.5v0.2h3.8v-0.2h1.3v2.9c0,0.3,0.3,0.6,0.6,0.6h0.8c0,0.1-0.1,0.2-0.1,0.3v2
					c0,0.3,0.3,0.6,0.6,0.6h0.6v4.9h-0.8v3.2h3.7v-3.2h-0.6v-4.9h0.2c0.3,0,0.6-0.3,0.6-0.6v-2c0-0.1,0-0.2-0.1-0.3h0.2h0.8
					c0.3,0,0.6-0.3,0.6-0.6v-2.9h1.4v0.2h3.8v-0.2h0.6v-1.5H390.6z"/>
			</g>
		</g>
	</g>
	<g>
		<g>
			<path class="st8" d="M383.1,153.3"/>
			<path class="st8" d="M332.2,125.5"/>
			<g>
				<path class="st1" d="M404.9,146.5c-1.7-4.3-7.3-5.3-12.2-6.5c-4.9-1.2-7.3-4-7.3-4c-12.6-10.5-19.9-9.9-19.9-9.9s-44.9,0-50.6,0
					s-7.2-0.1-7.6,2.1c-1,6.3,0.4,24.8-1.1,27.8c-0.1,0.2-1.8,0.2-1.8,0.2c-0.2,0.9-0.2,1.8-0.1,2.3l11.7,1.3
					c-0.2-0.6-0.2-1.3-0.2-1.9c0-4.5,3.6-8.1,8.1-8.1s8.1,3.6,8.1,8.1c0,0.7-0.1,1.4-0.3,2.1l47.5,0.4c-0.3-0.8-0.4-1.7-0.4-2.5
					c0-4.5,3.6-8.1,8.1-8.1s8.1,3.6,8.1,8.1c0,0.9-0.2,1.8-0.4,2.7l11.5,0.1l-0.1-7.8C406,152.9,406.6,150.9,404.9,146.5z"/>
				<path class="st5" d="M406.6,161.2l-12.7-0.1l0.2-0.6c0.3-0.8,0.4-1.7,0.4-2.5c0-4.2-3.4-7.7-7.6-7.7s-7.6,3.4-7.6,7.7
					c0,0.8,0.1,1.6,0.4,2.4l0.2,0.6l-48.9-0.5l0.2-0.6c0.2-0.6,0.3-1.3,0.3-2c0-4.2-3.4-7.7-7.6-7.7s-7.6,3.4-7.6,7.7
					c0,0.6,0.1,1.2,0.2,1.8l0.2,0.7l-12.8-1.4v-0.4c-0.1-0.8,0-1.7,0.1-2.5l0.1-0.4h0.4c0.5,0,1.2-0.1,1.5-0.1
					c0.7-1.8,0.6-7.9,0.6-13.9c0-5.3-0.1-10.7,0.4-13.7c0.2-1.2,0.8-1.9,1.9-2.2c1-0.3,2.5-0.3,5-0.3c0.4,0,0.8,0,1.2,0
					c1.9,0,8.1,0,15.7,0c14.7,0,34.2,0,34.9,0c0.2,0,2.1-0.1,5.4,1c2,0.7,4.1,1.7,6.3,2.9c2.7,1.6,5.6,3.6,8.5,6l0,0l0,0
					c0,0,2.4,2.7,7.1,3.9c0.5,0.1,1,0.2,1.4,0.4c2.3,0.6,4.6,1.1,6.6,2.1c2.3,1.1,3.8,2.5,4.5,4.4c1.6,4,1.2,6.2,1.1,6.6
					L406.6,161.2z M395.3,160.1l10.4,0.1l-0.1-7.4v-0.1c0,0,0.5-2-1.1-6c-1.4-3.7-6-4.8-10.4-5.8c-0.5-0.1-1-0.2-1.4-0.4
					c-4.8-1.2-7.3-3.8-7.6-4.1c-6.4-5.3-11.3-7.7-14.4-8.7c-3.3-1.1-5.1-1-5.1-1l0,0c-0.4,0-45,0-50.6,0c-0.4,0-0.8,0-1.2,0
					c-5,0-5.7,0.1-5.9,1.7c-0.5,2.8-0.4,8.3-0.4,13.5c0,6.5,0.1,12.7-0.8,14.5c-0.2,0.3-0.5,0.4-1.4,0.4c-0.2,0-0.4,0-0.5,0
					c-0.1,0.5-0.1,0.9-0.1,1.4l10.6,1.1c-0.1-0.5-0.1-0.9-0.1-1.4c0-4.8,3.9-8.6,8.6-8.6s8.6,3.9,8.6,8.6c0,0.5-0.1,1.1-0.1,1.6
					l46.3,0.4c-0.2-0.7-0.2-1.3-0.2-2c0-4.8,3.9-8.6,8.6-8.6s8.6,3.9,8.6,8.6C395.5,158.7,395.4,159.4,395.3,160.1z"/>
			</g>
			<g>
				<g>
					<circle class="st4" cx="387" cy="157.9" r="6.5"/>
					<path class="st5" d="M387,164.9c-3.9,0-7-3.2-7-7c0-3.9,3.2-7,7-7s7,3.2,7,7C394,161.8,390.9,164.9,387,164.9z M387,151.9
						c-3.3,0-6.1,2.7-6.1,6.1c0,3.3,2.7,6.1,6.1,6.1c3.3,0,6.1-2.7,6.1-6.1S390.3,151.9,387,151.9z"/>
				</g>
				<g>
					<circle class="st6" cx="387" cy="157.9" r="3.7"/>
					<path class="st5" d="M387,162.1c-2.3,0-4.1-1.9-4.1-4.1c0-2.3,1.9-4.1,4.1-4.1s4.1,1.9,4.1,4.1
						C391.2,160.2,389.3,162.1,387,162.1z M387,154.7c-1.7,0-3.2,1.4-3.2,3.2c0,1.7,1.4,3.2,3.2,3.2c1.7,0,3.2-1.4,3.2-3.2
						C390.2,156.2,388.7,154.7,387,154.7z"/>
				</g>
			</g>
			<g>
				<g>
					<circle class="st4" cx="323.9" cy="157.9" r="6.5"/>
					<path class="st5" d="M323.9,164.9c-3.9,0-7-3.2-7-7c0-3.9,3.2-7,7-7s7,3.2,7,7C330.9,161.8,327.8,164.9,323.9,164.9z
						 M323.9,151.9c-3.3,0-6.1,2.7-6.1,6.1c0,3.3,2.7,6.1,6.1,6.1c3.3,0,6.1-2.7,6.1-6.1C329.9,154.6,327.2,151.9,323.9,151.9z"/>
				</g>
				<g>
					<circle class="st6" cx="323.9" cy="157.9" r="3.7"/>
					<path class="st5" d="M323.9,162.1c-2.3,0-4.1-1.9-4.1-4.1c0-2.3,1.9-4.1,4.1-4.1s4.1,1.9,4.1,4.1
						C328,160.2,326.2,162.1,323.9,162.1z M323.9,154.7c-1.7,0-3.2,1.4-3.2,3.2c0,1.7,1.4,3.2,3.2,3.2c1.7,0,3.2-1.4,3.2-3.2
						C327.1,156.2,325.6,154.7,323.9,154.7z"/>
				</g>
			</g>
			<path class="st8" d="M332.8,159.3"/>
			<path class="st8" d="M331.4,150.5"/>
			<path class="st5" d="M360.4,159.9l-1-0.1l0.1-2.4c0.3-5.3-0.2-8.7-0.6-10.6c-0.4-2-1-2.9-1-2.9l-0.1-0.1v-0.1l-0.1-17.7h1
				l0.1,17.5c0.4,0.7,2.1,4.4,1.6,13.9l0,0V159.9z"/>
			<path class="st5" d="M338.1,154.2h-1.7c-0.1,0-0.2,0.1-0.2,0.1v0.7c0,0.1,0.1,0.1,0.1,0.1h1.7c0.1,0,0.2-0.1,0.2-0.1v-0.7
				C338.3,154.3,338.2,154.2,338.1,154.2z"/>
			<path class="st5" d="M377,157.6c-1.2-1.4-2.8-2.1-4.6-2.1l0,0c-4,0-12.3-0.7-12.4-0.7l0,0l-20.6-0.5c-0.1,0-0.2,0.1-0.2,0.2v0.7
				c0,0.1,0.1,0.2,0.2,0.2l20.5,0.5l0,0c0.4,0,8.5,0.7,12.4,0.7l0,0c1.5,0,2.8,0.6,3.8,1.8c0.6,0.7,0.9,1.4,1.1,1.7
				c0,0.1,0.1,0.1,0.2,0.1l0.6-0.2c0.1,0,0.1-0.1,0.1-0.2C378.1,159.2,377.7,158.4,377,157.6z"/>
			<g>
				<path class="st5" d="M332.2,154.1h-0.6c-0.1,0-0.2,0.1-0.2,0.2v0.7c0,0.1,0.1,0.2,0.2,0.2h0.7c0.1,0,0.2-0.1,0.2-0.2v-0.7
					C332.4,154.2,332.3,154.1,332.2,154.1z"/>
				<path class="st5" d="M333.3,154.3v0.7c0,0.1,0.1,0.2,0.2,0.2h1.7c0.1,0,0.2-0.1,0.2-0.2v-0.7c0-0.1-0.1-0.2-0.2-0.2h-1.7
					C333.4,154.1,333.3,154.2,333.3,154.3z"/>
			</g>
			<g>
				<line class="st9" x1="360.8" y1="144.5" x2="364.8" y2="144.5"/>
				<path class="st5" d="M364.8,145L364.8,145h-4c-0.3,0-0.5-0.2-0.5-0.5s0.2-0.5,0.5-0.5l0,0h4c0.3,0,0.5,0.2,0.5,0.5
					C365.3,144.7,365.1,145,364.8,145z"/>
			</g>
			<g>
				<path class="st6" d="M404.4,145.6h-2.2c0,0,0.5,4.3,3.8,4.9"/>
				<path class="st5" d="M406,151c-1.5-0.3-2.7-1.3-3.5-3c-0.6-1.2-0.7-2.3-0.7-2.4l-0.1-0.5h2.7v1h-1.6c0.3,1.1,1.1,3.5,3.3,4
					L406,151z"/>
			</g>
			<g>
				<path class="st6" d="M360.4,131.3c0,0-1.3-3.4,3.9-3.1c5.2,0.3,9.2,0.7,17.5,8.7c0,0,2.8,2,1.7,4.3c-1.1,2.3-5.5,0.6-5.5,0.6
					l-13.7-2.6c0,0-2.4,0.1-3.2-3.9C360.4,131.3,360.4,131.3,360.4,131.3z"/>
				<path class="st5" d="M381.1,142.9c-1.4,0-2.9-0.5-3.1-0.6l-13.6-2.6c-0.2,0-0.8-0.1-1.5-0.5c-1-0.7-1.8-2-2.1-3.8l-0.8-4
					c-0.1-0.3-0.4-1.5,0.3-2.5c0.7-0.9,2.1-1.4,4.2-1.2c2.9,0.2,5.1,0.4,7.8,1.5c3,1.2,6.1,3.6,10,7.3c0.2,0.1,0.8,0.6,1.3,1.4
					c0.8,1.2,1,2.4,0.5,3.5C383.4,142.6,382.3,142.9,381.1,142.9z M364.4,138.7L364.4,138.7l13.8,2.7l0,0c0,0,1.1,0.4,2.2,0.5
					c1.4,0.1,2.3-0.2,2.6-0.9c0.9-1.9-1.5-3.7-1.5-3.7l0,0l0,0c-8.4-8-12.3-8.3-17.2-8.6c-1.7-0.1-2.8,0.2-3.3,0.8
					c-0.5,0.7-0.2,1.6-0.2,1.6l0,0l0,0l0.8,4C362.3,138.6,364.2,138.7,364.4,138.7L364.4,138.7L364.4,138.7z"/>
			</g>
			<g>
				<path class="st6" d="M406.1,157.9c0,0-3.4-2.2-11.4-2.2"/>
				<path class="st5" d="M405.9,158.3c0,0-0.9-0.5-2.6-1.1c-1.7-0.5-4.5-1.1-8.5-1.1v-1c8,0,11.5,2.2,11.6,2.3L405.9,158.3l0.3-0.4
					L405.9,158.3z"/>
			</g>
		</g>
		<g>
			<path class="st7" d="M350.4,133.4h-0.6v-0.3H346v0.3h-1.3v-1c0-0.3-0.3-0.6-0.6-0.6h-0.8h-2.7h-2.4c-0.3,0-0.6,0.3-0.6,0.6v1
				h-1.3v-0.3h-3.8v0.3H332v1.5h0.5v0.2h3.8v-0.2h1.3v2.9c0,0.3,0.3,0.6,0.6,0.6h0.8c0,0.1-0.1,0.2-0.1,0.3v2c0,0.3,0.3,0.6,0.6,0.6
				h0.6v4.9h-0.8v3.2h3.7v-3.1h-0.6v-4.9h0.2c0.3,0,0.6-0.3,0.6-0.6v-2c0-0.1,0-0.2-0.1-0.3h0.2h0.8c0.3,0,0.6-0.3,0.6-0.6V135h1.4
				v0.2h3.8V135h0.6v-1.6H350.4z"/>
		</g>
	</g>
</g>
<g>
	<g>
		<path class="st8" d="M239.6,131.5"/>
		<path class="st8" d="M188.8,103.6"/>
		<g>
			<path class="st1" d="M261.5,124.7c-1.7-4.3-7.3-5.3-12.2-6.5s-7.3-4-7.3-4c-12.6-10.5-19.9-9.9-19.9-9.9s-44.9,0-50.6,0
				s-7.2-0.1-7.6,2.1c-1,6.3,0.4,24.8-1.1,27.8c-0.1,0.2-1.8,0.2-1.8,0.2c-0.2,0.9-0.2,1.8-0.1,2.3l11.7,1.3
				c-0.2-0.6-0.2-1.3-0.2-1.9c0-4.5,3.6-8.1,8.1-8.1s8.1,3.6,8.1,8.1c0,0.7-0.1,1.4-0.3,2.1l47.5,0.4c-0.3-0.8-0.4-1.7-0.4-2.5
				c0-4.5,3.6-8.1,8.1-8.1s8.1,3.6,8.1,8.1c0,0.9-0.2,1.8-0.4,2.7l11.5,0.1l-0.1-7.8C262.5,131,263.2,129,261.5,124.7z"/>
			<path class="st5" d="M263.2,139.3l-12.7-0.1l0.2-0.6c0.3-0.8,0.4-1.7,0.4-2.5c0-4.2-3.4-7.7-7.6-7.7s-7.6,3.4-7.6,7.7
				c0,0.8,0.1,1.6,0.4,2.4l0.2,0.6l-48.9-0.5l0.2-0.6c0.2-0.6,0.3-1.3,0.3-2c0-4.2-3.4-7.7-7.6-7.7s-7.6,3.4-7.6,7.7
				c0,0.6,0.1,1.2,0.2,1.8l0.2,0.7l-12.8-1.4v-0.4c-0.1-0.8,0-1.7,0.1-2.5l0.1-0.4h0.4c0.5,0,1.2-0.1,1.5-0.1
				c0.7-1.8,0.6-7.9,0.6-13.9c0-5.3-0.1-10.7,0.4-13.7c0.2-1.2,0.8-1.9,1.9-2.2c1-0.3,2.5-0.3,5-0.3c0.4,0,0.8,0,1.2,0
				c1.9,0,8.1,0,15.7,0c14.7,0,34.2,0,34.9,0c0.2,0,2.1-0.1,5.4,1c2,0.7,4.1,1.7,6.3,2.9c2.7,1.6,5.6,3.6,8.5,6l0,0l0,0
				c0,0,2.4,2.7,7.1,3.9c0.5,0.1,1,0.2,1.4,0.4c2.3,0.6,4.6,1.1,6.6,2.1c2.3,1.1,3.8,2.5,4.5,4.4c1.6,4,1.2,6.2,1.1,6.6L263.2,139.3
				L263.2,139.3z M251.8,138.3l10.4,0.1l-0.1-7.4v-0.1c0,0,0.5-2-1.1-6c-1.4-3.7-6-4.8-10.4-5.8c-0.5-0.1-1-0.2-1.4-0.4
				c-4.8-1.2-7.3-3.8-7.6-4.1c-6.4-5.3-11.3-7.7-14.4-8.7c-3.3-1.1-5.1-1-5.1-1l0,0c-0.4,0-45,0-50.6,0c-0.4,0-0.8,0-1.2,0
				c-5,0-5.7,0.1-5.9,1.7c-0.5,2.8-0.4,8.3-0.4,13.5c0,6.5,0.1,12.7-0.8,14.5c-0.2,0.3-0.5,0.4-1.4,0.4c-0.2,0-0.4,0-0.5,0
				c-0.1,0.5-0.1,0.9-0.1,1.4l10.6,1.1c-0.1-0.5-0.1-0.9-0.1-1.4c0-4.8,3.9-8.6,8.6-8.6c4.7,0,8.6,3.9,8.6,8.6
				c0,0.5-0.1,1.1-0.1,1.6l46.3,0.4c-0.2-0.7-0.2-1.3-0.2-2c0-4.8,3.9-8.6,8.6-8.6s8.6,3.9,8.6,8.6
				C252.1,136.8,252,137.5,251.8,138.3z"/>
		</g>
		<g>
			<g>
				<circle class="st4" cx="243.5" cy="136.1" r="6.5"/>
				<path class="st5" d="M243.5,143.1c-3.9,0-7-3.2-7-7s3.2-7,7-7s7,3.2,7,7S247.4,143.1,243.5,143.1z M243.5,130
					c-3.3,0-6.1,2.7-6.1,6.1c0,3.3,2.7,6.1,6.1,6.1c3.3,0,6.1-2.7,6.1-6.1S246.9,130,243.5,130z"/>
			</g>
			<g>
				<circle class="st6" cx="243.5" cy="136.1" r="3.7"/>
				<path class="st5" d="M243.5,140.2c-2.3,0-4.1-1.9-4.1-4.1s1.9-4.1,4.1-4.1s4.1,1.9,4.1,4.1S245.8,140.2,243.5,140.2z
					 M243.5,132.9c-1.7,0-3.2,1.4-3.2,3.2c0,1.7,1.4,3.2,3.2,3.2c1.7,0,3.2-1.4,3.2-3.2S245.3,132.9,243.5,132.9z"/>
			</g>
		</g>
		<g>
			<g>
				<circle class="st4" cx="180.4" cy="136.1" r="6.5"/>
				<path class="st5" d="M180.4,143.1c-3.9,0-7-3.2-7-7s3.2-7,7-7c3.9,0,7,3.2,7,7S184.3,143.1,180.4,143.1z M180.4,130
					c-3.3,0-6.1,2.7-6.1,6.1c0,3.3,2.7,6.1,6.1,6.1c3.3,0,6.1-2.7,6.1-6.1S183.7,130,180.4,130z"/>
			</g>
			<g>
				<circle class="st6" cx="180.4" cy="136.1" r="3.7"/>
				<path class="st5" d="M180.4,140.2c-2.3,0-4.1-1.9-4.1-4.1s1.9-4.1,4.1-4.1s4.1,1.9,4.1,4.1S182.7,140.2,180.4,140.2z
					 M180.4,132.9c-1.7,0-3.2,1.4-3.2,3.2c0,1.7,1.4,3.2,3.2,3.2s3.2-1.4,3.2-3.2S182.2,132.9,180.4,132.9z"/>
			</g>
		</g>
		<path class="st8" d="M189.3,137.5"/>
		<path class="st8" d="M188,128.7"/>
		<path class="st5" d="M217,138l-1-0.1l0.1-2.4c0.3-5.3-0.2-8.7-0.6-10.6c-0.4-2-1-2.9-1-2.9l-0.1-0.1v-0.1l-0.1-17.7h1l0.1,17.5
			c0.4,0.7,2.1,4.4,1.6,13.9l0,0V138z"/>
		<path class="st5" d="M194.7,132.4H193c-0.1,0-0.2,0.1-0.2,0.1v0.7c0,0.1,0.1,0.1,0.1,0.1h1.7c0.1,0,0.2-0.1,0.2-0.1v-0.7
			L194.7,132.4z"/>
		<path class="st5" d="M233.5,135.7c-1.2-1.4-2.8-2.1-4.6-2.1l0,0c-4,0-12.3-0.7-12.4-0.7l0,0l-20.6-0.5c-0.1,0-0.2,0.1-0.2,0.2v0.7
			c0,0.1,0.1,0.2,0.2,0.2l20.5,0.5l0,0c0.4,0,8.5,0.7,12.4,0.7l0,0c1.5,0,2.8,0.6,3.8,1.8c0.6,0.7,0.9,1.4,1.1,1.7
			c0,0.1,0.1,0.1,0.2,0.1l0.6-0.2c0.1,0,0.1-0.1,0.1-0.2C234.6,137.3,234.2,136.5,233.5,135.7z"/>
		<g>
			<path class="st5" d="M188.8,132.2h-0.6c-0.1,0-0.2,0.1-0.2,0.2v0.7c0,0.1,0.1,0.2,0.2,0.2h0.7c0.1,0,0.2-0.1,0.2-0.2v-0.7
				C188.9,132.3,188.9,132.2,188.8,132.2z"/>
			<path class="st5" d="M189.9,132.4v0.7c0,0.1,0.1,0.2,0.2,0.2h1.7c0.1,0,0.2-0.1,0.2-0.2v-0.7c0-0.1-0.1-0.2-0.2-0.2h-1.7
				C189.9,132.3,189.9,132.3,189.9,132.4z"/>
		</g>
		<g>
			<line class="st9" x1="217.3" y1="122.6" x2="221.3" y2="122.6"/>
			<path class="st5" d="M221.3,123.1L221.3,123.1h-4c-0.3,0-0.5-0.2-0.5-0.5s0.2-0.5,0.5-0.5l0,0h4c0.3,0,0.5,0.2,0.5,0.5
				S221.6,123.1,221.3,123.1z"/>
		</g>
		<g>
			<path class="st6" d="M260.9,123.7h-2.2c0,0,0.5,4.3,3.8,4.9"/>
			<path class="st5" d="M262.5,129.1c-1.5-0.3-2.7-1.3-3.5-3c-0.6-1.2-0.7-2.3-0.7-2.4l-0.1-0.5h2.7v1h-1.6c0.3,1.1,1.1,3.5,3.3,4
				L262.5,129.1z"/>
		</g>
		<g>
			<path class="st6" d="M216.9,109.5c0,0-1.3-3.4,3.9-3.1s9.2,0.7,17.5,8.7c0,0,2.8,2,1.7,4.3s-5.5,0.6-5.5,0.6l-13.7-2.6
				c0,0-2.4,0.1-3.2-3.9C216.9,109.5,216.9,109.5,216.9,109.5z"/>
			<path class="st5" d="M237.6,121.1c-1.4,0-2.9-0.5-3.1-0.6l-13.6-2.6c-0.2,0-0.8-0.1-1.5-0.5c-1-0.7-1.8-2-2.1-3.8l-0.8-4
				c-0.1-0.3-0.4-1.5,0.3-2.5c0.7-0.9,2.1-1.4,4.2-1.2c2.9,0.2,5.1,0.4,7.8,1.5c3,1.2,6.1,3.6,10,7.3c0.2,0.1,0.8,0.6,1.3,1.4
				c0.8,1.2,1,2.4,0.5,3.5C239.9,120.7,238.8,121.1,237.6,121.1z M221,116.8L221,116.8l13.8,2.7l0,0c0,0,1.1,0.4,2.2,0.5
				c1.4,0.1,2.3-0.2,2.6-0.9c0.9-1.9-1.5-3.7-1.5-3.7l0,0l0,0c-8.4-8-12.3-8.3-17.2-8.6c-1.7-0.1-2.8,0.2-3.3,0.8
				c-0.5,0.7-0.2,1.6-0.2,1.6l0,0l0,0l0.8,4C218.9,116.8,220.7,116.8,221,116.8C220.9,116.8,220.9,116.8,221,116.8L221,116.8z"/>
		</g>
		<g>
			<path class="st6" d="M262.7,136.1c0,0-3.4-2.2-11.4-2.2"/>
			<path class="st5" d="M262.4,136.5c0,0-0.9-0.5-2.6-1.1c-1.7-0.5-4.5-1.1-8.5-1.1v-1c8,0,11.5,2.2,11.6,2.3L262.4,136.5l0.3-0.4
				L262.4,136.5z"/>
		</g>
	</g>
	<g>
		<path class="st7" d="M206.9,111.5h-0.6v-0.3h-3.8v0.3h-1.3v-1c0-0.3-0.3-0.6-0.6-0.6h-0.8h-2.7h-2.4c-0.3,0-0.6,0.3-0.6,0.6v1
			h-1.3v-0.3H189v0.3h-0.5v1.5h0.5v0.2h3.8V113h1.3v2.9c0,0.3,0.3,0.6,0.6,0.6h0.8c0,0.1-0.1,0.2-0.1,0.3v2c0,0.3,0.3,0.6,0.6,0.6
			h0.6v4.9h-0.8v3.2h3.7v-3.2h-0.6v-4.9h0.2c0.3,0,0.6-0.3,0.6-0.6v-2c0-0.1,0-0.2-0.1-0.3h0.2h0.8c0.3,0,0.6-0.3,0.6-0.6V113h1.4
			v0.2h3.8V113h0.6v-1.5H206.9z"/>
	</g>
</g>
<g class="st3">
	<path class="st1" d="M377.7,350.5c0,0.7,0.2,1.3,0.5,1.8h-2.9c-0.2-0.4-0.4-1-0.4-1.8l-0.1-1.6c-0.1-1.8-0.8-2.4-2.4-2.4h-3.6v5.8
		H366v-14.8h6.7c3.4,0,5.3,1.6,5.3,4.2c0,1.8-0.9,3-2.5,3.6c1.6,0.5,2.1,1.5,2.2,3.2L377.7,350.5z M368.7,344.2h3.8
		c1.6,0,2.5-0.8,2.5-2.3c0-1.4-0.9-2.2-2.6-2.2h-3.6L368.7,344.2L368.7,344.2z"/>
	<path class="st1" d="M389.3,345.1v7.2h-2.6v-6.7c0-1.3-0.7-2-2-2s-2.4,0.9-2.4,2.7v6h-2.6v-14.8h2.6v5.5c0.8-1.1,1.9-1.7,3.3-1.7
		C387.9,341.3,389.3,342.6,389.3,345.1z"/>
	<path class="st1" d="M396.5,341.3c1.6,0,3,0.5,4,1.6c1,1,1.5,2.4,1.5,4.1s-0.5,3.1-1.5,4.1s-2.3,1.6-4,1.6s-3-0.5-4-1.6
		s-1.6-2.4-1.6-4.1s0.5-3,1.6-4.1C393.5,341.7,394.8,341.3,396.5,341.3z M396.4,338.4l-1.6,1.6h-2.4l2.4-3h3.2l2.4,3H398
		L396.4,338.4z M399.3,346.9c0-2.2-1.1-3.4-2.8-3.4c-1.8,0-2.8,1.2-2.8,3.4s1,3.4,2.8,3.4C398.2,350.4,399.3,349.1,399.3,346.9z"/>
	<path class="st1" d="M413.3,345.1v7.2h-2.6v-6.7c0-1.3-0.7-2-2-2s-2.4,0.9-2.4,2.7v6h-2.6v-10.8h2.6v1.6c0.8-1.2,1.9-1.8,3.4-1.8
		C411.8,341.3,413.3,342.6,413.3,345.1z"/>
	<path class="st1" d="M425.6,347.7h-8.1c0.2,1.9,1.2,2.8,2.8,2.8c1.2,0,2-0.5,2.5-1.6h2.5c-0.5,2.2-2.4,3.6-5,3.6
		c-1.6,0-2.9-0.5-3.9-1.6s-1.5-2.4-1.5-4.1s0.5-3,1.5-4.1c1-1,2.2-1.6,3.8-1.6c1.6,0,2.9,0.5,3.9,1.6c0.9,1.1,1.4,2.5,1.4,4.2
		L425.6,347.7L425.6,347.7z M417.5,345.8h5.4c-0.2-1.6-1.2-2.6-2.7-2.6S417.7,344.1,417.5,345.8z"/>
	<path class="st1" d="M426.8,347.5v-2.2h6.2v2.2H426.8z"/>
	<path class="st1" d="M444.7,352.3l-1.1-3.3H437l-1.1,3.3H433l5.7-14.8h3.3l5.7,14.8H444.7z M437.8,346.6h4.8L442,345
		c-0.5-1.3-1.1-3-1.8-5.1c-0.6,1.8-1.2,3.5-1.8,5.1L437.8,346.6z"/>
	<path class="st1" d="M448.6,352.3v-14.8h2.6v14.8H448.6z"/>
	<path class="st1" d="M462.9,342.7c0.9,1,1.3,2.4,1.3,4.1s-0.4,3.1-1.3,4.1s-2,1.6-3.5,1.6s-2.6-0.5-3.4-1.6v5.5h-2.6v-14.8h2.5v1.6
		c0.7-1.2,1.9-1.8,3.4-1.8C460.8,341.3,462,341.7,462.9,342.7z M458.7,350.4c0.9,0,1.6-0.3,2-0.9c0.5-0.6,0.7-1.5,0.7-2.6
		c0-2.2-1-3.4-2.8-3.4s-2.8,1.2-2.8,3.4c0,1.1,0.3,2,0.7,2.6C457.1,350,457.9,350.4,458.7,350.4z"/>
	<path class="st1" d="M476,347.7h-8c0.2,1.9,1.2,2.8,2.8,2.8c1.2,0,2-0.5,2.5-1.6h2.5c-0.5,2.2-2.4,3.6-5,3.6
		c-1.6,0-2.9-0.5-3.9-1.6s-1.5-2.4-1.5-4.1s0.5-3,1.5-4.1c1-1,2.2-1.6,3.8-1.6s2.9,0.5,3.9,1.6c0.9,1.1,1.4,2.5,1.4,4.2L476,347.7
		L476,347.7z M467.9,345.8h5.4c-0.2-1.6-1.2-2.6-2.7-2.6C469.1,343.3,468.2,344.1,467.9,345.8z"/>
	<path class="st1" d="M477,348.8h2.6c0.1,1.3,0.8,1.8,2.4,1.8c1.4,0,2.2-0.4,2.2-1.3c0-0.7-0.5-1.1-2.1-1.4l-1.2-0.2
		c-2.4-0.4-3.5-1.5-3.5-3.2c0-2,1.6-3.2,4.5-3.2c3,0,4.7,1.2,4.8,3.6h-2.5c-0.1-1.3-0.8-1.8-2.3-1.8c-1.3,0-1.9,0.4-1.9,1.3
		c0,0.7,0.5,1.1,1.8,1.3l1.3,0.2c2.6,0.5,3.7,1.4,3.7,3.3c0,2.2-1.8,3.4-4.8,3.4C478.7,352.5,477.1,351.3,477,348.8z"/>
</g>
<g>
	<g>
		<g>
			<g>
				<circle class="st4" cx="417.3" cy="407.6" r="6.5"/>
				<path class="st5" d="M417.3,414.6c-3.9,0-7-3.2-7-7s3.2-7,7-7s7,3.2,7,7S421.2,414.6,417.3,414.6z M417.3,401.5
					c-3.3,0-6.1,2.7-6.1,6.1c0,3.3,2.7,6.1,6.1,6.1c3.3,0,6.1-2.7,6.1-6.1C423.3,404.2,420.6,401.5,417.3,401.5z"/>
			</g>
			<g>
				<circle class="st6" cx="417.3" cy="407.6" r="3.7"/>
				<path class="st5" d="M417.3,411.7c-2.3,0-4.1-1.9-4.1-4.1c0-2.3,1.9-4.1,4.1-4.1s4.1,1.9,4.1,4.1
					C421.4,409.9,419.6,411.7,417.3,411.7z M417.3,404.4c-1.7,0-3.2,1.4-3.2,3.2c0,1.7,1.4,3.2,3.2,3.2s3.2-1.4,3.2-3.2
					C420.4,405.8,419,404.4,417.3,404.4z"/>
			</g>
		</g>
		<g>
			<g>
				<circle class="st4" cx="492.8" cy="408.1" r="6.5"/>
				<path class="st5" d="M492.8,415.1c-3.9,0-7-3.2-7-7s3.2-7,7-7s7,3.2,7,7S496.7,415.1,492.8,415.1z M492.8,402
					c-3.3,0-6.1,2.7-6.1,6.1c0,3.3,2.7,6.1,6.1,6.1c3.3,0,6.1-2.7,6.1-6.1C498.8,404.7,496.1,402,492.8,402z"/>
			</g>
			<g>
				<circle class="st6" cx="492.8" cy="408.1" r="3.7"/>
				<path class="st5" d="M492.8,412.2c-2.3,0-4.1-1.9-4.1-4.1c0-2.3,1.9-4.1,4.1-4.1s4.1,1.9,4.1,4.1S495.1,412.2,492.8,412.2z
					 M492.8,404.9c-1.7,0-3.2,1.4-3.2,3.2c0,1.7,1.4,3.2,3.2,3.2c1.7,0,3.2-1.4,3.2-3.2S494.5,404.9,492.8,404.9z"/>
			</g>
		</g>
		<g>
			<path class="st1" d="M508.3,400.1c-0.1-6.7-1.5-6.3-2.3-7.2s-6.6-4-6.6-4l-1.8-0.2c-7.9-10.6-20.7-19.5-22.7-20.9
				s-5.7-1.7-5.7-1.7s-54.7-0.1-62.4,0.1c-7.6,0.2-3.5-1.4-6,3.4s-2.4,30.7-2.4,30.7h-0.8v8.9h6h6c-0.1-0.5-0.2-1-0.2-1.6
				c0-4.3,3.5-7.8,7.8-7.8s7.8,3.5,7.8,7.8c0,0.5-0.1,1.1-0.2,1.6c2.8,0,51.2,0,60,0c0-0.3-0.1-0.7-0.1-1c0-4.4,3.6-8,8-8s8,3.6,8,8
				c0,0.2,0,0.5,0,0.7l8.5-0.2v-8.6L508.3,400.1L508.3,400.1z"/>
			<path class="st5" d="M485.5,409.6h-61.1l0.1-0.6c0.1-0.5,0.1-1,0.1-1.5c0-4-3.3-7.3-7.3-7.3s-7.3,3.3-7.3,7.3c0,0.5,0,1,0.1,1.5
				l0.1,0.6h-13.1v-9.8h0.8c0-3.7,0.1-25.9,2.4-30.5c0.8-1.6,0.9-2.4,0.9-2.9c0-0.3,0.1-0.7,0.4-0.8c0.2-0.1,0.5-0.1,1.1,0
				c0.7,0.1,1.9,0.1,4,0.1c7.5-0.2,61.8-0.1,62.4-0.1l0,0c0.2,0,3.9,0.2,5.9,1.8c0.1,0.1,0.3,0.2,0.6,0.4c1.6,1.1,5.3,3.8,9.5,7.4
				c5.2,4.5,9.4,8.8,12.6,13l1.7,0.2h0.1c0.6,0.3,5.9,3.2,6.8,4.1c0.1,0.1,0.3,0.2,0.4,0.4c0.4,0.3,1,0.7,1.4,1.8
				c0.4,1.1,0.6,2.7,0.7,4.9h0.9v9.5l-9.5,0.2v-0.5c0-0.2,0-0.4,0-0.6c0-4.1-3.3-7.5-7.5-7.5c-4.1,0-7.5,3.3-7.5,7.5
				c0,0.3,0,0.6,0.1,1L485.5,409.6z M425.5,408.6h58.8c0-0.2,0-0.4,0-0.5c0-4.7,3.8-8.4,8.4-8.4s8.4,3.8,8.4,8.4c0,0.1,0,0.1,0,0.2
				l7.4-0.2v-7.6h-0.9V400c-0.1-5.3-0.9-5.9-1.6-6.4c-0.2-0.1-0.4-0.3-0.6-0.5c-0.6-0.6-4.2-2.7-6.4-3.9l-1.9-0.2l-0.1-0.2
				c-4.9-6.5-12.3-13.4-22-20.4c-0.2-0.2-0.4-0.3-0.6-0.4c-1.8-1.3-5.2-1.5-5.4-1.6c-1.2,0-54.8-0.1-62.3,0.1
				c-2.2,0.1-3.4,0-4.1-0.1c-0.2,0-0.3,0-0.5,0l0,0c0,0.5-0.1,1.5-1,3.2c-1,1.9-1.7,7.8-2.1,17c-0.3,7-0.3,13.5-0.3,13.5v0.5h-0.8
				v7.9H409c0-0.4-0.1-0.7-0.1-1.1c0-4.6,3.7-8.3,8.3-8.3s8.3,3.7,8.3,8.3C425.6,407.9,425.6,408.3,425.5,408.6z"/>
		</g>
		<g>
			<path class="st6" d="M474.6,376.5c0.9,0,1.8,0.1,2.8,0.1c1.4,0,3.1-0.2,4.4,0.5c0.8,0.5,1.4,1.2,2,1.9c0.7,0.7,1.4,1.4,2,2.2
				c1.4,1.7,2.8,3.4,4.2,5.1c0.6,0.8,1.2,1.7,1.3,2.6c0.1,0.4,0,0.7-0.1,1.1c-0.7,1.8-3.6,1.4-5,1c-1.3-0.4-2.5-1-3.8-1.4
				c-2.3-0.7-4.8-0.7-7.3-1c-1.3-0.1-2.6-0.5-2.6-2l-0.2-8C472.4,377.5,473.4,376.5,474.6,376.5z"/>
			<path class="st5" d="M488.6,391.9c-0.8,0-1.7-0.2-2.5-0.4c-0.7-0.2-1.3-0.5-2-0.7c-0.6-0.2-1.2-0.5-1.8-0.7
				c-1.7-0.5-3.6-0.7-5.4-0.8c-0.6,0-1.2-0.1-1.8-0.2c-0.8-0.1-1.5-0.3-2-0.6c-0.7-0.4-1.1-1.1-1.1-1.9l-0.2-8
				c0-0.7,0.3-1.4,0.8-1.9s1.2-0.8,1.9-0.7l2.8,0.1c0.3,0,0.6,0,1,0c1.2,0,2.6,0,3.7,0.6c0.7,0.4,1.3,1,1.8,1.6
				c0.1,0.1,0.2,0.2,0.3,0.3c0.2,0.3,0.5,0.5,0.7,0.8c0.4,0.5,0.9,0.9,1.3,1.4c1.2,1.4,2.4,2.9,3.6,4.4c0.2,0.3,0.4,0.5,0.6,0.8
				c0.6,0.7,1.3,1.7,1.4,2.9c0.1,0.5,0,1-0.1,1.3C491.2,391.5,490,391.9,488.6,391.9z M474.5,377c-0.4,0-0.8,0.2-1.1,0.5
				c-0.3,0.3-0.5,0.7-0.5,1.2l0.2,8c0,0.6,0.3,1.4,2.2,1.6c0.6,0.1,1.2,0.1,1.8,0.1c1.9,0.1,3.8,0.3,5.6,0.9
				c0.6,0.2,1.3,0.4,1.9,0.7c0.6,0.2,1.3,0.5,1.9,0.7c1.4,0.4,3.8,0.7,4.4-0.7c0.1-0.2,0.1-0.5,0.1-0.8c-0.1-0.7-0.5-1.5-1.2-2.4
				c-0.2-0.3-0.4-0.5-0.6-0.8c-1.2-1.4-2.4-2.9-3.6-4.4c-0.4-0.5-0.9-0.9-1.3-1.4c-0.2-0.3-0.5-0.5-0.7-0.8
				c-0.1-0.1-0.2-0.2-0.3-0.3c-0.5-0.6-1-1.1-1.6-1.5c-0.9-0.5-2.1-0.5-3.2-0.5c-0.3,0-0.7,0-1,0L474.5,377L474.5,377z"/>
		</g>
		<path class="st5" d="M404.8,374.3c-0.7,0-1.4,0-2,0c-0.1,0-0.2,0.1-0.2,0.2v0.7c0,0.1,0.1,0.2,0.2,0.2c0.6,0,1.3,0,2,0
			c0.1,0,0.2-0.1,0.2-0.2v-0.7C405,374.4,404.9,374.3,404.8,374.3z"/>
		<path class="st5" d="M408.3,374.3c-0.7,0-1.4,0-2,0c-0.1,0-0.2,0.1-0.2,0.2v0.7c0,0.1,0.1,0.2,0.2,0.2c0.6,0,1.3,0,2,0
			c0.1,0,0.2-0.1,0.2-0.2v-0.7C408.4,374.3,408.4,374.3,408.3,374.3z"/>
		<g>
			<path class="st5" d="M486.6,376.6c-0.4-0.6-1.5-1.1-3.4-1.5c-2.7-0.5-7-0.8-12.8-0.8c-5.7,0-15.4,0-25.9,0c-11,0-22.7,0-31.5,0
				c0,0-0.1,0-0.1,0.1v0.9c0,0,0,0.1,0.1,0.1c8.7,0,20.5,0,31.5,0c10.5,0,20.2,0,25.9,0c5.8,0,10.1,0.3,12.8,0.9
				c1.7,0.3,2.3,0.7,2.5,0.9h0.1l0,0c0,0,0,0,0.1,0l0.8,0.4h0.1C486.8,377.2,486.8,376.9,486.6,376.6z"/>
			<path class="st5" d="M411.7,374.3c-0.7,0-1.3,0-2,0c-0.1,0-0.2,0.1-0.2,0.2v0.7c0,0.1,0.1,0.2,0.2,0.2c0.6,0,1.3,0,2,0
				c0.1,0,0.2-0.1,0.2-0.2v-0.7C411.8,374.4,411.8,374.3,411.7,374.3z"/>
		</g>
		<rect x="468.9" y="375.3" class="st5" width="1" height="33.8"/>
		<path class="st5" d="M473.6,393.8h-2.3c-0.4,0-0.6-0.3-0.6-0.6v-1.9c0-0.4,0.3-0.6,0.6-0.6h2.3c0.4,0,0.6,0.3,0.6,0.6v1.9
			C474.2,393.5,473.9,393.8,473.6,393.8z"/>
		<path class="st5" d="M509.2,400.7h-15.8c-0.3,0-0.5-0.2-0.5-0.5s0.2-0.5,0.5-0.5h15.8c0.3,0,0.5,0.2,0.5,0.5
			S509.4,400.7,509.2,400.7z"/>
	</g>
	<g>
		<path class="st7" d="M434.3,393.5h-4.4c-0.4,0-0.8-0.4-0.8-0.8s0.4-0.8,0.8-0.8h4.4c0.4,0,0.8,0.4,0.8,0.8
			C435,393.2,434.7,393.5,434.3,393.5z"/>
		<path class="st7" d="M432.1,395.7c-0.4,0-0.8-0.4-0.8-0.8v-4.4c0-0.4,0.4-0.8,0.8-0.8s0.8,0.4,0.8,0.8v4.4
			C432.9,395.3,432.5,395.7,432.1,395.7z"/>
	</g>
	<g>
		<path class="st7" d="M462.9,402v-0.1l0.4-0.1l-0.1-0.7l-0.4,0.1c0-0.1,0-0.1-0.1-0.2l0.3-0.2l-0.3-0.6l-0.3,0.2l-0.1-0.1l0.3-0.3
			l-0.5-0.5l-0.3,0.3l-0.1-0.1l0.2-0.3l-0.6-0.3l-0.2,0.3c-0.1,0-0.1,0-0.2-0.1l0.1-0.4l-0.7-0.1l-0.1,0.4c-0.1,0-0.1,0-0.2,0l0,0
			v-0.3h-0.7v0.3H459v-0.3h-0.7v0.3h-0.2v-0.3h-0.7v0.3h-0.2v-0.3h-0.7v0.3h-0.2v-0.3h-0.7v0.3h-0.2v-0.3h-0.7v0.3h-0.2v-0.3h-0.7
			v0.3h-0.2v-0.3h-0.7v0.3h-0.2v-0.3H452v0.3l0,0v-0.3h-0.7v0.3h-0.2v-0.3h-0.7v0.3h-0.2v-0.3h-0.7v0.3h-0.2v-0.3h-0.7v0.3h-0.2
			v-0.3h-0.7v0.3h-0.2v-0.3h-0.7v0.3c-0.1,0-0.1,0-0.2,0l-0.1-0.4l-0.7,0.1l0.1,0.4c-0.1,0-0.1,0-0.2,0.1l-0.2-0.3l-0.6,0.3l0.2,0.3
			l-0.1,0.1l-0.3-0.3l-0.5,0.5l0.3,0.2l-0.1,0.1l-0.3-0.2l-0.3,0.6l0.3,0.2c0,0.1,0,0.1-0.1,0.2l-0.4-0.1l-0.1,0.7h0.4l0,0v0.1
			l-0.4,0.1l0.1,0.7l0.4-0.1c0,0.1,0,0.1,0.1,0.2l-0.3,0.2l0.3,0.6l0.3-0.2l0.1,0.1l-0.3,0.3l0.5,0.5l0.3-0.3l0.1,0.1l-0.2,0.3
			l0.6,0.3l0.2-0.3c0.1,0,0.1,0,0.2,0.1l-0.1,0.4l0.7,0.1l0.1-0.4c0.1,0,0.1,0,0.2,0l0,0v0.3h0.7v-0.3h0.2v0.3h0.7v-0.3h0.2v0.3h0.7
			v-0.3h0.2v0.3h0.7v-0.3h0.2v0.3h0.7v-0.3h0.2v0.3h0.7v-0.3h0.2v0.3h0.7v-0.3h0.2v0.3h0.7v-0.3h0.2v0.3h0.7v-0.3h0.2v0.3h0.7v-0.3
			h0.2v0.3h0.7v-0.3h0.2v0.3h0.7v-0.3h0.2v0.3h0.7v-0.3h0.2v0.3h0.7v-0.3h0.2v0.3h0.7v-0.3c0.1,0,0.1,0,0.2,0l0.1,0.4l0.7-0.1
			l-0.1-0.4c0.1,0,0.1,0,0.2-0.1l0.2,0.3l0.6-0.3l-0.2-0.3l0.1-0.1l0.3,0.3l0.5-0.5l-0.3-0.2l0.1-0.1l0.3,0.2l0.3-0.6l-0.3-0.2
			c0-0.1,0-0.1,0.1-0.2l0.4,0.1l0.1-0.7H462.9C462.9,402.1,462.9,402,462.9,402z"/>
		<path class="st7" d="M464.6,396.5H463c0,0,0,0,0-0.1v-6.8c0-0.3-0.3-0.6-0.6-0.6h-1.1v-1.7c0-0.3-0.3-0.6-0.6-0.6h-10.6
			c-0.3,0-0.6,0.3-0.6,0.6v1.7h-0.7c-0.3,0-0.6,0.3-0.6,0.6v2.3h-3.3h-0.1v-14.4c0-0.1-0.1-0.3-0.3-0.3h-1.2c-0.1,0-0.3,0.1-0.3,0.3
			v1.1h-3.8v2.3h1.4c0,0,0,0,0,0.1l0,0l0,0l0,0l0,0c0,0,0,0,0,0.1l0,0l0,0l0,0l0,0l0,0l0,0l0,0l0,0l0,0l0,0l0,0l0,0l0,0l0,0l0,0l0,0
			l0,0l0,0l0,0l0,0l0,0l0,0l0,0l0,0l0,0l0,0l0,0l0,0v0.1l0,0l0,0l0,0l0,0l0,0v0.1l0,0l0,0c0,0,0,0.1,0.1,0.1l0,0l0,0l0,0l0,0l0,0
			l0,0v0.1l0,0l0,0l0,0l0,0l0,0l0,0l0,0l0,0l0,0l0,0l0,0v0.1l0,0v0.1l0,0l0,0l0,0v0.1l0,0l0,0l0,0l0,0l0,0l0,0l0,0l0,0l0,0l0,0l0,0
			l0,0l0,0l0,0l0,0l0,0l0,0v0.1l0,0l0,0l0,0l0,0l0,0l0,0l0,0l0,0l0,0l0,0l0,0l0,0l0,0l0,0v0.1l0,0l0,0v0.1v0.1l0,0l0,0l0,0l0,0l0,0
			l0,0l0,0l0,0l0,0l0,0l0,0l0,0c0,0,0,0,0,0.1l0,0v0.1l0,0l0,0l0,0l0,0l0,0v0.1l0,0v0.1v0.1l0,0l0,0l0,0l0,0l0,0c0,0,0,0,0,0.1l0,0
			l0,0l0,0l0,0l0,0c0,0,0,0.1,0,0.2l0,0l0,0c0,0,0,0,0,0.1v0.1l0,0l0,0l0,0v0.1l0,0l0,0l0,0l0,0l0,0c-0.1,0.1,0,0.1,0,0.2l0,0l0,0
			l0,0l0,0l0,0l0,0l0,0l0,0l0,0h-1.4v3h1.4l0,0v0.1v0.1l0,0l0,0l0,0l0,0l0,0c0,0,0,0,0,0.1l0,0l0,0l0,0l0,0l0,0l0,0l0,0l0,0l0,0l0,0
			l0,0l0,0l0,0l0,0l0,0l0,0l0,0l0,0l0,0c0,0,0,0,0,0.1l0,0l0,0l0,0l0,0l0,0l0,0l0,0l0,0l0,0l0,0l0,0l0,0l0,0v0.1c0,0,0,0,0,0.1
			c0,0,0,0,0,0.1c0,0,0,0,0,0.1l0,0l0,0c0,0,0,0,0,0.1l0,0l0,0l0,0l0,0c0,0,0,0,0,0.1l0,0c0,0,0,0,0,0.1v0.1v0.1l0,0l0,0l0,0l0,0
			l0,0l0,0l0,0l0,0l0,0l0,0l0,0l0,0c0,0,0,0,0,0.1l0,0l0,0l0,0l0,0l0,0l0,0l0,0l0,0l0,0v0.1l0,0l0,0c0,0,0,0,0,0.1l0,0l0,0v0.1
			c0,0,0,0,0,0.1c0,0,0,0,0,0.1l0,0l0,0l0,0l0,0l0,0c0,0,0,0,0,0.1l0,0l0,0l0,0v0.1l0,0c0,0,0,0,0,0.1l0,0l0,0l0,0l0,0l0,0v0.1l0,0
			l0,0l0,0l0,0l0,0l0,0l0,0l0,0c0,0,0,0.1,0,0.2l0,0l0,0l0,0l0,0l0,0l0,0c0,0,0,0,0,0.1l0,0l0,0l0,0c0,0,0,0,0,0.1l0,0l0,0l0,0l0,0
			v0.1l0,0l0,0v0.1l0,0l0,0l0,0l0,0c0,0,0,0,0,0.1v0.1l0,0l0,0l0,0l0,0c0,0,0,0,0,0.1l0,0l0,0l0,0v0.1l0,0l0,0l0,0v0.1v0.1l0,0
			c-0.5,0-0.5,0.1-0.5,0.1v0.4l0,0c-0.2,0.2-0.4,0.5-0.4,0.8v6.7c0,0,0,0,0,0.1l0,0l0,0v0.1l0,0c0.2,0.2,0.9,0.2,1,0.2s0.8,0,1-0.2
			l0,0v-0.1c0,0,0,0,0-0.1l0,0l0,0v-0.1v-6.7c0-0.4-0.2-0.7-0.4-0.8l0,0V390c0-0.1,0-0.1-0.4-0.1l0,0l0,0l0,0l0,0l0,0l0,0l0,0l0,0
			l0,0l0,0v-0.1l0,0l0,0l0,0c0,0,0,0,0-0.1l0,0l0,0l0,0l0,0l0,0v-0.1l0,0l0,0l0,0l0,0l0,0l0,0l0,0l0,0l0,0l0,0l0,0v-0.1l0,0l0,0l0,0
			l0,0l0,0c0.1-0.1,0-0.1,0-0.2l0,0l0,0l0,0l0,0l0,0l0,0c0,0,0,0,0-0.1l0,0l0,0l0,0v-0.1l0,0c0,0,0,0,0-0.1l0,0l0,0l0,0l0,0l0,0l0,0
			l0,0l0,0l0,0l0,0l0,0l0,0l0,0l0,0v-0.1l0,0l0,0l0,0l0,0l0,0l0,0l0,0l0,0l0,0l0,0l0,0l0,0l0,0c0,0,0,0,0-0.1l0,0l0,0c0,0,0,0,0-0.1
			l0,0l0,0l0,0l0,0l0,0l0,0l0,0l0,0l0,0v-0.1l0,0l0,0l0,0l0,0l0,0l0,0l0,0v-0.1c0,0,0,0,0-0.1c0,0,0,0,0-0.1l0,0l0,0c0,0,0,0,0-0.1
			l0,0l0,0l0,0c0,0,0,0,0-0.1l0,0l0,0l0,0l0,0l0,0V388l0,0l0,0l0,0l0,0l0,0l0,0l0,0l0,0l0,0l0,0l0,0l0,0l0,0l0,0l0,0l0,0l0,0l0,0
			l0,0l0,0l0,0l0,0l0,0l0,0c0,0,0,0,0-0.1l0,0l0,0c0,0,0,0,0-0.1l0,0l0,0l0,0l0,0c0,0,0,0,0-0.1l0,0l0,0l0,0l0,0l0,0l0,0l0,0l0,0
			v-0.1c0,0,0,0,0-0.1c0,0,0,0,0-0.1l0,0l0,0l0,0l0,0l0,0l0,0c0,0,0,0,0-0.1l0,0l0,0l0,0l0,0l0,0l0,0c0,0,0,0,0-0.1h2v10.4
			c0,0.1,0.1,0.3,0.3,0.3h1.2c0.1,0,0.3-0.1,0.3-0.3v-0.1h19.5c0.4,0,0.7-0.3,0.7-0.8v-0.3C465.3,396.9,465,396.5,464.6,396.5z
			 M445.1,395.8L445.1,395.8h3.4v0.7c0,0,0,0,0,0.1H445v-0.8L445.1,395.8L445.1,395.8z M441.4,385C441.4,385,441.4,384.9,441.4,385
			L441.4,385C441.4,384.9,441.4,384.9,441.4,385C441.4,384.9,441.4,384.9,441.4,385C441.4,384.9,441.4,384.9,441.4,385
			C441.4,384.9,441.4,384.9,441.4,385c0-0.1,0-0.1,0-0.1s0,0,0-0.1l0,0l0,0c0.1,0,0.1-0.1,0.1-0.1l0,0l0,0l0,0l0,0l0,0l0,0
			c0,0,0,0,0-0.1l0,0l0,0l0,0l0,0l0,0l0,0v-0.1l0,0l0,0l0,0l0,0l0,0l0,0v-0.1l0,0l0,0l0,0l0,0l0,0l0,0c0,0,0,0,0-0.1l0,0l0,0l0,0
			l0,0l0,0l0,0v-0.1l0,0l0,0l0,0c0,0,0,0,0-0.1l0,0l0,0l0,0l0,0l0,0l0,0l0,0V384l0,0l0,0l0,0l0,0l0,0l0,0l0,0l0,0l0,0l0,0l0,0l0,0
			l0,0c0,0,0,0,0-0.1l0,0v-0.1l0,0l0,0l0,0l0,0l0,0l0,0l0,0l0,0l0,0l0,0l0,0l0,0l0,0l0,0l0,0l0,0l0,0c0,0,0,0,0-0.1l0,0l0,0l0,0l0,0
			l0,0c0,0,0,0,0-0.1l0,0l0,0l0,0l0,0v-0.1l0,0l0,0l0,0l0,0l0,0l0,0v-0.1l0,0l0,0l0,0l0,0l0,0l0,0l0,0l0,0v-0.1l0,0l0,0l0,0l0,0
			v-0.1l0,0c0,0,0,0,0-0.1V383l0,0l0,0l0,0v-0.1l0,0l0,0l0,0c0,0,0,0,0-0.1l0,0l0,0l0,0l0,0l0,0l0,0l0,0c0-0.1,0-0.1,0-0.1l0,0l0,0
			l0,0l0,0l0,0l0,0l0,0l0,0l0,0v-0.1l0,0l0,0l0,0l0,0l0,0l0,0c0,0,0,0,0-0.1l0,0l0,0l0,0l0,0c0.1-0.1,0-0.1,0-0.2l0,0l0,0l0,0l0,0
			l0,0l0,0l0,0l0,0l0,0l0,0l0,0l0,0l0,0l0,0h2v4L441.4,385L441.4,385z"/>
	</g>
	<g>
		<path class="st7" d="M430.8,380.6h-0.6v-0.3h-3.8v0.3H425v-1c0-0.3-0.3-0.6-0.6-0.6h-0.8h-2.7h-2.4c-0.3,0-0.6,0.3-0.6,0.6v1h-1.3
			v-0.3h-3.8v0.3h-0.5v1.5h0.5v0.2h3.8v-0.2h1.3v2.9c0,0.3,0.3,0.6,0.6,0.6h0.8c0,0.1-0.1,0.2-0.1,0.3v2c0,0.3,0.3,0.6,0.6,0.6h0.6
			v4.9h-0.8v3.2h3.7v-3.2h-0.6v-4.9h0.2c0.3,0,0.6-0.3,0.6-0.6v-2c0-0.1,0-0.2-0.1-0.3h0.2h0.8c0.3,0,0.6-0.3,0.6-0.6v-2.9h1.4v0.2
			h3.8v-0.2h0.6L430.8,380.6L430.8,380.6z"/>
	</g>
</g>
<g>
	<g>
		<path class="st8" d="M460.1,316.2"/>
		<path class="st8" d="M409.2,288.4"/>
		<g>
			<path class="st1" d="M481.9,309.4c-1.7-4.3-7.3-5.3-12.2-6.5c-4.9-1.2-7.3-4-7.3-4c-12.6-10.5-19.9-9.9-19.9-9.9s-44.9,0-50.6,0
				s-7.2-0.1-7.6,2.1c-1,6.3,0.4,24.8-1.1,27.8c-0.1,0.2-1.8,0.2-1.8,0.2c-0.2,0.9-0.2,1.8-0.1,2.3l11.7,1.3
				c-0.2-0.6-0.2-1.3-0.2-1.9c0-4.5,3.6-8.1,8.1-8.1s8.1,3.6,8.1,8.1c0,0.7-0.1,1.4-0.3,2.1l47.5,0.4c-0.3-0.8-0.4-1.7-0.4-2.5
				c0-4.5,3.6-8.1,8.1-8.1s8.1,3.6,8.1,8.1c0,0.9-0.2,1.8-0.4,2.7l11.5,0.1l-0.1-7.8C483,315.8,483.6,313.8,481.9,309.4z"/>
			<path class="st5" d="M483.6,324.1l-12.7-0.1l0.2-0.6c0.3-0.8,0.4-1.7,0.4-2.5c0-4.2-3.4-7.7-7.6-7.7s-7.6,3.4-7.6,7.7
				c0,0.8,0.1,1.6,0.4,2.4l0.2,0.6l-48.9-0.5l0.2-0.6c0.2-0.6,0.3-1.3,0.3-2c0-4.2-3.4-7.7-7.6-7.7s-7.6,3.4-7.6,7.7
				c0,0.6,0.1,1.2,0.2,1.8l0.2,0.7l-12.8-1.4v-0.4c-0.1-0.8,0-1.7,0.1-2.5l0.1-0.4h0.4c0.5,0,1.2-0.1,1.5-0.1
				c0.7-1.8,0.6-7.9,0.6-13.9c0-5.3-0.1-10.7,0.4-13.7c0.2-1.2,0.8-1.9,1.9-2.2c1-0.3,2.5-0.3,5-0.3c0.4,0,0.8,0,1.2,0
				c1.9,0,8.1,0,15.7,0c14.7,0,34.2,0,34.9,0c0.2,0,2.1-0.1,5.4,1c2,0.7,4.1,1.7,6.3,2.9c2.7,1.6,5.6,3.6,8.5,6l0,0l0,0
				c0,0,2.4,2.7,7.1,3.9c0.5,0.1,1,0.2,1.4,0.4c2.3,0.6,4.6,1.1,6.6,2.1c2.3,1.1,3.8,2.5,4.5,4.4c1.6,4,1.2,6.2,1.1,6.6L483.6,324.1
				z M472.3,323l10.4,0.1l-0.1-7.4v-0.1c0,0,0.5-2-1.1-6c-1.4-3.7-6-4.8-10.4-5.8c-0.5-0.1-1-0.2-1.4-0.4c-4.8-1.2-7.3-3.8-7.6-4.1
				c-6.4-5.3-11.3-7.7-14.4-8.7c-3.3-1.1-5.1-1-5.1-1l0,0c-0.4,0-45,0-50.6,0c-0.4,0-0.8,0-1.2,0c-5,0-5.7,0.1-5.9,1.7
				c-0.5,2.8-0.4,8.3-0.4,13.5c0,6.5,0.1,12.7-0.8,14.5c-0.2,0.3-0.5,0.4-1.4,0.4c-0.2,0-0.4,0-0.5,0c-0.1,0.5-0.1,0.9-0.1,1.4
				l10.6,1.1c-0.1-0.5-0.1-0.9-0.1-1.4c0-4.8,3.9-8.6,8.6-8.6s8.6,3.9,8.6,8.6c0,0.5-0.1,1.1-0.1,1.6l46.3,0.4
				c-0.2-0.7-0.2-1.3-0.2-2c0-4.8,3.9-8.6,8.6-8.6s8.6,3.9,8.6,8.6C472.5,321.6,472.4,322.3,472.3,323z"/>
		</g>
		<g>
			<g>
				<circle class="st4" cx="464" cy="320.8" r="6.5"/>
				<path class="st5" d="M464,327.8c-3.9,0-7-3.2-7-7c0-3.9,3.2-7,7-7s7,3.2,7,7C471,324.7,467.9,327.8,464,327.8z M464,314.8
					c-3.3,0-6.1,2.7-6.1,6.1c0,3.3,2.7,6.1,6.1,6.1c3.3,0,6.1-2.7,6.1-6.1S467.3,314.8,464,314.8z"/>
			</g>
			<g>
				<circle class="st6" cx="464" cy="320.8" r="3.7"/>
				<path class="st5" d="M464,325c-2.3,0-4.1-1.9-4.1-4.1c0-2.3,1.9-4.1,4.1-4.1s4.1,1.9,4.1,4.1C468.2,323.1,466.3,325,464,325z
					 M464,317.6c-1.7,0-3.2,1.4-3.2,3.2c0,1.7,1.4,3.2,3.2,3.2c1.7,0,3.2-1.4,3.2-3.2C467.2,319.1,465.7,317.6,464,317.6z"/>
			</g>
		</g>
		<g>
			<g>
				<circle class="st4" cx="400.9" cy="320.8" r="6.5"/>
				<path class="st5" d="M400.9,327.8c-3.9,0-7-3.2-7-7c0-3.9,3.2-7,7-7s7,3.2,7,7C407.9,324.7,404.8,327.8,400.9,327.8z
					 M400.9,314.8c-3.3,0-6.1,2.7-6.1,6.1c0,3.3,2.7,6.1,6.1,6.1c3.3,0,6.1-2.7,6.1-6.1C406.9,317.5,404.2,314.8,400.9,314.8z"/>
			</g>
			<g>
				<circle class="st6" cx="400.9" cy="320.8" r="3.7"/>
				<path class="st5" d="M400.9,325c-2.3,0-4.1-1.9-4.1-4.1c0-2.3,1.9-4.1,4.1-4.1s4.1,1.9,4.1,4.1S403.2,325,400.9,325z
					 M400.9,317.6c-1.7,0-3.2,1.4-3.2,3.2c0,1.7,1.4,3.2,3.2,3.2c1.7,0,3.2-1.4,3.2-3.2C404.1,319.1,402.6,317.6,400.9,317.6z"/>
			</g>
		</g>
		<path class="st8" d="M409.8,322.2"/>
		<path class="st8" d="M408.4,313.4"/>
		<path class="st5" d="M437.4,322.8l-1-0.1l0.1-2.4c0.3-5.3-0.2-8.7-0.6-10.6c-0.4-2-1-2.9-1-2.9l-0.1-0.1v-0.1l-0.1-17.7h1
			l0.1,17.5c0.4,0.7,2.1,4.4,1.6,13.9l0,0V322.8z"/>
		<path class="st5" d="M415.1,317.1h-1.7c-0.1,0-0.2,0.1-0.2,0.1v0.7c0,0.1,0.1,0.1,0.1,0.1h1.7c0.1,0,0.2-0.1,0.2-0.1v-0.7
			C415.3,317.2,415.2,317.1,415.1,317.1z"/>
		<path class="st5" d="M454,320.5c-1.2-1.4-2.8-2.1-4.6-2.1l0,0c-4,0-12.3-0.7-12.4-0.7l0,0l-20.6-0.5c-0.1,0-0.2,0.1-0.2,0.2v0.7
			c0,0.1,0.1,0.2,0.2,0.2l20.5,0.5l0,0c0.4,0,8.5,0.7,12.4,0.7l0,0c1.5,0,2.8,0.6,3.8,1.8c0.6,0.7,0.9,1.4,1.1,1.7
			c0,0.1,0.1,0.1,0.2,0.1l0.6-0.2c0.1,0,0.1-0.1,0.1-0.2C455.1,322.1,454.7,321.3,454,320.5z"/>
		<g>
			<path class="st5" d="M409.2,317h-0.6c-0.1,0-0.2,0.1-0.2,0.2v0.7c0,0.1,0.1,0.2,0.2,0.2h0.7c0.1,0,0.2-0.1,0.2-0.2v-0.7
				C409.4,317.1,409.3,317,409.2,317z"/>
			<path class="st5" d="M410.3,317.2v0.7c0,0.1,0.1,0.2,0.2,0.2h1.7c0.1,0,0.2-0.1,0.2-0.2v-0.7c0-0.1-0.1-0.2-0.2-0.2h-1.7
				C410.4,317,410.3,317.1,410.3,317.2z"/>
		</g>
		<g>
			<line class="st9" x1="437.8" y1="307.4" x2="441.8" y2="307.4"/>
			<path class="st5" d="M441.8,307.9L441.8,307.9h-4c-0.3,0-0.5-0.2-0.5-0.5s0.2-0.5,0.5-0.5l0,0h4c0.3,0,0.5,0.2,0.5,0.5
				C442.3,307.6,442.1,307.9,441.8,307.9z"/>
		</g>
		<g>
			<path class="st6" d="M481.4,308.5h-2.2c0,0,0.5,4.3,3.8,4.9"/>
			<path class="st5" d="M483,313.9c-1.5-0.3-2.7-1.3-3.5-3c-0.6-1.2-0.7-2.3-0.7-2.4l-0.1-0.5h2.7v1h-1.6c0.3,1.1,1.1,3.5,3.3,4
				L483,313.9z"/>
		</g>
		<g>
			<path class="st6" d="M437.4,294.2c0,0-1.3-3.4,3.9-3.1c5.2,0.3,9.2,0.7,17.5,8.7c0,0,2.8,2,1.7,4.3c-1.1,2.3-5.5,0.6-5.5,0.6
				l-13.7-2.6c0,0-2.4,0.1-3.2-3.9C437.4,294.2,437.4,294.2,437.4,294.2z"/>
			<path class="st5" d="M458.1,305.8c-1.4,0-2.9-0.5-3.1-0.6l-13.6-2.6c-0.2,0-0.8-0.1-1.5-0.5c-1-0.7-1.8-2-2.1-3.8l-0.8-4
				c-0.1-0.3-0.4-1.5,0.3-2.5c0.7-0.9,2.1-1.4,4.2-1.2c2.9,0.2,5.1,0.4,7.8,1.5c3,1.2,6.1,3.6,10,7.3c0.2,0.1,0.8,0.6,1.3,1.4
				c0.8,1.2,1,2.4,0.5,3.5C460.4,305.5,459.3,305.8,458.1,305.8z M441.4,301.6L441.4,301.6l13.8,2.7l0,0c0,0,1.1,0.4,2.2,0.5
				c1.4,0.1,2.3-0.2,2.6-0.9c0.9-1.9-1.5-3.7-1.5-3.7l0,0l0,0c-8.4-8-12.3-8.3-17.2-8.6c-1.7-0.1-2.8,0.2-3.3,0.8
				c-0.5,0.7-0.2,1.6-0.2,1.6l0,0l0,0l0.8,4C439.3,301.5,441.2,301.6,441.4,301.6L441.4,301.6L441.4,301.6z"/>
		</g>
		<g>
			<path class="st6" d="M483.1,320.8c0,0-3.4-2.2-11.4-2.2"/>
			<path class="st5" d="M482.9,321.2c0,0-0.9-0.5-2.6-1.1c-1.7-0.5-4.5-1.1-8.5-1.1v-1c8,0,11.5,2.2,11.6,2.3L482.9,321.2l0.3-0.4
				L482.9,321.2z"/>
		</g>
	</g>
	<g>
		<path class="st7" d="M427.4,296.3h-0.6V296H423v0.3h-1.3v-1c0-0.3-0.3-0.6-0.6-0.6h-0.8h-2.7h-2.4c-0.3,0-0.6,0.3-0.6,0.6v1h-1.3
			V296h-3.8v0.3H409v1.5h0.5v0.2h3.8v-0.2h1.3v2.9c0,0.3,0.3,0.6,0.6,0.6h0.8c0,0.1-0.1,0.2-0.1,0.3v2c0,0.3,0.3,0.6,0.6,0.6h0.6
			v4.9h-0.8v3.2h3.7v-3.1h-0.6v-4.9h0.2c0.3,0,0.6-0.3,0.6-0.6v-2c0-0.1,0-0.2-0.1-0.3h0.2h0.8c0.3,0,0.6-0.3,0.6-0.6v-2.9h1.4v0.2
			h3.8v-0.2h0.6v-1.6H427.4z"/>
	</g>
</g>
<g class="st3">
	<path class="st1" d="M377.4,474.1h2.9c0,2.3,1.4,3.1,3.8,3.1c2,0,3.1-0.8,3.1-2.2c0-1.2-0.8-1.7-3.2-2.2l-1.3-0.3
		c-3.3-0.6-4.9-2.2-4.9-4.7c0-2.6,2.1-4.3,5.7-4.3c4.1,0,6.2,1.9,6.3,4.9H387c-0.1-1.7-1.1-2.6-3.4-2.6c-1.8,0-2.8,0.7-2.8,1.9
		c0,1.2,0.7,1.8,3,2.3l1.3,0.3c3.6,0.7,5.1,2.1,5.1,4.6c0,3-2.3,4.7-6.2,4.7C379.8,479.5,377.4,477.6,377.4,474.1z"/>
	<path class="st1" d="M398.6,468h2.7v11.1h-2.6v-1.6c-0.8,1.3-2,1.9-3.5,1.9c-2.4,0-3.9-1.4-3.9-4V468h2.7v6.9
		c0,1.4,0.7,2.1,2.1,2.1c1.3,0,2.5-1,2.5-2.8L398.6,468L398.6,468z"/>
	<path class="st1" d="M411.2,463.8h2.7v15.4h-2.6v-1.6c-0.8,1.2-2,1.8-3.5,1.8s-2.8-0.5-3.6-1.6c-0.9-1.1-1.4-2.5-1.4-4.2
		c0-1.8,0.5-3.2,1.4-4.3c0.9-1.1,2.1-1.6,3.6-1.6s2.6,0.6,3.4,1.7V463.8z M408.3,477.2c0.9,0,1.6-0.3,2.1-0.9s0.8-1.5,0.8-2.7
		c0-2.3-1.1-3.6-2.9-3.6c-1.7,0-2.8,1.3-2.8,3.7c0,1.1,0.3,2,0.8,2.6C406.8,476.9,407.5,477.2,408.3,477.2z"/>
	<path class="st1" d="M415.3,474.3V472h6.4v2.3H415.3z"/>
	<path class="st1" d="M434.7,466.4h-8.4v3.6h7.6v2.5h-7.6v4h8.4v2.6h-11.3v-15.4h11.3V466.4z"/>
	<path class="st1" d="M435.4,475.6h2.7c0.2,1.4,0.8,1.9,2.5,1.9c1.5,0,2.2-0.5,2.2-1.3s-0.5-1.2-2.2-1.5l-1.3-0.2
		c-2.4-0.4-3.6-1.5-3.6-3.4c0-2.1,1.7-3.4,4.6-3.4c3.2,0,4.8,1.3,4.9,3.8h-2.6c-0.1-1.4-0.9-1.8-2.4-1.8c-1.3,0-1.9,0.4-1.9,1.3
		c0,0.8,0.6,1.1,1.9,1.4l1.4,0.2c2.7,0.5,3.9,1.5,3.9,3.4c0,2.2-1.8,3.5-4.9,3.5C437.3,479.5,435.6,478.2,435.4,475.6z"/>
	<path class="st1" d="M452.2,470.1H450v6c0,0.7,0.3,1,1.3,1h0.9v2.1c-0.7,0.1-1.1,0.1-1.4,0.1c-2.4,0-3.5-0.8-3.5-2.8v-6.3h-1.7V468
		h1.7v-3.2h2.7v3.2h2.2V470.1z"/>
</g>
<g>
	<g>
		<g>
			<g>
				<circle class="st4" cx="392" cy="531.6" r="6.5"/>
				<path class="st5" d="M392,538.7c-3.9,0-7-3.2-7-7c0-3.9,3.2-7,7-7s7,3.2,7,7C399.1,535.5,395.9,538.7,392,538.7z M392,525.6
					c-3.3,0-6.1,2.7-6.1,6.1c0,3.3,2.7,6.1,6.1,6.1c3.3,0,6.1-2.7,6.1-6.1S395.4,525.6,392,525.6z"/>
			</g>
			<g>
				<circle class="st6" cx="392" cy="531.6" r="3.7"/>
				<path class="st5" d="M392,535.8c-2.3,0-4.1-1.9-4.1-4.1c0-2.3,1.9-4.1,4.1-4.1s4.1,1.9,4.1,4.1
					C396.2,533.9,394.3,535.8,392,535.8z M392,528.5c-1.7,0-3.2,1.4-3.2,3.2s1.4,3.2,3.2,3.2c1.7,0,3.2-1.4,3.2-3.2
					S393.8,528.5,392,528.5z"/>
			</g>
		</g>
		<g>
			<g>
				<circle class="st4" cx="467.5" cy="532.1" r="6.5"/>
				<path class="st5" d="M467.5,539.1c-3.9,0-7-3.2-7-7c0-3.9,3.2-7,7-7s7,3.2,7,7C474.6,536,471.4,539.1,467.5,539.1z M467.5,526.1
					c-3.3,0-6.1,2.7-6.1,6.1c0,3.3,2.7,6.1,6.1,6.1c3.3,0,6.1-2.7,6.1-6.1S470.9,526.1,467.5,526.1z"/>
			</g>
			<g>
				<circle class="st6" cx="467.5" cy="532.1" r="3.7"/>
				<path class="st5" d="M467.5,536.3c-2.3,0-4.1-1.9-4.1-4.1c0-2.3,1.9-4.1,4.1-4.1s4.1,1.9,4.1,4.1
					C471.7,534.4,469.8,536.3,467.5,536.3z M467.5,528.9c-1.7,0-3.2,1.4-3.2,3.2s1.4,3.2,3.2,3.2s3.2-1.4,3.2-3.2
					S469.3,528.9,467.5,528.9z"/>
			</g>
		</g>
		<g>
			<path class="st1" d="M483,524.1c-0.1-6.7-1.5-6.3-2.3-7.2s-6.6-4-6.6-4l-1.8-0.2c-7.9-10.6-20.7-19.5-22.7-20.9s-5.7-1.7-5.7-1.7
				s-54.7-0.1-62.4,0.1c-7.6,0.2-3.5-1.4-6,3.4s-2.4,30.7-2.4,30.7h-0.8v8.9h6h6c-0.1-0.5-0.2-1-0.2-1.6c0-4.3,3.5-7.8,7.8-7.8
				s7.8,3.5,7.8,7.8c0,0.5-0.1,1.1-0.2,1.6c2.8,0,51.2,0,60,0c0-0.3-0.1-0.7-0.1-1c0-4.4,3.6-8,8-8s8,3.6,8,8c0,0.2,0,0.5,0,0.7
				l8.5-0.2v-8.5L483,524.1L483,524.1z"/>
			<path class="st5" d="M460.2,533.7h-61.1l0.1-0.6c0.1-0.5,0.1-1,0.1-1.5c0-4-3.3-7.3-7.3-7.3s-7.3,3.3-7.3,7.3c0,0.5,0,1,0.1,1.5
				l0.1,0.6h-13.1v-9.8h0.8c0-3.7,0.1-25.9,2.4-30.5c0.8-1.6,0.9-2.4,0.9-2.9c0-0.3,0.1-0.7,0.4-0.8c0.2-0.1,0.5-0.1,1.1,0
				c0.7,0.1,1.9,0.1,4,0.1c7.5-0.2,61.8-0.1,62.4-0.1l0,0c0.2,0,3.9,0.2,5.9,1.8c0.1,0.1,0.3,0.2,0.6,0.4c1.6,1.1,5.3,3.8,9.5,7.4
				c5.2,4.5,9.4,8.8,12.6,13l1.7,0.2h0.1c0.6,0.3,5.9,3.2,6.8,4.1c0.1,0.1,0.3,0.2,0.4,0.4c0.4,0.3,1,0.7,1.4,1.8s0.6,2.7,0.7,4.9
				h0.9v9.5l-9.5,0.2v-0.5c0-0.2,0-0.4,0-0.6c0-4.1-3.3-7.5-7.5-7.5c-4.1,0-7.5,3.3-7.5,7.5c0,0.3,0,0.6,0.1,1L460.2,533.7z
				 M400.3,532.7h58.8c0-0.2,0-0.4,0-0.5c0-4.7,3.8-8.4,8.4-8.4s8.4,3.8,8.4,8.4c0,0.1,0,0.1,0,0.2l7.4-0.2v-7.6h-0.9v-0.5
				c-0.1-5.3-0.9-5.9-1.6-6.4c-0.2-0.1-0.4-0.3-0.6-0.5c-0.6-0.6-4.2-2.7-6.4-3.9l-1.9-0.2l-0.1-0.2c-4.9-6.5-12.3-13.4-22-20.4
				c-0.2-0.2-0.4-0.3-0.6-0.4c-1.8-1.3-5.2-1.5-5.4-1.6c-1.2,0-54.8-0.1-62.3,0.1c-2.2,0.1-3.4,0-4.1-0.1c-0.2,0-0.3,0-0.5,0l0,0
				c0,0.5-0.1,1.5-1,3.2c-1,1.9-1.7,7.8-2.1,17c-0.3,7-0.3,13.5-0.3,13.5v0.5h-0.8v7.9h10.9c0-0.4-0.1-0.7-0.1-1.1
				c0-4.6,3.7-8.3,8.3-8.3s8.3,3.7,8.3,8.3C400.3,532,400.3,532.3,400.3,532.7z"/>
		</g>
		<g>
			<path class="st6" d="M449.3,500.6c0.9,0,1.8,0.1,2.8,0.1c1.4,0,3.1-0.2,4.4,0.5c0.8,0.5,1.4,1.2,2,1.9c0.7,0.7,1.4,1.4,2,2.2
				c1.4,1.7,2.8,3.4,4.2,5.1c0.6,0.8,1.2,1.7,1.3,2.6c0.1,0.4,0,0.7-0.1,1.1c-0.7,1.8-3.6,1.4-5,1c-1.3-0.4-2.5-1-3.8-1.4
				c-2.3-0.7-4.8-0.7-7.3-1c-1.3-0.1-2.6-0.5-2.6-2l-0.2-8C447.2,501.5,448.1,500.5,449.3,500.6z"/>
			<path class="st5" d="M463.3,516c-0.8,0-1.7-0.2-2.5-0.4c-0.7-0.2-1.3-0.5-2-0.7c-0.6-0.2-1.2-0.5-1.8-0.7
				c-1.7-0.5-3.6-0.7-5.4-0.8c-0.6,0-1.2-0.1-1.8-0.2c-0.8-0.1-1.5-0.3-2-0.6c-0.7-0.4-1.1-1.1-1.1-1.9l-0.2-8
				c0-0.7,0.3-1.4,0.8-1.9s1.2-0.8,1.9-0.7l2.8,0.1c0.3,0,0.6,0,1,0c1.2,0,2.6,0,3.7,0.6c0.7,0.4,1.3,1,1.8,1.6
				c0.1,0.1,0.2,0.2,0.3,0.3c0.2,0.3,0.5,0.5,0.7,0.8c0.4,0.5,0.9,0.9,1.3,1.4c1.2,1.4,2.4,2.9,3.6,4.4c0.2,0.3,0.4,0.5,0.6,0.8
				c0.6,0.7,1.3,1.7,1.4,2.9c0.1,0.5,0,1-0.1,1.3C466,515.6,464.7,516,463.3,516z M449.3,501.1c-0.4,0-0.8,0.2-1.1,0.5
				c-0.3,0.3-0.5,0.7-0.5,1.2l0.2,8c0,0.6,0.3,1.4,2.2,1.6c0.6,0.1,1.2,0.1,1.8,0.1c1.9,0.1,3.8,0.3,5.6,0.9
				c0.6,0.2,1.3,0.4,1.9,0.7c0.6,0.2,1.3,0.5,1.9,0.7c1.4,0.4,3.8,0.7,4.4-0.7c0.1-0.2,0.1-0.5,0.1-0.8c-0.1-0.7-0.5-1.5-1.2-2.4
				c-0.2-0.3-0.4-0.5-0.6-0.8c-1.2-1.4-2.4-2.9-3.6-4.4c-0.4-0.5-0.9-0.9-1.3-1.4c-0.2-0.3-0.5-0.5-0.7-0.8
				c-0.1-0.1-0.2-0.2-0.3-0.3c-0.5-0.6-1-1.1-1.6-1.5c-0.9-0.5-2.1-0.5-3.2-0.5c-0.3,0-0.7,0-1,0L449.3,501.1L449.3,501.1z"/>
		</g>
		<path class="st5" d="M379.6,498.4c-0.7,0-1.4,0-2,0c-0.1,0-0.2,0.1-0.2,0.2v0.7c0,0.1,0.1,0.2,0.2,0.2c0.6,0,1.3,0,2,0
			c0.1,0,0.2-0.1,0.2-0.2v-0.7C379.7,498.4,379.7,498.4,379.6,498.4z"/>
		<path class="st5" d="M383,498.3c-0.7,0-1.4,0-2,0c-0.1,0-0.2,0.1-0.2,0.2v0.7c0,0.1,0.1,0.2,0.2,0.2c0.6,0,1.3,0,2,0
			c0.1,0,0.2-0.1,0.2-0.2v-0.7C383.2,498.4,383.1,498.3,383,498.3z"/>
		<g>
			<path class="st5" d="M461.4,500.7c-0.4-0.6-1.5-1.1-3.4-1.5c-2.7-0.5-7-0.8-12.8-0.8c-5.7,0-15.4,0-25.9,0c-11,0-22.7,0-31.5,0
				c0,0-0.1,0-0.1,0.1v0.9c0,0,0,0.1,0.1,0.1c8.7,0,20.5,0,31.5,0c10.5,0,20.2,0,25.9,0c5.8,0,10.1,0.3,12.8,0.9
				c1.7,0.3,2.3,0.7,2.5,0.9h0.1l0,0c0,0,0,0,0.1,0l0.8,0.4h0.1C461.5,501.2,461.5,501,461.4,500.7z"/>
			<path class="st5" d="M386.4,498.3c-0.7,0-1.3,0-2,0c-0.1,0-0.2,0.1-0.2,0.2v0.7c0,0.1,0.1,0.2,0.2,0.2c0.6,0,1.3,0,2,0
				c0.1,0,0.2-0.1,0.2-0.2v-0.7C386.6,498.4,386.5,498.3,386.4,498.3z"/>
		</g>
		<rect x="443.6" y="499.3" class="st5" width="1" height="33.8"/>
		<path class="st5" d="M448.3,517.9H446c-0.4,0-0.6-0.3-0.6-0.6v-1.9c0-0.4,0.3-0.6,0.6-0.6h2.3c0.4,0,0.6,0.3,0.6,0.6v1.9
			C448.9,517.6,448.7,517.9,448.3,517.9z"/>
		<path class="st5" d="M483.9,524.7h-15.8c-0.3,0-0.5-0.2-0.5-0.5s0.2-0.5,0.5-0.5h15.8c0.3,0,0.5,0.2,0.5,0.5
			S484.2,524.7,483.9,524.7z"/>
	</g>
	<g>
		<path class="st7" d="M409,517.6h-4.4c-0.4,0-0.8-0.4-0.8-0.8s0.4-0.8,0.8-0.8h4.4c0.4,0,0.8,0.4,0.8,0.8S409.4,517.6,409,517.6z"
			/>
		<path class="st7" d="M406.8,519.7c-0.4,0-0.8-0.4-0.8-0.8v-4.4c0-0.4,0.4-0.8,0.8-0.8s0.8,0.4,0.8,0.8v4.4
			C407.6,519.4,407.3,519.7,406.8,519.7z"/>
	</g>
	<g>
		<path class="st7" d="M437.6,526.1L437.6,526.1l0.4-0.2l-0.1-0.7l-0.4,0.1c0-0.1,0-0.1-0.1-0.2l0.3-0.2l-0.3-0.6l-0.3,0.2l-0.1-0.1
			l0.3-0.3l-0.5-0.5l-0.3,0.3l-0.1-0.1l0.2-0.3l-0.6-0.3l-0.2,0.3c-0.1,0-0.1,0-0.2-0.1l0.1-0.4l-0.7-0.1l-0.1,0.4
			c-0.1,0-0.1,0-0.2,0l0,0v-0.4H434v0.3h-0.2v-0.3h-0.7v0.3h-0.2v-0.3h-0.7v0.3H432v-0.3h-0.7v0.3h-0.2v-0.3h-0.7v0.3h-0.2v-0.3
			h-0.7v0.3h-0.2v-0.3h-0.7v0.3h-0.2v-0.3h-0.7v0.3h-0.2v-0.3h-0.7v0.3h-0.2v-0.3H426v0.3h-0.2v-0.3h-0.7v0.3H425v-0.3h-0.7v0.3
			h-0.2v-0.3h-0.7v0.3h-0.2v-0.3h-0.7v0.3h-0.2v-0.3h-0.7v0.3c-0.1,0-0.1,0-0.2,0l-0.1-0.4l-0.7,0.1l0.1,0.4c-0.1,0-0.1,0-0.2,0.1
			l-0.2-0.3l-0.6,0.3l0.2,0.3l-0.1,0.1l-0.3-0.3L419,524l0.3,0.2l-0.1,0.1l-0.3-0.2l-0.3,0.6l0.3,0.2c0,0.1,0,0.1-0.1,0.2l-0.4-0.1
			l-0.1,0.7h0.4l0,0v0.1l-0.4,0.1l0.1,0.7l0.4-0.1c0,0.1,0,0.1,0.1,0.2l-0.3,0.2l0.3,0.6l0.3-0.2l0.1,0.1l-0.3,0.3l0.5,0.5l0.3-0.3
			l0.1,0.1l-0.2,0.3l0.6,0.3l0.2-0.3c0.1,0,0.1,0,0.2,0.1l-0.1,0.4l0.7,0.1l0.1-0.4c0.1,0,0.1,0,0.2,0l0,0v0.3h0.7v0.1h0.2v0.3h0.7
			v-0.3h0.2v0.3h0.7v-0.3h0.2v0.3h0.7v-0.3h0.2v0.3h0.7v-0.3h0.2v0.3h0.7v-0.3h0.2v0.3h0.7v-0.3h0.2v0.3h0.7v-0.3h0.2v0.3h0.7v-0.3
			h0.2v0.3h0.7v-0.3h0.2v0.3h0.7v-0.3h0.2v0.3h0.7v-0.3h0.2v0.3h0.7v-0.3h0.2v0.3h0.7v-0.3h0.2v0.3h0.7v-0.3c0.1,0,0.1,0,0.2,0
			l0.1,0.4l0.7-0.1l-0.1-0.4c0.1,0,0.1,0,0.2-0.1l0.2,0.3l0.6-0.3l-0.2-0.3l0.1-0.1l0.3,0.3l0.5-0.5l-0.3-0.2l0.1-0.1l0.3,0.2
			l0.3-0.6l-0.3-0.2c0-0.1,0-0.1,0.1-0.2l0.4,0.1l0.1-0.7L437.6,526.1L437.6,526.1z"/>
		<path class="st7" d="M439.4,520.6h-1.6c0,0,0,0,0-0.1v-6.8c0-0.3-0.3-0.6-0.6-0.6h-1.1v-1.7c0-0.3-0.3-0.6-0.6-0.6H425
			c-0.3,0-0.6,0.3-0.6,0.6v1.7h-0.7c-0.3,0-0.6,0.3-0.6,0.6v2.3h-3.3h-0.1v-14.4c0-0.1-0.1-0.3-0.3-0.3h-1.2c-0.1,0-0.3,0.1-0.3,0.3
			v1.1h-3.8v2.3h1.4c0,0,0,0,0,0.1l0,0l0,0l0,0l0,0c0,0,0,0,0,0.1l0,0l0,0l0,0l0,0l0,0l0,0l0,0l0,0l0,0l0,0l0,0l0,0l0,0l0,0l0,0l0,0
			l0,0l0,0l0,0l0,0l0,0l0,0l0,0l0,0l0,0l0,0l0,0l0,0v0.1l0,0l0,0l0,0l0,0l0,0v0.1l0,0l0,0c0,0,0,0.1,0.1,0.1l0,0l0,0l0,0l0,0l0,0
			l0,0v0.1l0,0l0,0l0,0l0,0l0,0l0,0l0,0l0,0l0,0l0,0l0,0v0.1l0,0v0.1l0,0l0,0l0,0v0.1l0,0l0,0l0,0l0,0l0,0l0,0l0,0l0,0l0,0l0,0l0,0
			l0,0l0,0l0,0l0,0l0,0l0,0v0.1l0,0l0,0l0,0l0,0l0,0l0,0l0,0l0,0l0,0l0,0l0,0l0,0l0,0l0,0v0.1l0,0l0,0v0.1v0.1l0,0l0,0l0,0l0,0l0,0
			l0,0l0,0l0,0l0,0l0,0l0,0l0,0c0,0,0,0,0,0.1l0,0v0.1l0,0l0,0l0,0l0,0l0,0v0.1l0,0v0.1v0.1l0,0l0,0l0,0l0,0l0,0c0,0,0,0,0,0.1l0,0
			l0,0l0,0l0,0l0,0c0,0,0,0.1,0,0.2l0,0l0,0c0,0,0,0,0,0.1v0.1l0,0l0,0l0,0v0.1l0,0l0,0l0,0l0,0l0,0c-0.1,0.1,0,0.1,0,0.2l0,0l0,0
			l0,0l0,0l0,0l0,0l0,0l0,0l0,0h-1.4v3h1.4l0,0v0.1v0.1l0,0l0,0l0,0l0,0l0,0c0,0,0,0,0,0.1l0,0l0,0l0,0l0,0l0,0l0,0l0,0l0,0l0,0l0,0
			l0,0l0,0l0,0l0,0l0,0l0,0l0,0l0,0l0,0c0,0,0,0,0,0.1l0,0l0,0l0,0l0,0l0,0l0,0l0,0l0,0l0,0l0,0l0,0l0,0l0,0v0.1c0,0,0,0,0,0.1
			c0,0,0,0,0,0.1c0,0,0,0,0,0.1l0,0l0,0c0,0,0,0,0,0.1l0,0l0,0l0,0l0,0c0,0,0,0,0,0.1l0,0c0,0,0,0,0,0.1v0.1v0.1l0,0l0,0l0,0l0,0
			l0,0l0,0l0,0l0,0l0,0l0,0l0,0l0,0c0,0,0,0,0,0.1l0,0l0,0l0,0l0,0l0,0l0,0l0,0l0,0l0,0v0.1l0,0l0,0c0,0,0,0,0,0.1l0,0l0,0v0.1
			c0,0,0,0,0,0.1c0,0,0,0,0,0.1l0,0l0,0l0,0l0,0l0,0c0,0,0,0,0,0.1l0,0l0,0l0,0v0.1l0,0c0,0,0,0,0,0.1l0,0l0,0l0,0l0,0l0,0v0.1l0,0
			l0,0l0,0l0,0l0,0l0,0l0,0l0,0c0,0,0,0.1,0,0.2l0,0l0,0l0,0l0,0l0,0l0,0c0,0,0,0,0,0.1l0,0l0,0l0,0c0,0,0,0,0,0.1l0,0l0,0l0,0l0,0
			v0.1l0,0l0,0v0.1l0,0l0,0l0,0l0,0c0,0,0,0,0,0.1v0.1l0,0l0,0l0,0l0,0c0,0,0,0,0,0.1l0,0l0,0l0,0v0.1l0,0l0,0l0,0v0.1v0.1l0,0
			c-0.5,0-0.5,0.1-0.5,0.1v0.4l0,0c-0.2,0.2-0.4,0.5-0.4,0.8v6.7c0,0,0,0,0,0.1l0,0l0,0v0.1l0,0c0.2,0.2,0.9,0.2,1,0.2s0.8,0,1-0.2
			l0,0v-0.1c0,0,0,0,0-0.1l0,0l0,0V522v-6.7c0-0.4-0.2-0.7-0.4-0.8l0,0v-0.4c0-0.1,0-0.1-0.4-0.1l0,0l0,0l0,0l0,0l0,0l0,0l0,0l0,0
			l0,0l0,0v-0.1l0,0l0,0l0,0c0,0,0,0,0-0.1l0,0l0,0l0,0l0,0l0,0v-0.1l0,0l0,0l0,0l0,0l0,0l0,0l0,0l0,0l0,0l0,0l0,0v-0.1l0,0l0,0l0,0
			l0,0l0,0c0.1-0.1,0-0.1,0-0.2l0,0l0,0l0,0l0,0l0,0l0,0c0,0,0,0,0-0.1l0,0l0,0l0,0v-0.1l0,0c0,0,0,0,0-0.1l0,0l0,0l0,0l0,0l0,0l0,0
			l0,0l0,0l0,0l0,0l0,0l0,0l0,0l0,0V513l0,0l0,0l0,0l0,0l0,0l0,0l0,0l0,0l0,0l0,0l0,0l0,0l0,0c0,0,0,0,0-0.1l0,0l0,0c0,0,0,0,0-0.1
			l0,0l0,0l0,0l0,0l0,0l0,0l0,0l0,0l0,0v-0.1l0,0l0,0l0,0l0,0l0,0l0,0l0,0v-0.1c0,0,0,0,0-0.1c0,0,0,0,0-0.1l0,0l0,0c0,0,0,0,0-0.1
			l0,0l0,0l0,0c0,0,0,0,0-0.1l0,0l0,0l0,0l0,0l0,0v-0.1l0,0l0,0l0,0l0,0l0,0l0,0l0,0l0,0l0,0l0,0l0,0l0,0l0,0l0,0l0,0l0,0l0,0l0,0
			l0,0l0,0l0,0l0,0l0,0l0,0c0,0,0,0,0-0.1l0,0l0,0c0,0,0,0,0-0.1l0,0l0,0l0,0l0,0c0,0,0,0,0-0.1l0,0l0,0l0,0l0,0l0,0l0,0l0,0l0,0
			v-0.1c0,0,0,0,0-0.1c0,0,0,0,0-0.1l0,0l0,0l0,0l0,0l0,0l0,0c0,0,0,0,0-0.1l0,0l0,0l0,0l0,0l0,0l0,0c0,0,0,0,0-0.1h2v10.4
			c0,0.1,0.1,0.3,0.3,0.3h1.2c0.1,0,0.3-0.1,0.3-0.3v-0.1h19.5c0.4,0,0.7-0.3,0.7-0.8v-0.3C440.1,520.9,439.7,520.6,439.4,520.6z
			 M419.8,519.8C419.9,519.8,419.9,519.9,419.8,519.8h3.4v0.7c0,0,0,0,0,0.1h-3.5v-0.8H419.8z M416.2,509L416.2,509L416.2,509
			L416.2,509L416.2,509L416.2,509L416.2,509c0-0.1,0-0.1,0-0.1s0,0,0-0.1l0,0l0,0c0.1,0,0.1-0.1,0.1-0.1l0,0l0,0l0,0l0,0l0,0l0,0
			c0,0,0,0,0-0.1l0,0l0,0l0,0l0,0l0,0l0,0v-0.1l0,0l0,0l0,0l0,0l0,0l0,0v-0.1l0,0l0,0l0,0l0,0l0,0l0,0c0,0,0,0,0-0.1l0,0l0,0l0,0
			l0,0l0,0l0,0v-0.1l0,0l0,0l0,0c0,0,0,0,0-0.1l0,0l0,0l0,0l0,0l0,0l0,0l0,0V508l0,0l0,0l0,0l0,0l0,0l0,0l0,0l0,0l0,0l0,0l0,0l0,0
			l0,0c0,0,0,0,0-0.1l0,0v-0.1l0,0l0,0l0,0l0,0l0,0l0,0l0,0l0,0l0,0l0,0l0,0l0,0l0,0l0,0l0,0l0,0l0,0c0,0,0,0,0-0.1l0,0l0,0l0,0l0,0
			l0,0c0,0,0,0,0-0.1l0,0l0,0l0,0l0,0v-0.1l0,0l0,0l0,0l0,0l0,0l0,0v-0.1l0,0l0,0l0,0l0,0l0,0l0,0l0,0l0,0v-0.1l0,0l0,0l0,0l0,0
			v-0.1l0,0c0,0,0,0,0-0.1V507l0,0l0,0l0,0v-0.1l0,0l0,0l0,0c0,0,0,0,0-0.1l0,0l0,0l0,0l0,0l0,0l0,0l0,0c0-0.1,0-0.1,0-0.1l0,0l0,0
			l0,0l0,0l0,0l0,0l0,0l0,0l0,0v-0.1l0,0l0,0l0,0l0,0l0,0l0,0c0,0,0,0,0-0.1l0,0l0,0l0,0l0,0c0.1-0.1,0-0.1,0-0.2l0,0l0,0l0,0l0,0
			l0,0l0,0l0,0l0,0l0,0l0,0l0,0l0,0l0,0l0,0h2v4L416.2,509L416.2,509z"/>
	</g>
	<g>
		<path class="st7" d="M405.5,504.7H405v-0.3h-3.8v0.3h-1.4v-1c0-0.3-0.3-0.6-0.6-0.6h-0.8h-2.7h-2.4c-0.3,0-0.6,0.3-0.6,0.6v1h-1.3
			v-0.3h-3.8v0.3h-0.5v1.5h0.5v0.2h3.8v-0.2h1.3v2.9c0,0.3,0.3,0.6,0.6,0.6h0.8c0,0.1-0.1,0.2-0.1,0.3v2c0,0.3,0.3,0.6,0.6,0.6h0.6
			v4.9h-0.8v3.2h3.7v-3.2h-0.6v-4.9h0.2c0.3,0,0.6-0.3,0.6-0.6v-2c0-0.1,0-0.2-0.1-0.3h0.2h0.8c0.3,0,0.6-0.3,0.6-0.6v-2.9h1.4v0.2
			h3.8v-0.2h0.6v-1.5L405.5,504.7L405.5,504.7z"/>
	</g>
</g>
<g class="st3">
	<path class="st1" d="M175.9,149.4h2.8v15.4h-3.2l-4.3-6.8c-1.3-2-2.2-3.5-2.7-4.6c0.1,1.8,0.1,4.3,0.1,7.4v4h-2.8v-15.4h3.2
		l4.3,6.8c1.3,2,2.2,3.6,2.7,4.6c-0.1-2.4-0.1-4.9-0.1-7.4V149.4z"/>
	<path class="st1" d="M185.9,165c-1.7,0-3.1-0.5-4.1-1.6c-1.1-1.1-1.6-2.5-1.6-4.2s0.5-3.2,1.6-4.2c1-1.1,2.4-1.6,4.1-1.6
		s3.1,0.5,4.1,1.6s1.6,2.5,1.6,4.3s-0.5,3.2-1.6,4.2C188.9,164.4,187.6,165,185.9,165z M188.7,159.2c0-2.3-1.1-3.6-2.9-3.6
		c-1.8,0-2.9,1.3-2.9,3.6s1.1,3.6,2.9,3.6C187.6,162.7,188.7,161.5,188.7,159.2z"/>
	<path class="st1" d="M199.5,153.5v2.5h-0.7c-2.1,0-3.2,1-3.2,3.1v5.7h-2.7v-11.1h2.6v2c0.6-1.4,1.7-2.2,3.3-2.2
		C199.1,153.4,199.3,153.4,199.5,153.5z"/>
	<path class="st1" d="M217.2,157.4v7.4h-2.7v-6.9c0-1.4-0.6-2.1-1.9-2.1c-1.3,0-2.3,0.9-2.3,2.9v6.1h-2.7v-6.9
		c0-1.4-0.6-2.1-1.9-2.1c-1.3,0-2.3,0.9-2.3,2.9v6.1h-2.7v-11.1h2.6v1.6c0.8-1.2,1.8-1.9,3.2-1.9c1.7,0,2.8,0.7,3.5,2.1
		c0.8-1.4,2-2.1,3.5-2.1C215.8,153.3,217.2,154.9,217.2,157.4z"/>
	<path class="st1" d="M226.4,164.7c-0.2-0.3-0.2-0.7-0.3-1.4c-0.8,1.1-2,1.6-3.6,1.6c-2.4,0-4-1.2-4-3.3s1.4-3.2,4.3-3.5l1.7-0.2
		c1.1-0.2,1.6-0.5,1.6-1.3c0-0.9-0.5-1.4-2-1.4c-1.6,0-2.2,0.5-2.3,1.8H219c0.2-2.5,1.8-3.8,5-3.8c3.1,0,4.6,1.1,4.6,3.3v5.9
		c0,1,0.2,1.7,0.5,2.1h-2.7V164.7z M226,160.3v-1c-0.3,0.2-0.7,0.4-1.3,0.5l-1.5,0.2c-1.5,0.2-2,0.7-2,1.6c0,0.9,0.6,1.5,1.9,1.5
		C224.7,163,226,162.1,226,160.3z"/>
	<path class="st1" d="M240.4,157.3v7.4h-2.7v-6.9c0-1.4-0.7-2.1-2.1-2.1c-1.3,0-2.5,1-2.5,2.8v6.2h-2.7v-11.1h2.6v1.6
		c0.8-1.2,2-1.9,3.5-1.9C238.9,153.3,240.4,154.8,240.4,157.3z"/>
	<path class="st1" d="M250.2,149.4h2.7v15.4h-2.6v-1.6c-0.8,1.2-2,1.8-3.5,1.8s-2.8-0.5-3.6-1.6c-0.9-1.1-1.4-2.5-1.4-4.2
		c0-1.8,0.5-3.2,1.4-4.3s2.1-1.6,3.6-1.6s2.6,0.6,3.4,1.7L250.2,149.4L250.2,149.4z M247.4,162.7c0.9,0,1.6-0.3,2.1-0.9
		c0.5-0.6,0.8-1.5,0.8-2.7c0-2.3-1.1-3.6-2.9-3.6c-1.7,0-2.8,1.3-2.8,3.7c0,1.1,0.3,2,0.8,2.6C245.8,162.4,246.5,162.7,247.4,162.7z
		"/>
	<path class="st1" d="M254.8,164.7v-11.1h2.7v11.1H254.8z M254.8,152.1v-2.5h2.7v2.5H254.8z"/>
	<path class="st1" d="M269.8,160h-8.3c0.2,1.9,1.3,2.9,2.9,2.9c1.3,0,2.1-0.5,2.5-1.6h2.6c-0.6,2.3-2.5,3.7-5.2,3.7
		c-1.7,0-3-0.5-4-1.6s-1.5-2.5-1.5-4.2s0.5-3.2,1.5-4.2c1-1.1,2.3-1.6,4-1.6s3,0.6,4,1.7s1.5,2.6,1.5,4.4V160z M261.5,158.1h5.6
		c-0.2-1.6-1.2-2.7-2.8-2.7C262.8,155.4,261.8,156.3,261.5,158.1z"/>
</g>
</svg>
