<?xml version="1.0" encoding="utf-8"?>
<!-- Generator: Adobe Illustrator 24.3.0, SVG Export Plug-In . SVG Version: 6.00 Build 0)  -->
<svg version="1.1" id="Layer_1" xmlns="http://www.w3.org/2000/svg" xmlns:xlink="http://www.w3.org/1999/xlink" x="0px" y="0px"
	 viewBox="0 0 400 165.7" style="enable-background:new 0 0 400 165.7;" width="400" height="166" xml:space="preserve">
<style type="text/css">
	.st0{fill:#EAE4DF;stroke:#333333;stroke-width:20;stroke-miterlimit:10;}
	.st1{fill:#FFFFFF;}
	.st2{fill:#333333;}
	.st3{fill:#DDDDDD;}
	.st4{fill:#EAE4DF;}
	.st5{fill:none;}
	.st6{fill:#07070C;}
</style>
<g>
	<g>
		<path class="st0" d="M284.5,126.2"/>
		<path class="st0" d="M118.1,34.8"/>
		<g>
			<path class="st1" d="M356.2,103.9c-5.6-14.1-23.9-17.4-40-21.3c-16.1-3.9-23.9-13.1-23.9-13.1c-41.3-34.4-65.2-32.4-65.2-32.4
				s-147.1,0-165.8,0S37.8,36.8,36.5,44c-3.3,20.6,1.3,81.2-3.6,91.1c-0.3,0.7-5.9,0.7-5.9,0.7c-0.7,2.9-0.7,5.9-0.3,7.5l38.3,4.3
				c-0.7-2-0.7-4.3-0.7-6.2c0-14.7,11.8-26.5,26.5-26.5s26.5,11.8,26.5,26.5c0,2.3-0.3,4.6-1,6.9l155.6,1.3c-1-2.6-1.3-5.6-1.3-8.2
				c0-14.7,11.8-26.5,26.5-26.5s26.5,11.8,26.5,26.5c0,2.9-0.7,5.9-1.3,8.8l37.7,0.3l-0.3-25.6C359.5,124.6,361.8,118,356.2,103.9z"
				/>
			<path class="st2" d="M361.8,151.7l-41.6-0.3l0.7-2c1-2.6,1.3-5.6,1.3-8.2c0-13.8-11.1-25.2-24.9-25.2s-24.9,11.1-24.9,25.2
				c0,2.6,0.3,5.2,1.3,7.9l0.7,2l-160.2-1.6l0.7-2c0.7-2,1-4.3,1-6.6c0-13.8-11.1-25.2-24.9-25.2S66,126.8,66,140.9
				c0,2,0.3,3.9,0.7,5.9l0.7,2.3l-41.9-4.6v-1.3c-0.3-2.6,0-5.6,0.3-8.2l0.3-1.3h1.3c1.6,0,3.9-0.3,4.9-0.3c2.3-5.9,2-25.9,2-45.5
				c0-17.4-0.3-35.1,1.3-44.9c0.7-3.9,2.6-6.2,6.2-7.2c3.3-1,8.2-1,16.4-1c1.3,0,2.6,0,3.9,0c6.2,0,26.5,0,51.4,0
				c48.2,0,112,0,114.3,0c0.7,0,6.9-0.3,17.7,3.3c6.6,2.3,13.4,5.6,20.6,9.5c8.8,5.2,18.3,11.8,27.8,19.7l0,0l0,0
				c0,0,7.9,8.8,23.3,12.8c1.6,0.3,3.3,0.7,4.6,1.3c7.5,2,15.1,3.6,21.6,6.9c7.5,3.6,12.4,8.2,14.7,14.4c5.2,13.1,3.9,20.3,3.6,21.6
				V151.7z M324.5,148.5l34.1,0.3l-0.3-24.2v-0.3c0,0,1.6-6.6-3.6-19.7c-4.6-12.1-19.7-15.7-34.1-19c-1.6-0.3-3.3-0.7-4.6-1.3
				C300.2,80.3,292,71.8,291,70.8c-21-17.4-37-25.2-47.2-28.5c-10.8-3.6-16.7-3.3-16.7-3.3l0,0c-1.3,0-147.4,0-165.8,0
				c-1.3,0-2.6,0-3.9,0c-16.4,0-18.7,0.3-19.3,5.6c-1.6,9.2-1.3,27.2-1.3,44.2c0,21.3,0.3,41.6-2.6,47.5c-0.7,1-1.6,1.3-4.6,1.3
				c-0.7,0-1.3,0-1.6,0c-0.3,1.6-0.3,2.9-0.3,4.6l34.7,3.6c-0.3-1.6-0.3-2.9-0.3-4.6c0-15.7,12.8-28.2,28.2-28.2
				c15.4,0,28.2,12.8,28.2,28.2c0,1.6-0.3,3.6-0.3,5.2l151.7,1.3c-0.7-2.3-0.7-4.3-0.7-6.6c0-15.7,12.8-28.2,28.2-28.2
				s28.2,12.8,28.2,28.2C325.4,143.6,325.1,145.8,324.5,148.5z"/>
		</g>
		<g>
			<g>
				<circle class="st3" cx="297.3" cy="141.3" r="21.3"/>
				<path class="st2" d="M297.3,164.2c-12.8,0-22.9-10.5-22.9-22.9s10.5-22.9,22.9-22.9s22.9,10.5,22.9,22.9S310,164.2,297.3,164.2z
					 M297.3,121.3c-10.8,0-20,8.8-20,20c0,10.8,8.8,20,20,20c10.8,0,20-8.8,20-20S308.4,121.3,297.3,121.3z"/>
			</g>
			<g>
				<circle class="st4" cx="297.3" cy="141.3" r="12.1"/>
				<path class="st2" d="M297.3,154.7c-7.5,0-13.4-6.2-13.4-13.4s6.2-13.4,13.4-13.4c7.2,0,13.4,6.2,13.4,13.4
					S304.8,154.7,297.3,154.7z M297.3,130.8c-5.6,0-10.5,4.6-10.5,10.5c0,5.6,4.6,10.5,10.5,10.5c5.6,0,10.5-4.6,10.5-10.5
					S303.2,130.8,297.3,130.8z"/>
			</g>
		</g>
		<g>
			<g>
				<circle class="st3" cx="90.6" cy="141.3" r="21.3"/>
				<path class="st2" d="M90.6,164.2c-12.8,0-22.9-10.5-22.9-22.9s10.5-22.9,22.9-22.9c12.8,0,22.9,10.5,22.9,22.9
					S103.3,164.2,90.6,164.2z M90.6,121.3c-10.8,0-20,8.8-20,20c0,10.8,8.8,20,20,20c10.8,0,20-8.8,20-20S101.4,121.3,90.6,121.3z"
					/>
			</g>
			<g>
				<circle class="st4" cx="90.6" cy="141.3" r="12.1"/>
				<path class="st2" d="M90.6,154.7c-7.5,0-13.4-6.2-13.4-13.4s6.2-13.4,13.4-13.4s13.4,6.2,13.4,13.4S98.1,154.7,90.6,154.7z
					 M90.6,130.8c-5.6,0-10.5,4.6-10.5,10.5c0,5.6,4.6,10.5,10.5,10.5c5.9,0,10.5-4.6,10.5-10.5S96.5,130.8,90.6,130.8z"/>
			</g>
		</g>
		<path class="st0" d="M119.7,145.8"/>
		<path class="st0" d="M115.5,117"/>
		<path class="st2" d="M210.5,147.5l-3.3-0.3l0.3-7.9c1-17.4-0.7-28.5-2-34.7c-1.3-6.6-3.3-9.5-3.3-9.5l-0.3-0.3v-0.3l-0.3-58h3.3
			l0.3,57.3c1.3,2.3,6.9,14.4,5.2,45.5l0,0V147.5z"/>
		<path class="st2" d="M137.4,129.1h-5.6c-0.3,0-0.7,0.3-0.7,0.3v2.3c0,0.3,0.3,0.3,0.3,0.3h5.6c0.3,0,0.7-0.3,0.7-0.3v-2.3
			C137.7,129.5,137.4,129.1,137.4,129.1z"/>
		<path class="st2" d="M264.5,139.9c-3.9-4.6-9.2-6.9-15.1-6.9l0,0c-13.1,0-40.3-2.3-40.6-2.3l0,0l-67.5-1.6c-0.3,0-0.7,0.3-0.7,0.7
			v2.3c0,0.3,0.3,0.7,0.7,0.7l67.2,1.6l0,0c1.3,0,27.8,2.3,40.6,2.3l0,0c4.9,0,9.2,2,12.4,5.9c2,2.3,2.9,4.6,3.6,5.6
			c0,0.3,0.3,0.3,0.7,0.3l2-0.7c0.3,0,0.3-0.3,0.3-0.7C268.1,145.2,266.8,142.6,264.5,139.9z"/>
		<g>
			<path class="st2" d="M118.1,128.5h-2c-0.3,0-0.7,0.3-0.7,0.7v2.3c0,0.3,0.3,0.7,0.7,0.7h2.3c0.3,0,0.7-0.3,0.7-0.7v-2.3
				C118.4,128.8,118.4,128.5,118.1,128.5z"/>
			<path class="st2" d="M121.7,129.1v2.3c0,0.3,0.3,0.7,0.7,0.7h5.6c0.3,0,0.7-0.3,0.7-0.7v-2.3c0-0.3-0.3-0.7-0.7-0.7h-5.6
				C121.7,128.8,121.7,128.8,121.7,129.1z"/>
		</g>
		<g>
			<line class="st5" x1="211.4" y1="97" x2="224.5" y2="97"/>
			<path class="st2" d="M224.5,98.7L224.5,98.7h-13.1c-1,0-1.6-0.7-1.6-1.6s0.7-1.6,1.6-1.6l0,0h13.1c1,0,1.6,0.7,1.6,1.6
				C226.2,98,225.5,98.7,224.5,98.7z"/>
		</g>
		<g>
			<path class="st4" d="M354.3,100.6h-7.2c0,0,1.6,14.1,12.4,16.1"/>
			<path class="st2" d="M359.5,118.3c-4.9-1-8.8-4.3-11.5-9.8c-2-3.9-2.3-7.5-2.3-7.9l-0.3-1.6h8.8v3.3H349
				c1,3.6,3.6,11.5,10.8,13.1L359.5,118.3z"/>
		</g>
		<g>
			<path class="st4" d="M210.1,54.1c0,0-4.3-11.1,12.8-10.2c17,1,30.1,2.3,57.3,28.5c0,0,9.2,6.6,5.6,14.1c-3.6,7.5-18,2-18,2
				L222.9,80c0,0-7.9,0.3-10.5-12.8C210.1,54.1,210.1,54.1,210.1,54.1z"/>
			<path class="st2" d="M277.9,92.1c-4.6,0-9.5-1.6-10.2-2l-44.6-8.5c-0.7,0-2.6-0.3-4.9-1.6c-3.3-2.3-5.9-6.6-6.9-12.4l-2.6-13.1
				c-0.3-1-1.3-4.9,1-8.2c2.3-2.9,6.9-4.6,13.8-3.9c9.5,0.7,16.7,1.3,25.6,4.9c9.8,3.9,20,11.8,32.8,23.9c0.7,0.3,2.6,2,4.3,4.6
				c2.6,3.9,3.3,7.9,1.6,11.5C285.5,90.8,281.9,92.1,277.9,92.1z M223.6,78L223.6,78l45.2,8.8l0,0c0,0,3.6,1.3,7.2,1.6
				c4.6,0.3,7.5-0.7,8.5-2.9c2.9-6.2-4.9-12.1-4.9-12.1l0,0l0,0c-27.5-26.2-40.3-27.2-56.3-28.2c-5.6-0.3-9.2,0.7-10.8,2.6
				c-1.6,2.3-0.7,5.2-0.7,5.2l0,0l0,0l2.6,13.1C216.7,78,222.6,78,223.6,78C223.2,78,223.2,78,223.6,78L223.6,78z"/>
		</g>
		<g>
			<path class="st4" d="M360.2,141.3c0,0-11.1-7.2-37.3-7.2"/>
			<path class="st2" d="M359.2,142.6c0,0-2.9-1.6-8.5-3.6c-5.6-1.6-14.7-3.6-27.8-3.6v-3.3c26.2,0,37.7,7.2,38,7.5L359.2,142.6
				l1-1.3L359.2,142.6z"/>
		</g>
	</g>
	<g>
		<path class="st6" d="M177.4,60.7h-2v-1H163v1h-4.3v-3.3c0-1-1-2-2-2h-2.6h-8.8h-7.9c-1,0-2,1-2,2v3.3h-4.3v-1h-12.4v1h-1.6v4.9
			h1.6v0.7h12.4v-0.7h4.3v9.5c0,1,1,2,2,2h2.6c0,0.3-0.3,0.7-0.3,1v6.6c0,1,1,2,2,2h2v16.1H141v10.5h12.1v-10.5h-2V86.6h0.7
			c1,0,2-1,2-2V78c0-0.3,0-0.7-0.3-1h0.7h2.6c1,0,2-1,2-2v-9.5h4.6v0.7h12.4v-0.7h2v-4.9H177.4z"/>
	</g>
</g>
</svg>
